<svg width="21" height="23" viewBox="0 0 21 23" fill="none" xmlns="http://www.w3.org/2000/svg">
<path d="M8 3.33333C8 2.71449 8.24583 2.121 8.68342 1.68342C9.121 1.24583 9.71449 1 10.3333 1C10.9522 1 11.5457 1.24583 11.9832 1.68342C12.4208 2.121 12.6667 2.71449 12.6667 3.33333C14.0065 3.96687 15.1486 4.95305 15.9707 6.18618C16.7928 7.41932 17.2638 8.85292 17.3333 10.3333V13.8333C17.4211 14.5587 17.678 15.2532 18.0833 15.8611C18.4886 16.4691 19.0309 16.9733 19.6667 17.3333H1C1.63576 16.9733 2.17811 16.4691 2.58339 15.8611C2.98866 15.2532 3.24554 14.5587 3.33333 13.8333V10.3333C3.40282 8.85292 3.87385 7.41932 4.69594 6.18618C5.51803 4.95305 6.66019 3.96687 8 3.33333Z" stroke="#192A44" stroke-width="1.5" stroke-linecap="round" stroke-linejoin="round"/>
<path d="M6.83301 17.3335V18.5002C6.83301 19.4284 7.20176 20.3187 7.85813 20.975C8.51451 21.6314 9.40475 22.0002 10.333 22.0002C11.2613 22.0002 12.1515 21.6314 12.8079 20.975C13.4643 20.3187 13.833 19.4284 13.833 18.5002V17.3335" stroke="#192A44" stroke-width="1.5" stroke-linecap="round" stroke-linejoin="round"/>
</svg>
