<svg width="23" height="23" viewBox="0 0 23 23" fill="none" xmlns="http://www.w3.org/2000/svg">
<path d="M8.39896 1H14.4344C14.8449 0.999952 15.2514 1.08079 15.6307 1.2379C16.01 1.395 16.3546 1.6253 16.6448 1.91563L20.9167 6.18646C21.2076 6.47699 21.4383 6.82205 21.5956 7.20189C21.7529 7.58173 21.8337 7.98888 21.8333 8.4V14.4354C21.8334 14.8459 21.7525 15.2525 21.5954 15.6317C21.4383 16.011 21.208 16.3556 20.9177 16.6458L16.6469 20.9177C16.3566 21.2083 16.0119 21.4389 15.6324 21.5962C15.2529 21.7535 14.8462 21.8344 14.4354 21.8344H8.39896C7.98836 21.8343 7.58181 21.7533 7.20253 21.596C6.82326 21.4387 6.4787 21.2082 6.18854 20.9177L1.91667 16.6469C1.6259 16.3565 1.39527 16.0116 1.23798 15.6319C1.08068 15.2523 0.999814 14.8453 1 14.4344V8.39896C0.999951 7.98844 1.08079 7.58193 1.2379 7.20265C1.395 6.82338 1.6253 6.47878 1.91563 6.18854L6.18646 1.91667C6.47699 1.62578 6.82205 1.39508 7.20189 1.23778C7.58173 1.08048 7.98888 0.999678 8.4 1H8.39896Z" stroke="#192A44" stroke-width="1.5" stroke-linecap="round" stroke-linejoin="round"/>
<path d="M11.5625 15.2915V15.3032" stroke="#192A44" stroke-width="1.5" stroke-linecap="round" stroke-linejoin="round"/>
<path d="M10 7.72996C10.3008 7.37458 10.713 7.13144 11.1696 7.04009C11.6262 6.94874 12.1002 7.01456 12.5146 7.22684C12.932 7.43953 13.2656 7.78671 13.4614 8.21232C13.6572 8.63792 13.7039 9.11711 13.5938 9.57249C13.4837 10.0279 13.2234 10.4329 12.8548 10.7221C12.4863 11.0113 12.031 11.1678 11.5625 11.1664V13.2085" stroke="#192A44" stroke-width="1.5" stroke-linecap="round" stroke-linejoin="round"/>
</svg>
