<svg xmlns="http://www.w3.org/2000/svg" width="20.649" height="20.649" viewBox="0 0 20.649 20.649">
    <path data-name="Icon material-call" d="M8.653 13.437A17.378 17.378 0 0 0 16.213 21l2.524-2.524a1.141 1.141 0 0 1 1.17-.275 13.086 13.086 0 0 0 4.1.654A1.151 1.151 0 0 1 25.149 20v4A1.151 1.151 0 0 1 24 25.149 19.5 19.5 0 0 1 4.5 5.647 1.151 1.151 0 0 1 5.647 4.5h4.015a1.151 1.151 0 0 1 1.148 1.147 13.032 13.032 0 0 0 .654 4.1 1.151 1.151 0 0 1-.287 1.17z" transform="translate(-4.5 -4.5)" style="fill:#fff"/>
</svg>
