<svg data-name="Group 240" xmlns="http://www.w3.org/2000/svg" width="11.84" height="22.823" viewBox="0 0 11.84 22.823">
    <path data-name="Path 1069" d="M554.212 90c.384.03.768.059 1.151.09.265.022.53.047.8.071v3.63h-.312c-.765.011-1.532 0-2.3.04a1.431 1.431 0 0 0-1.518 1.5c-.044.993-.01 1.99-.01 3.019h4l-.525 4.069h-3.486v10.4h-4.195V102.43h-3.5v-4.063h3.5v-.287c0-1.063-.022-2.127.022-3.189a5.083 5.083 0 0 1 1.333-3.41 4.639 4.639 0 0 1 2.512-1.344c.26-.054.523-.093.785-.138z" transform="translate(-544.324 -90)" style="fill:#fff"/>
</svg>
