<svg id="instagram_1_" data-name="instagram (1)" xmlns="http://www.w3.org/2000/svg" width="22.819" height="22.823" viewBox="0 0 22.819 22.823">
    <defs>
        <style>
            .cls-1{fill:#fff}
        </style>
    </defs>
    <path id="Path_1060" data-name="Path 1060" class="cls-1" d="M23.209 6.71a8.34 8.34 0 0 0-.53-2.769A5.847 5.847 0 0 0 19.339.6 8.361 8.361 0 0 0 16.57.07C15.349.013 14.961 0 11.862 0s-3.487.013-4.7.067A8.342 8.342 0 0 0 4.39.6a5.569 5.569 0 0 0-2.024 1.32A5.619 5.619 0 0 0 1.05 3.937a8.362 8.362 0 0 0-.53 2.769C.462 7.927.449 8.315.449 11.414s.013 3.487.067 4.7a8.339 8.339 0 0 0 .531 2.769 5.846 5.846 0 0 0 3.339 3.339 8.362 8.362 0 0 0 2.769.53c1.217.054 1.605.067 4.7.067s3.487-.013 4.7-.067a8.338 8.338 0 0 0 2.769-.53 5.838 5.838 0 0 0 3.34-3.339 8.368 8.368 0 0 0 .53-2.769c.053-1.217.067-1.605.067-4.7s0-3.487-.058-4.7zm-2.055 9.318a6.256 6.256 0 0 1-.392 2.118 3.786 3.786 0 0 1-2.167 2.167 6.278 6.278 0 0 1-2.118.392c-1.2.054-1.565.067-4.61.067s-3.411-.013-4.61-.067a6.252 6.252 0 0 1-2.118-.392 3.512 3.512 0 0 1-1.311-.852 3.548 3.548 0 0 1-.852-1.311 6.279 6.279 0 0 1-.392-2.118c-.054-1.2-.067-1.565-.067-4.61s.013-3.411.067-4.61a6.252 6.252 0 0 1 .392-2.118 3.469 3.469 0 0 1 .856-1.311 3.543 3.543 0 0 1 1.311-.851 6.282 6.282 0 0 1 2.118-.392c1.2-.053 1.565-.067 4.61-.067s3.411.013 4.61.067a6.256 6.256 0 0 1 2.118.392 3.509 3.509 0 0 1 1.311.851 3.548 3.548 0 0 1 .852 1.311 6.281 6.281 0 0 1 .392 2.118c.053 1.2.067 1.565.067 4.61s-.013 3.4-.067 4.606zm0 0" transform="translate(-.449)"/>
    <path id="Path_1061" data-name="Path 1061" class="cls-1" d="M130.812 124.5a5.863 5.863 0 1 0 5.863 5.863 5.864 5.864 0 0 0-5.863-5.863zm0 9.666a3.8 3.8 0 1 1 3.8-3.8 3.8 3.8 0 0 1-3.8 3.8zm0 0" transform="translate(-119.398 -118.949)"/>
    <path id="Path_1062" data-name="Path 1062" class="cls-1" d="M365.187 89.971a1.369 1.369 0 1 1-1.369-1.369 1.369 1.369 0 0 1 1.369 1.369zm0 0" transform="translate(-346.31 -84.651)"/>
</svg>
