<svg id="Group_241" data-name="Group 241" xmlns="http://www.w3.org/2000/svg" width="21.863" height="21.85" viewBox="0 0 21.863 21.85">
    <defs>
        <style>
            .cls-1{fill:#fff}
        </style>
    </defs>
    <path id="Path_1066" data-name="Path 1066" class="cls-1" d="M598.231 482.2h-4.512v-14.565h4.315v1.965c.06-.034.089-.04.1-.058a4.708 4.708 0 0 1 4.133-2.265 6.263 6.263 0 0 1 2.91.526 4.193 4.193 0 0 1 2.232 2.777 10.6 10.6 0 0 1 .4 3c.019 2.81.012 5.62.014 8.429 0 .043-.006.086-.011.146h-4.524v-.3c0-2.383.006-4.766-.009-7.149a9.294 9.294 0 0 0-.144-1.616 2.1 2.1 0 0 0-2.636-1.834 2.317 2.317 0 0 0-2.16 2.26 11.032 11.032 0 0 0-.107 1.514c-.011 2.276 0 4.553 0 6.829z" transform="translate(-585.963 -460.351)"/>
    <path id="Path_1067" data-name="Path 1067" class="cls-1" d="M490.144 472.344h4.507V486.9h-4.507z" transform="translate(-489.769 -465.063)"/>
    <path id="Path_1068" data-name="Path 1068" class="cls-1" d="M490.122 372.789a2.622 2.622 0 1 1-2.638-2.615 2.644 2.644 0 0 1 2.638 2.615z" transform="translate(-484.878 -370.173)"/>
</svg>
