<svg data-name="Group 243" xmlns="http://www.w3.org/2000/svg" width="26.746" height="21.849" viewBox="0 0 26.746 21.849">
    <path data-name="Path 1071" d="M903.975 86.39a5.709 5.709 0 0 1-5.061-3.783c.443 0 .835.015 1.224 0a6.675 6.675 0 0 0 1.144-.162 5.908 5.908 0 0 1-3.091-1.983 5.377 5.377 0 0 1-1.216-3.469 5.656 5.656 0 0 0 2.416.619 5.66 5.66 0 0 1-1.675-7.364 15.826 15.826 0 0 0 11.414 5.79c-.011-.138-.013-.229-.027-.319a5.471 5.471 0 0 1 .8-3.93 5.51 5.51 0 0 1 8.485-.959.406.406 0 0 0 .424.107 11 11 0 0 0 2.944-1.109c.067-.038.139-.066.268-.126a5.5 5.5 0 0 1-2.306 2.928l.023.064c.325-.059.653-.107.974-.18.341-.078.68-.171 1.015-.274s.643-.222.964-.335l.056.05c-.422.494-.822 1.01-1.273 1.476a15.632 15.632 0 0 1-1.244 1.092.484.484 0 0 0-.2.426 15.719 15.719 0 0 1-3.058 9.816 14.694 14.694 0 0 1-9.447 6.043 16.325 16.325 0 0 1-4.372.251 15.385 15.385 0 0 1-7.036-2.283c-.027-.017-.051-.038-.119-.09a11.08 11.08 0 0 0 7.974-2.296z" transform="translate(-895.999 -69.254)" style="fill:#fff"/>
</svg>
