<svg width="18" height="19" viewBox="0 0 18 19" fill="none" xmlns="http://www.w3.org/2000/svg">
<path d="M6.37109 11.3705H11.6211M6.37109 7.62012H8.9961" stroke="#808095" stroke-width="1.15589" stroke-linecap="round" stroke-linejoin="round"/>
<path d="M10.6319 16.1713C13.7691 15.9628 16.2681 13.4281 16.4738 10.246C16.514 9.62328 16.514 8.97835 16.4738 8.35564C16.2681 5.17355 13.7691 2.63883 10.6319 2.43026C9.56153 2.35911 8.4441 2.35926 7.37595 2.43026C4.2387 2.63883 1.73971 5.17355 1.53408 8.35564C1.49385 8.97835 1.49385 9.62328 1.53408 10.246C1.60898 11.4049 2.12148 12.478 2.72484 13.3841C3.07516 14.0185 2.84396 14.8102 2.47906 15.5017C2.21596 16.0004 2.08441 16.2497 2.19003 16.4298C2.29566 16.6099 2.5316 16.6157 3.00348 16.6272C3.93666 16.6499 4.56591 16.3853 5.06541 16.0169C5.3487 15.808 5.49036 15.7035 5.58798 15.6915C5.6856 15.6795 5.87773 15.7587 6.26191 15.9169C6.6072 16.0591 7.00812 16.1469 7.37595 16.1713C8.4441 16.2424 9.56153 16.2425 10.6319 16.1713Z" stroke="#808095" stroke-width="1.15589" stroke-linejoin="round"/>
</svg>
