<svg width="23" height="29" viewBox="0 0 23 29" fill="none" xmlns="http://www.w3.org/2000/svg">
<path d="M19.8884 10.7481L19.1432 10.8327L19.8884 10.7481ZM20.4846 16.0013L21.2299 15.9167L20.4846 16.0013ZM2.65338 16.0013L1.90816 15.9167L2.65338 16.0013ZM3.24963 10.7481L3.99485 10.8327L3.24963 10.7481ZM1.49939 18.6104L0.928294 18.1242H0.928294L1.49939 18.6104ZM21.6386 18.6104L21.0675 19.0965L21.6386 18.6104ZM14.5956 4.61299H13.8456C13.8456 4.93358 14.0494 5.21872 14.3527 5.32256L14.5956 4.61299ZM8.54242 4.61299L8.78535 5.32256C9.08865 5.21872 9.29242 4.93358 9.29242 4.61299H8.54242ZM16.2713 25.7105C16.4167 25.3226 16.2201 24.8903 15.8322 24.7449C15.4444 24.5996 15.0121 24.7962 14.8667 25.184L16.2713 25.7105ZM8.27131 25.184C8.12594 24.7962 7.69367 24.5996 7.3058 24.7449C6.91793 24.8903 6.72135 25.3226 6.86672 25.7105L8.27131 25.184ZM19.2719 22.0307H3.8661V23.5307H19.2719V22.0307ZM19.1432 10.8327L19.7394 16.0859L21.2299 15.9167L20.6336 10.6635L19.1432 10.8327ZM3.3986 16.0859L3.99485 10.8327L2.50442 10.6635L1.90816 15.9167L3.3986 16.0859ZM2.07049 19.0965C2.80969 18.2282 3.27354 17.1877 3.3986 16.0859L1.90816 15.9167C1.81845 16.7072 1.48417 17.4712 0.928294 18.1242L2.07049 19.0965ZM19.7394 16.0859C19.8645 17.1877 20.3283 18.2282 21.0675 19.0965L22.2097 18.1242C21.6539 17.4712 21.3196 16.7072 21.2299 15.9167L19.7394 16.0859ZM3.8661 22.0307C2.90631 22.0307 2.20363 21.5535 1.87232 20.9697C1.54842 20.399 1.55591 19.701 2.07049 19.0965L0.928294 18.1242C-0.0198269 19.238 -0.0479096 20.6252 0.567759 21.7101C1.17602 22.7819 2.38804 23.5307 3.8661 23.5307V22.0307ZM19.2719 23.5307C20.75 23.5307 21.962 22.7819 22.5703 21.7101C23.1859 20.6252 23.1579 19.238 22.2097 18.1242L21.0675 19.0965C21.5821 19.701 21.5896 20.399 21.2657 20.9697C20.9344 21.5535 20.2317 22.0307 19.2719 22.0307V23.5307ZM15.3456 4.61299V4.47471H13.8456V4.61299H15.3456ZM20.6336 10.6635C20.274 7.49509 17.9203 4.95855 14.8385 3.90343L14.3527 5.32256C16.9839 6.22343 18.8598 8.33588 19.1432 10.8327L20.6336 10.6635ZM9.29242 4.61299V4.47471H7.79242V4.61299H9.29242ZM3.99485 10.8327C4.27824 8.33588 6.15408 6.22343 8.78535 5.32256L8.29948 3.90343C5.21769 4.95855 2.86404 7.49509 2.50442 10.6635L3.99485 10.8327ZM11.569 2.19824C12.8264 2.19824 13.8456 3.21748 13.8456 4.47471H15.3456C15.3456 2.389 13.6547 0.698242 11.569 0.698242V2.19824ZM11.569 0.698242C9.48329 0.698242 7.79242 2.389 7.79242 4.47471H9.29242C9.29242 3.21748 10.3117 2.19824 11.569 2.19824V0.698242ZM14.8667 25.184C14.3984 26.4335 13.1153 27.3638 11.569 27.3638V28.8638C13.7161 28.8638 15.5751 27.5681 16.2713 25.7105L14.8667 25.184ZM11.569 27.3638C10.0227 27.3638 8.73958 26.4335 8.27131 25.184L6.86672 25.7105C7.56294 27.5681 9.42188 28.8638 11.569 28.8638V27.3638Z" fill="#4E1FA3"/>
</svg>
