<svg width="188" height="32" viewBox="0 0 188 32" fill="none" xmlns="http://www.w3.org/2000/svg">
<g id="Layer_1" clip-path="url(#clip0_82_65)">
<path id="Vector" d="M47.8299 14.9975H53.1051C56.6807 14.9975 57.9439 13.6902 57.9439 9.85338C57.9439 6.01652 56.7232 4.44615 53.6721 4.44615H47.8299V14.9975ZM43.7313 31.0411V0.958984H53.7146C59.6451 0.958984 62.0425 3.53105 62.0425 9.80926C62.0425 14.1249 60.2547 16.9159 56.6791 17.8752L63.9594 31.0411H59.2938L52.6671 18.4847H47.8266V31.0411H43.728H43.7313Z" fill="white"/>
<path id="Vector_2" d="M127.268 20.0109L123.039 4.22881L118.767 20.0109H127.268ZM116.935 31.0411H113.011V29.4282C113.011 27.2484 113.054 26.3757 113.623 24.3266L120.336 0.958984H125.83L132.545 24.3266C133.112 26.3757 133.156 27.2467 133.156 29.4282V31.0411H129.102V28.5556C129.102 27.2042 128.84 25.9836 128.535 24.807L128.143 23.4115H117.896L117.504 24.807C117.198 25.9836 116.937 27.2042 116.937 28.5556V31.0411H116.935Z" fill="white"/>
<path id="Vector_3" d="M141.306 17.0467V27.6405H148.021C150.941 27.6405 152.337 25.678 152.337 22.3657C152.337 18.7903 151.072 17.0467 148.108 17.0467H141.306ZM141.306 4.35954V13.6461H147.671C150.418 13.6461 151.378 12.3388 151.378 8.80592C151.378 5.49361 150.463 4.35954 147.715 4.35954H141.306ZM137.208 31.0411V0.958984H147.89C153.471 0.958984 155.476 3.44445 155.476 8.71932C155.476 12.5121 154.081 14.5171 151.378 15.2149C154.909 15.8685 156.436 18.135 156.436 22.364C156.436 28.1193 153.602 31.0395 147.933 31.0395H137.208V31.0411Z" fill="white"/>
<g id="Group">
<path id="Vector_4" d="M83.5388 31.0411H67.0579V0.958984H83.408V4.44615H71.1548V13.8635H81.0532V17.3523H71.1548V27.5539H83.5388V31.0411Z" fill="white"/>
<path id="Vector_5" d="M93.8277 0.958984L105.12 26.9428V0.958984H108.955V31.0411H102.896L91.3845 4.75173V31.0411H87.5491V0.958984H93.8277Z" fill="white"/>
<path id="Vector_6" d="M165.242 0.958984H161.144V31.0411H165.242V0.958984Z" fill="white"/>
<path id="Vector_7" d="M168.468 4.44615V0.958984H188V4.44615H180.283V31.0411H176.185V4.44615H168.468Z" fill="white"/>
<path id="Vector_8" d="M40.3778 1.28589V30.9497H30.1232V8.16708L30.1363 8.15237H30.1232V8.16708L15.3893 22.9001V22.9017L7.24931 31.0412H0V23.7891L15.6344 8.15237L22.5029 1.28589H40.3778Z" fill="#EB5B1B"/>
</g>
<path id="Vector_9" d="M184.044 30.6293C184.8 30.631 185.416 30.0182 185.42 29.26C185.423 28.5001 184.808 27.884 184.047 27.8808C183.292 27.8791 182.676 28.4936 182.672 29.2518C182.669 30.0084 183.285 30.6261 184.045 30.6277M185.661 29.2534C185.658 30.1522 184.939 30.8712 184.047 30.8679C183.145 30.8646 182.429 30.144 182.434 29.2403C182.439 28.3547 183.164 27.6357 184.048 27.6389C184.946 27.6438 185.665 28.3645 185.661 29.2534Z" fill="white"/>
<path id="Vector_10" d="M183.99 29.1358C183.897 29.1587 183.802 29.1538 183.704 29.1505V28.657C183.821 28.657 183.941 28.6488 184.052 28.6913C184.127 28.7207 184.173 28.7747 184.184 28.8547C184.204 29.0067 184.14 29.1015 183.99 29.1358ZM184.238 29.3727C184.256 29.3629 184.271 29.3548 184.287 29.3482C184.374 29.3008 184.446 29.2404 184.5 29.1587C184.585 29.0247 184.593 28.8792 184.56 28.7289C184.526 28.5851 184.439 28.4838 184.305 28.4233C184.189 28.3694 184.063 28.3465 183.936 28.3449C183.74 28.3433 183.542 28.3449 183.348 28.3433C183.338 28.3433 183.33 28.3449 183.318 28.3449V30.1636H183.701V29.4675H183.877C183.902 29.4659 183.915 29.4741 183.926 29.4937C184.06 29.7094 184.194 29.9251 184.328 30.1408C184.339 30.1587 184.351 30.1653 184.372 30.1653C184.493 30.1636 184.616 30.1653 184.737 30.1636C184.745 30.1636 184.755 30.1636 184.768 30.162C184.59 29.8989 184.415 29.6375 184.237 29.3727" fill="white"/>
</g>
<defs>
<clipPath id="clip0_82_65">
<rect width="188" height="30.0821" fill="white" transform="translate(0 0.958984)"/>
</clipPath>
</defs>
</svg>
