<svg xmlns="http://www.w3.org/2000/svg" width="355.652" height="74" viewBox="0 0 355.652 74">
    <defs>
        <style>
            .cls-1{fill:#022957}.cls-2{fill:#fff}.cls-4{fill:#7c7c7c}
        </style>
    </defs>
    <g id="Group_947" transform="translate(307.192 306.02)">
        <path id="Rectangle_260" d="M0 0H74V74H0z" class="cls-1" transform="translate(-307.192 -306.02)"/>
        <g id="Group_944" transform="translate(-299.254 -299.014)">
            <g id="Group_940">
                <path id="Path_615" d="M-244.836-239.71h-52.1a2.951 2.951 0 0 1-2.946-2.947v-53.967a2.95 2.95 0 0 1 2.946-2.946h52.1a2.95 2.95 0 0 1 2.946 2.946v53.967a2.951 2.951 0 0 1-2.946 2.947zm-52.1-59.058a2.146 2.146 0 0 0-2.143 2.143v53.967a2.145 2.145 0 0 0 2.143 2.142h52.1a2.145 2.145 0 0 0 2.143-2.142v-53.967a2.146 2.146 0 0 0-2.143-2.143z" class="cls-2" transform="translate(299.885 299.571)"/>
            </g>
            <g id="Group_943" transform="translate(9.437 6.782)">
                <g id="Group_941">
                    <path id="Path_616" d="M-291.2-258.552v-34.776h13.119a31.772 31.772 0 0 1 5.29.332 10.493 10.493 0 0 1 4.292 1.625 8.535 8.535 0 0 1 2.788 3.358 10.656 10.656 0 0 1 1.056 4.743 10.683 10.683 0 0 1-2.823 7.507q-2.822 3.073-10.2 3.072h-8.92v14.138zm4.6-18.241h8.99q4.46 0 6.335-1.661a5.919 5.919 0 0 0 1.874-4.674 6.286 6.286 0 0 0-1.1-3.735 5.164 5.164 0 0 0-2.906-2.052 19.664 19.664 0 0 0-4.292-.309h-8.9z" class="cls-2" transform="translate(291.198 293.328)"/>
                </g>
                <g id="Group_942" transform="translate(9.297)">
                    <path id="Path_617" d="M-257.281-270.845l4.465 1.128a15.027 15.027 0 0 1-5.052 8.388 13.918 13.918 0 0 1-8.917 2.888 16.022 16.022 0 0 1-8.871-2.221 13.859 13.859 0 0 1-5.2-6.431 22.941 22.941 0 0 1-1.784-9.044 19.891 19.891 0 0 1 2.013-9.194 13.8 13.8 0 0 1 5.731-5.96 16.741 16.741 0 0 1 8.18-2.037 13.828 13.828 0 0 1 8.515 2.578 13.383 13.383 0 0 1 4.809 7.248l-4.4 1.036a10.423 10.423 0 0 0-3.406-5.362 9.073 9.073 0 0 0-5.614-1.68 10.9 10.9 0 0 0-6.5 1.864 9.839 9.839 0 0 0-3.671 5 20.133 20.133 0 0 0-1.058 6.478 20.575 20.575 0 0 0 1.254 7.513 9.348 9.348 0 0 0 3.9 4.8 10.945 10.945 0 0 0 5.731 1.587 9.6 9.6 0 0 0 6.351-2.163 11.073 11.073 0 0 0 3.524-6.416z" class="cls-2" transform="translate(282.64 293.328)"/>
                </g>
                <path id="Path_618" d="M-265.055-274.471h-3.68l-9.913 25.811h3.627l2.512-6.927 1.324-3.673h-.015l2.834-7.57a32.852 32.852 0 0 0 1.391-4.93q.6 2.1 1.832 5.353l2.292 6.081 1.695 4.464 2.773 7.2h3.89z" class="cls-2" transform="translate(292.282 294.957)"/>
            </g>
        </g>
        <g id="Group_945" transform="translate(-217.327 -292.701)">
            <path id="Path_619" d="M-219.277-283.676v5.314a3.728 3.728 0 0 0 .376 2.139 1.935 1.935 0 0 0 1.548.592h.7v.5h-7.817v-.5h.687a1.835 1.835 0 0 0 1.656-.754 4.439 4.439 0 0 0 .268-1.977v-11.786a3.853 3.853 0 0 0-.363-2.139 1.979 1.979 0 0 0-1.561-.591h-.687v-.5h6.688a11.824 11.824 0 0 1 3.86.505 5.313 5.313 0 0 1 2.382 1.7 4.377 4.377 0 0 1 .968 2.839 4.784 4.784 0 0 1-1.473 3.633 5.808 5.808 0 0 1-4.164 1.4 11.7 11.7 0 0 1-1.426-.095q-.765-.092-1.642-.28zm0-.767q.712.135 1.265.2a8.028 8.028 0 0 0 .942.067 3.2 3.2 0 0 0 2.414-1.083 3.931 3.931 0 0 0 1.017-2.8 5.053 5.053 0 0 0-.485-2.2 3.339 3.339 0 0 0-1.372-1.52 4.009 4.009 0 0 0-2.018-.505 7.955 7.955 0 0 0-1.762.256z" class="cls-1" transform="translate(224.471 293.793)"/>
            <path id="Path_620" d="M-204.018-284.913h8.476v-5.22a6.125 6.125 0 0 0-.175-1.844 1.2 1.2 0 0 0-.565-.578 2.477 2.477 0 0 0-1.224-.323h-.645v-.5h7.8v.5h-.645a2.554 2.554 0 0 0-1.224.309 1.131 1.131 0 0 0-.584.653 6.43 6.43 0 0 0-.155 1.783v11.772a6.054 6.054 0 0 0 .175 1.829 1.209 1.209 0 0 0 .552.579 2.544 2.544 0 0 0 1.237.323h.645v.5h-7.8v-.5h.645a1.935 1.935 0 0 0 1.628-.659 3.96 3.96 0 0 0 .336-2.072v-5.557h-8.476v5.557a6.055 6.055 0 0 0 .175 1.829 1.207 1.207 0 0 0 .565.579 2.474 2.474 0 0 0 1.224.323h.659v.5h-7.816v-.5h.646a1.952 1.952 0 0 0 1.642-.659 4.1 4.1 0 0 0 .322-2.072v-11.772a6.088 6.088 0 0 0-.175-1.844 1.208 1.208 0 0 0-.552-.578 2.549 2.549 0 0 0-1.236-.323h-.646v-.5h7.816v.5h-.659a2.554 2.554 0 0 0-1.224.309 1.165 1.165 0 0 0-.578.653 6.222 6.222 0 0 0-.162 1.783z" class="cls-1" transform="translate(225.789 293.793)"/>
            <path id="Path_621" d="M-181.739-275.63v.5h-7.817v-.5h.645a1.953 1.953 0 0 0 1.643-.659 4.111 4.111 0 0 0 .323-2.072v-11.786a6.055 6.055 0 0 0-.175-1.829 1.213 1.213 0 0 0-.552-.578 2.554 2.554 0 0 0-1.238-.323h-.645v-.5h7.817v.5h-.661a1.933 1.933 0 0 0-1.627.658 3.952 3.952 0 0 0-.336 2.072v11.786a6.018 6.018 0 0 0 .175 1.829 1.209 1.209 0 0 0 .564.579 2.48 2.48 0 0 0 1.224.323z" class="cls-1" transform="translate(227.486 293.793)"/>
            <path id="Path_622" d="M-164.85-280.178l.444.094-1.561 4.951h-14.126v-.5h.687a1.832 1.832 0 0 0 1.655-.754 4.346 4.346 0 0 0 .282-1.99v-11.773a3.782 3.782 0 0 0-.376-2.139 1.979 1.979 0 0 0-1.561-.591h-.687v-.5h8.261v.5a5.034 5.034 0 0 0-2.038.268 1.647 1.647 0 0 0-.8.713 5.917 5.917 0 0 0-.214 2.059v11.463a3.752 3.752 0 0 0 .214 1.533.959.959 0 0 0 .5.417 8.7 8.7 0 0 0 2.1.135h1.332a9.656 9.656 0 0 0 2.947-.31 3.839 3.839 0 0 0 1.546-1.1 8.992 8.992 0 0 0 1.395-2.476z" class="cls-1" transform="translate(228.304 293.793)"/>
            <path id="Path_623" d="M-148.216-280.178l.443.094-1.56 4.951h-14.126v-.5h.687a1.829 1.829 0 0 0 1.653-.754 4.326 4.326 0 0 0 .284-1.99v-11.773a3.769 3.769 0 0 0-.377-2.139 1.975 1.975 0 0 0-1.56-.591h-.687v-.5h8.261v.5a5.033 5.033 0 0 0-2.038.268 1.647 1.647 0 0 0-.8.713 5.889 5.889 0 0 0-.214 2.059v11.463a3.732 3.732 0 0 0 .214 1.533.959.959 0 0 0 .5.417 8.7 8.7 0 0 0 2.1.135h1.331a9.646 9.646 0 0 0 2.947-.31 3.842 3.842 0 0 0 1.547-1.1 8.992 8.992 0 0 0 1.395-2.476z" class="cls-1" transform="translate(229.74 293.793)"/>
            <path id="Path_624" d="M-138.885-275.63v.5h-7.815v-.5h.645a1.95 1.95 0 0 0 1.642-.659 4.1 4.1 0 0 0 .323-2.072v-11.786a6.055 6.055 0 0 0-.175-1.829 1.213 1.213 0 0 0-.552-.578 2.55 2.55 0 0 0-1.237-.323h-.645v-.5h7.816v.5h-.659a1.93 1.93 0 0 0-1.627.658 3.948 3.948 0 0 0-.337 2.072v11.786a6.054 6.054 0 0 0 .175 1.829 1.207 1.207 0 0 0 .565.579 2.474 2.474 0 0 0 1.224.323z" class="cls-1" transform="translate(231.187 293.793)"/>
            <path id="Path_625" d="M-132.132-283.676v5.314a3.716 3.716 0 0 0 .377 2.139 1.934 1.934 0 0 0 1.548.592h.7v.5h-7.816v-.5h.687a1.833 1.833 0 0 0 1.655-.754 4.44 4.44 0 0 0 .268-1.977v-11.786a3.843 3.843 0 0 0-.363-2.139 1.977 1.977 0 0 0-1.56-.591h-.687v-.5h6.687a11.831 11.831 0 0 1 3.861.505 5.31 5.31 0 0 1 2.381 1.7 4.372 4.372 0 0 1 .969 2.839 4.781 4.781 0 0 1-1.475 3.634 5.8 5.8 0 0 1-4.164 1.4 11.7 11.7 0 0 1-1.425-.095q-.769-.093-1.643-.281zm0-.767c.476.09.9.158 1.265.2a8.043 8.043 0 0 0 .942.067 3.2 3.2 0 0 0 2.415-1.083 3.936 3.936 0 0 0 1.017-2.8 5.054 5.054 0 0 0-.486-2.2 3.343 3.343 0 0 0-1.371-1.52 4.013 4.013 0 0 0-2.02-.505 7.955 7.955 0 0 0-1.762.256z" class="cls-1" transform="translate(231.997 293.793)"/>
            <path id="Path_626" d="M-110-293.76v6.31h-.5a7.864 7.864 0 0 0-.867-2.892 4.53 4.53 0 0 0-1.784-1.709 4.929 4.929 0 0 0-2.394-.632 3.256 3.256 0 0 0-2.314.855 2.6 2.6 0 0 0-.914 1.943 2.3 2.3 0 0 0 .578 1.521 14.876 14.876 0 0 0 3.968 2.69 27.407 27.407 0 0 1 3.492 2.105 5.143 5.143 0 0 1 1.438 1.728 4.555 4.555 0 0 1 .505 2.086 4.722 4.722 0 0 1-1.607 3.572 5.825 5.825 0 0 1-4.138 1.5 8.688 8.688 0 0 1-1.494-.122 14.953 14.953 0 0 1-1.728-.491 7.8 7.8 0 0 0-1.661-.424.7.7 0 0 0-.531.2 1.607 1.607 0 0 0-.29.834h-.5v-6.256h.5A8.848 8.848 0 0 0-119.3-278a4.528 4.528 0 0 0 1.81 1.622 5.614 5.614 0 0 0 2.67.645 3.8 3.8 0 0 0 2.657-.888 2.753 2.753 0 0 0 .976-2.1 2.846 2.846 0 0 0-.37-1.358 4.067 4.067 0 0 0-1.149-1.279 33.33 33.33 0 0 0-2.866-1.714 27.924 27.924 0 0 1-3.331-2.092 5.644 5.644 0 0 1-1.5-1.723 4.263 4.263 0 0 1-.512-2.071 4.493 4.493 0 0 1 1.507-3.384 5.368 5.368 0 0 1 3.835-1.42 7.7 7.7 0 0 1 3.081.713 3.166 3.166 0 0 0 1.061.338.8.8 0 0 0 .573-.21 1.662 1.662 0 0 0 .356-.841z" class="cls-1" transform="translate(233.415 293.76)"/>
            <path id="Path_627" d="M-85.792-286.844h5.65v.5a3.321 3.321 0 0 0-1.729.518 9.93 9.93 0 0 0-1.741 2.563 28.813 28.813 0 0 1-2.664 4 9.291 9.291 0 0 0 2.139 1.958 3.678 3.678 0 0 0 1.9.558 2.475 2.475 0 0 0 1.574-.505 2.726 2.726 0 0 0 .915-1.486l.5.364a5.179 5.179 0 0 1-1.6 2.8 3.943 3.943 0 0 1-2.569.9 4.789 4.789 0 0 1-2.241-.6 10.041 10.041 0 0 1-2.481-2.025 11.648 11.648 0 0 1-3.008 2.051 7.193 7.193 0 0 1-2.858.573 5.047 5.047 0 0 1-3.525-1.184 3.69 3.69 0 0 1-1.3-2.826 5.535 5.535 0 0 1 1.17-3.248 13.076 13.076 0 0 1 4.4-3.357 14.686 14.686 0 0 1-.86-2.294 6.934 6.934 0 0 1-.229-1.715 4.049 4.049 0 0 1 1.7-3.511 5.028 5.028 0 0 1 3-.942 3.657 3.657 0 0 1 2.611.948 3.08 3.08 0 0 1 1.009 2.335 3.612 3.612 0 0 1-.976 2.5 12.643 12.643 0 0 1-3.451 2.355 54.569 54.569 0 0 0 3.565 5.57q2.368-2.826 2.367-4.763a1.679 1.679 0 0 0-.4-1.1 1.232 1.232 0 0 0-.847-.43zm-3.055 8.758q-1.775-2.421-2.461-3.538t-1.508-2.771a7.683 7.683 0 0 0-2.428 2.045 4.029 4.029 0 0 0-.814 2.422 3.787 3.787 0 0 0 .928 2.529 3.118 3.118 0 0 0 2.5 1.09 4.136 4.136 0 0 0 1.635-.336 10.225 10.225 0 0 0 2.149-1.441zm-2.085-8.408a7.121 7.121 0 0 0 2.5-1.8 3.454 3.454 0 0 0 .828-2.247 2.234 2.234 0 0 0-.6-1.6 1.963 1.963 0 0 0-1.487-.632 2.054 2.054 0 0 0-1.769.814 2.693 2.693 0 0 0-.6 1.594 5.509 5.509 0 0 0 .229 1.473 22.285 22.285 0 0 0 .9 2.398z" class="cls-1" transform="translate(235.321 293.76)"/>
            <path id="Path_628" d="M-54.91-293.76l.416 6.2h-.416a7.808 7.808 0 0 0-2.382-4.009 5.8 5.8 0 0 0-3.713-1.224 6.046 6.046 0 0 0-3.282.921 6.1 6.1 0 0 0-2.307 2.94 13.1 13.1 0 0 0-.841 5.019 10.635 10.635 0 0 0 .794 4.291 5.936 5.936 0 0 0 2.388 2.784 6.865 6.865 0 0 0 3.639.969 6.307 6.307 0 0 0 3.134-.76 10.323 10.323 0 0 0 2.986-3.02l.417.269a9.582 9.582 0 0 1-3.2 3.565 8.109 8.109 0 0 1-4.345 1.13 8.226 8.226 0 0 1-7.023-3.363 9.62 9.62 0 0 1-1.857-5.892 10.466 10.466 0 0 1 1.224-5.018 8.856 8.856 0 0 1 3.371-3.546 9.1 9.1 0 0 1 4.688-1.258 8.6 8.6 0 0 1 3.9.969 2.124 2.124 0 0 0 .807.3.887.887 0 0 0 .632-.255 2.092 2.092 0 0 0 .5-1.009z" class="cls-1" transform="translate(237.768 293.76)"/>
            <path id="Path_629" d="M-43.362-293.76a8.276 8.276 0 0 1 6.155 2.7 9.313 9.313 0 0 1 2.6 6.733 9.593 9.593 0 0 1-2.624 6.9 8.462 8.462 0 0 1-6.351 2.745 8.411 8.411 0 0 1-6.329-2.678 9.6 9.6 0 0 1-2.564-6.929 9.229 9.229 0 0 1 2.96-7.09 8.732 8.732 0 0 1 6.153-2.381zm-.255.983a4.818 4.818 0 0 0-3.929 1.815q-1.841 2.26-1.842 6.619 0 4.467 1.911 6.875a4.719 4.719 0 0 0 3.874 1.831 5.294 5.294 0 0 0 4.246-2.005q1.674-2 1.675-6.323 0-4.682-1.845-6.982a4.969 4.969 0 0 0-4.09-1.83z" class="cls-1" transform="translate(239.326 293.76)"/>
            <path id="Path_630" d="M-28.277-284.913h8.477v-5.22a6.088 6.088 0 0 0-.175-1.844 1.2 1.2 0 0 0-.564-.578 2.483 2.483 0 0 0-1.224-.323h-.646v-.5h7.8v.5h-.646a2.554 2.554 0 0 0-1.224.309 1.135 1.135 0 0 0-.584.653 6.429 6.429 0 0 0-.155 1.783v11.772a6.055 6.055 0 0 0 .175 1.829 1.209 1.209 0 0 0 .552.579 2.544 2.544 0 0 0 1.237.323h.646v.5h-7.8v-.5h.646a1.934 1.934 0 0 0 1.627-.659 3.96 3.96 0 0 0 .336-2.072v-5.557h-8.475v5.557a6.019 6.019 0 0 0 .175 1.829 1.209 1.209 0 0 0 .564.579 2.48 2.48 0 0 0 1.224.323h.661v.5h-7.817v-.5h.646a1.952 1.952 0 0 0 1.641-.659 4.1 4.1 0 0 0 .323-2.072v-11.772a6.076 6.076 0 0 0-.176-1.844 1.205 1.205 0 0 0-.551-.578 2.553 2.553 0 0 0-1.237-.323h-.646v-.5h7.817v.5h-.661a2.561 2.561 0 0 0-1.224.309 1.169 1.169 0 0 0-.578.653 6.235 6.235 0 0 0-.161 1.783z" class="cls-1" transform="translate(240.966 293.793)"/>
            <path id="Path_631" d="M-8.734-292.38v7.211h4.01a3.267 3.267 0 0 0 2.085-.471 3.028 3.028 0 0 0 .781-2.179h.5v6.35h-.5a7.066 7.066 0 0 0-.377-1.709 1.7 1.7 0 0 0-.8-.74 4.047 4.047 0 0 0-1.694-.268h-4.01v6.013a5.59 5.59 0 0 0 .108 1.473.853.853 0 0 0 .377.417 2.284 2.284 0 0 0 1.022.154h3.1a8.328 8.328 0 0 0 2.246-.215 3.344 3.344 0 0 0 1.346-.847 10.353 10.353 0 0 0 1.709-2.515h.538l-1.574 4.573h-14.06v-.5h.645a2.558 2.558 0 0 0 1.224-.31 1.129 1.129 0 0 0 .586-.645 6.334 6.334 0 0 0 .155-1.763V-290.2a3.917 3.917 0 0 0-.351-2.139 2.085 2.085 0 0 0-1.614-.538h-.645v-.5H.133l.2 4h-.524a6.276 6.276 0 0 0-.626-1.977 2.143 2.143 0 0 0-1.016-.82 6.083 6.083 0 0 0-1.9-.2z" class="cls-1" transform="translate(242.654 293.793)"/>
            <path id="Path_632" d="M1.853-293.376H6.8l11.154 13.683v-10.52a3.608 3.608 0 0 0-.377-2.1 1.993 1.993 0 0 0-1.574-.565h-.632v-.5h6.351v.5h-.646a1.852 1.852 0 0 0-1.641.7 4.076 4.076 0 0 0-.3 1.964v15.376h-.486l-12.021-14.69v11.234a3.723 3.723 0 0 0 .364 2.1 2.015 2.015 0 0 0 1.574.566h.645v.5h-6.35v-.5h.632a1.873 1.873 0 0 0 1.656-.7 4.111 4.111 0 0 0 .294-1.964v-12.687a8.257 8.257 0 0 0-1.2-1.224 4.424 4.424 0 0 0-1.2-.552 4.308 4.308 0 0 0-1.183-.121z" class="cls-1" transform="translate(244.017 293.793)"/>
        </g>
        <path id="Line_2" fill="none" stroke="#7c7c7c" stroke-miterlimit="10" stroke-width="0.5px" d="M0 0L265.832 0" transform="translate(-217.373 -265.1)"/>
        <g id="Group_946" transform="translate(-197.456 -257.436)">
            <path id="Path_633" d="M-200.165-252.767h-3.75l-.89 2.566h-1.375l3.593-9.964h1.157l3.518 9.964h-1.376zm-3.36-1.13h2.977l-1.45-4.277h-.041z" class="cls-4" transform="translate(206.18 261.396)"/>
            <path id="Path_634" d="M-191.881-252.7a1.5 1.5 0 0 0-.487-1.136 4.053 4.053 0 0 0-1.71-.78 5.68 5.68 0 0 1-2.372-1.108 2.326 2.326 0 0 1-.852-1.841 2.455 2.455 0 0 1 .917-1.95A3.55 3.55 0 0 1-194-260.3a3.482 3.482 0 0 1 2.508.893 2.709 2.709 0 0 1 .906 2.084l-.021.041h-1.293a1.839 1.839 0 0 0-.592-1.4 2.128 2.128 0 0 0-1.515-.554 2.069 2.069 0 0 0-1.447.458 1.534 1.534 0 0 0-.5 1.191 1.331 1.331 0 0 0 .55 1.084 5.078 5.078 0 0 0 1.79.763 5.077 5.077 0 0 1 2.292 1.15 2.5 2.5 0 0 1 .788 1.874 2.328 2.328 0 0 1-.947 1.937 3.934 3.934 0 0 1-2.475.732 4.209 4.209 0 0 1-2.549-.807 2.463 2.463 0 0 1-1.071-2.163l.013-.04h1.287a1.674 1.674 0 0 0 .712 1.447 2.7 2.7 0 0 0 1.608.51 2.419 2.419 0 0 0 1.517-.431 1.4 1.4 0 0 0 .558-1.169z" class="cls-4" transform="translate(206.923 261.384)"/>
            <path id="Path_635" d="M-184-252.7a1.5 1.5 0 0 0-.486-1.136 4.065 4.065 0 0 0-1.711-.78 5.682 5.682 0 0 1-2.37-1.108 2.323 2.323 0 0 1-.853-1.841 2.459 2.459 0 0 1 .917-1.95 3.552 3.552 0 0 1 2.381-.78 3.48 3.48 0 0 1 2.508.893 2.706 2.706 0 0 1 .907 2.084l-.021.041h-1.287a1.835 1.835 0 0 0-.592-1.4 2.128 2.128 0 0 0-1.515-.554 2.071 2.071 0 0 0-1.447.458 1.534 1.534 0 0 0-.5 1.191 1.33 1.33 0 0 0 .551 1.084 5.062 5.062 0 0 0 1.789.763 5.087 5.087 0 0 1 2.293 1.15 2.5 2.5 0 0 1 .787 1.874 2.328 2.328 0 0 1-.947 1.937 3.932 3.932 0 0 1-2.475.732 4.209 4.209 0 0 1-2.549-.807 2.463 2.463 0 0 1-1.071-2.163l.014-.04h1.286a1.677 1.677 0 0 0 .712 1.447 2.7 2.7 0 0 0 1.608.51 2.419 2.419 0 0 0 1.517-.431A1.4 1.4 0 0 0-184-252.7z" class="cls-4" transform="translate(207.604 261.384)"/>
            <path id="Path_636" d="M-173.809-254.282a4.25 4.25 0 0 1-1.132 3.031 3.85 3.85 0 0 1-2.94 1.2 3.647 3.647 0 0 1-2.837-1.2 4.342 4.342 0 0 1-1.092-3.031v-1.772a4.358 4.358 0 0 1 1.092-3.032 3.642 3.642 0 0 1 2.837-1.211 3.849 3.849 0 0 1 2.94 1.208 4.262 4.262 0 0 1 1.132 3.035zm-1.348-1.786a3.364 3.364 0 0 0-.739-2.244 2.464 2.464 0 0 0-1.985-.876 2.279 2.279 0 0 0-1.878.876 3.476 3.476 0 0 0-.7 2.244v1.786a3.5 3.5 0 0 0 .7 2.259 2.282 2.282 0 0 0 1.878.876 2.463 2.463 0 0 0 1.987-.872 3.387 3.387 0 0 0 .737-2.262z" class="cls-4" transform="translate(208.285 261.384)"/>
            <path id="Path_637" d="M-165.517-253.379l.013.041a2.992 2.992 0 0 1-.985 2.348 3.768 3.768 0 0 1-2.676.944 3.517 3.517 0 0 1-2.755-1.2 4.409 4.409 0 0 1-1.064-3.039v-1.772a4.421 4.421 0 0 1 1.064-3.042 3.513 3.513 0 0 1 2.755-1.2 3.869 3.869 0 0 1 2.69.9 2.981 2.981 0 0 1 .971 2.386l-.013.04h-1.294a2.224 2.224 0 0 0-.616-1.656 2.364 2.364 0 0 0-1.738-.608 2.125 2.125 0 0 0-1.8.909 3.709 3.709 0 0 0-.67 2.259v1.786a3.727 3.727 0 0 0 .67 2.272 2.123 2.123 0 0 0 1.8.91 2.376 2.376 0 0 0 1.738-.605 2.241 2.241 0 0 0 .616-1.674z" class="cls-4" transform="translate(209.047 261.384)"/>
            <path id="Path_638" d="M-163.005-250.2h-1.355v-9.964h1.355z" class="cls-4" transform="translate(209.792 261.396)"/>
            <path id="Path_639" d="M-155.511-252.767h-3.75l-.89 2.566h-1.375l3.593-9.964h1.157l3.517 9.964h-1.375zm-3.36-1.13h2.977l-1.45-4.277h-.041z" class="cls-4" transform="translate(210.036 261.396)"/>
            <path id="Path_640" d="M-146.343-259.1h-3.284v8.9h-1.348v-8.9h-3.244v-1.061h7.876z" class="cls-4" transform="translate(210.668 261.396)"/>
            <path id="Path_641" d="M-140.224-254.82h-4.092v3.565h4.79v1.054h-6.138v-9.964h6.063v1.061h-4.715v3.223h4.092z" class="cls-4" transform="translate(211.406 261.396)"/>
            <path id="Path_642" d="M-133.206-252.7a1.5 1.5 0 0 0-.486-1.136 4.058 4.058 0 0 0-1.711-.78 5.682 5.682 0 0 1-2.37-1.108 2.324 2.324 0 0 1-.853-1.841 2.459 2.459 0 0 1 .917-1.95 3.554 3.554 0 0 1 2.381-.78 3.485 3.485 0 0 1 2.51.893 2.709 2.709 0 0 1 .906 2.084l-.021.041h-1.286a1.836 1.836 0 0 0-.593-1.4 2.127 2.127 0 0 0-1.515-.554 2.067 2.067 0 0 0-1.446.458 1.531 1.531 0 0 0-.5 1.191 1.33 1.33 0 0 0 .551 1.084 5.059 5.059 0 0 0 1.79.763 5.083 5.083 0 0 1 2.292 1.15 2.5 2.5 0 0 1 .787 1.874 2.328 2.328 0 0 1-.947 1.937 3.931 3.931 0 0 1-2.474.732 4.2 4.2 0 0 1-2.549-.807 2.464 2.464 0 0 1-1.072-2.163l.014-.04h1.286a1.677 1.677 0 0 0 .712 1.447 2.7 2.7 0 0 0 1.609.51 2.418 2.418 0 0 0 1.515-.431 1.4 1.4 0 0 0 .553-1.174z" class="cls-4" transform="translate(211.99 261.384)"/>
            <path id="Path_643" d="M-127.694-254.148a9.155 9.155 0 0 1 1.089-4.605 6.292 6.292 0 0 1 2.286-2.545l.041.007.26.794a5.834 5.834 0 0 0-1.632 2.347 10.113 10.113 0 0 0-.7 3.99v.088a10.176 10.176 0 0 0 .691 3.99 6.342 6.342 0 0 0 1.636 2.408l-.26.739h-.041a6.294 6.294 0 0 1-2.286-2.542 9.148 9.148 0 0 1-1.089-4.608z" class="cls-4" transform="translate(212.958 261.298)"/>
            <path id="Path_644" d="M-117.962-252.767h-3.75l-.89 2.566h-1.375l3.593-9.964h1.156l3.518 9.964h-1.375zm-3.36-1.13h2.977l-1.45-4.277h-.041z" class="cls-4" transform="translate(213.279 261.396)"/>
            <path id="Path_645" d="M-107.765-260.165v6.618a3.212 3.212 0 0 1-1.068 2.566 4.052 4.052 0 0 1-2.751.923 3.827 3.827 0 0 1-2.655-.927 3.27 3.27 0 0 1-1.033-2.563v-6.618h1.348v6.618a2.408 2.408 0 0 0 .653 1.789 2.3 2.3 0 0 0 1.687.646 2.5 2.5 0 0 0 1.784-.646 2.341 2.341 0 0 0 .687-1.789v-6.618z" class="cls-4" transform="translate(214.031 261.396)"/>
            <path id="Path_646" d="M-101.055-252.7a1.5 1.5 0 0 0-.487-1.136 4.059 4.059 0 0 0-1.71-.78 5.68 5.68 0 0 1-2.372-1.108 2.326 2.326 0 0 1-.852-1.841 2.455 2.455 0 0 1 .917-1.95 3.55 3.55 0 0 1 2.381-.78 3.482 3.482 0 0 1 2.508.893 2.709 2.709 0 0 1 .906 2.084l-.021.041h-1.286a1.839 1.839 0 0 0-.592-1.4 2.128 2.128 0 0 0-1.515-.554 2.069 2.069 0 0 0-1.447.458 1.53 1.53 0 0 0-.5 1.191 1.331 1.331 0 0 0 .55 1.084 5.069 5.069 0 0 0 1.79.763 5.077 5.077 0 0 1 2.292 1.15 2.5 2.5 0 0 1 .787 1.874 2.325 2.325 0 0 1-.947 1.937 3.929 3.929 0 0 1-2.474.732 4.209 4.209 0 0 1-2.549-.807 2.46 2.46 0 0 1-1.071-2.163l.013-.04h1.287a1.674 1.674 0 0 0 .712 1.447 2.7 2.7 0 0 0 1.608.51 2.419 2.419 0 0 0 1.517-.431 1.4 1.4 0 0 0 .555-1.174z" class="cls-4" transform="translate(214.767 261.384)"/>
            <path id="Path_647" d="M-91.472-259.1h-3.284v8.9H-96.1v-8.9h-3.244v-1.061h7.876z" class="cls-4" transform="translate(215.406 261.396)"/>
            <path id="Path_648" d="M-89.446-254.52v4.318h-1.348v-9.957h3.408a3.786 3.786 0 0 1 2.5.725 2.6 2.6 0 0 1 .863 2.109 2.262 2.262 0 0 1-.4 1.334 2.709 2.709 0 0 1-1.168.9 2.048 2.048 0 0 1 1.181.866 2.841 2.841 0 0 1 .36 1.482v.938a3.112 3.112 0 0 0 .1.834 1.25 1.25 0 0 0 .356.6v.164h-1.389a1.114 1.114 0 0 1-.342-.684 5.678 5.678 0 0 1-.075-.931v-.91a1.8 1.8 0 0 0-.473-1.3 1.669 1.669 0 0 0-1.266-.493zm0-1.06h1.923a2.5 2.5 0 0 0 1.646-.435 1.659 1.659 0 0 0 .5-1.324 1.706 1.706 0 0 0-.489-1.3 2.158 2.158 0 0 0-1.523-.462h-2.06z" class="cls-4" transform="translate(216.145 261.396)"/>
            <path id="Path_649" d="M-77.371-252.767h-3.75l-.89 2.566h-1.375l3.593-9.964h1.156l3.518 9.964H-76.5zm-3.36-1.13h2.977l-1.45-4.277h-.041z" class="cls-4" transform="translate(216.785 261.396)"/>
            <path id="Path_650" d="M-73.081-251.255h4.858v1.054h-6.206v-9.964h1.348z" class="cls-4" transform="translate(217.559 261.396)"/>
            <path id="Path_651" d="M-65.855-250.2h-1.355v-9.964h1.355z" class="cls-4" transform="translate(218.182 261.396)"/>
            <path id="Path_652" d="M-58.361-252.767h-3.75L-63-250.2h-1.375l3.593-9.964h1.157l3.518 9.964h-1.375zm-3.36-1.13h2.977l-1.45-4.277h-.041z" class="cls-4" transform="translate(218.427 261.396)"/>
            <path id="Path_653" d="M-52.777-254.086a9.126 9.126 0 0 1-1.092 4.608 6.335 6.335 0 0 1-2.281 2.542h-.041l-.26-.739a5.83 5.83 0 0 0 1.624-2.364 10.282 10.282 0 0 0 .7-4.035v-.088a9.945 9.945 0 0 0-.721-3.993 6.608 6.608 0 0 0-1.6-2.405l.26-.739h.041a6.333 6.333 0 0 1 2.281 2.545 9.133 9.133 0 0 1 1.092 4.605z" class="cls-4" transform="translate(219.111 261.298)"/>
            <path id="Path_654" d="M-46.537-254.2v4h-1.348v-9.964h3.812a3.512 3.512 0 0 1 2.48.821 2.81 2.81 0 0 1 .886 2.163 2.805 2.805 0 0 1-.886 2.169 3.534 3.534 0 0 1-2.48.814zm0-1.054h2.464a1.954 1.954 0 0 0 1.512-.544 1.947 1.947 0 0 0 .5-1.372 1.973 1.973 0 0 0-.5-1.382 1.932 1.932 0 0 0-1.508-.554h-2.464z" class="cls-4" transform="translate(219.851 261.396)"/>
            <path id="Path_655" d="M-32.645-259.1h-3.284v8.9h-1.348v-8.9h-3.244v-1.061h7.876z" class="cls-4" transform="translate(220.487 261.396)"/>
            <path id="Path_656" d="M-28.545-255.1l2.6-5.065h1.54l-3.5 6.461v3.5h-1.342v-3.607l-3.442-6.357h1.539z" class="cls-4" transform="translate(221.164 261.396)"/>
            <path id="Path_657" d="M-19.155-251.255h4.855v1.054h-6.2v-9.964h1.348z" class="cls-4" transform="translate(222.216 261.396)"/>
            <path id="Path_658" d="M-8.1-259.1h-3.284v8.9h-1.348v-8.9h-3.248v-1.061h7.88z" class="cls-4" transform="translate(222.606 261.396)"/>
            <path id="Path_659" d="M-7.426-250.2v-9.964h3.134a4.218 4.218 0 0 1 3.139 1.2 4.228 4.228 0 0 1 1.186 3.1v1.361a4.214 4.214 0 0 1-1.186 3.1 4.23 4.23 0 0 1-3.139 1.203zm1.348-8.9v7.849h1.786a2.751 2.751 0 0 0 2.18-.91 3.418 3.418 0 0 0 .8-2.334v-1.375a3.4 3.4 0 0 0-.8-2.319 2.748 2.748 0 0 0-2.18-.91z" class="cls-4" transform="translate(223.345 261.396)"/>
            <path id="Path_660" d="M1.96-250.883H.612v-1.383H1.96z" class="cls-4" transform="translate(224.039 262.078)"/>
        </g>
    </g>
</svg>
