<svg xmlns="http://www.w3.org/2000/svg" width="105" height="105" viewBox="0 0 105 105">
    <g transform="translate(-758 -4909)">
        <circle cx="52.5" cy="52.5" r="52.5" fill="#002d61" opacity="0.15" transform="translate(758 4909)"/>
        <path fill="none" stroke="#002d61" stroke-linecap="round" stroke-linejoin="round" stroke-width="3px" d="M28.333 9.28a9.725 9.725 0 0 1 7.683 7.683M28.333 1.5A17.505 17.505 0 0 1 43.8 16.944m-1.949 15.521V38.3a3.89 3.89 0 0 1-4.24 3.89 38.492 38.492 0 0 1-16.786-5.971 37.928 37.928 0 0 1-11.67-11.67A38.492 38.492 0 0 1 3.184 7.685a3.89 3.89 0 0 1 3.871-4.24h5.835a3.89 3.89 0 0 1 3.89 3.345 24.974 24.974 0 0 0 1.362 5.466 3.89 3.89 0 0 1-.875 4.1L14.8 18.83A31.121 31.121 0 0 0 26.466 30.5l2.47-2.47a3.89 3.89 0 0 1 4.1-.875 24.974 24.974 0 0 0 5.466 1.362 3.89 3.89 0 0 1 3.349 3.948z" transform="translate(786.684 4939.343)"/>
    </g>
</svg>
