<svg xmlns="http://www.w3.org/2000/svg" width="33.965" height="34.025" viewBox="0 0 33.965 34.025">
    <path fill="none" stroke="#002d61" stroke-linecap="round" stroke-linejoin="round" stroke-width="2.5px" d="M22.575 7.5a7.5 7.5 0 0 1 5.925 5.925M22.575 1.5A13.5 13.5 0 0 1 34.5 13.41M33 25.38v4.5a3 3 0 0 1-3.27 3 29.685 29.685 0 0 1-12.945-4.6 29.25 29.25 0 0 1-9-9A29.685 29.685 0 0 1 3.18 6.27 3 3 0 0 1 6.165 3h4.5a3 3 0 0 1 3 2.58 19.26 19.26 0 0 0 1.05 4.22 3 3 0 0 1-.675 3.165l-1.905 1.9a24 24 0 0 0 9 9l1.9-1.905a3 3 0 0 1 3.165-.675 19.26 19.26 0 0 0 4.215 1.05A3 3 0 0 1 33 25.38z" transform="translate(-1.917 -.12)"/>
</svg>
