<?xml version="1.0" standalone="no"?>
<!DOCTYPE svg PUBLIC "-//W3C//DTD SVG 1.1//EN" "http://www.w3.org/Graphics/SVG/1.1/DTD/svg11.dtd" >
<svg xmlns="http://www.w3.org/2000/svg" xmlns:xlink="http://www.w3.org/1999/xlink" version="1.1">
<metadata>
Created by FontForge 20190801 at Wed Feb 20 06:28:27 2019
 By www-data
Copyright (c) 2016 by Commercial Type, Inc. All rights reserved. |DCNT
</metadata>
<defs>
<font id="StyreneALCBold" horiz-adv-x="600" >
  <font-face 
    font-family="StyreneALCBold"
    font-weight="700"
    font-stretch="normal"
    units-per-em="1000"
    panose-1="0 0 0 0 0 0 0 0 0 0"
    ascent="736"
    descent="-264"
    x-height="518"
    cap-height="710"
    bbox="-107 -320 1386 1215"
    underline-thickness="76"
    underline-position="-76"
    unicode-range="U+000D-FB02"
  />
<missing-glyph horiz-adv-x="252" 
 />
    <glyph glyph-name=".notdef" horiz-adv-x="252" 
 />
    <glyph glyph-name=".null" horiz-adv-x="0" 
 />
    <glyph glyph-name="nonmarkingreturn" horiz-adv-x="333" 
 />
    <glyph glyph-name="NULL" horiz-adv-x="0" 
 />
    <glyph glyph-name="NULL" horiz-adv-x="0" 
 />
    <glyph glyph-name="CR" unicode="&#xd;" horiz-adv-x="252" 
 />
    <glyph glyph-name="space" unicode=" " horiz-adv-x="252" 
 />
    <glyph glyph-name="exclam" unicode="!" horiz-adv-x="347" 
d="M93 238v472h161v-472h-161zM80 0v176h187v-176h-187z" />
    <glyph glyph-name="quotedbl" unicode="&#x22;" horiz-adv-x="526" 
d="M220 401h-140v309h140v-309zM445 401h-139v309h139v-309z" />
    <glyph glyph-name="numbersign" unicode="#" horiz-adv-x="754" 
d="M345 0l43 167h-123l-43 -167h-135l43 167h-107v120h138l38 147h-106v120h137l40 156h136l-40 -156h122l40 156h137l-40 -156h106v-120h-138l-38 -147h106v-120h-137l-43 -167h-136zM296 287h123l38 147h-123z" />
    <glyph glyph-name="dollar" unicode="$" horiz-adv-x="614" 
d="M557 205q0 -77 -46.5 -130.5t-132.5 -70.5v-127h-141v128q-86 17 -133 73t-47 138v4h157v-2q0 -41 25 -64t68 -23t65.5 18.5t22.5 50.5q0 55 -69 75l-89 25q-88 27 -130 76.5t-42 136.5q0 77 46 127.5t126 68.5v120h141v-121q79 -17 119 -68.5t42 -128.5v-1h-155v1
q-2 31 -23 51.5t-56 20.5q-37 0 -58.5 -17.5t-21.5 -47.5q0 -28 16.5 -44.5t53.5 -28.5l89 -25q88 -25 130.5 -76t42.5 -139z" />
    <glyph glyph-name="percent" unicode="%" horiz-adv-x="993" 
d="M239 340q-83 0 -139 55t-56 136t56 136t139 55q82 0 138 -55t56 -136t-56 -136t-138 -55zM166 0l520 710h142l-521 -710h-141zM239 456q32 0 52 21t20 54t-20 54t-52 21t-52.5 -21.5t-20.5 -53.5t20.5 -53.5t52.5 -21.5zM755 -14q-82 0 -138.5 55t-56.5 136t56.5 136
t138.5 55t138 -55t56 -136t-56 -136t-138 -55zM755 102q32 0 52 21t20 54t-20 54t-52 21t-52.5 -21.5t-20.5 -53.5t20.5 -53.5t52.5 -21.5z" />
    <glyph glyph-name="ampersand" unicode="&#x26;" horiz-adv-x="802" 
d="M599 0l-92 88q-50 -48 -102 -74t-121 -26q-109 0 -175.5 53.5t-66.5 141.5q0 72 40.5 120.5t108.5 90.5q-76 79 -76 155q0 74 58 123.5t152 49.5q105 0 163 -48t58 -126q0 -100 -136 -177l91 -89l109 112h182l-193 -208l189 -186h-189zM320 460l8 -8q34 23 52 43.5
t18 46.5q0 29 -19 46t-49 17q-28 0 -46.5 -16t-18.5 -42q0 -22 13 -40t42 -47zM205 205q0 -33 22.5 -54.5t62.5 -21.5q56 0 117 56l-126 121q-27 -19 -40 -30.5t-24.5 -30.5t-11.5 -40z" />
    <glyph glyph-name="quotesingle" unicode="'" horiz-adv-x="304" 
d="M223 401h-143v309h143v-309z" />
    <glyph glyph-name="parenleft" unicode="(" horiz-adv-x="372" 
d="M194 822h146q-26 -51 -41 -84t-38 -96.5t-34.5 -136.5t-11.5 -155q0 -81 11.5 -154.5t34.5 -137.5t38 -97.5t41 -84.5h-146q-24 47 -40.5 84.5t-38.5 100t-33.5 136t-11.5 153.5q0 104 23.5 205t45 150.5t55.5 116.5z" />
    <glyph glyph-name="parenright" unicode=")" horiz-adv-x="372" 
d="M179 -124h-147q26 51 41 84.5t38 97.5t34.5 137.5t11.5 154.5q0 82 -11.5 155t-34.5 136.5t-38 96.5t-41 84h147q34 -66 55.5 -116.5t44.5 -151t23 -204.5q0 -105 -23 -205.5t-45 -152.5t-55 -116z" />
    <glyph glyph-name="asterisk" unicode="*" horiz-adv-x="489" 
d="M335 317l-90 110l-90 -111l-91 69l95 112l-134 47l38 103l125 -45l-1 137h115l-1 -137l125 45l38 -103l-133 -46l94 -112z" />
    <glyph glyph-name="plus" unicode="+" horiz-adv-x="705" 
d="M629 257h-201v-208h-152v208h-200v144h200v207h152v-207h201v-144z" />
    <glyph glyph-name="comma" unicode="," horiz-adv-x="332" 
d="M198 -200h-114q72 117 78 200h-89v196h187v-173q0 -118 -62 -223z" />
    <glyph glyph-name="hyphen" unicode="-" horiz-adv-x="490" 
d="M76 226v150h338v-150h-338z" />
    <glyph glyph-name="period" unicode="." horiz-adv-x="332" 
d="M73 0v196h187v-196h-187z" />
    <glyph glyph-name="slash" unicode="/" horiz-adv-x="429" 
d="M19 -70l243 830h144l-246 -830h-141z" />
    <glyph glyph-name="zero" unicode="0" horiz-adv-x="699" 
d="M349 723q127 0 200 -71t73 -194v-206q0 -124 -73 -194.5t-200 -70.5t-200 70.5t-73 194.5v206q0 123 73 194t200 71zM349 137q52 0 79.5 32.5t27.5 87.5v196q0 55 -27.5 87.5t-79.5 32.5t-79.5 -32.5t-27.5 -87.5v-196q0 -55 27.5 -87.5t79.5 -32.5z" />
    <glyph glyph-name="one" unicode="1" horiz-adv-x="472" 
d="M378 713v-713h-166v527l-173 -97v155l215 128h124z" />
    <glyph glyph-name="two" unicode="2" horiz-adv-x="642" 
d="M610 145v-145h-550v110l264 239q44 41 63 71t19 66q0 39 -24 63.5t-67 24.5q-42 0 -66.5 -27t-24.5 -71v-38h-162v43q0 104 67.5 172.5t185.5 68.5q121 0 190 -63t69 -167q0 -75 -37.5 -131t-114.5 -123l-102 -93h290z" />
    <glyph glyph-name="three" unicode="3" horiz-adv-x="655" 
d="M602 205q0 -99 -74.5 -158t-205.5 -59q-70 0 -125 20.5t-87.5 54t-50 70.5t-20.5 75h168q5 -27 34 -50.5t80 -23.5q53 0 82 22t29 59q0 77 -86 77h-141v143h130q77 0 77 68q0 36 -26 56t-71 20q-84 0 -99 -69h-165q3 84 71.5 148t192.5 64q126 0 195 -53.5t69 -150.5
q0 -53 -28 -90t-64 -51q47 -14 81 -56.5t34 -115.5z" />
    <glyph glyph-name="four" unicode="4" horiz-adv-x="720" 
d="M687 191h-137v-191h-162v191h-353v109l324 410h191v-379h137v-140zM209 331h179v231z" />
    <glyph glyph-name="five" unicode="5" horiz-adv-x="660" 
d="M84 302v408h494v-136h-338v-137q45 53 137 53q98 0 163 -65.5t65 -175.5v-4q0 -113 -74 -185t-203 -72q-70 0 -124.5 20.5t-86.5 54.5t-49 74t-18 82h168q5 -31 32.5 -57.5t77.5 -26.5q48 0 79 31t31 77v3q0 50 -29.5 79t-80.5 29q-63 0 -96 -52h-148z" />
    <glyph glyph-name="six" unicode="6" horiz-adv-x="666" 
d="M614 246q0 -113 -76.5 -185.5t-204.5 -72.5t-204.5 72t-76.5 185q0 78 27.5 136t90.5 140l148 189h184l-203 -258q41 27 97 27q98 0 158 -64.5t60 -168.5zM448 246q0 50 -31 81.5t-84 31.5q-51 0 -83 -31.5t-32 -82.5q0 -49 31 -80t84 -31t84 31.5t31 80.5z" />
    <glyph glyph-name="seven" unicode="7" horiz-adv-x="625" 
d="M584 603l-314 -603h-186l301 563h-341v147h540v-107z" />
    <glyph glyph-name="eight" unicode="8" horiz-adv-x="673" 
d="M618 193q0 -94 -71 -149.5t-196 -55.5h-30q-124 0 -194.5 55.5t-70.5 149.5q0 71 36 114t83 58q-43 15 -75 54t-32 106q0 89 67 143t188 54h28q121 0 188 -54t67 -143q0 -67 -32.5 -106.5t-74.5 -54.5q47 -15 83 -57.5t36 -113.5zM344 592h-15q-43 0 -69.5 -22t-26.5 -61
t26.5 -61.5t69.5 -22.5h15q43 0 69.5 22.5t26.5 61.5t-26.5 61t-69.5 22zM346 298h-19q-46 0 -74 -24.5t-28 -65.5t28 -65.5t74 -24.5h19q46 0 74 24.5t28 65.5t-28 65.5t-74 24.5z" />
    <glyph glyph-name="nine" unicode="9" horiz-adv-x="666" 
d="M497 189l-149 -189h-184l203 258q-41 -27 -97 -27q-99 0 -158.5 64t-59.5 169q0 113 76.5 185.5t204.5 72.5t204.5 -72t76.5 -185q0 -78 -27.5 -137t-89.5 -139zM218 464q0 -50 31 -81.5t84 -31.5q51 0 83 31.5t32 82.5q0 49 -31 80t-84 31t-84 -31.5t-31 -80.5z" />
    <glyph glyph-name="colon" unicode=":" horiz-adv-x="342" 
d="M78 0v196h187v-196h-187zM78 319v196h187v-196h-187z" />
    <glyph glyph-name="semicolon" unicode=";" horiz-adv-x="342" 
d="M78 319v196h187v-196h-187zM203 -200h-114q72 117 78 200h-89v196h187v-173q0 -118 -62 -223z" />
    <glyph glyph-name="less" unicode="&#x3c;" horiz-adv-x="636" 
d="M550 205v-155l-474 206v135l474 205v-156l-284 -118z" />
    <glyph glyph-name="equal" unicode="=" horiz-adv-x="699" 
d="M617 371h-536v143h536v-143zM617 137h-536v143h536v-143z" />
    <glyph glyph-name="greater" unicode="&#x3e;" horiz-adv-x="636" 
d="M560 256l-474 -206v156l284 119l-284 116v155l474 -205v-135z" />
    <glyph glyph-name="question" unicode="?" horiz-adv-x="551" 
d="M305 245v-7h-161v36q0 49 16 75t68 55l68 40q56 34 56 78q0 32 -19.5 49.5t-54.5 17.5t-55 -21t-20 -57v-26h-158v37q0 91 61.5 145.5t171.5 54.5q114 0 175.5 -52.5t61.5 -147.5q0 -71 -32 -115.5t-103 -83.5l-49 -30q-26 -15 -26 -48zM131 0v176h187v-176h-187z" />
    <glyph glyph-name="at" unicode="@" horiz-adv-x="1053" 
d="M808 -3h152q-18 -28 -48 -55.5t-78 -56.5t-120 -46.5t-157 -17.5q-156 0 -271.5 62t-173.5 165t-58 232q0 204 138.5 336t353.5 132q216 0 335.5 -111t119.5 -279q0 -133 -64 -216.5t-170 -83.5t-134 65q-53 -65 -147 -65q-92 0 -150.5 59t-58.5 161t62 169t161 67
q50 0 85 -19.5t50 -49.5l11 61h143l-49 -286q-12 -59 39 -59q44 0 77.5 52t33.5 145q0 134 -90.5 211t-253.5 77q-164 0 -269 -102t-105 -266q0 -157 105.5 -255.5t279.5 -98.5q150 0 251 73zM524 386q-45 0 -72 -30t-27 -78q0 -42 23 -66t64 -24q45 0 72 30t27 78
q0 41 -23 65.5t-64 24.5z" />
    <glyph glyph-name="A" unicode="A" horiz-adv-x="830" 
d="M633 0l-53 123h-338l-53 -123h-171l311 711h174l310 -711h-180zM303 265h216l-108 251z" />
    <glyph glyph-name="B" unicode="B" horiz-adv-x="804" 
d="M86 0v710h410q115 0 176.5 -51.5t61.5 -141.5q0 -51 -29 -88.5t-71 -53.5q51 -18 84.5 -61.5t33.5 -110.5q0 -94 -64 -148.5t-185 -54.5h-417zM469 573h-216v-140h216q92 0 92 70t-92 70zM473 296h-220v-159h220q106 0 106 80q0 79 -106 79z" />
    <glyph glyph-name="C" unicode="C" horiz-adv-x="798" 
d="M416 -12q-159 0 -261.5 104t-102.5 263t102.5 263t261.5 104q81 0 146 -25.5t103 -65t59 -77t28 -72.5h-173q-11 18 -27.5 35t-53.5 34.5t-82 17.5q-86 0 -138 -61.5t-52 -152.5t52 -152.5t138 -61.5q112 0 164 87h172q-4 -24 -16.5 -52.5t-39 -62.5t-62.5 -61t-93 -45.5
t-125 -18.5z" />
    <glyph glyph-name="D" unicode="D" horiz-adv-x="821" 
d="M86 0v710h294q176 0 282.5 -92.5t106.5 -262.5q0 -167 -107.5 -261t-281.5 -94h-294zM377 564h-121v-418h121q100 0 159.5 55.5t59.5 153.5q0 101 -59 155t-160 54z" />
    <glyph glyph-name="E" unicode="E" horiz-adv-x="755" 
d="M86 0v710h594v-140h-424v-128h253v-143h-253v-152h463v-147h-633z" />
    <glyph glyph-name="F" unicode="F" horiz-adv-x="745" 
d="M86 0v710h625v-141h-455v-139h260v-141h-260v-289h-170z" />
    <glyph glyph-name="G" unicode="G" horiz-adv-x="837" 
d="M766 420v-333q-42 -37 -123.5 -68.5t-193.5 -31.5q-182 0 -289.5 101.5t-107.5 270.5q0 160 103.5 263t265.5 103q78 0 140.5 -20.5t99.5 -53.5t58.5 -66t30.5 -67h-179q-51 59 -150 59q-88 0 -142.5 -62t-54.5 -156q0 -102 60.5 -164t168.5 -62q102 0 150 31v117h-224
v139h387z" />
    <glyph glyph-name="H" unicode="H" horiz-adv-x="859" 
d="M603 0v281h-347v-281h-170v710h170v-279h347v279h169v-710h-169z" />
    <glyph glyph-name="I" unicode="I" horiz-adv-x="346" 
d="M88 0v710h170v-710h-170z" />
    <glyph glyph-name="J" unicode="J" horiz-adv-x="687" 
d="M603 710v-473q0 -116 -72 -183.5t-200 -67.5t-195.5 67t-67.5 184v190h161v-175q0 -51 26 -82t76 -31q49 0 75.5 31t26.5 82v458h170z" />
    <glyph glyph-name="K" unicode="K" horiz-adv-x="814" 
d="M586 0l-330 319v-319h-170v710h170v-307l325 307h221l-361 -342l377 -368h-232z" />
    <glyph glyph-name="L" unicode="L" horiz-adv-x="709" 
d="M675 150v-150h-589v710h170v-560h419z" />
    <glyph glyph-name="M" unicode="M" horiz-adv-x="1020" 
d="M335 710l180 -458l180 458h238v-710h-164v537l-208 -538h-114l-205 534v-533h-156v710h249z" />
    <glyph glyph-name="N" unicode="N" horiz-adv-x="863" 
d="M777 710v-712h-138l-387 491v-489h-166v710h193l336 -435v435h162z" />
    <glyph glyph-name="O" unicode="O" horiz-adv-x="857" 
d="M429 -12q-161 0 -269 103.5t-108 263.5q0 162 107.5 264.5t269.5 102.5q161 0 268.5 -102.5t107.5 -264.5q0 -160 -107.5 -263.5t-268.5 -103.5zM429 140q92 0 147.5 61.5t55.5 153.5t-55.5 153.5t-147.5 61.5q-91 0 -147.5 -61.5t-56.5 -153.5t56.5 -153.5t147.5 -61.5z
" />
    <glyph glyph-name="P" unicode="P" horiz-adv-x="802" 
d="M86 0v710h415q122 0 188.5 -59t66.5 -170t-67 -171t-188 -60h-246v-250h-169zM485 562h-230v-164h230q48 0 72.5 21.5t24.5 60.5q0 82 -97 82z" />
    <glyph glyph-name="Q" unicode="Q" horiz-adv-x="857" 
d="M805 355q0 -110 -52.5 -193t-143.5 -127l176 -187h-209l-143 147h-4q-162 0 -269.5 100.5t-107.5 259.5q0 162 107.5 264.5t269.5 102.5q161 0 268.5 -102.5t107.5 -264.5zM429 140q92 0 147.5 61.5t55.5 153.5t-55.5 153.5t-147.5 61.5q-91 0 -147.5 -61.5t-56.5 -153.5
t56.5 -153.5t147.5 -61.5z" />
    <glyph glyph-name="R" unicode="R" horiz-adv-x="814" 
d="M86 0v710h416q120 0 186.5 -57t66.5 -166q0 -149 -135 -198l160 -289h-179l-150 270h-195v-270h-170zM484 564h-228v-151h228q97 0 97 74q0 77 -97 77z" />
    <glyph glyph-name="S" unicode="S" horiz-adv-x="757" 
d="M353 587q-124 0 -124 -67q0 -57 96 -68q23 -2 61 -5.5t51 -4.5q129 -10 199 -63.5t70 -162.5q0 -107 -81 -168t-234 -61q-70 0 -128 13.5t-96 35.5t-66.5 52t-43 59.5t-22.5 62.5h179q15 -35 58.5 -60.5t118.5 -25.5q69 0 104 21.5t35 58.5q0 38 -25.5 55t-77.5 23
q-19 2 -37 4t-40 4t-36 3q-121 12 -190 67.5t-69 152.5q0 100 81.5 155t216.5 55q83 0 147 -18t101.5 -49t58 -64t29.5 -70h-171q-15 25 -56 45t-109 20z" />
    <glyph glyph-name="T" unicode="T" horiz-adv-x="777" 
d="M35 562v148h707v-148h-269v-562h-169v562h-269z" />
    <glyph glyph-name="U" unicode="U" horiz-adv-x="844" 
d="M423 140q80 0 125.5 49.5t45.5 132.5v388h168v-399q0 -142 -89.5 -234t-249.5 -92q-165 0 -253 91t-88 235v399h170v-388q0 -83 44.5 -132.5t126.5 -49.5z" />
    <glyph glyph-name="V" unicode="V" horiz-adv-x="821" 
d="M801 710l-297 -711h-175l-308 711h194l206 -501l203 501h177z" />
    <glyph glyph-name="W" unicode="W" horiz-adv-x="1147" 
d="M737 -1l-161 471l-163 -471h-152l-238 711h187l142 -458l152 459h156l153 -460l143 459h168l-231 -711h-156z" />
    <glyph glyph-name="X" unicode="X" horiz-adv-x="842" 
d="M620 0l-204 241l-206 -241h-199l306 359l-297 351h220l185 -223l190 223h203l-293 -342l306 -368h-211z" />
    <glyph glyph-name="Y" unicode="Y" horiz-adv-x="798" 
d="M495 298v-298h-178v299l-315 411h216l193 -258l194 258h191z" />
    <glyph glyph-name="Z" unicode="Z" horiz-adv-x="800" 
d="M764 148v-148h-717v97l405 466h-395v147h662v-95l-409 -467h454z" />
    <glyph glyph-name="bracketleft" unicode="[" horiz-adv-x="390" 
d="M80 -124v946h289v-125h-147v-696h147v-125h-289z" />
    <glyph glyph-name="backslash" unicode="\" horiz-adv-x="429" 
d="M411 -70h-142l-245 830h143z" />
    <glyph glyph-name="bracketright" unicode="]" horiz-adv-x="390" 
d="M20 697v125h290v-946h-290v125h148v696h-148z" />
    <glyph glyph-name="asciicircum" unicode="^" horiz-adv-x="584" 
d="M402 263l-112 261l-112 -261h-158l195 453h152l198 -453h-163z" />
    <glyph glyph-name="underscore" unicode="_" horiz-adv-x="611" 
d="M25 -155v109h560v-109h-560z" />
    <glyph glyph-name="grave" unicode="`" 
d="M436 582h-156l-116 190h163z" />
    <glyph glyph-name="a" unicode="a" horiz-adv-x="677" 
d="M445 0v76q-8 -14 -23 -31t-55 -36.5t-89 -19.5q-100 0 -167.5 73.5t-67.5 196.5q0 122 67.5 195.5t168.5 73.5q37 0 68 -10t50.5 -25t30 -26.5t15.5 -20.5v72h162v-518h-160zM445 259q0 57 -32.5 94t-85.5 37t-86.5 -37t-33.5 -94t33.5 -94t86.5 -37t85.5 37t32.5 94z
" />
    <glyph glyph-name="b" unicode="b" horiz-adv-x="682" 
d="M231 74v-74h-159v736h161v-294q4 8 15 20t31 28t52.5 27t70.5 11q102 0 169.5 -73.5t67.5 -195.5q0 -123 -67.5 -196.5t-169.5 -73.5q-70 0 -114 30t-57 55zM231 259q0 -58 33.5 -94.5t89.5 -36.5t89 36.5t33 94.5t-33 94.5t-89 36.5t-89.5 -36.5t-33.5 -94.5z" />
    <glyph glyph-name="c" unicode="c" horiz-adv-x="607" 
d="M571 337h-158q-33 53 -97 53q-50 0 -80.5 -37t-30.5 -94t31 -94.5t81 -37.5q29 0 52.5 11.5t32.5 22t13 19.5h156q-2 -29 -17.5 -60.5t-44.5 -62.5t-80 -50.5t-116 -19.5q-116 0 -193.5 75.5t-77.5 196.5t77 196.5t192 75.5q65 0 116 -19.5t80 -50t45 -62t19 -62.5z" />
    <glyph glyph-name="d" unicode="d" horiz-adv-x="684" 
d="M452 0v76q-10 -16 -25 -31.5t-56 -35.5t-91 -20q-101 0 -169 73.5t-68 196.5q0 122 68.5 195.5t169.5 73.5q69 0 113 -29t56 -53v290h162v-736h-160zM452 259q0 58 -33 94.5t-89 36.5t-89.5 -36.5t-33.5 -94.5t33.5 -94.5t89.5 -36.5t89 36.5t33 94.5z" />
    <glyph glyph-name="e" unicode="e" horiz-adv-x="635" 
d="M319 531q125 0 201 -74.5t76 -200.5v-28h-394q6 -50 40.5 -82t87.5 -32q67 0 100 40h161q-3 -25 -19.5 -52t-46 -54t-81 -44t-114.5 -17q-131 0 -209.5 76t-78.5 196q0 122 77 197t200 75zM319 413q-90 0 -114 -86h228q-23 86 -114 86z" />
    <glyph glyph-name="f" unicode="f" horiz-adv-x="518" 
d="M493 385h-171v-385h-163v385h-134v133h134v70q0 70 40.5 109t120.5 39h236v-122h-168q-35 0 -50.5 -15.5t-15.5 -48.5v-32h171v-133z" />
    <glyph glyph-name="g" unicode="g" horiz-adv-x="681" 
d="M449 25v57q-6 -13 -22.5 -30.5t-57 -36.5t-89.5 -19q-102 0 -169.5 73t-67.5 193q0 121 67.5 193.5t170.5 72.5q48 0 88 -18.5t56 -34.5t22 -29v72h162v-497q0 -110 -70.5 -172.5t-213.5 -62.5q-69 0 -124.5 18.5t-86.5 45.5t-47 51.5t-20 43.5h192q4 -6 12 -12.5
t28.5 -13.5t45.5 -7q60 0 92 29t32 84zM449 262q0 56 -33 92t-88 36t-88 -36t-33 -92t33 -92t88 -36t88 36t33 92z" />
    <glyph glyph-name="h" unicode="h" horiz-adv-x="678" 
d="M234 272v-272h-162v736h162v-298q17 32 62 61.5t105 29.5q95 0 153 -62.5t58 -161.5v-305h-163v272q0 52 -29 82.5t-78 30.5t-78.5 -31t-29.5 -82z" />
    <glyph glyph-name="i" unicode="i" horiz-adv-x="309" 
d="M69 585v160h170v-160h-170zM73 0v518h163v-518h-163z" />
    <glyph glyph-name="j" unicode="j" horiz-adv-x="309" 
d="M70 585v160h170v-160h-170zM236 518v-549q0 -91 -40 -131.5t-123 -40.5h-179v125h109q39 0 54.5 16t15.5 52v528h163z" />
    <glyph glyph-name="k" unicode="k" horiz-adv-x="651" 
d="M448 0l-214 231v-231h-162v736h162v-421l207 203h204l-248 -239l261 -279h-210z" />
    <glyph glyph-name="l" unicode="l" horiz-adv-x="311" 
d="M74 0v736h163v-736h-163z" />
    <glyph glyph-name="m" unicode="m" horiz-adv-x="1047" 
d="M234 273v-273h-162v518h162v-78q19 32 62 60.5t103 28.5q131 0 183 -108q61 108 188 108q96 0 153 -62t57 -161v-306h-163v273q0 52 -28 82t-76 30t-77 -30.5t-29 -81.5v-273h-163v273q0 52 -28 82t-76 30t-77 -30.5t-29 -81.5z" />
    <glyph glyph-name="n" unicode="n" horiz-adv-x="678" 
d="M234 272v-272h-162v518h162v-80q17 32 62 61.5t105 29.5q95 0 153 -62.5t58 -161.5v-305h-163v272q0 52 -29 82.5t-78 30.5t-78.5 -31t-29.5 -82z" />
    <glyph glyph-name="o" unicode="o" horiz-adv-x="651" 
d="M326 531q123 0 203.5 -76.5t80.5 -195.5t-80.5 -195.5t-203.5 -76.5t-203.5 76.5t-80.5 195.5t80.5 195.5t203.5 76.5zM326 128q54 0 87.5 37t33.5 94t-33.5 94t-87.5 37t-88 -37t-34 -94t34 -94t88 -37z" />
    <glyph glyph-name="p" unicode="p" horiz-adv-x="683" 
d="M232 74v-274h-160v718h162v-77q6 12 22 29.5t56.5 37.5t89.5 20q102 0 170 -73.5t68 -195.5q0 -123 -68 -196.5t-170 -73.5q-70 0 -114 30.5t-56 54.5zM232 259q0 -58 33.5 -94.5t89.5 -36.5q55 0 88 36.5t33 94.5t-33 94.5t-88 36.5q-56 0 -89.5 -36.5t-33.5 -94.5z" />
    <glyph glyph-name="q" unicode="q" horiz-adv-x="684" 
d="M452 -203v279q-7 -11 -16.5 -21.5t-30.5 -27.5t-53 -27.5t-71 -10.5q-101 0 -169.5 73.5t-68.5 196.5q0 122 68.5 195.5t170.5 73.5q49 0 89 -18.5t56.5 -35t22.5 -28.5v72h162v-721h-160zM452 259q0 58 -33 94.5t-89 36.5t-89.5 -36.5t-33.5 -94.5t33.5 -94.5
t89.5 -36.5t89 36.5t33 94.5z" />
    <glyph glyph-name="r" unicode="r" horiz-adv-x="531" 
d="M234 253v-253h-162v518h162v-81q38 82 157 82h111v-160h-142q-68 0 -97 -25.5t-29 -80.5z" />
    <glyph glyph-name="s" unicode="s" horiz-adv-x="590" 
d="M323 191l-73 6q-98 6 -153 48.5t-55 120.5t64 122t177 44q69 0 120.5 -16t79.5 -41.5t41.5 -48t18.5 -45.5h-171q-36 36 -90 36q-36 0 -55.5 -11t-19.5 -30q0 -36 61 -41q12 -2 33.5 -3.5t34.5 -2.5q115 -8 165.5 -49.5t50.5 -123.5q0 -81 -63 -125.5t-187 -44.5
q-57 0 -104.5 12.5t-76 30.5t-49.5 41t-29.5 41.5t-11.5 35.5h175q2 -7 10.5 -16.5t31.5 -18.5t54 -9q84 0 84 43q0 40 -63 45z" />
    <glyph glyph-name="t" unicode="t" horiz-adv-x="542" 
d="M498 143v-143h-162q-177 0 -177 165v218h-134v135h134v192h163v-192h176v-135h-176v-161q0 -43 16.5 -61t61.5 -18h98z" />
    <glyph glyph-name="u" unicode="u" horiz-adv-x="665" 
d="M335 -12q-129 0 -199 67.5t-70 180.5v282h163v-270q0 -51 26.5 -81t76.5 -30t77 30t27 81v270h163v-282q0 -113 -69 -180.5t-195 -67.5z" />
    <glyph glyph-name="v" unicode="v" horiz-adv-x="618" 
d="M613 518l-217 -524h-165l-227 524h183l130 -326l130 326h166z" />
    <glyph glyph-name="w" unicode="w" horiz-adv-x="917" 
d="M571 -4l-113 334l-111 -334h-150l-188 522h176l101 -316l109 320h147l109 -317l100 313h157l-182 -522h-155z" />
    <glyph glyph-name="x" unicode="x" horiz-adv-x="655" 
d="M452 0l-131 151l-135 -151h-182l228 254l-228 264h208l124 -147l132 147h183l-226 -252l226 -266h-199z" />
    <glyph glyph-name="y" unicode="y" horiz-adv-x="616" 
d="M611 518l-300 -721h-163l87 211l-232 510h184l130 -313l130 313h164z" />
    <glyph glyph-name="z" unicode="z" horiz-adv-x="636" 
d="M607 132v-132h-564v88l281 299h-273v131h519v-87l-286 -299h323z" />
    <glyph glyph-name="braceleft" unicode="{" horiz-adv-x="397" 
d="M377 1v-125h-134q-88 0 -126 46t-21 136l30 176q10 52 -46 52h-49v126h49q55 0 46 52l-30 175q-17 90 21 136.5t126 46.5h134v-125h-89q-65 0 -55 -57l29 -163q11 -55 -13.5 -87t-67.5 -41q43 -9 67.5 -41t13.5 -87l-29 -157q-6 -31 9 -47t46 -16h89z" />
    <glyph glyph-name="bar" unicode="|" horiz-adv-x="330" 
d="M93 -116v938h144v-938h-144z" />
    <glyph glyph-name="braceright" unicode="}" horiz-adv-x="398" 
d="M271 234l30 -176q17 -90 -21 -136t-126 -46h-134v125h89q31 0 46 16t9 47l-29 157q-11 55 13 87.5t68 40.5q-44 8 -68 40.5t-13 87.5l29 163q10 57 -55 57h-89v125h134q88 0 126 -46.5t21 -136.5l-30 -175q-9 -52 46 -52h49v-126h-49q-56 0 -46 -52z" />
    <glyph glyph-name="asciitilde" unicode="~" horiz-adv-x="717" 
d="M381 495l53 -70q25 -32 42 -32q24 0 24 35v171h156v-202q0 -85 -40.5 -134.5t-115.5 -49.5q-52 0 -87.5 23.5t-76.5 74.5l-53 70q-14 19 -22 26t-20 7q-24 0 -24 -36v-170h-155v201q-1 86 39.5 135t115.5 49q52 0 87 -23.5t77 -74.5z" />
    <glyph glyph-name="uni00A0" unicode="&#xa0;" horiz-adv-x="252" 
 />
    <glyph glyph-name="exclamdown" unicode="&#xa1;" horiz-adv-x="347" 
d="M80 342v176h187v-176h-187zM93 -192v471h161v-471h-161z" />
    <glyph glyph-name="cent" unicode="&#xa2;" horiz-adv-x="592" 
d="M394 176h154q-3 -54 -44.5 -108.5t-122.5 -72.5v-117h-140v116q-86 21 -137.5 91.5t-51.5 173.5t52 173.5t137 91.5v114h140v-116q78 -21 120 -73t46 -105h-155q-6 16 -26 31.5t-56 15.5q-44 0 -69.5 -36.5t-25.5 -95.5t25.5 -96t69.5 -37q38 0 58 16.5t26 33.5z" />
    <glyph glyph-name="sterling" unicode="&#xa3;" horiz-adv-x="703" 
d="M670 141v-141h-618v141h109v116h-109v141h109v107q0 102 58 159.5t170 57.5q114 0 171.5 -57.5t57.5 -159.5v-29h-154v24q0 40 -20 61.5t-55 21.5t-54 -21.5t-19 -61.5v-102h181v-141h-181v-116h354z" />
    <glyph glyph-name="yen" unicode="&#xa5;" horiz-adv-x="704" 
d="M620 123h-174v-123h-175v123h-175v109h175v60h-175v109h163l-241 309h211l134 -184l134 184h189l-228 -309h162v-109h-174v-60h174v-109z" />
    <glyph glyph-name="brokenbar" unicode="&#xa6;" horiz-adv-x="330" 
d="M93 406v416h144v-416h-144zM93 -116v429h144v-429h-144z" />
    <glyph glyph-name="section" unicode="&#xa7;" horiz-adv-x="682" 
d="M568 -15v-24q0 -92 -59.5 -144.5t-166.5 -52.5q-221 0 -221 198v35h157v-31q0 -33 17 -50.5t47 -17.5q31 0 47.5 17t16.5 48v9q0 30 -11.5 46t-40.5 23l-153 34q-83 19 -123.5 62.5t-40.5 119.5q0 54 32.5 91t89.5 50q-42 47 -42 134v19q0 93 60.5 145.5t165.5 52.5
q108 0 164 -52t56 -147v-33h-157v31q0 33 -16.5 51t-46.5 18t-47 -17t-17 -48v-11q0 -57 52 -69l150 -34q83 -19 123.5 -62t40.5 -119q0 -52 -30 -89t-86 -52q39 -43 39 -131zM429 295l-146 33q-38 8 -62 -6.5t-24 -44.5q0 -45 54 -58l146 -33q39 -8 63 7t24 45q0 46 -55 57
z" />
    <glyph glyph-name="dieresis" unicode="&#xa8;" 
d="M105 585v158h160v-158h-160zM335 585v158h160v-158h-160z" />
    <glyph glyph-name="copyright" unicode="&#xa9;" horiz-adv-x="850" 
d="M425 -12q-159 0 -264.5 105t-105.5 262q0 156 105.5 261.5t264.5 105.5t264.5 -105.5t105.5 -261.5t-105.5 -261.5t-264.5 -105.5zM425 80q122 0 196 78t74 197t-74 197t-196 78q-121 0 -195 -78t-74 -197t74 -197t195 -78zM357 357q0 -37 20 -62t52 -25q44 0 63 36h115
q-3 -54 -47.5 -101t-130.5 -47q-84 0 -139 57t-55 142q0 84 55.5 141.5t138.5 57.5q81 0 126.5 -46.5t50.5 -98.5h-117q-21 33 -60 33q-33 0 -52.5 -24t-19.5 -63z" />
    <glyph glyph-name="ordfeminine" unicode="&#xaa;" horiz-adv-x="567" 
d="M349 266v55q-41 -64 -119 -64q-81 0 -132 62.5t-51 169.5q0 106 51.5 168t132.5 62q35 0 63 -14t37.5 -25t15.5 -21v51h152v-444h-150zM348 489q0 49 -19 76t-54 27t-55 -27t-20 -76q0 -50 19.5 -77t55.5 -27q73 0 73 104z" />
    <glyph glyph-name="guillemotleft" unicode="&#xab;" horiz-adv-x="604" 
d="M305 492l-104 -188l104 -191h-150l-100 190l101 189h149zM548 492l-106 -188l106 -191h-150l-102 190l103 189h149z" />
    <glyph glyph-name="registered" unicode="&#xae;" horiz-adv-x="609" 
d="M304 206q-113 0 -187.5 74t-74.5 185q0 110 75 185t187 75t187.5 -75t75.5 -185t-75.5 -184.5t-187.5 -74.5zM304 276q85 0 135.5 53t50.5 136t-50.5 136.5t-135.5 53.5q-84 0 -134.5 -53.5t-50.5 -136.5t50.5 -136t134.5 -53zM191 343v254h136q49 0 76 -23t27 -65
q0 -53 -41 -73l46 -93h-86l-37 81h-39v-81h-82zM320 528h-47v-39h47q27 0 27 20q0 19 -27 19z" />
    <glyph glyph-name="macron" unicode="&#xaf;" horiz-adv-x="500" 
d="M421 606h-342v123h342v-123z" />
    <glyph glyph-name="degree" unicode="&#xb0;" horiz-adv-x="527" 
d="M264 332q-84 0 -140 56t-56 139t56 139t140 56q83 0 139 -56t56 -139t-56 -139t-139 -56zM264 437q38 0 62 25.5t24 64.5t-24 64.5t-62 25.5q-39 0 -63 -25.5t-24 -64.5t24 -64.5t63 -25.5z" />
    <glyph glyph-name="two.sup" unicode="&#xb2;" horiz-adv-x="506" 
d="M469 345v-115h-413v89l194 170q28 26 39.5 43t11.5 39q0 24 -15 39t-43 15q-29 0 -44.5 -17t-15.5 -47v-21h-133v23q0 81 51.5 131.5t142.5 50.5q93 0 146 -45t53 -121q0 -53 -27 -91t-85 -87l-64 -56h202z" />
    <glyph glyph-name="three.sup" unicode="&#xb3;" horiz-adv-x="517" 
d="M467 378q0 -72 -56.5 -114.5t-156.5 -42.5q-103 0 -158 50t-58 111h142q3 -17 22 -31.5t52 -14.5q71 0 71 51q0 46 -56 46h-101v110h89q54 0 54 43q0 21 -16.5 34t-46.5 13q-29 0 -44.5 -14t-19.5 -30h-138q3 62 55 109t147 47q97 0 149.5 -38t52.5 -110q0 -38 -20 -63
t-47 -34q84 -30 84 -122z" />
    <glyph glyph-name="acute" unicode="&#xb4;" 
d="M164 582l109 190h163l-116 -190h-156z" />
    <glyph glyph-name="paragraph" unicode="&#xb6;" horiz-adv-x="716" 
d="M35 503q0 96 63 151.5t166 55.5h366v-710h-119v599h-102v-599h-119v296h-26q-103 0 -166 56.5t-63 150.5z" />
    <glyph glyph-name="periodcentered" unicode="&#xb7;" horiz-adv-x="332" 
d="M73 251v196h187v-196h-187z" />
    <glyph glyph-name="cedilla" unicode="&#xb8;" 
d="M319 -157q0 26 -31 26h-96v131h118v-43h5q63 -1 95.5 -31.5t32.5 -86.5q0 -59 -33 -92.5t-98 -33.5h-155v103h131q31 0 31 27z" />
    <glyph glyph-name="one.sup" unicode="&#xb9;" horiz-adv-x="385" 
d="M306 738v-508h-140v360l-126 -68v124l161 92h105z" />
    <glyph glyph-name="ordmasculine" unicode="&#xba;" horiz-adv-x="578" 
d="M289 722q102 0 166 -63.5t64 -170.5q0 -106 -64.5 -170t-165.5 -64t-165.5 64t-64.5 170q0 107 64 170.5t166 63.5zM289 382q38 0 58.5 29.5t20.5 76.5q0 49 -20.5 78t-58.5 29t-58.5 -29t-20.5 -78q0 -47 20.5 -76.5t58.5 -29.5z" />
    <glyph glyph-name="guillemotright" unicode="&#xbb;" horiz-adv-x="604" 
d="M549 303l-101 -190h-149l104 189l-103 190h150zM308 303l-102 -190h-149l105 189l-105 190h149z" />
    <glyph glyph-name="onequarter" unicode="&#xbc;" horiz-adv-x="1025" 
d="M995 106h-85v-106h-130v106h-232v90l201 247h161v-233h85v-104zM673 210h107v135zM283 712v-445h-134v307l-113 -59v115l146 82h101zM305 0h-134l463 710h133z" />
    <glyph glyph-name="onehalf" unicode="&#xbd;" horiz-adv-x="1015" 
d="M283 712v-445h-134v307l-113 -59v115l146 82h101zM303 0h-134l463 710h133zM981 108v-108h-374v84l175 148q23 20 32.5 34t9.5 31q0 19 -12.5 31t-34.5 12q-49 0 -49 -53v-17h-126v19q0 72 46 117t129 45q85 0 133 -40t48 -107q0 -47 -24 -80.5t-75 -74.5l-50 -41h172z
" />
    <glyph glyph-name="threequarters" unicode="&#xbe;" horiz-adv-x="1123" 
d="M424 398q0 -64 -51.5 -101.5t-143.5 -37.5q-93 0 -143 45t-53 99h135q3 -13 18 -25.5t43 -12.5q60 0 60 40q0 35 -45 35h-93v105h84q40 0 40 31q0 38 -52 38q-43 0 -52 -35h-133q3 56 50.5 97.5t134.5 41.5q90 0 138 -33.5t48 -97.5q0 -59 -60 -83q31 -10 53 -36t22 -70z
M1093 106h-85v-106h-130v106h-232v90l201 247h161v-233h85v-104zM771 210h107v135zM402 0h-134l463 710h133z" />
    <glyph glyph-name="questiondown" unicode="&#xbf;" horiz-adv-x="551" 
d="M246 273v7h161v-36q0 -49 -16 -75t-68 -55l-68 -40q-56 -34 -56 -78q0 -32 19.5 -49.5t54.5 -17.5t55 21t20 57v26h158v-37q0 -91 -61.5 -145.5t-171.5 -54.5q-114 0 -175.5 52.5t-61.5 147.5q0 71 32 115.5t103 83.5l49 30q26 15 26 48zM420 518v-176h-187v176h187z" />
    <glyph glyph-name="Agrave" unicode="&#xc0;" horiz-adv-x="830" 
d="M633 0l-53 123h-338l-53 -123h-171l311 711h174l310 -711h-180zM303 265h216l-108 251zM497 769h-166l-120 162h174z" />
    <glyph glyph-name="Aacute" unicode="&#xc1;" horiz-adv-x="830" 
d="M633 0l-53 123h-338l-53 -123h-171l311 711h174l310 -711h-180zM303 265h216l-108 251zM332 769l112 162h174l-120 -162h-166z" />
    <glyph glyph-name="Acircumflex" unicode="&#xc2;" horiz-adv-x="830" 
d="M633 0l-53 123h-338l-53 -123h-171l311 711h174l310 -711h-180zM303 265h216l-108 251zM480 768l-66 77l-66 -77h-151l140 166h154l137 -166h-148z" />
    <glyph glyph-name="Atilde" unicode="&#xc3;" horiz-adv-x="830" 
d="M633 0l-53 123h-338l-53 -123h-171l311 711h174l310 -711h-180zM303 265h216l-108 251zM421 799l-38 17q-21 10 -31 10q-15 0 -15 -20v-40h-113v87q0 45 23 71t67 26q33 0 93 -29l37 -17q20 -10 32 -10q15 0 15 20v41h113v-88q0 -45 -23.5 -70.5t-67.5 -25.5
q-31 0 -92 28z" />
    <glyph glyph-name="Adieresis" unicode="&#xc4;" horiz-adv-x="830" 
d="M633 0l-53 123h-338l-53 -123h-171l311 711h174l310 -711h-180zM303 265h216l-108 251zM216 769v158h159v-158h-159zM453 769v158h159v-158h-159z" />
    <glyph glyph-name="Aring" unicode="&#xc5;" horiz-adv-x="830" 
d="M633 0l-53 123h-338l-53 -123h-171l311 711h174l310 -711h-180zM303 265h216l-108 251zM414 759q-62 0 -101.5 39.5t-39.5 97.5q0 60 39.5 99t101.5 39t102 -39t40 -99q0 -58 -40 -97.5t-102 -39.5zM414 840q25 0 40.5 16t15.5 40q0 26 -15.5 41.5t-40.5 15.5
t-40.5 -15.5t-15.5 -41.5q0 -24 15.5 -40t40.5 -16z" />
    <glyph glyph-name="AE" unicode="&#xc6;" horiz-adv-x="1180" 
d="M1144 147v-147h-615v149h-259l-91 -149h-186l441 710h671v-140h-406v-128h234v-143h-234v-152h445zM357 290h172v280z" />
    <glyph glyph-name="Ccedilla" unicode="&#xc7;" horiz-adv-x="798" 
d="M416 -12q-159 0 -261.5 104t-102.5 263t102.5 263t261.5 104q81 0 146 -25.5t103 -65t59 -77t28 -72.5h-173q-11 18 -27.5 35t-53.5 34.5t-82 17.5q-86 0 -138 -61.5t-52 -152.5t52 -152.5t138 -61.5q112 0 164 87h172q-4 -24 -16.5 -52.5t-39 -62.5t-62.5 -61t-93 -45.5
t-125 -18.5zM460 -157q0 26 -31 26h-96v131h118v-43h5q63 -1 95.5 -31.5t32.5 -86.5q0 -59 -33 -92.5t-98 -33.5h-155v103h131q31 0 31 27z" />
    <glyph glyph-name="Egrave" unicode="&#xc8;" horiz-adv-x="755" 
d="M86 0v710h594v-140h-424v-128h253v-143h-253v-152h463v-147h-633zM475 769h-166l-120 162h174z" />
    <glyph glyph-name="Eacute" unicode="&#xc9;" horiz-adv-x="755" 
d="M86 0v710h594v-140h-424v-128h253v-143h-253v-152h463v-147h-633zM306 769l112 162h174l-120 -162h-166z" />
    <glyph glyph-name="Ecircumflex" unicode="&#xca;" horiz-adv-x="755" 
d="M86 0v710h594v-140h-424v-128h253v-143h-253v-152h463v-147h-633zM458 768l-66 77l-66 -77h-151l140 166h154l137 -166h-148z" />
    <glyph glyph-name="Edieresis" unicode="&#xcb;" horiz-adv-x="755" 
d="M86 0v710h594v-140h-424v-128h253v-143h-253v-152h463v-147h-633zM194 769v158h159v-158h-159zM431 769v158h159v-158h-159z" />
    <glyph glyph-name="Igrave" unicode="&#xcc;" horiz-adv-x="346" 
d="M88 0v710h170v-710h-170zM255 769h-166l-120 162h174z" />
    <glyph glyph-name="Iacute" unicode="&#xcd;" horiz-adv-x="346" 
d="M88 0v710h170v-710h-170zM90 769l112 162h174l-120 -162h-166z" />
    <glyph glyph-name="Icircumflex" unicode="&#xce;" horiz-adv-x="346" 
d="M88 0v710h170v-710h-170zM238 768l-66 77l-66 -77h-151l140 166h154l137 -166h-148z" />
    <glyph glyph-name="Idieresis" unicode="&#xcf;" horiz-adv-x="346" 
d="M88 0v710h170v-710h-170zM-26 769v158h159v-158h-159zM211 769v158h159v-158h-159z" />
    <glyph glyph-name="Eth" unicode="&#xd0;" horiz-adv-x="851" 
d="M12 286v143h104v281h294q176 0 282.5 -92.5t106.5 -262.5q0 -167 -107.5 -261t-281.5 -94h-294v286h-104zM407 564h-121v-135h185v-143h-185v-140h121q100 0 159.5 55.5t59.5 153.5q0 101 -59 155t-160 54z" />
    <glyph glyph-name="Ntilde" unicode="&#xd1;" horiz-adv-x="863" 
d="M777 710v-712h-138l-387 491v-489h-166v710h193l336 -435v435h162zM448 799l-38 17q-21 10 -31 10q-15 0 -15 -20v-40h-113v87q0 45 23 71t67 26q33 0 93 -29l37 -17q20 -10 32 -10q15 0 15 20v41h113v-88q0 -45 -23.5 -70.5t-67.5 -25.5q-31 0 -92 28z" />
    <glyph glyph-name="Ograve" unicode="&#xd2;" horiz-adv-x="857" 
d="M429 -12q-161 0 -269 103.5t-108 263.5q0 162 107.5 264.5t269.5 102.5q161 0 268.5 -102.5t107.5 -264.5q0 -160 -107.5 -263.5t-268.5 -103.5zM429 140q92 0 147.5 61.5t55.5 153.5t-55.5 153.5t-147.5 61.5q-91 0 -147.5 -61.5t-56.5 -153.5t56.5 -153.5t147.5 -61.5z
M512 769h-166l-120 162h174z" />
    <glyph glyph-name="Oacute" unicode="&#xd3;" horiz-adv-x="857" 
d="M429 -12q-161 0 -269 103.5t-108 263.5q0 162 107.5 264.5t269.5 102.5q161 0 268.5 -102.5t107.5 -264.5q0 -160 -107.5 -263.5t-268.5 -103.5zM429 140q92 0 147.5 61.5t55.5 153.5t-55.5 153.5t-147.5 61.5q-91 0 -147.5 -61.5t-56.5 -153.5t56.5 -153.5t147.5 -61.5z
M347 769l112 162h174l-120 -162h-166z" />
    <glyph glyph-name="Ocircumflex" unicode="&#xd4;" horiz-adv-x="857" 
d="M429 -12q-161 0 -269 103.5t-108 263.5q0 162 107.5 264.5t269.5 102.5q161 0 268.5 -102.5t107.5 -264.5q0 -160 -107.5 -263.5t-268.5 -103.5zM429 140q92 0 147.5 61.5t55.5 153.5t-55.5 153.5t-147.5 61.5q-91 0 -147.5 -61.5t-56.5 -153.5t56.5 -153.5t147.5 -61.5z
M495 768l-66 77l-66 -77h-151l140 166h154l137 -166h-148z" />
    <glyph glyph-name="Otilde" unicode="&#xd5;" horiz-adv-x="857" 
d="M429 -12q-161 0 -269 103.5t-108 263.5q0 162 107.5 264.5t269.5 102.5q161 0 268.5 -102.5t107.5 -264.5q0 -160 -107.5 -263.5t-268.5 -103.5zM429 140q92 0 147.5 61.5t55.5 153.5t-55.5 153.5t-147.5 61.5q-91 0 -147.5 -61.5t-56.5 -153.5t56.5 -153.5t147.5 -61.5z
M436 799l-38 17q-21 10 -31 10q-15 0 -15 -20v-40h-113v87q0 45 23 71t67 26q33 0 93 -29l37 -17q20 -10 32 -10q15 0 15 20v41h113v-88q0 -45 -23.5 -70.5t-67.5 -25.5q-31 0 -92 28z" />
    <glyph glyph-name="Odieresis" unicode="&#xd6;" horiz-adv-x="857" 
d="M429 -12q-161 0 -269 103.5t-108 263.5q0 162 107.5 264.5t269.5 102.5q161 0 268.5 -102.5t107.5 -264.5q0 -160 -107.5 -263.5t-268.5 -103.5zM429 140q92 0 147.5 61.5t55.5 153.5t-55.5 153.5t-147.5 61.5q-91 0 -147.5 -61.5t-56.5 -153.5t56.5 -153.5t147.5 -61.5z
M231 769v158h159v-158h-159zM468 769v158h159v-158h-159z" />
    <glyph glyph-name="multiply" unicode="&#xd7;" horiz-adv-x="678" 
d="M605 157l-106 -103l-161 162l-160 -162l-105 101l162 164l-162 163l107 106l160 -162l160 162l105 -102l-162 -164z" />
    <glyph glyph-name="Oslash" unicode="&#xd8;" horiz-adv-x="857" 
d="M805 355q0 -160 -107.5 -263.5t-268.5 -103.5q-111 0 -197 52l-36 -40h-173l110 123q-81 97 -81 232q0 162 107.5 264.5t269.5 102.5q107 0 195 -51l34 39h176l-110 -122q81 -100 81 -233zM224 355q0 -61 21 -108l276 308q-39 18 -92 18q-92 0 -148.5 -62t-56.5 -156z
M634 355q0 65 -22 110l-278 -309q42 -19 95 -19q92 0 148.5 62t56.5 156z" />
    <glyph glyph-name="Ugrave" unicode="&#xd9;" horiz-adv-x="844" 
d="M423 140q80 0 125.5 49.5t45.5 132.5v388h168v-399q0 -142 -89.5 -234t-249.5 -92q-165 0 -253 91t-88 235v399h170v-388q0 -83 44.5 -132.5t126.5 -49.5zM509 769h-166l-120 162h174z" />
    <glyph glyph-name="Uacute" unicode="&#xda;" horiz-adv-x="844" 
d="M423 140q80 0 125.5 49.5t45.5 132.5v388h168v-399q0 -142 -89.5 -234t-249.5 -92q-165 0 -253 91t-88 235v399h170v-388q0 -83 44.5 -132.5t126.5 -49.5zM334 769l112 162h174l-120 -162h-166z" />
    <glyph glyph-name="Ucircumflex" unicode="&#xdb;" horiz-adv-x="844" 
d="M423 140q80 0 125.5 49.5t45.5 132.5v388h168v-399q0 -142 -89.5 -234t-249.5 -92q-165 0 -253 91t-88 235v399h170v-388q0 -83 44.5 -132.5t126.5 -49.5zM487 768l-66 77l-66 -77h-151l140 166h154l137 -166h-148z" />
    <glyph glyph-name="Udieresis" unicode="&#xdc;" horiz-adv-x="844" 
d="M423 140q80 0 125.5 49.5t45.5 132.5v388h168v-399q0 -142 -89.5 -234t-249.5 -92q-165 0 -253 91t-88 235v399h170v-388q0 -83 44.5 -132.5t126.5 -49.5zM223 769v158h159v-158h-159zM460 769v158h159v-158h-159z" />
    <glyph glyph-name="Yacute" unicode="&#xdd;" horiz-adv-x="798" 
d="M495 298v-298h-178v299l-315 411h216l193 -258l194 258h191zM319 769l112 162h174l-120 -162h-166z" />
    <glyph glyph-name="Thorn" unicode="&#xde;" horiz-adv-x="802" 
d="M508 140h-253v-140h-169v710h169v-124h253q120 0 184.5 -57t64.5 -166q0 -107 -65.5 -165t-183.5 -58zM492 438h-237v-150h237q90 0 90 75t-90 75z" />
    <glyph glyph-name="germandbls" unicode="&#xdf;" horiz-adv-x="667" 
d="M236 511v-511h-163v514q0 113 65.5 173.5t189.5 60.5q118 0 185 -53t67 -146q0 -57 -27.5 -94t-65.5 -49q54 -14 96 -62.5t42 -127.5q0 -100 -62.5 -158t-175.5 -58h-88v143h65q48 0 73.5 22t25.5 61q0 40 -25.5 62t-73.5 22h-65v142h33q41 0 64 19.5t23 57.5t-24.5 58
t-66.5 20q-43 0 -67.5 -24.5t-24.5 -71.5z" />
    <glyph glyph-name="agrave" unicode="&#xe0;" horiz-adv-x="677" 
d="M445 0v76q-8 -14 -23 -31t-55 -36.5t-89 -19.5q-100 0 -167.5 73.5t-67.5 196.5q0 122 67.5 195.5t168.5 73.5q37 0 68 -10t50.5 -25t30 -26.5t15.5 -20.5v72h162v-518h-160zM445 259q0 57 -32.5 94t-85.5 37t-86.5 -37t-33.5 -94t33.5 -94t86.5 -37t85.5 37t32.5 94z
M404 582h-156l-116 190h163z" />
    <glyph glyph-name="aacute" unicode="&#xe1;" horiz-adv-x="677" 
d="M445 0v76q-8 -14 -23 -31t-55 -36.5t-89 -19.5q-100 0 -167.5 73.5t-67.5 196.5q0 122 67.5 195.5t168.5 73.5q37 0 68 -10t50.5 -25t30 -26.5t15.5 -20.5v72h162v-518h-160zM445 259q0 57 -32.5 94t-85.5 37t-86.5 -37t-33.5 -94t33.5 -94t86.5 -37t85.5 37t32.5 94z
M244 582l109 190h163l-116 -190h-156z" />
    <glyph glyph-name="acircumflex" unicode="&#xe2;" horiz-adv-x="677" 
d="M445 0v76q-8 -14 -23 -31t-55 -36.5t-89 -19.5q-100 0 -167.5 73.5t-67.5 196.5q0 122 67.5 195.5t168.5 73.5q37 0 68 -10t50.5 -25t30 -26.5t15.5 -20.5v72h162v-518h-160zM445 259q0 57 -32.5 94t-85.5 37t-86.5 -37t-33.5 -94t33.5 -94t86.5 -37t85.5 37t32.5 94z
M388 581l-61 95l-61 -95h-143l132 198h144l129 -198h-140z" />
    <glyph glyph-name="atilde" unicode="&#xe3;" horiz-adv-x="677" 
d="M445 0v76q-8 -14 -23 -31t-55 -36.5t-89 -19.5q-100 0 -167.5 73.5t-67.5 196.5q0 122 67.5 195.5t168.5 73.5q37 0 68 -10t50.5 -25t30 -26.5t15.5 -20.5v72h162v-518h-160zM445 259q0 57 -32.5 94t-85.5 37t-86.5 -37t-33.5 -94t33.5 -94t86.5 -37t85.5 37t32.5 94z
M258 578h-109v90q0 97 88 97q37 0 86 -30l29 -17q16 -12 28 -12q16 0 16 21v43h110v-91q0 -45 -22.5 -70.5t-66.5 -25.5q-39 0 -86 29l-29 18q-19 11 -28 11q-16 0 -16 -20v-43z" />
    <glyph glyph-name="adieresis" unicode="&#xe4;" horiz-adv-x="677" 
d="M445 0v76q-8 -14 -23 -31t-55 -36.5t-89 -19.5q-100 0 -167.5 73.5t-67.5 196.5q0 122 67.5 195.5t168.5 73.5q37 0 68 -10t50.5 -25t30 -26.5t15.5 -20.5v72h162v-518h-160zM445 259q0 57 -32.5 94t-85.5 37t-86.5 -37t-33.5 -94t33.5 -94t86.5 -37t85.5 37t32.5 94z
M132 585v158h160v-158h-160zM362 585v158h160v-158h-160z" />
    <glyph glyph-name="aring" unicode="&#xe5;" horiz-adv-x="677" 
d="M445 0v76q-8 -14 -23 -31t-55 -36.5t-89 -19.5q-100 0 -167.5 73.5t-67.5 196.5q0 122 67.5 195.5t168.5 73.5q37 0 68 -10t50.5 -25t30 -26.5t15.5 -20.5v72h162v-518h-160zM445 259q0 57 -32.5 94t-85.5 37t-86.5 -37t-33.5 -94t33.5 -94t86.5 -37t85.5 37t32.5 94z
M327 572q-62 0 -101.5 39.5t-39.5 97.5q0 60 39.5 99t101.5 39t102 -39t40 -99q0 -58 -40 -97.5t-102 -39.5zM327 653q25 0 40.5 16t15.5 40q0 26 -15.5 41.5t-40.5 15.5t-40.5 -15.5t-15.5 -41.5q0 -24 15.5 -40t40.5 -16z" />
    <glyph glyph-name="ae" unicode="&#xe6;" horiz-adv-x="985" 
d="M676 531q123 0 197 -74t74 -201v-29h-388q6 -50 40 -81.5t84 -31.5q69 0 98 40h161q-8 -58 -74 -112.5t-185 -54.5q-148 0 -227 99q-58 -98 -192 -98q-100 0 -162 47.5t-62 127.5q0 78 54 120t151 42h156q0 37 -26 60t-73 23q-36 0 -59 -14.5t-26 -27.5h-165
q2 21 16.5 47t42 53.5t77 46t111.5 18.5q136 0 192 -73q28 33 77 53t108 20zM673 413q-45 0 -73.5 -23t-37.5 -65h222q-10 42 -39 65t-72 23zM200 168q0 -31 25 -48.5t68 -17.5q48 0 78 23.5t30 60.5v37h-119q-82 0 -82 -55z" />
    <glyph glyph-name="ccedilla" unicode="&#xe7;" horiz-adv-x="607" 
d="M571 337h-158q-33 53 -97 53q-50 0 -80.5 -37t-30.5 -94t31 -94.5t81 -37.5q29 0 52.5 11.5t32.5 22t13 19.5h156q-3 -48 -38.5 -96.5t-102.5 -76.5q-34 -13 -81 -18v-32h5q63 -1 95.5 -31.5t32.5 -86.5q0 -59 -33 -92.5t-98 -33.5h-155v103h130q32 0 32 27q0 26 -32 26
h-95v129l-25 8q-75 30 -119.5 96t-44.5 157q0 121 77 196.5t192 75.5q65 0 116 -19.5t80 -50t45 -62t19 -62.5z" />
    <glyph glyph-name="egrave" unicode="&#xe8;" horiz-adv-x="635" 
d="M319 531q125 0 201 -74.5t76 -200.5v-28h-394q6 -50 40.5 -82t87.5 -32q67 0 100 40h161q-3 -25 -19.5 -52t-46 -54t-81 -44t-114.5 -17q-131 0 -209.5 76t-78.5 196q0 122 77 197t200 75zM319 413q-90 0 -114 -86h228q-23 86 -114 86zM396 582h-156l-116 190h163z" />
    <glyph glyph-name="eacute" unicode="&#xe9;" horiz-adv-x="635" 
d="M319 531q125 0 201 -74.5t76 -200.5v-28h-394q6 -50 40.5 -82t87.5 -32q67 0 100 40h161q-3 -25 -19.5 -52t-46 -54t-81 -44t-114.5 -17q-131 0 -209.5 76t-78.5 196q0 122 77 197t200 75zM319 413q-90 0 -114 -86h228q-23 86 -114 86zM237 582l109 190h163l-116 -190
h-156z" />
    <glyph glyph-name="ecircumflex" unicode="&#xea;" horiz-adv-x="635" 
d="M319 531q125 0 201 -74.5t76 -200.5v-28h-394q6 -50 40.5 -82t87.5 -32q67 0 100 40h161q-3 -25 -19.5 -52t-46 -54t-81 -44t-114.5 -17q-131 0 -209.5 76t-78.5 196q0 122 77 197t200 75zM319 413q-90 0 -114 -86h228q-23 86 -114 86zM380 581l-61 95l-61 -95h-143
l132 198h144l129 -198h-140z" />
    <glyph glyph-name="edieresis" unicode="&#xeb;" horiz-adv-x="635" 
d="M319 531q125 0 201 -74.5t76 -200.5v-28h-394q6 -50 40.5 -82t87.5 -32q67 0 100 40h161q-3 -25 -19.5 -52t-46 -54t-81 -44t-114.5 -17q-131 0 -209.5 76t-78.5 196q0 122 77 197t200 75zM319 413q-90 0 -114 -86h228q-23 86 -114 86zM124 585v158h160v-158h-160z
M354 585v158h160v-158h-160z" />
    <glyph glyph-name="igrave" unicode="&#xec;" horiz-adv-x="309" 
d="M73 0v518h163v-518h-163zM231 582h-156l-116 190h163z" />
    <glyph glyph-name="iacute" unicode="&#xed;" horiz-adv-x="309" 
d="M73 0v518h163v-518h-163zM75 582l109 190h163l-116 -190h-156z" />
    <glyph glyph-name="icircumflex" unicode="&#xee;" horiz-adv-x="309" 
d="M209 581l-55 96l-55 -96h-143l124 198h148l121 -198h-140zM73 0v518h163v-518h-163z" />
    <glyph glyph-name="idieresis" unicode="&#xef;" horiz-adv-x="309" 
d="M-34 585v158h154v-158h-154zM188 585v158h154v-158h-154zM73 0v518h163v-518h-163z" />
    <glyph glyph-name="eth" unicode="&#xf0;" horiz-adv-x="651" 
d="M610 259q0 -119 -80.5 -195.5t-203.5 -76.5t-203.5 76.5t-80.5 195.5q0 105 63 174.5t161 69.5q53 0 96 -32l-78 94l-162 -55l-33 89l130 44l-78 93h178l38 -46l130 44l33 -89l-97 -33l67 -80q64 -77 92 -136t28 -137zM326 128q55 0 89 37t34 94q0 56 -34 93.5t-89 37.5
t-89 -37.5t-34 -93.5q0 -57 34 -94t89 -37z" />
    <glyph glyph-name="ntilde" unicode="&#xf1;" horiz-adv-x="678" 
d="M234 272v-272h-162v518h162v-80q17 32 62 61.5t105 29.5q95 0 153 -62.5t58 -161.5v-305h-163v272q0 52 -29 82.5t-78 30.5t-78.5 -31t-29.5 -82zM273 578h-109v90q0 97 88 97q37 0 86 -30l29 -17q17 -12 28 -12q16 0 16 21v43h110v-91q0 -45 -22.5 -70.5t-66.5 -25.5
q-39 0 -86 29l-29 18q-19 11 -28 11q-16 0 -16 -20v-43z" />
    <glyph glyph-name="ograve" unicode="&#xf2;" horiz-adv-x="651" 
d="M326 531q123 0 203.5 -76.5t80.5 -195.5t-80.5 -195.5t-203.5 -76.5t-203.5 76.5t-80.5 195.5t80.5 195.5t203.5 76.5zM326 128q54 0 87.5 37t33.5 94t-33.5 94t-87.5 37t-88 -37t-34 -94t34 -94t88 -37zM403 582h-156l-116 190h163z" />
    <glyph glyph-name="oacute" unicode="&#xf3;" horiz-adv-x="651" 
d="M326 531q123 0 203.5 -76.5t80.5 -195.5t-80.5 -195.5t-203.5 -76.5t-203.5 76.5t-80.5 195.5t80.5 195.5t203.5 76.5zM326 128q54 0 87.5 37t33.5 94t-33.5 94t-87.5 37t-88 -37t-34 -94t34 -94t88 -37zM243 582l109 190h163l-116 -190h-156z" />
    <glyph glyph-name="ocircumflex" unicode="&#xf4;" horiz-adv-x="651" 
d="M326 531q123 0 203.5 -76.5t80.5 -195.5t-80.5 -195.5t-203.5 -76.5t-203.5 76.5t-80.5 195.5t80.5 195.5t203.5 76.5zM326 128q54 0 87.5 37t33.5 94t-33.5 94t-87.5 37t-88 -37t-34 -94t34 -94t88 -37zM387 581l-61 95l-61 -95h-143l132 198h144l129 -198h-140z" />
    <glyph glyph-name="otilde" unicode="&#xf5;" horiz-adv-x="651" 
d="M326 531q123 0 203.5 -76.5t80.5 -195.5t-80.5 -195.5t-203.5 -76.5t-203.5 76.5t-80.5 195.5t80.5 195.5t203.5 76.5zM326 128q54 0 87.5 37t33.5 94t-33.5 94t-87.5 37t-88 -37t-34 -94t34 -94t88 -37zM257 578h-109v90q0 97 88 97q37 0 86 -30l29 -17q16 -12 28 -12
q16 0 16 21v43h110v-91q0 -45 -22.5 -70.5t-66.5 -25.5q-39 0 -86 29l-29 18q-19 11 -28 11q-16 0 -16 -20v-43z" />
    <glyph glyph-name="odieresis" unicode="&#xf6;" horiz-adv-x="651" 
d="M326 531q123 0 203.5 -76.5t80.5 -195.5t-80.5 -195.5t-203.5 -76.5t-203.5 76.5t-80.5 195.5t80.5 195.5t203.5 76.5zM326 128q54 0 87.5 37t33.5 94t-33.5 94t-87.5 37t-88 -37t-34 -94t34 -94t88 -37zM131 585v158h160v-158h-160zM361 585v158h160v-158h-160z" />
    <glyph glyph-name="divide" unicode="&#xf7;" horiz-adv-x="711" 
d="M265 468v174h179v-174h-179zM632 257h-556v144h556v-144zM265 10v174h179v-174h-179z" />
    <glyph glyph-name="oslash" unicode="&#xf8;" horiz-adv-x="654" 
d="M613 259q0 -119 -81.5 -195.5t-204.5 -76.5q-82 0 -149 40l-25 -27h-136l84 91q-59 72 -59 168q0 121 80.5 196.5t204.5 75.5q78 0 148 -39l24 26h137l-83 -90q60 -73 60 -169zM192 259q0 -36 9 -63l182 195q-27 8 -56 8q-60 0 -97.5 -40t-37.5 -100zM462 259q0 35 -9 64
l-183 -197q27 -8 57 -8q61 0 98 40t37 101z" />
    <glyph glyph-name="ugrave" unicode="&#xf9;" horiz-adv-x="665" 
d="M335 -12q-129 0 -199 67.5t-70 180.5v282h163v-270q0 -51 26.5 -81t76.5 -30t77 30t27 81v270h163v-282q0 -113 -69 -180.5t-195 -67.5zM409 582h-156l-116 190h163z" />
    <glyph glyph-name="uacute" unicode="&#xfa;" horiz-adv-x="665" 
d="M335 -12q-129 0 -199 67.5t-70 180.5v282h163v-270q0 -51 26.5 -81t76.5 -30t77 30t27 81v270h163v-282q0 -113 -69 -180.5t-195 -67.5zM250 582l109 190h163l-116 -190h-156z" />
    <glyph glyph-name="ucircumflex" unicode="&#xfb;" horiz-adv-x="665" 
d="M335 -12q-129 0 -199 67.5t-70 180.5v282h163v-270q0 -51 26.5 -81t76.5 -30t77 30t27 81v270h163v-282q0 -113 -69 -180.5t-195 -67.5zM393 581l-61 95l-61 -95h-143l132 198h144l129 -198h-140z" />
    <glyph glyph-name="udieresis" unicode="&#xfc;" horiz-adv-x="665" 
d="M335 -12q-129 0 -199 67.5t-70 180.5v282h163v-270q0 -51 26.5 -81t76.5 -30t77 30t27 81v270h163v-282q0 -113 -69 -180.5t-195 -67.5zM137 585v158h160v-158h-160zM367 585v158h160v-158h-160z" />
    <glyph glyph-name="yacute" unicode="&#xfd;" horiz-adv-x="616" 
d="M611 518l-300 -721h-163l87 211l-232 510h184l130 -313l130 313h164zM235 582l109 190h163l-116 -190h-156z" />
    <glyph glyph-name="thorn" unicode="&#xfe;" horiz-adv-x="683" 
d="M231 74v-277h-159v939h161v-294q4 8 15 20t31 28t52.5 27t70.5 11q102 0 170 -73.5t68 -195.5q0 -123 -68 -196.5t-170 -73.5q-70 0 -114 30t-57 55zM231 259q0 -58 33.5 -94.5t89.5 -36.5t89 36.5t33 94.5t-33 94.5t-89 36.5t-89.5 -36.5t-33.5 -94.5z" />
    <glyph glyph-name="ydieresis" unicode="&#xff;" horiz-adv-x="616" 
d="M611 518l-300 -721h-163l87 211l-232 510h184l130 -313l130 313h164zM122 585v158h160v-158h-160zM352 585v158h160v-158h-160z" />
    <glyph glyph-name="Amacron" unicode="&#x100;" horiz-adv-x="830" 
d="M633 0l-53 123h-338l-53 -123h-171l311 711h174l310 -711h-180zM303 265h216l-108 251zM599 789h-370v122h370v-122z" />
    <glyph glyph-name="amacron" unicode="&#x101;" horiz-adv-x="677" 
d="M445 0v76q-8 -14 -23 -31t-55 -36.5t-89 -19.5q-100 0 -167.5 73.5t-67.5 196.5q0 122 67.5 195.5t168.5 73.5q37 0 68 -10t50.5 -25t30 -26.5t15.5 -20.5v72h162v-518h-160zM445 259q0 57 -32.5 94t-85.5 37t-86.5 -37t-33.5 -94t33.5 -94t86.5 -37t85.5 37t32.5 94z
M498 606h-342v123h342v-123z" />
    <glyph glyph-name="Abreve" unicode="&#x102;" horiz-adv-x="830" 
d="M633 0l-53 123h-338l-53 -123h-171l311 711h174l310 -711h-180zM303 265h216l-108 251zM414 875q25 0 38.5 15.5t13.5 37.5v10h125v-13q0 -72 -45 -117.5t-132 -45.5q-88 0 -132.5 45.5t-44.5 117.5v13h125v-10q0 -22 13 -37.5t39 -15.5z" />
    <glyph glyph-name="abreve" unicode="&#x103;" horiz-adv-x="677" 
d="M445 0v76q-8 -14 -23 -31t-55 -36.5t-89 -19.5q-100 0 -167.5 73.5t-67.5 196.5q0 122 67.5 195.5t168.5 73.5q37 0 68 -10t50.5 -25t30 -26.5t15.5 -20.5v72h162v-518h-160zM445 259q0 57 -32.5 94t-85.5 37t-86.5 -37t-33.5 -94t33.5 -94t86.5 -37t85.5 37t32.5 94z
M327 689q25 0 36.5 15t11.5 37v16h125v-18q0 -72 -43.5 -117.5t-129.5 -45.5t-129.5 45.5t-43.5 117.5v18h125v-16q0 -22 11.5 -37t36.5 -15z" />
    <glyph glyph-name="Aogonek" unicode="&#x104;" horiz-adv-x="830" 
d="M633 0l-53 123h-338l-53 -123h-171l311 711h174l310 -711h-1q-63 -45 -71 -57q-6 -8 -6 -16q0 -21 27 -21h78v-109h-162q-56 0 -88.5 23.5t-32.5 67.5q0 34 18.5 58.5t55.5 53.5h2zM303 265h216l-108 251z" />
    <glyph glyph-name="aogonek" unicode="&#x105;" horiz-adv-x="677" 
d="M445 0v76q-8 -14 -23 -31t-55 -36.5t-89 -19.5q-100 0 -167.5 73.5t-67.5 196.5q0 122 67.5 195.5t168.5 73.5q37 0 68 -10t50.5 -25t30 -26.5t15.5 -20.5v72h162v-518q-6 -4 -15 -11t-14 -10.5t-12 -8.5t-11 -8t-8.5 -7.5t-7 -7.5t-5 -6.5t-3.5 -7t-1 -6.5q0 -21 27 -21
h78v-109h-161q-57 0 -89.5 22.5t-32.5 64.5q0 24 15 46t31.5 35t48.5 35zM445 259q0 57 -32.5 94t-85.5 37t-86.5 -37t-33.5 -94t33.5 -94t86.5 -37t85.5 37t32.5 94z" />
    <glyph glyph-name="Cacute" unicode="&#x106;" horiz-adv-x="798" 
d="M416 -12q-159 0 -261.5 104t-102.5 263t102.5 263t261.5 104q81 0 146 -25.5t103 -65t59 -77t28 -72.5h-173q-11 18 -27.5 35t-53.5 34.5t-82 17.5q-86 0 -138 -61.5t-52 -152.5t52 -152.5t138 -61.5q112 0 164 87h172q-4 -24 -16.5 -52.5t-39 -62.5t-62.5 -61t-93 -45.5
t-125 -18.5zM334 769l112 162h174l-120 -162h-166z" />
    <glyph glyph-name="cacute" unicode="&#x107;" horiz-adv-x="607" 
d="M571 337h-158q-33 53 -97 53q-50 0 -80.5 -37t-30.5 -94t31 -94.5t81 -37.5q29 0 52.5 11.5t32.5 22t13 19.5h156q-2 -29 -17.5 -60.5t-44.5 -62.5t-80 -50.5t-116 -19.5q-116 0 -193.5 75.5t-77.5 196.5t77 196.5t192 75.5q65 0 116 -19.5t80 -50t45 -62t19 -62.5z
M228 582l109 190h163l-116 -190h-156z" />
    <glyph glyph-name="Ccircumflex" unicode="&#x108;" horiz-adv-x="798" 
d="M416 -12q-159 0 -261.5 104t-102.5 263t102.5 263t261.5 104q81 0 146 -25.5t103 -65t59 -77t28 -72.5h-173q-11 18 -27.5 35t-53.5 34.5t-82 17.5q-86 0 -138 -61.5t-52 -152.5t52 -152.5t138 -61.5q112 0 164 87h172q-4 -24 -16.5 -52.5t-39 -62.5t-62.5 -61t-93 -45.5
t-125 -18.5zM482 768l-66 77l-66 -77h-151l140 166h154l137 -166h-148z" />
    <glyph glyph-name="ccircumflex" unicode="&#x109;" horiz-adv-x="607" 
d="M571 337h-158q-33 53 -97 53q-50 0 -80.5 -37t-30.5 -94t31 -94.5t81 -37.5q29 0 52.5 11.5t32.5 22t13 19.5h156q-2 -29 -17.5 -60.5t-44.5 -62.5t-80 -50.5t-116 -19.5q-116 0 -193.5 75.5t-77.5 196.5t77 196.5t192 75.5q65 0 116 -19.5t80 -50t45 -62t19 -62.5z
M372 581l-61 95l-61 -95h-143l132 198h144l129 -198h-140z" />
    <glyph glyph-name="Cdotaccent" unicode="&#x10a;" horiz-adv-x="798" 
d="M416 -12q-159 0 -261.5 104t-102.5 263t102.5 263t261.5 104q81 0 146 -25.5t103 -65t59 -77t28 -72.5h-173q-11 18 -27.5 35t-53.5 34.5t-82 17.5q-86 0 -138 -61.5t-52 -152.5t52 -152.5t138 -61.5q112 0 164 87h172q-4 -24 -16.5 -52.5t-39 -62.5t-62.5 -61t-93 -45.5
t-125 -18.5zM331 769v159h170v-159h-170z" />
    <glyph glyph-name="cdotaccent" unicode="&#x10b;" horiz-adv-x="607" 
d="M571 337h-158q-33 53 -97 53q-50 0 -80.5 -37t-30.5 -94t31 -94.5t81 -37.5q29 0 52.5 11.5t32.5 22t13 19.5h156q-2 -29 -17.5 -60.5t-44.5 -62.5t-80 -50.5t-116 -19.5q-116 0 -193.5 75.5t-77.5 196.5t77 196.5t192 75.5q65 0 116 -19.5t80 -50t45 -62t19 -62.5z
M226 585v160h170v-160h-170z" />
    <glyph glyph-name="Ccaron" unicode="&#x10c;" horiz-adv-x="798" 
d="M416 -12q-159 0 -261.5 104t-102.5 263t102.5 263t261.5 104q81 0 146 -25.5t103 -65t59 -77t28 -72.5h-173q-11 18 -27.5 35t-53.5 34.5t-82 17.5q-86 0 -138 -61.5t-52 -152.5t52 -152.5t138 -61.5q112 0 164 87h172q-4 -24 -16.5 -52.5t-39 -62.5t-62.5 -61t-93 -45.5
t-125 -18.5zM633 934l-140 -166h-154l-137 166h148l66 -77l66 77h151z" />
    <glyph glyph-name="ccaron" unicode="&#x10d;" horiz-adv-x="607" 
d="M571 337h-158q-33 53 -97 53q-50 0 -80.5 -37t-30.5 -94t31 -94.5t81 -37.5q29 0 52.5 11.5t32.5 22t13 19.5h156q-2 -29 -17.5 -60.5t-44.5 -62.5t-80 -50.5t-116 -19.5q-116 0 -193.5 75.5t-77.5 196.5t77 196.5t192 75.5q65 0 116 -19.5t80 -50t45 -62t19 -62.5z
M512 780l-132 -198h-144l-129 198h141l61 -96l60 96h143z" />
    <glyph glyph-name="Dcaron" unicode="&#x10e;" horiz-adv-x="821" 
d="M86 0v710h294q176 0 282.5 -92.5t106.5 -262.5q0 -167 -107.5 -261t-281.5 -94h-294zM377 564h-121v-418h121q100 0 159.5 55.5t59.5 153.5q0 101 -59 155t-160 54zM592 934l-140 -166h-154l-137 166h148l66 -77l66 77h151z" />
    <glyph glyph-name="dcaron" unicode="&#x10f;" horiz-adv-x="684" 
d="M452 0v76q-10 -16 -25 -31.5t-56 -35.5t-91 -20q-101 0 -169 73.5t-68 196.5q0 122 68.5 195.5t169.5 73.5q69 0 113 -29t56 -53v290h162v-736h-160zM452 259q0 58 -33 94.5t-89 36.5t-89.5 -36.5t-33.5 -94.5t33.5 -94.5t89.5 -36.5t89 36.5t33 94.5zM651 582l56 193
h142l-64 -193h-134z" />
    <glyph glyph-name="Dcroat" unicode="&#x110;" horiz-adv-x="841" 
d="M11 290v136h94v284h294q176 0 282.5 -92.5t106.5 -262.5q0 -167 -107.5 -261t-281.5 -94h-294v290h-94zM396 564h-121v-138h192v-136h-192v-144h121q100 0 159.5 55.5t59.5 153.5q0 101 -59 155t-160 54z" />
    <glyph glyph-name="dcroat" unicode="&#x111;" horiz-adv-x="684" 
d="M452 0v76q-10 -16 -25 -31.5t-56 -35.5t-91 -20q-101 0 -169 73.5t-68 196.5q0 122 68.5 195.5t169.5 73.5q69 0 113 -29t56 -53v124h-188v106h188v60h162v-60h76v-106h-76v-570h-160zM452 259q0 58 -33 94.5t-89 36.5t-89.5 -36.5t-33.5 -94.5t33.5 -94.5t89.5 -36.5
t89 36.5t33 94.5z" />
    <glyph glyph-name="Emacron" unicode="&#x112;" horiz-adv-x="755" 
d="M86 0v710h594v-140h-424v-128h253v-143h-253v-152h463v-147h-633zM577 789h-370v122h370v-122z" />
    <glyph glyph-name="emacron" unicode="&#x113;" horiz-adv-x="635" 
d="M319 531q125 0 201 -74.5t76 -200.5v-28h-394q6 -50 40.5 -82t87.5 -32q67 0 100 40h161q-3 -25 -19.5 -52t-46 -54t-81 -44t-114.5 -17q-131 0 -209.5 76t-78.5 196q0 122 77 197t200 75zM319 413q-90 0 -114 -86h228q-23 86 -114 86zM490 606h-342v123h342v-123z" />
    <glyph glyph-name="Ebreve" unicode="&#x114;" horiz-adv-x="755" 
d="M86 0v710h594v-140h-424v-128h253v-143h-253v-152h463v-147h-633zM392 875q25 0 38.5 15.5t13.5 37.5v10h125v-13q0 -72 -45 -117.5t-132 -45.5q-88 0 -132.5 45.5t-44.5 117.5v13h125v-10q0 -22 13 -37.5t39 -15.5z" />
    <glyph glyph-name="ebreve" unicode="&#x115;" horiz-adv-x="635" 
d="M319 531q125 0 201 -74.5t76 -200.5v-28h-394q6 -50 40.5 -82t87.5 -32q67 0 100 40h161q-3 -25 -19.5 -52t-46 -54t-81 -44t-114.5 -17q-131 0 -209.5 76t-78.5 196q0 122 77 197t200 75zM319 413q-90 0 -114 -86h228q-23 86 -114 86zM319 689q25 0 36.5 15t11.5 37v16
h125v-18q0 -72 -43.5 -117.5t-129.5 -45.5t-129.5 45.5t-43.5 117.5v18h125v-16q0 -22 11.5 -37t36.5 -15z" />
    <glyph glyph-name="Edotaccent" unicode="&#x116;" horiz-adv-x="755" 
d="M86 0v710h594v-140h-424v-128h253v-143h-253v-152h463v-147h-633zM307 769v159h170v-159h-170z" />
    <glyph glyph-name="edotaccent" unicode="&#x117;" horiz-adv-x="635" 
d="M319 531q125 0 201 -74.5t76 -200.5v-28h-394q6 -50 40.5 -82t87.5 -32q67 0 100 40h161q-3 -25 -19.5 -52t-46 -54t-81 -44t-114.5 -17q-131 0 -209.5 76t-78.5 196q0 122 77 197t200 75zM319 413q-90 0 -114 -86h228q-23 86 -114 86zM234 585v160h170v-160h-170z" />
    <glyph glyph-name="Eogonek" unicode="&#x118;" horiz-adv-x="755" 
d="M86 0v710h594v-140h-424v-128h253v-143h-253v-152h463v-147h-633zM650 -94v-109h-162q-57 0 -89.5 23t-32.5 67q0 33 23.5 58t69.5 55h163q-62 -45 -71 -56q-7 -9 -7 -17q0 -21 27 -21h79z" />
    <glyph glyph-name="eogonek" unicode="&#x119;" horiz-adv-x="635" 
d="M319 531q125 0 201 -74.5t76 -200.5v-28h-394q6 -50 40.5 -82t87.5 -32q67 0 100 40h161q-7 -54 -81 -124q-52 -48 -69 -66.5t-17 -33.5q0 -24 33 -24h77v-109h-162q-58 0 -90.5 22t-32.5 63q0 59 90 105h-9q-131 0 -209.5 76t-78.5 196q0 122 77 197t200 75zM319 413
q-90 0 -114 -86h228q-23 86 -114 86z" />
    <glyph glyph-name="Ecaron" unicode="&#x11a;" horiz-adv-x="755" 
d="M86 0v710h594v-140h-424v-128h253v-143h-253v-152h463v-147h-633zM609 934l-140 -166h-154l-137 166h148l66 -77l66 77h151z" />
    <glyph glyph-name="ecaron" unicode="&#x11b;" horiz-adv-x="635" 
d="M319 531q125 0 201 -74.5t76 -200.5v-28h-394q6 -50 40.5 -82t87.5 -32q67 0 100 40h161q-3 -25 -19.5 -52t-46 -54t-81 -44t-114.5 -17q-131 0 -209.5 76t-78.5 196q0 122 77 197t200 75zM319 413q-90 0 -114 -86h228q-23 86 -114 86zM520 780l-132 -198h-144l-129 198
h141l61 -96l60 96h143z" />
    <glyph glyph-name="Gcircumflex" unicode="&#x11c;" horiz-adv-x="837" 
d="M766 420v-333q-42 -37 -123.5 -68.5t-193.5 -31.5q-182 0 -289.5 101.5t-107.5 270.5q0 160 103.5 263t265.5 103q78 0 140.5 -20.5t99.5 -53.5t58.5 -66t30.5 -67h-179q-51 59 -150 59q-88 0 -142.5 -62t-54.5 -156q0 -102 60.5 -164t168.5 -62q102 0 150 31v117h-224
v139h387zM487 768l-66 77l-66 -77h-151l140 166h154l137 -166h-148z" />
    <glyph glyph-name="gcircumflex" unicode="&#x11d;" horiz-adv-x="681" 
d="M449 25v57q-6 -13 -22.5 -30.5t-57 -36.5t-89.5 -19q-102 0 -169.5 73t-67.5 193q0 121 67.5 193.5t170.5 72.5q48 0 88 -18.5t56 -34.5t22 -29v72h162v-497q0 -110 -70.5 -172.5t-213.5 -62.5q-69 0 -124.5 18.5t-86.5 45.5t-47 51.5t-20 43.5h192q4 -6 12 -12.5
t28.5 -13.5t45.5 -7q60 0 92 29t32 84zM449 262q0 56 -33 92t-88 36t-88 -36t-33 -92t33 -92t88 -36t88 36t33 92zM388 581l-61 95l-61 -95h-143l132 198h144l129 -198h-140z" />
    <glyph glyph-name="Gbreve" unicode="&#x11e;" horiz-adv-x="837" 
d="M766 420v-333q-42 -37 -123.5 -68.5t-193.5 -31.5q-182 0 -289.5 101.5t-107.5 270.5q0 160 103.5 263t265.5 103q78 0 140.5 -20.5t99.5 -53.5t58.5 -66t30.5 -67h-179q-51 59 -150 59q-88 0 -142.5 -62t-54.5 -156q0 -102 60.5 -164t168.5 -62q102 0 150 31v117h-224
v139h387zM421 875q25 0 38.5 15.5t13.5 37.5v10h125v-13q0 -72 -45 -117.5t-132 -45.5q-88 0 -132.5 45.5t-44.5 117.5v13h125v-10q0 -22 13 -37.5t39 -15.5z" />
    <glyph glyph-name="gbreve" unicode="&#x11f;" horiz-adv-x="681" 
d="M449 25v57q-6 -13 -22.5 -30.5t-57 -36.5t-89.5 -19q-102 0 -169.5 73t-67.5 193q0 121 67.5 193.5t170.5 72.5q48 0 88 -18.5t56 -34.5t22 -29v72h162v-497q0 -110 -70.5 -172.5t-213.5 -62.5q-69 0 -124.5 18.5t-86.5 45.5t-47 51.5t-20 43.5h192q4 -6 12 -12.5
t28.5 -13.5t45.5 -7q60 0 92 29t32 84zM449 262q0 56 -33 92t-88 36t-88 -36t-33 -92t33 -92t88 -36t88 36t33 92zM327 689q25 0 36.5 15t11.5 37v16h125v-18q0 -72 -43.5 -117.5t-129.5 -45.5t-129.5 45.5t-43.5 117.5v18h125v-16q0 -22 11.5 -37t36.5 -15z" />
    <glyph glyph-name="Gdotaccent" unicode="&#x120;" horiz-adv-x="837" 
d="M766 420v-333q-42 -37 -123.5 -68.5t-193.5 -31.5q-182 0 -289.5 101.5t-107.5 270.5q0 160 103.5 263t265.5 103q78 0 140.5 -20.5t99.5 -53.5t58.5 -66t30.5 -67h-179q-51 59 -150 59q-88 0 -142.5 -62t-54.5 -156q0 -102 60.5 -164t168.5 -62q102 0 150 31v117h-224
v139h387zM336 769v159h170v-159h-170z" />
    <glyph glyph-name="gdotaccent" unicode="&#x121;" horiz-adv-x="681" 
d="M449 25v57q-6 -13 -22.5 -30.5t-57 -36.5t-89.5 -19q-102 0 -169.5 73t-67.5 193q0 121 67.5 193.5t170.5 72.5q48 0 88 -18.5t56 -34.5t22 -29v72h162v-497q0 -110 -70.5 -172.5t-213.5 -62.5q-69 0 -124.5 18.5t-86.5 45.5t-47 51.5t-20 43.5h192q4 -6 12 -12.5
t28.5 -13.5t45.5 -7q60 0 92 29t32 84zM449 262q0 56 -33 92t-88 36t-88 -36t-33 -92t33 -92t88 -36t88 36t33 92zM242 585v160h170v-160h-170z" />
    <glyph glyph-name="uni0122" unicode="&#x122;" horiz-adv-x="837" 
d="M766 420v-333q-42 -37 -123.5 -68.5t-193.5 -31.5q-182 0 -289.5 101.5t-107.5 270.5q0 160 103.5 263t265.5 103q78 0 140.5 -20.5t99.5 -53.5t58.5 -66t30.5 -67h-179q-51 59 -150 59q-88 0 -142.5 -62t-54.5 -156q0 -102 60.5 -164t168.5 -62q102 0 150 31v117h-224
v139h387zM505 -320h-105q32 60 45 113h-79v140h175v-104q0 -71 -36 -149z" />
    <glyph glyph-name="uni0123" unicode="&#x123;" horiz-adv-x="681" 
d="M449 25v57q-6 -13 -22.5 -30.5t-57 -36.5t-89.5 -19q-102 0 -169.5 73t-67.5 193q0 121 67.5 193.5t170.5 72.5q48 0 88 -18.5t56 -34.5t22 -29v72h162v-497q0 -110 -70.5 -172.5t-213.5 -62.5q-69 0 -124.5 18.5t-86.5 45.5t-47 51.5t-20 43.5h192q4 -6 12 -12.5
t28.5 -13.5t45.5 -7q60 0 92 29t32 84zM449 262q0 56 -33 92t-88 36t-88 -36t-33 -92t33 -92t88 -36t88 36t33 92zM259 837h105q-32 -60 -45 -113h79v-140h-175v104q0 71 36 149z" />
    <glyph glyph-name="Hcircumflex" unicode="&#x124;" horiz-adv-x="859" 
d="M603 0v281h-347v-281h-170v710h170v-279h347v279h169v-710h-169zM495 768l-66 77l-66 -77h-151l140 166h154l137 -166h-148z" />
    <glyph glyph-name="hcircumflex" unicode="&#x125;" horiz-adv-x="678" 
d="M234 272v-272h-162v736h162v-298q17 32 62 61.5t105 29.5q95 0 153 -62.5t58 -161.5v-305h-163v272q0 52 -29 82.5t-78 30.5t-78.5 -31t-29.5 -82zM408 794l-66 77l-66 -77h-151l140 166h154l137 -166h-148z" />
    <glyph glyph-name="Hbar" unicode="&#x126;" horiz-adv-x="859" 
d="M603 0v281h-347v-281h-170v515h-81v111h81v84h170v-84h347v84h169v-84h82v-111h-82v-515h-169zM256 431h347v84h-347v-84z" />
    <glyph glyph-name="hbar" unicode="&#x127;" horiz-adv-x="678" 
d="M234 272v-272h-162v570h-76v106h76v60h162v-60h182v-106h-182v-132q17 32 62 61.5t105 29.5q95 0 153 -62.5t58 -161.5v-305h-163v272q0 52 -29 82.5t-78 30.5t-78.5 -31t-29.5 -82z" />
    <glyph glyph-name="Itilde" unicode="&#x128;" horiz-adv-x="346" 
d="M88 0v710h170v-710h-170zM179 799l-38 17q-21 10 -31 10q-15 0 -15 -20v-40h-113v87q0 45 23 71t67 26q33 0 93 -29l37 -17q20 -10 32 -10q15 0 15 20v41h113v-88q0 -45 -23.5 -70.5t-67.5 -25.5q-31 0 -92 28z" />
    <glyph glyph-name="itilde" unicode="&#x129;" horiz-adv-x="309" 
d="M91 578h-109v90q0 97 87 97q35 0 82 -31l25 -15q20 -13 27 -13q15 0 15 21v43h109v-91q0 -45 -22.5 -70.5t-64.5 -25.5q-37 0 -83 30l-25 16q-19 12 -27 12q-14 0 -14 -20v-43zM73 0v518h163v-518h-163z" />
    <glyph glyph-name="Imacron" unicode="&#x12a;" horiz-adv-x="346" 
d="M88 0v710h170v-710h-170zM357 789h-370v122h370v-122z" />
    <glyph glyph-name="imacron" unicode="&#x12b;" horiz-adv-x="309" 
d="M312 606h-315v123h315v-123zM73 0v518h163v-518h-163z" />
    <glyph glyph-name="Ibreve" unicode="&#x12c;" horiz-adv-x="346" 
d="M88 0v710h170v-710h-170zM172 875q25 0 38.5 15.5t13.5 37.5v10h125v-13q0 -72 -45 -117.5t-132 -45.5q-88 0 -132.5 45.5t-44.5 117.5v13h125v-10q0 -22 13 -37.5t39 -15.5z" />
    <glyph glyph-name="ibreve" unicode="&#x12d;" horiz-adv-x="309" 
d="M154 689q22 0 33.5 14.5t11.5 35.5v18h125v-21q0 -70 -43 -115t-127 -45t-127 45t-43 115v21h125v-18q0 -21 11 -35.5t34 -14.5zM73 0v518h163v-518h-163z" />
    <glyph glyph-name="Iogonek" unicode="&#x12e;" horiz-adv-x="346" 
d="M88 0v710h170v-710q-62 -45 -71 -56q-7 -9 -7 -17q0 -21 27 -21h79v-109h-162q-57 0 -89 23t-32 65q0 34 21.5 60t63.5 55z" />
    <glyph glyph-name="iogonek" unicode="&#x12f;" horiz-adv-x="309" 
d="M69 585v160h170v-160h-170zM73 0v518h163v-518h-163zM264 -94v-109h-162q-57 0 -89.5 23t-32.5 67q0 33 23.5 58t69.5 55h163q-62 -45 -71 -56q-7 -9 -7 -17q0 -21 27 -21h79z" />
    <glyph glyph-name="Idotaccent" unicode="&#x130;" horiz-adv-x="346" 
d="M88 0v710h170v-710h-170zM87 769v159h170v-159h-170z" />
    <glyph glyph-name="dotlessi" unicode="&#x131;" horiz-adv-x="309" 
d="M73 0v518h163v-518h-163z" />
    <glyph glyph-name="IJ" unicode="&#x132;" horiz-adv-x="1032" 
d="M88 0v710h170v-710h-170zM949 710v-473q0 -116 -72 -183.5t-200 -67.5t-195.5 67t-67.5 184v190h161v-175q0 -51 26 -82t76 -31q49 0 75.5 31t26.5 82v458h170z" />
    <glyph glyph-name="ij" unicode="&#x133;" horiz-adv-x="618" 
d="M69 585v160h170v-160h-170zM73 0v518h163v-518h-163zM379 585v160h170v-160h-170zM545 518v-549q0 -91 -40 -131.5t-123 -40.5h-179v125h109q38 0 54 16t16 52v528h163z" />
    <glyph glyph-name="Jcircumflex" unicode="&#x134;" horiz-adv-x="687" 
d="M603 710v-473q0 -116 -72 -183.5t-200 -67.5t-195.5 67t-67.5 184v190h161v-175q0 -51 26 -82t76 -31q49 0 75.5 31t26.5 82v458h170zM582 768l-66 77l-66 -77h-151l140 166h154l137 -166h-148z" />
    <glyph glyph-name="jcircumflex" unicode="&#x135;" horiz-adv-x="309" 
d="M209 581l-55 96l-55 -96h-143l124 198h148l121 -198h-140zM236 518v-549q0 -91 -40 -131.5t-124 -40.5h-179v125h109q39 0 55 16t16 52v528h163z" />
    <glyph glyph-name="uni0136" unicode="&#x136;" horiz-adv-x="814" 
d="M586 0l-330 319v-319h-170v710h170v-307l325 307h221l-361 -342l377 -368h-232zM464 -320h-105q32 60 45 113h-79v140h175v-104q0 -71 -36 -149z" />
    <glyph glyph-name="uni0137" unicode="&#x137;" horiz-adv-x="651" 
d="M448 0l-214 231v-231h-162v736h162v-421l207 203h204l-248 -239l261 -279h-210zM391 -320h-105q32 60 45 113h-79v140h175v-104q0 -71 -36 -149z" />
    <glyph glyph-name="Lacute" unicode="&#x139;" horiz-adv-x="709" 
d="M675 150v-150h-589v710h170v-560h419zM90 769l112 162h174l-120 -162h-166z" />
    <glyph glyph-name="lacute" unicode="&#x13a;" horiz-adv-x="311" 
d="M74 0v736h163v-736h-163zM73 795l112 162h174l-120 -162h-166z" />
    <glyph glyph-name="uni013B" unicode="&#x13b;" horiz-adv-x="709" 
d="M675 150v-150h-589v710h170v-560h419zM445 -320h-105q32 60 45 113h-79v140h175v-104q0 -71 -36 -149z" />
    <glyph glyph-name="uni013C" unicode="&#x13c;" horiz-adv-x="311" 
d="M74 0v736h163v-736h-163zM208 -320h-105q32 60 45 113h-79v140h175v-104q0 -71 -36 -149z" />
    <glyph glyph-name="Lcaron" unicode="&#x13d;" horiz-adv-x="710" 
d="M675 150v-150h-589v710h170v-560h419zM304 582l56 193h142l-64 -193h-134z" />
    <glyph glyph-name="lcaron" unicode="&#x13e;" horiz-adv-x="311" 
d="M74 0v736h163v-736h-163zM276 582l56 193h142l-64 -193h-134z" />
    <glyph glyph-name="Ldot" unicode="&#x13f;" horiz-adv-x="710" 
d="M675 150v-150h-589v710h170v-560h419zM432 312v196h187v-196h-187z" />
    <glyph glyph-name="ldot" unicode="&#x140;" horiz-adv-x="546" 
d="M74 0v736h163v-736h-163zM335 266v196h187v-196h-187z" />
    <glyph glyph-name="Lslash" unicode="&#x141;" horiz-adv-x="730" 
d="M695 150v-150h-589v202l-92 -41v138l92 42v369h170v-292l248 114v-142l-248 -111v-129h419z" />
    <glyph glyph-name="lslash" unicode="&#x142;" horiz-adv-x="399" 
d="M19 251v134l99 40v311h163v-244l100 42v-137l-100 -41v-356h-163v291z" />
    <glyph glyph-name="Nacute" unicode="&#x143;" horiz-adv-x="863" 
d="M777 710v-712h-138l-387 491v-489h-166v710h193l336 -435v435h162zM357 769l112 162h174l-120 -162h-166z" />
    <glyph glyph-name="nacute" unicode="&#x144;" horiz-adv-x="678" 
d="M234 272v-272h-162v518h162v-80q17 32 62 61.5t105 29.5q95 0 153 -62.5t58 -161.5v-305h-163v272q0 52 -29 82.5t-78 30.5t-78.5 -31t-29.5 -82zM259 582l109 190h163l-116 -190h-156z" />
    <glyph glyph-name="uni0145" unicode="&#x145;" horiz-adv-x="863" 
d="M777 710v-712h-138l-387 491v-489h-166v710h193l336 -435v435h162zM490 -320h-105q32 60 45 113h-79v140h175v-104q0 -71 -36 -149z" />
    <glyph glyph-name="uni0146" unicode="&#x146;" horiz-adv-x="678" 
d="M234 272v-272h-162v518h162v-80q17 32 62 61.5t105 29.5q95 0 153 -62.5t58 -161.5v-305h-163v272q0 52 -29 82.5t-78 30.5t-78.5 -31t-29.5 -82zM395 -320h-105q32 60 45 113h-79v140h175v-104q0 -71 -36 -149z" />
    <glyph glyph-name="Ncaron" unicode="&#x147;" horiz-adv-x="863" 
d="M777 710v-712h-138l-387 491v-489h-166v710h193l336 -435v435h162zM659 934l-140 -166h-154l-137 166h148l66 -77l66 77h151z" />
    <glyph glyph-name="ncaron" unicode="&#x148;" horiz-adv-x="678" 
d="M234 272v-272h-162v518h162v-80q17 32 62 61.5t105 29.5q95 0 153 -62.5t58 -161.5v-305h-163v272q0 52 -29 82.5t-78 30.5t-78.5 -31t-29.5 -82zM543 780l-132 -198h-144l-129 198h141l61 -96l60 96h143z" />
    <glyph glyph-name="napostrophe" unicode="&#x149;" horiz-adv-x="942" 
d="M498 272v-272h-162v518h162v-80q17 32 62 61.5t105 29.5q95 0 153 -62.5t58 -161.5v-305h-163v272q0 52 -29 82.5t-78 30.5t-78.5 -31t-29.5 -82zM179 369h-111q62 106 68 189h-86v178h183v-155q0 -120 -54 -212z" />
    <glyph glyph-name="Eng" unicode="&#x14a;" horiz-adv-x="863" 
d="M777 710v-741q0 -91 -40.5 -131.5t-126.5 -40.5h-175v126h107q74 0 74 59q0 32 -41 84l-323 419v-485h-166v710h193l336 -444v444h162z" />
    <glyph glyph-name="eng" unicode="&#x14b;" horiz-adv-x="678" 
d="M612 305v-333q0 -92 -41 -133.5t-126 -41.5h-176v125h106q41 0 57.5 17t16.5 54v279q0 52 -29 82.5t-78 30.5t-78.5 -31t-29.5 -82v-272h-162v518h162v-80q17 32 62 61.5t105 29.5q95 0 153 -62.5t58 -161.5z" />
    <glyph glyph-name="Omacron" unicode="&#x14c;" horiz-adv-x="857" 
d="M429 -12q-161 0 -269 103.5t-108 263.5q0 162 107.5 264.5t269.5 102.5q161 0 268.5 -102.5t107.5 -264.5q0 -160 -107.5 -263.5t-268.5 -103.5zM429 140q92 0 147.5 61.5t55.5 153.5t-55.5 153.5t-147.5 61.5q-91 0 -147.5 -61.5t-56.5 -153.5t56.5 -153.5t147.5 -61.5z
M614 789h-370v122h370v-122z" />
    <glyph glyph-name="omacron" unicode="&#x14d;" horiz-adv-x="651" 
d="M326 531q123 0 203.5 -76.5t80.5 -195.5t-80.5 -195.5t-203.5 -76.5t-203.5 76.5t-80.5 195.5t80.5 195.5t203.5 76.5zM326 128q54 0 87.5 37t33.5 94t-33.5 94t-87.5 37t-88 -37t-34 -94t34 -94t88 -37zM497 606h-342v123h342v-123z" />
    <glyph glyph-name="Obreve" unicode="&#x14e;" horiz-adv-x="857" 
d="M429 -12q-161 0 -269 103.5t-108 263.5q0 162 107.5 264.5t269.5 102.5q161 0 268.5 -102.5t107.5 -264.5q0 -160 -107.5 -263.5t-268.5 -103.5zM429 140q92 0 147.5 61.5t55.5 153.5t-55.5 153.5t-147.5 61.5q-91 0 -147.5 -61.5t-56.5 -153.5t56.5 -153.5t147.5 -61.5z
M429 875q25 0 38.5 15.5t13.5 37.5v10h125v-13q0 -72 -45 -117.5t-132 -45.5q-88 0 -132.5 45.5t-44.5 117.5v13h125v-10q0 -22 13 -37.5t39 -15.5z" />
    <glyph glyph-name="obreve" unicode="&#x14f;" horiz-adv-x="651" 
d="M326 531q123 0 203.5 -76.5t80.5 -195.5t-80.5 -195.5t-203.5 -76.5t-203.5 76.5t-80.5 195.5t80.5 195.5t203.5 76.5zM326 128q54 0 87.5 37t33.5 94t-33.5 94t-87.5 37t-88 -37t-34 -94t34 -94t88 -37zM326 689q25 0 36.5 15t11.5 37v16h125v-18q0 -72 -43.5 -117.5
t-129.5 -45.5t-129.5 45.5t-43.5 117.5v18h125v-16q0 -22 11.5 -37t36.5 -15z" />
    <glyph glyph-name="Ohungarumlaut" unicode="&#x150;" horiz-adv-x="857" 
d="M429 -12q-161 0 -269 103.5t-108 263.5q0 162 107.5 264.5t269.5 102.5q161 0 268.5 -102.5t107.5 -264.5q0 -160 -107.5 -263.5t-268.5 -103.5zM429 140q92 0 147.5 61.5t55.5 153.5t-55.5 153.5t-147.5 61.5q-91 0 -147.5 -61.5t-56.5 -153.5t56.5 -153.5t147.5 -61.5z
M462 769l81 162h155l-88 -162h-148zM242 769l77 162h156l-84 -162h-149z" />
    <glyph glyph-name="ohungarumlaut" unicode="&#x151;" horiz-adv-x="651" 
d="M326 531q123 0 203.5 -76.5t80.5 -195.5t-80.5 -195.5t-203.5 -76.5t-203.5 76.5t-80.5 195.5t80.5 195.5t203.5 76.5zM326 128q54 0 87.5 37t33.5 94t-33.5 94t-87.5 37t-88 -37t-34 -94t34 -94t88 -37zM361 582l78 190h136l-83 -190h-131zM161 582l78 190h136l-83 -190
h-131z" />
    <glyph glyph-name="OE" unicode="&#x152;" horiz-adv-x="1189" 
d="M53 355q0 168 107.5 261.5t282.5 93.5h671v-140h-406v-128h234v-143h-234v-152h445v-147h-710q-175 0 -282.5 93.5t-107.5 261.5zM446 147h92v416h-92q-100 0 -160.5 -55.5t-60.5 -152.5t60.5 -152.5t160.5 -55.5z" />
    <glyph glyph-name="oe" unicode="&#x153;" horiz-adv-x="1031" 
d="M724 531q123 0 196 -74t73 -201v-29h-388q6 -50 40 -81.5t85 -31.5q68 0 97 40h161q-8 -58 -73 -112.5t-181 -54.5q-139 0 -212 87q-70 -87 -203 -87q-121 0 -199 76.5t-78 195.5q0 121 78 196.5t199 75.5q133 0 203 -89q68 89 202 89zM719 413q-45 0 -73.5 -23
t-37.5 -65h222q-10 42 -39 65t-72 23zM323 128q54 0 87 37t33 94t-33 94t-87 37q-53 0 -86.5 -37t-33.5 -94t33.5 -94t86.5 -37z" />
    <glyph glyph-name="Racute" unicode="&#x154;" horiz-adv-x="814" 
d="M86 0v710h416q120 0 186.5 -57t66.5 -166q0 -149 -135 -198l160 -289h-179l-150 270h-195v-270h-170zM484 564h-228v-151h228q97 0 97 74q0 77 -97 77zM315 769l112 162h174l-120 -162h-166z" />
    <glyph glyph-name="racute" unicode="&#x155;" horiz-adv-x="525" 
d="M234 253v-253h-162v518h162v-81q38 82 157 82h111v-160h-142q-68 0 -97 -25.5t-29 -80.5zM219 582l109 190h163l-116 -190h-156z" />
    <glyph glyph-name="uni0156" unicode="&#x156;" horiz-adv-x="814" 
d="M86 0v710h416q120 0 186.5 -57t66.5 -166q0 -149 -135 -198l160 -289h-179l-150 270h-195v-270h-170zM484 564h-228v-151h228q97 0 97 74q0 77 -97 77zM462 -320h-105q32 60 45 113h-79v140h175v-104q0 -71 -36 -149z" />
    <glyph glyph-name="uni0157" unicode="&#x157;" horiz-adv-x="525" 
d="M234 253v-253h-162v518h162v-81q38 82 157 82h111v-160h-142q-68 0 -97 -25.5t-29 -80.5zM207 -320h-105q32 60 45 113h-79v140h175v-104q0 -71 -36 -149z" />
    <glyph glyph-name="Rcaron" unicode="&#x158;" horiz-adv-x="814" 
d="M86 0v710h416q120 0 186.5 -57t66.5 -166q0 -149 -135 -198l160 -289h-179l-150 270h-195v-270h-170zM484 564h-228v-151h228q97 0 97 74q0 77 -97 77zM614 934l-140 -166h-154l-137 166h148l66 -77l66 77h151z" />
    <glyph glyph-name="rcaron" unicode="&#x159;" horiz-adv-x="525" 
d="M234 253v-253h-162v518h162v-81q38 82 157 82h111v-160h-142q-68 0 -97 -25.5t-29 -80.5zM503 780l-132 -198h-144l-129 198h141l61 -96l60 96h143z" />
    <glyph glyph-name="Sacute" unicode="&#x15a;" horiz-adv-x="757" 
d="M353 587q-124 0 -124 -67q0 -57 96 -68q23 -2 61 -5.5t51 -4.5q129 -10 199 -63.5t70 -162.5q0 -107 -81 -168t-234 -61q-70 0 -128 13.5t-96 35.5t-66.5 52t-43 59.5t-22.5 62.5h179q15 -35 58.5 -60.5t118.5 -25.5q69 0 104 21.5t35 58.5q0 38 -25.5 55t-77.5 23
q-19 2 -37 4t-40 4t-36 3q-121 12 -190 67.5t-69 152.5q0 100 81.5 155t216.5 55q83 0 147 -18t101.5 -49t58 -64t29.5 -70h-171q-15 25 -56 45t-109 20zM288 769l112 162h174l-120 -162h-166z" />
    <glyph glyph-name="sacute" unicode="&#x15b;" horiz-adv-x="590" 
d="M323 191l-73 6q-98 6 -153 48.5t-55 120.5t64 122t177 44q69 0 120.5 -16t79.5 -41.5t41.5 -48t18.5 -45.5h-171q-36 36 -90 36q-36 0 -55.5 -11t-19.5 -30q0 -36 61 -41q12 -2 33.5 -3.5t34.5 -2.5q115 -8 165.5 -49.5t50.5 -123.5q0 -81 -63 -125.5t-187 -44.5
q-57 0 -104.5 12.5t-76 30.5t-49.5 41t-29.5 41.5t-11.5 35.5h175q2 -7 10.5 -16.5t31.5 -18.5t54 -9q84 0 84 43q0 40 -63 45zM209 582l109 190h163l-116 -190h-156z" />
    <glyph glyph-name="Scircumflex" unicode="&#x15c;" horiz-adv-x="757" 
d="M353 587q-124 0 -124 -67q0 -57 96 -68q23 -2 61 -5.5t51 -4.5q129 -10 199 -63.5t70 -162.5q0 -107 -81 -168t-234 -61q-70 0 -128 13.5t-96 35.5t-66.5 52t-43 59.5t-22.5 62.5h179q15 -35 58.5 -60.5t118.5 -25.5q69 0 104 21.5t35 58.5q0 38 -25.5 55t-77.5 23
q-19 2 -37 4t-40 4t-36 3q-121 12 -190 67.5t-69 152.5q0 100 81.5 155t216.5 55q83 0 147 -18t101.5 -49t58 -64t29.5 -70h-171q-15 25 -56 45t-109 20zM436 768l-66 77l-66 -77h-151l140 166h154l137 -166h-148z" />
    <glyph glyph-name="scircumflex" unicode="&#x15d;" horiz-adv-x="590" 
d="M323 191l-73 6q-98 6 -153 48.5t-55 120.5t64 122t177 44q69 0 120.5 -16t79.5 -41.5t41.5 -48t18.5 -45.5h-171q-36 36 -90 36q-36 0 -55.5 -11t-19.5 -30q0 -36 61 -41q12 -2 33.5 -3.5t34.5 -2.5q115 -8 165.5 -49.5t50.5 -123.5q0 -81 -63 -125.5t-187 -44.5
q-57 0 -104.5 12.5t-76 30.5t-49.5 41t-29.5 41.5t-11.5 35.5h175q2 -7 10.5 -16.5t31.5 -18.5t54 -9q84 0 84 43q0 40 -63 45zM353 581l-61 95l-61 -95h-143l132 198h144l129 -198h-140z" />
    <glyph glyph-name="uni015E" unicode="&#x15e;" horiz-adv-x="757" 
d="M353 587q-124 0 -124 -67q0 -57 96 -68q23 -2 61 -5.5t51 -4.5q129 -10 199 -63.5t70 -162.5q0 -107 -81 -168t-234 -61q-70 0 -128 13.5t-96 35.5t-66.5 52t-43 59.5t-22.5 62.5h179q15 -35 58.5 -60.5t118.5 -25.5q69 0 104 21.5t35 58.5q0 38 -25.5 55t-77.5 23
q-19 2 -37 4t-40 4t-36 3q-121 12 -190 67.5t-69 152.5q0 100 81.5 155t216.5 55q83 0 147 -18t101.5 -49t58 -64t29.5 -70h-171q-15 25 -56 45t-109 20zM419 -157q0 26 -31 26h-96v131h118v-43h5q63 -1 95.5 -31.5t32.5 -86.5q0 -59 -33 -92.5t-98 -33.5h-155v103h131
q31 0 31 27z" />
    <glyph glyph-name="uni015F" unicode="&#x15f;" horiz-adv-x="590" 
d="M323 191l-73 6q-98 6 -153 48.5t-55 120.5t64 122t177 44q69 0 120.5 -16t79.5 -41.5t41.5 -48t18.5 -45.5h-171l-9 9q-27 27 -81 27q-36 0 -55.5 -11t-19.5 -30q0 -36 61 -41q12 -2 33.5 -3.5t34.5 -2.5q115 -8 165.5 -49.5t50.5 -123.5q0 -78 -62 -125
q-55 -40 -158 -44v-30h5q63 -1 95.5 -31.5t32.5 -86.5q0 -59 -33 -92.5t-98 -33.5h-155v103h130q32 0 32 27q0 26 -32 26h-95v125q-25 5 -39 10q-68 26 -102.5 66t-41.5 77h175q2 -7 10.5 -16.5t31.5 -18.5t54 -9q84 0 84 43q0 40 -63 45z" />
    <glyph glyph-name="Scaron" unicode="&#x160;" horiz-adv-x="757" 
d="M353 587q-124 0 -124 -67q0 -57 96 -68q23 -2 61 -5.5t51 -4.5q129 -10 199 -63.5t70 -162.5q0 -107 -81 -168t-234 -61q-70 0 -128 13.5t-96 35.5t-66.5 52t-43 59.5t-22.5 62.5h179q15 -35 58.5 -60.5t118.5 -25.5q69 0 104 21.5t35 58.5q0 38 -25.5 55t-77.5 23
q-19 2 -37 4t-40 4t-36 3q-121 12 -190 67.5t-69 152.5q0 100 81.5 155t216.5 55q83 0 147 -18t101.5 -49t58 -64t29.5 -70h-171q-15 25 -56 45t-109 20zM587 934l-140 -166h-154l-137 166h148l66 -77l66 77h151z" />
    <glyph glyph-name="scaron" unicode="&#x161;" horiz-adv-x="590" 
d="M323 191l-73 6q-98 6 -153 48.5t-55 120.5t64 122t177 44q69 0 120.5 -16t79.5 -41.5t41.5 -48t18.5 -45.5h-171q-36 36 -90 36q-36 0 -55.5 -11t-19.5 -30q0 -36 61 -41q12 -2 33.5 -3.5t34.5 -2.5q115 -8 165.5 -49.5t50.5 -123.5q0 -81 -63 -125.5t-187 -44.5
q-57 0 -104.5 12.5t-76 30.5t-49.5 41t-29.5 41.5t-11.5 35.5h175q2 -7 10.5 -16.5t31.5 -18.5t54 -9q84 0 84 43q0 40 -63 45zM493 780l-132 -198h-144l-129 198h141l61 -96l60 96h143z" />
    <glyph glyph-name="Tcommaaccent" unicode="&#x162;" horiz-adv-x="777" 
d="M35 562v148h707v-148h-269v-562h-169v562h-269zM441 -320h-105q32 60 45 113h-79v140h175v-104q0 -71 -36 -149z" />
    <glyph glyph-name="tcommaaccent" unicode="&#x163;" horiz-adv-x="542" 
d="M498 143v-143h-162q-177 0 -177 165v218h-134v135h134v192h163v-192h176v-135h-176v-161q0 -43 16.5 -61t61.5 -18h98zM353 -320h-105q32 60 45 113h-79v140h175v-104q0 -71 -36 -149z" />
    <glyph glyph-name="Tcaron" unicode="&#x164;" horiz-adv-x="777" 
d="M35 562v148h707v-148h-269v-562h-169v562h-269zM605 934l-140 -166h-154l-137 166h148l66 -77l66 77h151z" />
    <glyph glyph-name="tcaron" unicode="&#x165;" horiz-adv-x="542" 
d="M498 143v-143h-162q-177 0 -177 165v218h-134v135h134v192h163v-192h176v-135h-176v-161q0 -43 16.5 -61t61.5 -18h98zM363 582l56 193h142l-64 -193h-134z" />
    <glyph glyph-name="Tbar" unicode="&#x166;" horiz-adv-x="777" 
d="M123 289v131h181v142h-269v148h707v-148h-269v-142h181v-131h-181v-289h-169v289h-181z" />
    <glyph glyph-name="tbar" unicode="&#x167;" horiz-adv-x="561" 
d="M507 143v-143h-161q-177 0 -177 165v67h-134v97h134v62h-134v127h134v192h162v-192h176v-127h-176v-62h176v-97h-176v-18q0 -38 15 -54.5t55 -16.5h106z" />
    <glyph glyph-name="Utilde" unicode="&#x168;" horiz-adv-x="844" 
d="M423 140q80 0 125.5 49.5t45.5 132.5v388h168v-399q0 -142 -89.5 -234t-249.5 -92q-165 0 -253 91t-88 235v399h170v-388q0 -83 44.5 -132.5t126.5 -49.5zM428 799l-38 17q-21 10 -31 10q-15 0 -15 -20v-40h-113v87q0 45 23 71t67 26q33 0 93 -29l37 -17q20 -10 32 -10
q15 0 15 20v41h113v-88q0 -45 -23.5 -70.5t-67.5 -25.5q-31 0 -92 28z" />
    <glyph glyph-name="utilde" unicode="&#x169;" horiz-adv-x="665" 
d="M335 -12q-129 0 -199 67.5t-70 180.5v282h163v-270q0 -51 26.5 -81t76.5 -30t77 30t27 81v270h163v-282q0 -113 -69 -180.5t-195 -67.5zM263 578h-109v90q0 97 88 97q37 0 86 -30l29 -17q17 -12 28 -12q16 0 16 21v43h110v-91q0 -45 -22.5 -70.5t-66.5 -25.5
q-39 0 -86 29l-29 18q-19 11 -28 11q-16 0 -16 -20v-43z" />
    <glyph glyph-name="Umacron" unicode="&#x16a;" horiz-adv-x="844" 
d="M423 140q80 0 125.5 49.5t45.5 132.5v388h168v-399q0 -142 -89.5 -234t-249.5 -92q-165 0 -253 91t-88 235v399h170v-388q0 -83 44.5 -132.5t126.5 -49.5zM606 789h-370v122h370v-122z" />
    <glyph glyph-name="umacron" unicode="&#x16b;" horiz-adv-x="665" 
d="M335 -12q-129 0 -199 67.5t-70 180.5v282h163v-270q0 -51 26.5 -81t76.5 -30t77 30t27 81v270h163v-282q0 -113 -69 -180.5t-195 -67.5zM503 606h-342v123h342v-123z" />
    <glyph glyph-name="Ubreve" unicode="&#x16c;" horiz-adv-x="844" 
d="M423 140q80 0 125.5 49.5t45.5 132.5v388h168v-399q0 -142 -89.5 -234t-249.5 -92q-165 0 -253 91t-88 235v399h170v-388q0 -83 44.5 -132.5t126.5 -49.5zM421 875q25 0 38.5 15.5t13.5 37.5v10h125v-13q0 -72 -45 -117.5t-132 -45.5q-88 0 -132.5 45.5t-44.5 117.5v13
h125v-10q0 -22 13 -37.5t39 -15.5z" />
    <glyph glyph-name="ubreve" unicode="&#x16d;" horiz-adv-x="665" 
d="M335 -12q-129 0 -199 67.5t-70 180.5v282h163v-270q0 -51 26.5 -81t76.5 -30t77 30t27 81v270h163v-282q0 -113 -69 -180.5t-195 -67.5zM332 689q25 0 36.5 15t11.5 37v16h125v-18q0 -72 -43.5 -117.5t-129.5 -45.5t-129.5 45.5t-43.5 117.5v18h125v-16q0 -22 11.5 -37
t36.5 -15z" />
    <glyph glyph-name="Uring" unicode="&#x16e;" horiz-adv-x="844" 
d="M423 140q80 0 125.5 49.5t45.5 132.5v388h168v-399q0 -142 -89.5 -234t-249.5 -92q-165 0 -253 91t-88 235v399h170v-388q0 -83 44.5 -132.5t126.5 -49.5zM421 759q-62 0 -101.5 39.5t-39.5 97.5q0 60 39.5 99t101.5 39t102 -39t40 -99q0 -58 -40 -97.5t-102 -39.5z
M421 840q25 0 40.5 16t15.5 40q0 26 -15.5 41.5t-40.5 15.5t-40.5 -15.5t-15.5 -41.5q0 -24 15.5 -40t40.5 -16z" />
    <glyph glyph-name="uring" unicode="&#x16f;" horiz-adv-x="665" 
d="M335 -12q-129 0 -199 67.5t-70 180.5v282h163v-270q0 -51 26.5 -81t76.5 -30t77 30t27 81v270h163v-282q0 -113 -69 -180.5t-195 -67.5zM332 572q-62 0 -101.5 39.5t-39.5 97.5q0 60 39.5 99t101.5 39t102 -39t40 -99q0 -58 -40 -97.5t-102 -39.5zM332 653q25 0 40.5 16
t15.5 40q0 26 -15.5 41.5t-40.5 15.5t-40.5 -15.5t-15.5 -41.5q0 -24 15.5 -40t40.5 -16z" />
    <glyph glyph-name="Uhungarumlaut" unicode="&#x170;" horiz-adv-x="844" 
d="M423 140q80 0 125.5 49.5t45.5 132.5v388h168v-399q0 -142 -89.5 -234t-249.5 -92q-165 0 -253 91t-88 235v399h170v-388q0 -83 44.5 -132.5t126.5 -49.5zM455 769l81 162h155l-88 -162h-148zM235 769l77 162h156l-84 -162h-149z" />
    <glyph glyph-name="uhungarumlaut" unicode="&#x171;" horiz-adv-x="665" 
d="M335 -12q-129 0 -199 67.5t-70 180.5v282h163v-270q0 -51 26.5 -81t76.5 -30t77 30t27 81v270h163v-282q0 -113 -69 -180.5t-195 -67.5zM367 582l78 190h136l-83 -190h-131zM167 582l78 190h136l-83 -190h-131z" />
    <glyph glyph-name="Uogonek" unicode="&#x172;" horiz-adv-x="844" 
d="M642 -94v-109h-162q-57 0 -89.5 22t-32.5 63q0 58 95 104q-13 -1 -30 -1q-165 0 -253 91t-88 235v399h170v-388q0 -83 44.5 -132.5t126.5 -49.5q80 0 125.5 49.5t45.5 132.5v388h168v-399q0 -155 -126 -273q-83 -77 -92 -91q-8 -11 -8 -20q0 -21 28 -21h78z" />
    <glyph glyph-name="uogonek" unicode="&#x173;" horiz-adv-x="665" 
d="M538 -94v-109h-161q-56 0 -87.5 22t-31.5 63q0 33 23 57.5t68 48.5h-14q-130 0 -199.5 67.5t-69.5 180.5v282h163v-270q0 -51 26.5 -81t76.5 -30t77 30t27 81v270h163v-282q0 -61 -20 -106.5t-62 -90.5q-14 -15 -31.5 -34t-25 -26.5t-15 -17.5t-10 -17t-2.5 -15
q0 -23 30 -23h75z" />
    <glyph glyph-name="Wcircumflex" unicode="&#x174;" horiz-adv-x="1147" 
d="M737 -1l-161 471l-163 -471h-152l-238 711h187l142 -458l152 459h156l153 -460l143 459h168l-231 -711h-156zM645 768l-66 77l-66 -77h-151l140 166h154l137 -166h-148z" />
    <glyph glyph-name="wcircumflex" unicode="&#x175;" horiz-adv-x="917" 
d="M571 -4l-113 334l-111 -334h-150l-188 522h176l101 -316l109 320h147l109 -317l100 313h157l-182 -522h-155zM527 581l-61 95l-61 -95h-143l132 198h144l129 -198h-140z" />
    <glyph glyph-name="Ycircumflex" unicode="&#x176;" horiz-adv-x="798" 
d="M495 298v-298h-178v299l-315 411h216l193 -258l194 258h191zM478 768l-66 77l-66 -77h-151l140 166h154l137 -166h-148z" />
    <glyph glyph-name="ycircumflex" unicode="&#x177;" horiz-adv-x="616" 
d="M611 518l-300 -721h-163l87 211l-232 510h184l130 -313l130 313h164zM378 581l-61 95l-61 -95h-143l132 198h144l129 -198h-140z" />
    <glyph glyph-name="Ydieresis" unicode="&#x178;" horiz-adv-x="798" 
d="M495 298v-298h-178v299l-315 411h216l193 -258l194 258h191zM214 769v158h159v-158h-159zM451 769v158h159v-158h-159z" />
    <glyph glyph-name="Zacute" unicode="&#x179;" horiz-adv-x="800" 
d="M764 148v-148h-717v97l405 466h-395v147h662v-95l-409 -467h454zM303 769l112 162h174l-120 -162h-166z" />
    <glyph glyph-name="zacute" unicode="&#x17a;" horiz-adv-x="636" 
d="M607 132v-132h-564v88l281 299h-273v131h519v-87l-286 -299h323zM227 582l109 190h163l-116 -190h-156z" />
    <glyph glyph-name="Zdotaccent" unicode="&#x17b;" horiz-adv-x="800" 
d="M764 148v-148h-717v97l405 466h-395v147h662v-95l-409 -467h454zM302 769v159h170v-159h-170z" />
    <glyph glyph-name="zdotaccent" unicode="&#x17c;" horiz-adv-x="636" 
d="M607 132v-132h-564v88l281 299h-273v131h519v-87l-286 -299h323zM225 585v160h170v-160h-170z" />
    <glyph glyph-name="Zcaron" unicode="&#x17d;" horiz-adv-x="800" 
d="M764 148v-148h-717v97l405 466h-395v147h662v-95l-409 -467h454zM604 934l-140 -166h-154l-137 166h148l66 -77l66 77h151z" />
    <glyph glyph-name="zcaron" unicode="&#x17e;" horiz-adv-x="636" 
d="M607 132v-132h-564v88l281 299h-273v131h519v-87l-286 -299h323zM511 780l-132 -198h-144l-129 198h141l61 -96l60 96h143z" />
    <glyph glyph-name="uni018F" unicode="&#x18f;" horiz-adv-x="857" 
d="M425 573q-125 0 -177 -84h-172q11 41 37.5 81t69 74.5t106.5 56t139 21.5q166 0 271.5 -100.5t105.5 -266.5q0 -162 -108.5 -264.5t-269.5 -102.5q-162 0 -268.5 101t-106.5 266q0 22 1 33l2 19h578q-10 73 -65.5 119.5t-142.5 46.5zM427 133q80 0 134.5 42.5t69.5 103.5
h-403q13 -61 65 -103.5t134 -42.5z" />
    <glyph glyph-name="uni0192" unicode="&#x192;" horiz-adv-x="579" 
d="M486 314h-172l-75 -514h-162l74 514h-126v133h145l16 113q12 77 53 113.5t125 36.5h197v-129h-142q-38 0 -54 -13.5t-21 -49.5l-10 -71h152v-133z" />
    <glyph glyph-name="Aringacute" unicode="&#x1fa;" horiz-adv-x="830" 
d="M633 0l-53 123h-338l-53 -123h-171l311 711h174l310 -711h-180zM303 265h216l-108 251zM334 1068l102 147h173l-110 -147h-165zM414 759q-62 0 -101.5 39.5t-39.5 97.5q0 60 39.5 99t101.5 39t102 -39t40 -99q0 -58 -40 -97.5t-102 -39.5zM414 840q25 0 40.5 16t15.5 40
q0 26 -15.5 41.5t-40.5 15.5t-40.5 -15.5t-15.5 -41.5q0 -24 15.5 -40t40.5 -16z" />
    <glyph glyph-name="aringacute" unicode="&#x1fb;" horiz-adv-x="677" 
d="M445 0v76q-8 -14 -23 -31t-55 -36.5t-89 -19.5q-100 0 -167.5 73.5t-67.5 196.5q0 122 67.5 195.5t168.5 73.5q37 0 68 -10t50.5 -25t30 -26.5t15.5 -20.5v72h162v-518h-160zM445 259q0 57 -32.5 94t-85.5 37t-86.5 -37t-33.5 -94t33.5 -94t86.5 -37t85.5 37t32.5 94z
M249 881l94 159h163l-101 -159h-156zM324 572q-62 0 -101.5 39.5t-39.5 97.5q0 60 39.5 99t101.5 39t102 -39t40 -99q0 -58 -40 -97.5t-102 -39.5zM324 653q25 0 40.5 16t15.5 40q0 26 -15.5 41.5t-40.5 15.5t-40.5 -15.5t-15.5 -41.5q0 -24 15.5 -40t40.5 -16z" />
    <glyph glyph-name="AEacute" unicode="&#x1fc;" horiz-adv-x="1180" 
d="M1144 147v-147h-615v149h-259l-91 -149h-186l441 710h671v-140h-406v-128h234v-143h-234v-152h445zM357 290h172v280zM690 769l112 162h174l-120 -162h-166z" />
    <glyph glyph-name="aeacute" unicode="&#x1fd;" horiz-adv-x="985" 
d="M676 531q123 0 197 -74t74 -201v-29h-388q6 -50 40 -81.5t84 -31.5q69 0 98 40h161q-8 -58 -74 -112.5t-185 -54.5q-148 0 -227 99q-58 -98 -192 -98q-100 0 -162 47.5t-62 127.5q0 78 54 120t151 42h156q0 37 -26 60t-73 23q-36 0 -59 -14.5t-26 -27.5h-165
q2 21 16.5 47t42 53.5t77 46t111.5 18.5q136 0 192 -73q28 33 77 53t108 20zM673 413q-45 0 -73.5 -23t-37.5 -65h222q-10 42 -39 65t-72 23zM200 168q0 -31 25 -48.5t68 -17.5q48 0 78 23.5t30 60.5v37h-119q-82 0 -82 -55zM409 582l109 190h163l-116 -190h-156z" />
    <glyph glyph-name="Oslashacute" unicode="&#x1fe;" horiz-adv-x="857" 
d="M805 355q0 -160 -107.5 -263.5t-268.5 -103.5q-111 0 -197 52l-36 -40h-173l110 123q-81 97 -81 232q0 162 107.5 264.5t269.5 102.5q107 0 195 -51l34 39h176l-110 -122q81 -100 81 -233zM224 355q0 -61 21 -108l276 308q-39 18 -92 18q-92 0 -148.5 -62t-56.5 -156z
M634 355q0 65 -22 110l-278 -309q42 -19 95 -19q92 0 148.5 62t56.5 156zM347 769l112 162h174l-120 -162h-166z" />
    <glyph glyph-name="oslashacute" unicode="&#x1ff;" horiz-adv-x="654" 
d="M613 259q0 -119 -81.5 -195.5t-204.5 -76.5q-82 0 -149 40l-25 -27h-136l84 91q-59 72 -59 168q0 121 80.5 196.5t204.5 75.5q78 0 148 -39l24 26h137l-83 -90q60 -73 60 -169zM192 259q0 -36 9 -63l182 195q-27 8 -56 8q-60 0 -97.5 -40t-37.5 -100zM462 259q0 35 -9 64
l-183 -197q27 -8 57 -8q61 0 98 40t37 101zM244 582l109 190h163l-116 -190h-156z" />
    <glyph glyph-name="uni0218" unicode="&#x218;" horiz-adv-x="757" 
d="M353 587q-124 0 -124 -67q0 -57 96 -68q23 -2 61 -5.5t51 -4.5q129 -10 199 -63.5t70 -162.5q0 -107 -81 -168t-234 -61q-70 0 -128 13.5t-96 35.5t-66.5 52t-43 59.5t-22.5 62.5h179q15 -35 58.5 -60.5t118.5 -25.5q69 0 104 21.5t35 58.5q0 38 -25.5 55t-77.5 23
q-19 2 -37 4t-40 4t-36 3q-121 12 -190 67.5t-69 152.5q0 100 81.5 155t216.5 55q83 0 147 -18t101.5 -49t58 -64t29.5 -70h-171q-15 25 -56 45t-109 20zM448 -320h-105q32 60 45 113h-79v140h175v-104q0 -71 -36 -149z" />
    <glyph glyph-name="uni0219" unicode="&#x219;" horiz-adv-x="590" 
d="M323 191l-73 6q-98 6 -153 48.5t-55 120.5t64 122t177 44q69 0 120.5 -16t79.5 -41.5t41.5 -48t18.5 -45.5h-171q-36 36 -90 36q-36 0 -55.5 -11t-19.5 -30q0 -36 61 -41q12 -2 33.5 -3.5t34.5 -2.5q115 -8 165.5 -49.5t50.5 -123.5q0 -81 -63 -125.5t-187 -44.5
q-57 0 -104.5 12.5t-76 30.5t-49.5 41t-29.5 41.5t-11.5 35.5h175q2 -7 10.5 -16.5t31.5 -18.5t54 -9q84 0 84 43q0 40 -63 45zM356 -320h-105q32 60 45 113h-79v140h175v-104q0 -71 -36 -149z" />
    <glyph glyph-name="uni021A" unicode="&#x21a;" horiz-adv-x="777" 
d="M35 562v148h707v-148h-269v-562h-169v562h-269zM441 -320h-105q32 60 45 113h-79v140h175v-104q0 -71 -36 -149z" />
    <glyph glyph-name="uni021B" unicode="&#x21b;" horiz-adv-x="542" 
d="M498 143v-143h-162q-177 0 -177 165v218h-134v135h134v192h163v-192h176v-135h-176v-161q0 -43 16.5 -61t61.5 -18h98zM353 -320h-105q32 60 45 113h-79v140h175v-104q0 -71 -36 -149z" />
    <glyph glyph-name="uni0237" unicode="&#x237;" horiz-adv-x="309" 
d="M236 518v-549q0 -91 -40 -131.5t-124 -40.5h-179v125h109q39 0 55 16t16 52v528h163z" />
    <glyph glyph-name="uni0259" unicode="&#x259;" horiz-adv-x="636" 
d="M319 -13q-125 0 -201 74.5t-76 200.5v28h394q-6 50 -40.5 82t-87.5 32q-67 0 -100 -40h-161q3 25 19.5 52t46 54t81 44t114.5 17q131 0 209.5 -76t78.5 -196q0 -122 -77 -197t-200 -75zM319 105q90 0 114 86h-228q23 -86 114 -86z" />
    <glyph glyph-name="uni02BC" unicode="&#x2bc;" horiz-adv-x="329" 
d="M200 369h-111q62 106 68 189h-86v178h183v-155q0 -120 -54 -212z" />
    <glyph glyph-name="circumflex" unicode="&#x2c6;" 
d="M321 581l-61 95l-61 -95h-143l132 198h144l129 -198h-140z" />
    <glyph glyph-name="caron" unicode="&#x2c7;" 
d="M462 780l-132 -198h-144l-129 198h141l61 -96l60 96h143z" />
    <glyph glyph-name="breve" unicode="&#x2d8;" 
d="M300 689q25 0 36.5 15t11.5 37v16h125v-18q0 -72 -43.5 -117.5t-129.5 -45.5t-129.5 45.5t-43.5 117.5v18h125v-16q0 -22 11.5 -37t36.5 -15z" />
    <glyph glyph-name="dotaccent" unicode="&#x2d9;" 
d="M215 585v160h170v-160h-170z" />
    <glyph glyph-name="ring" unicode="&#x2da;" 
d="M300 572q-62 0 -101.5 39.5t-39.5 97.5q0 60 39.5 99t101.5 39t102 -39t40 -99q0 -58 -40 -97.5t-102 -39.5zM300 653q25 0 40.5 16t15.5 40q0 26 -15.5 41.5t-40.5 15.5t-40.5 -15.5t-15.5 -41.5q0 -24 15.5 -40t40.5 -16z" />
    <glyph glyph-name="ogonek" unicode="&#x2db;" 
d="M477 -94v-109h-162q-57 0 -89.5 23t-32.5 67q0 33 23.5 58t69.5 55h163q-62 -45 -71 -56q-7 -9 -7 -17q0 -21 27 -21h79z" />
    <glyph glyph-name="tilde" unicode="&#x2dc;" 
d="M231 578h-109v90q0 97 88 97q37 0 86 -30l29 -17q17 -12 28 -12q16 0 16 21v43h110v-91q0 -45 -22.5 -70.5t-66.5 -25.5q-39 0 -86 29l-29 18q-19 11 -28 11q-16 0 -16 -20v-43z" />
    <glyph glyph-name="hungarumlaut" unicode="&#x2dd;" 
d="M292 582l78 190h136l-83 -190h-131zM92 582l78 190h136l-83 -190h-131z" />
    <glyph glyph-name="uni0401" unicode="&#x401;" horiz-adv-x="755" 
d="M86 0v710h594v-140h-424v-128h253v-143h-253v-152h463v-147h-633zM194 769v158h159v-158h-159zM431 769v158h159v-158h-159z" />
    <glyph glyph-name="uni0402" unicode="&#x402;" horiz-adv-x="967" 
d="M270 0v562h-235v148h668v-148h-263v-146q7 2 22 4.5t20 3.5q54 8 96 8q150 0 234.5 -66.5t84.5 -193.5q0 -123 -79 -196t-232 -73v148q71 0 106 31t35 87q0 116 -152 116q-39 0 -95 -9l-40 -9v-267h-170z" />
    <glyph glyph-name="uni0403" unicode="&#x403;" horiz-adv-x="733" 
d="M86 0v710h617v-148h-447v-562h-170zM285 769l112 162h174l-120 -162h-166z" />
    <glyph glyph-name="uni0404" unicode="&#x404;" horiz-adv-x="798" 
d="M416 -12q-159 0 -261.5 104t-102.5 263t102.5 263t261.5 104q81 0 146 -25.5t103 -65t59 -77t28 -72.5h-174q-11 18 -27 35t-53 34.5t-82 17.5q-72 0 -121.5 -41t-64.5 -104h265v-136h-266q14 -62 65 -104.5t122 -42.5q114 0 164 87h172q-4 -24 -16.5 -52.5t-39 -62.5
t-62.5 -61t-93 -45.5t-125 -18.5z" />
    <glyph glyph-name="uni0405" unicode="&#x405;" horiz-adv-x="757" 
d="M353 587q-124 0 -124 -67q0 -57 96 -68q23 -2 61 -5.5t51 -4.5q129 -10 199 -63.5t70 -162.5q0 -107 -81 -168t-234 -61q-70 0 -128 13.5t-96 35.5t-66.5 52t-43 59.5t-22.5 62.5h179q15 -35 58.5 -60.5t118.5 -25.5q69 0 104 21.5t35 58.5q0 38 -25.5 55t-77.5 23
q-19 2 -37 4t-40 4t-36 3q-121 12 -190 67.5t-69 152.5q0 100 81.5 155t216.5 55q83 0 147 -18t101.5 -49t58 -64t29.5 -70h-171q-15 25 -56 45t-109 20z" />
    <glyph glyph-name="uni0406" unicode="&#x406;" horiz-adv-x="346" 
d="M88 0v710h170v-710h-170z" />
    <glyph glyph-name="uni0407" unicode="&#x407;" horiz-adv-x="345" 
d="M88 0v710h170v-710h-170zM-26 769v158h159v-158h-159zM211 769v158h159v-158h-159z" />
    <glyph glyph-name="uni0408" unicode="&#x408;" horiz-adv-x="687" 
d="M603 710v-473q0 -116 -72 -183.5t-200 -67.5t-195.5 67t-67.5 184v190h161v-175q0 -51 26 -82t76 -31q49 0 75.5 31t26.5 82v458h170z" />
    <glyph glyph-name="uni0409" unicode="&#x409;" horiz-adv-x="1272" 
d="M154 308l40 402h539v-227h228q127 0 196.5 -62.5t69.5 -179.5q0 -118 -69 -179.5t-197 -61.5h-397v561h-226l-26 -266q-8 -82 -22.5 -134t-43 -93t-76 -59t-118.5 -18h-19v170h16q53 0 74.5 32t30.5 115zM943 334h-210v-186h210q110 0 110 93q0 44 -27.5 68.5t-82.5 24.5
z" />
    <glyph glyph-name="uni040A" unicode="&#x40a;" horiz-adv-x="1289" 
d="M86 0v710h170v-247h336v247h169v-247h217q127 0 196.5 -60.5t69.5 -171.5q0 -113 -69 -172t-197 -59h-386v313h-336v-313h-170zM961 314h-200v-166h200q109 0 109 84q0 82 -109 82z" />
    <glyph glyph-name="uni040B" unicode="&#x40b;" horiz-adv-x="967" 
d="M270 0v562h-235v148h668v-148h-263v-146l48 8q58 8 110 8q146 0 222.5 -67.5t76.5 -216.5v-148h-170v147q0 73 -35.5 105.5t-109.5 32.5q-39 0 -100 -9l-42 -9v-267h-170z" />
    <glyph glyph-name="uni040C" unicode="&#x40c;" horiz-adv-x="814" 
d="M86 0v710h170v-307l325 307h221l-361 -342l377 -368h-232l-330 319v-319h-170zM318 769l112 162h174l-120 -162h-166z" />
    <glyph glyph-name="uni040E" unicode="&#x40e;" horiz-adv-x="810" 
d="M372 0h-183l143 232l-317 478h202l212 -321l198 321h182zM426 875q25 0 38.5 15.5t13.5 37.5v10h125v-13q0 -72 -45 -117.5t-132 -45.5q-88 0 -132.5 45.5t-44.5 117.5v13h125v-10q0 -22 13 -37.5t39 -15.5z" />
    <glyph glyph-name="uni040F" unicode="&#x40f;" horiz-adv-x="849" 
d="M86 710h170v-561h336v561h170v-710h-261v-162h-153v162h-262v710z" />
    <glyph glyph-name="uni0410" unicode="&#x410;" horiz-adv-x="830" 
d="M633 0l-53 123h-338l-53 -123h-171l311 711h174l310 -711h-180zM303 265h216l-108 251z" />
    <glyph glyph-name="uni0411" unicode="&#x411;" horiz-adv-x="803" 
d="M256 438h230q126 0 195 -55.5t69 -159.5q0 -109 -68.5 -166t-195.5 -57h-400v710h603v-148h-433v-124zM476 300h-220v-152h220q100 0 100 76t-100 76z" />
    <glyph glyph-name="uni0412" unicode="&#x412;" horiz-adv-x="804" 
d="M86 0v710h410q115 0 176.5 -51.5t61.5 -141.5q0 -51 -29 -88.5t-71 -53.5q51 -18 84.5 -61.5t33.5 -110.5q0 -94 -64 -148.5t-185 -54.5h-417zM469 573h-216v-140h216q92 0 92 70t-92 70zM473 296h-220v-159h220q106 0 106 80q0 79 -106 79z" />
    <glyph glyph-name="uni0413" unicode="&#x413;" horiz-adv-x="733" 
d="M86 0v710h617v-148h-447v-562h-170z" />
    <glyph glyph-name="uni0414" unicode="&#x414;" horiz-adv-x="853" 
d="M566 149v412h-246l-22 -195q-15 -140 -52 -217h320zM178 710h558v-561h103v-311h-153v162h-526v-162h-153v311h73q42 71 60 224z" />
    <glyph glyph-name="uni0415" unicode="&#x415;" horiz-adv-x="755" 
d="M86 0v710h594v-140h-424v-128h253v-143h-253v-152h463v-147h-633z" />
    <glyph glyph-name="uni0416" unicode="&#x416;" horiz-adv-x="1151" 
d="M-4 0l335 365l-329 345h200l288 -305v305h163v-306l288 306h197l-322 -339l338 -371h-211l-290 316v-316h-163v315l-290 -315h-204z" />
    <glyph glyph-name="uni0417" unicode="&#x417;" horiz-adv-x="778" 
d="M393 722q157 0 236 -55.5t79 -144.5q0 -57 -32 -98t-79 -56q55 -15 92 -54t37 -96q0 -109 -86 -169.5t-246 -60.5q-88 0 -157 24t-107.5 61.5t-59 76t-23.5 74.5h170q32 -86 176 -86q159 0 159 86q0 68 -132 68h-107v137h104q117 0 117 71q0 72 -143 72q-129 0 -169 -71
h-171q14 91 100.5 156t241.5 65z" />
    <glyph glyph-name="uni0418" unicode="&#x418;" horiz-adv-x="868" 
d="M86 0v710h170v-478l356 478h170v-710h-170v478l-356 -478h-170z" />
    <glyph glyph-name="uni0419" unicode="&#x419;" horiz-adv-x="868" 
d="M86 0v710h170v-478l356 478h170v-710h-170v478l-356 -478h-170zM434 875q25 0 38.5 15.5t13.5 37.5v10h125v-13q0 -72 -45 -117.5t-132 -45.5q-88 0 -132.5 45.5t-44.5 117.5v13h125v-10q0 -22 13 -37.5t39 -15.5z" />
    <glyph glyph-name="uni041A" unicode="&#x41a;" horiz-adv-x="814" 
d="M86 0v710h170v-307l325 307h221l-361 -342l377 -368h-232l-330 319v-319h-170z" />
    <glyph glyph-name="uni041B" unicode="&#x41b;" horiz-adv-x="850" 
d="M338 561l-26 -266q-8 -82 -22.5 -134t-43 -93t-76 -59t-118.5 -18h-19v170h16q53 0 74.5 32t30.5 115l40 402h570v-710h-170v561h-256z" />
    <glyph glyph-name="uni041C" unicode="&#x41c;" horiz-adv-x="1020" 
d="M335 710l180 -458l180 458h238v-710h-164v537l-208 -538h-114l-205 534v-533h-156v710h249z" />
    <glyph glyph-name="uni041D" unicode="&#x41d;" horiz-adv-x="859" 
d="M603 0v281h-347v-281h-170v710h170v-279h347v279h169v-710h-169z" />
    <glyph glyph-name="uni041E" unicode="&#x41e;" horiz-adv-x="857" 
d="M429 -12q-161 0 -269 103.5t-108 263.5q0 162 107.5 264.5t269.5 102.5q161 0 268.5 -102.5t107.5 -264.5q0 -160 -107.5 -263.5t-268.5 -103.5zM429 140q92 0 147.5 61.5t55.5 153.5t-55.5 153.5t-147.5 61.5q-91 0 -147.5 -61.5t-56.5 -153.5t56.5 -153.5t147.5 -61.5z
" />
    <glyph glyph-name="uni041F" unicode="&#x41f;" horiz-adv-x="849" 
d="M86 0v710h676v-710h-170v561h-336v-561h-170z" />
    <glyph glyph-name="uni0420" unicode="&#x420;" horiz-adv-x="802" 
d="M86 0v710h415q122 0 188.5 -59t66.5 -170t-67 -171t-188 -60h-246v-250h-169zM485 562h-230v-164h230q48 0 72.5 21.5t24.5 60.5q0 82 -97 82z" />
    <glyph glyph-name="uni0421" unicode="&#x421;" horiz-adv-x="798" 
d="M416 -12q-159 0 -261.5 104t-102.5 263t102.5 263t261.5 104q81 0 146 -25.5t103 -65t59 -77t28 -72.5h-173q-11 18 -27.5 35t-53.5 34.5t-82 17.5q-86 0 -138 -61.5t-52 -152.5t52 -152.5t138 -61.5q112 0 164 87h172q-4 -24 -16.5 -52.5t-39 -62.5t-62.5 -61t-93 -45.5
t-125 -18.5z" />
    <glyph glyph-name="uni0422" unicode="&#x422;" horiz-adv-x="777" 
d="M35 562v148h707v-148h-269v-562h-169v562h-269z" />
    <glyph glyph-name="uni0423" unicode="&#x423;" horiz-adv-x="810" 
d="M372 0h-183l143 232l-317 478h202l212 -321l198 321h182z" />
    <glyph glyph-name="uni0424" unicode="&#x424;" horiz-adv-x="1116" 
d="M474 114h-154q-132 0 -203.5 64.5t-71.5 184.5q0 122 71 185.5t203 63.5h155v108h169v-108h154q133 0 203.5 -63.5t70.5 -185.5q0 -120 -71 -184.5t-203 -64.5h-154v-124h-169v124zM474 262v202h-138q-116 0 -116 -101q0 -47 29.5 -74t86.5 -27h138zM781 464h-138v-202
h138q56 0 85.5 27t29.5 74q0 101 -115 101z" />
    <glyph glyph-name="uni0425" unicode="&#x425;" horiz-adv-x="842" 
d="M620 0l-204 241l-206 -241h-199l306 359l-297 351h220l185 -223l190 223h203l-293 -342l306 -368h-211z" />
    <glyph glyph-name="uni0426" unicode="&#x426;" horiz-adv-x="879" 
d="M592 149v561h170v-561h104v-311h-154v162h-626v710h170v-561h336z" />
    <glyph glyph-name="uni0427" unicode="&#x427;" horiz-adv-x="822" 
d="M566 0v257l-63 -8q-78 -8 -137 -8q-148 0 -222 65t-74 212v192h170v-191q0 -70 33.5 -100t104.5 -30q61 0 131 8l57 9v304h170v-710h-170z" />
    <glyph glyph-name="uni0428" unicode="&#x428;" horiz-adv-x="1178" 
d="M86 710h170v-561h248v561h170v-561h248v561h170v-710h-1006v710z" />
    <glyph glyph-name="uni0429" unicode="&#x429;" horiz-adv-x="1208" 
d="M86 710h170v-561h248v561h170v-561h248v561h170v-561h103v-311h-153v162h-956v710z" />
    <glyph glyph-name="uni042A" unicode="&#x42a;" horiz-adv-x="957" 
d="M35 562v148h379v-227h231q127 0 196.5 -62.5t69.5 -179.5q0 -118 -69 -179.5t-197 -61.5h-400v562h-210zM628 334h-214v-186h214q109 0 109 93t-109 93z" />
    <glyph glyph-name="uni042B" unicode="&#x42b;" horiz-adv-x="1092" 
d="M256 483h230q129 0 198 -62.5t69 -179.5q0 -118 -69 -179.5t-198 -61.5h-400v710h170v-227zM469 334h-213v-186h213q109 0 109 93t-109 93zM835 0v710h170v-710h-170z" />
    <glyph glyph-name="uni042C" unicode="&#x42c;" horiz-adv-x="798" 
d="M256 483h230q129 0 198 -62.5t69 -179.5q0 -118 -69 -179.5t-198 -61.5h-400v710h170v-227zM469 334h-213v-186h213q109 0 109 93t-109 93z" />
    <glyph glyph-name="uni042D" unicode="&#x42d;" horiz-adv-x="798" 
d="M382 -12q-68 0 -125 18.5t-93 45.5t-62.5 61t-39 62.5t-16.5 52.5h172q50 -87 164 -87q72 0 122 41.5t62 105.5h-264v136h264q-13 62 -61 103.5t-120 41.5q-47 0 -85 -17.5t-54 -34.5t-27 -35h-173q7 35 28 72.5t59 77t104 65t148 25.5q161 0 260.5 -103t99.5 -264
q0 -159 -102 -263t-261 -104z" />
    <glyph glyph-name="uni042E" unicode="&#x42e;" horiz-adv-x="1124" 
d="M86 0v710h170v-279h90q24 131 123 211t236 80q158 0 262.5 -102.5t104.5 -264.5q0 -161 -105 -264t-262 -103q-137 0 -236.5 80.5t-123.5 212.5h-89v-281h-170zM705 140q87 0 140.5 61.5t53.5 153.5t-53.5 153.5t-140.5 61.5t-140 -61.5t-53 -153.5q0 -93 53 -154
t140 -61z" />
    <glyph glyph-name="uni042F" unicode="&#x42f;" horiz-adv-x="819" 
d="M229 0h-181l165 282q-72 21 -110.5 72t-38.5 128q0 112 66.5 170t187.5 58h415v-710h-170v260h-184zM336 403h227v161h-227q-97 0 -97 -81q0 -80 97 -80z" />
    <glyph glyph-name="uni0430" unicode="&#x430;" horiz-adv-x="677" 
d="M445 0v76q-8 -14 -23 -31t-55 -36.5t-89 -19.5q-100 0 -167.5 73.5t-67.5 196.5q0 122 67.5 195.5t168.5 73.5q37 0 68 -10t50.5 -25t30 -26.5t15.5 -20.5v72h162v-518h-160zM445 259q0 57 -32.5 94t-85.5 37t-86.5 -37t-33.5 -94t33.5 -94t86.5 -37t85.5 37t32.5 94z
" />
    <glyph glyph-name="uni0431" unicode="&#x431;" horiz-adv-x="656" 
d="M371 497q111 0 177 -68.5t66 -182.5q0 -116 -80 -187.5t-203 -71.5q-130 0 -206.5 77t-76.5 219q0 61 4 121q12 137 83 211.5t228 97.5l203 30v-138l-201 -30q-90 -15 -129 -48.5t-47 -107.5q54 78 182 78zM331 125q58 0 89 32.5t31 84.5t-31 84.5t-89 32.5t-89 -32.5
t-31 -84.5t31 -84.5t89 -32.5z" />
    <glyph glyph-name="uni0432" unicode="&#x432;" horiz-adv-x="640" 
d="M72 0v518h327q85 0 133.5 -37t48.5 -101q0 -44 -23.5 -74t-55.5 -38q40 -11 66.5 -41.5t26.5 -79.5q0 -67 -50.5 -107t-142.5 -40h-330zM359 405h-125v-91h125q61 0 61 45q0 46 -61 46zM368 208h-134v-95h133q65 0 65 50q0 45 -64 45z" />
    <glyph glyph-name="uni0433" unicode="&#x433;" horiz-adv-x="513" 
d="M70 0v518h416v-135h-254v-383h-162z" />
    <glyph glyph-name="uni0434" unicode="&#x434;" horiz-adv-x="670" 
d="M416 135v248h-143l-5 -38q-18 -149 -54 -210h202zM150 -149h-145v284h51q47 71 64 217l21 166h437v-383h87v-284h-145v149h-370v-149z" />
    <glyph glyph-name="uni0435" unicode="&#x435;" horiz-adv-x="635" 
d="M319 531q125 0 201 -74.5t76 -200.5v-28h-394q6 -50 40.5 -82t87.5 -32q67 0 100 40h161q-3 -25 -19.5 -52t-46 -54t-81 -44t-114.5 -17q-131 0 -209.5 76t-78.5 196q0 122 77 197t200 75zM319 413q-90 0 -114 -86h228q-23 86 -114 86z" />
    <glyph glyph-name="uni0436" unicode="&#x436;" horiz-adv-x="899" 
d="M369 0v218l-177 -218h-200l218 267l-210 251h198l171 -203v203h156v-203l171 203h196l-207 -247l222 -271h-205l-177 218v-218h-156z" />
    <glyph glyph-name="uni0437" unicode="&#x437;" horiz-adv-x="628" 
d="M314 109q106 0 106 54q0 44 -80 44h-82v107h75q76 0 76 46q0 49 -93 49q-92 0 -116 -65h-155q11 80 78 133.5t195 53.5q123 0 187.5 -41.5t64.5 -112.5q0 -43 -24.5 -72t-60.5 -38q43 -10 71 -40.5t28 -73.5q0 -78 -70.5 -122t-199.5 -44q-130 0 -201 57.5t-78 132.5h157
q10 -28 41 -48t81 -20z" />
    <glyph glyph-name="uni0438" unicode="&#x438;" horiz-adv-x="687" 
d="M72 0v518h160v-307l223 307h161v-518h-161v307l-223 -307h-160z" />
    <glyph glyph-name="uni0439" unicode="&#x439;" horiz-adv-x="687" 
d="M72 0v518h160v-307l223 307h161v-518h-161v307l-223 -307h-160zM345 690q25 0 36.5 15t11.5 37v16h125v-18q0 -72 -43.5 -117.5t-129.5 -45.5t-129.5 45.5t-43.5 117.5v18h125v-16q0 -22 11.5 -37t36.5 -15z" />
    <glyph glyph-name="uni043A" unicode="&#x43a;" horiz-adv-x="651" 
d="M71 0v518h162v-211l208 211h204l-247 -246l261 -272h-212l-214 226v-226h-162z" />
    <glyph glyph-name="uni043B" unicode="&#x43b;" horiz-adv-x="656" 
d="M110 240l27 278h447v-518h-162v383h-151l-15 -162q-10 -120 -50.5 -171.5t-138.5 -51.5h-40v148h12q39 0 52 18t19 76z" />
    <glyph glyph-name="uni043C" unicode="&#x43c;" horiz-adv-x="871" 
d="M72 0v518h225l142 -310l139 310h221v-518h-158v365l-157 -365h-105l-158 362v-362h-149z" />
    <glyph glyph-name="uni043D" unicode="&#x43d;" horiz-adv-x="677" 
d="M72 0v518h162v-185h209v185h162v-518h-162v198h-209v-198h-162z" />
    <glyph glyph-name="uni043E" unicode="&#x43e;" horiz-adv-x="652" 
d="M326 531q123 0 203.5 -76.5t80.5 -195.5t-80.5 -195.5t-203.5 -76.5t-203.5 76.5t-80.5 195.5t80.5 195.5t203.5 76.5zM326 128q54 0 87.5 37t33.5 94t-33.5 94t-87.5 37t-88 -37t-34 -94t34 -94t88 -37z" />
    <glyph glyph-name="uni043F" unicode="&#x43f;" horiz-adv-x="667" 
d="M72 0v518h523v-518h-162v383h-199v-383h-162z" />
    <glyph glyph-name="uni0440" unicode="&#x440;" horiz-adv-x="683" 
d="M232 74v-274h-160v718h162v-77q6 12 22 29.5t56.5 37.5t89.5 20q102 0 170 -73.5t68 -195.5q0 -123 -68 -196.5t-170 -73.5q-70 0 -114 30.5t-56 54.5zM232 259q0 -58 33.5 -94.5t89.5 -36.5q55 0 88 36.5t33 94.5t-33 94.5t-88 36.5q-56 0 -89.5 -36.5t-33.5 -94.5z" />
    <glyph glyph-name="uni0441" unicode="&#x441;" horiz-adv-x="607" 
d="M571 337h-158q-33 53 -97 53q-50 0 -80.5 -37t-30.5 -94t31 -94.5t81 -37.5q29 0 52.5 11.5t32.5 22t13 19.5h156q-2 -29 -17.5 -60.5t-44.5 -62.5t-80 -50.5t-116 -19.5q-116 0 -193.5 75.5t-77.5 196.5t77 196.5t192 75.5q65 0 116 -19.5t80 -50t45 -62t19 -62.5z" />
    <glyph glyph-name="uni0442" unicode="&#x442;" horiz-adv-x="602" 
d="M220 0v383h-193v135h548v-135h-193v-383h-162z" />
    <glyph glyph-name="uni0443" unicode="&#x443;" horiz-adv-x="616" 
d="M611 518l-300 -721h-163l87 211l-232 510h184l130 -313l130 313h164z" />
    <glyph glyph-name="uni0444" unicode="&#x444;" horiz-adv-x="851" 
d="M344 -200v187q-134 4 -218.5 78.5t-84.5 193.5t84.5 193.5t218.5 78.5v205h163v-205q136 -4 219.5 -78t83.5 -194q0 -118 -84.5 -194t-218.5 -78v-187h-163zM647 259q0 57 -36.5 94t-103.5 40v-268q67 3 103.5 40t36.5 94zM204 259q0 -56 36.5 -93t103.5 -41v268
q-67 -5 -103.5 -41.5t-36.5 -92.5z" />
    <glyph glyph-name="uni0445" unicode="&#x445;" horiz-adv-x="655" 
d="M452 0l-131 151l-135 -151h-182l228 254l-228 264h208l124 -147l132 147h183l-226 -252l226 -266h-199z" />
    <glyph glyph-name="uni0446" unicode="&#x446;" horiz-adv-x="686" 
d="M72 518h162v-383h199v383h162v-383h86v-284h-146v149h-463v518z" />
    <glyph glyph-name="uni0447" unicode="&#x447;" horiz-adv-x="651" 
d="M417 0v170q-21 -4 -35 -5q-31 -4 -85 -4q-120 0 -178.5 50.5t-58.5 166.5v140h162v-135q0 -48 19.5 -68t71.5 -20q49 0 76 3q6 1 16 2.5t12 1.5v216h162v-518h-162z" />
    <glyph glyph-name="uni0448" unicode="&#x448;" horiz-adv-x="982" 
d="M72 518h162v-383h176v383h162v-383h176v383h162v-518h-838v518z" />
    <glyph glyph-name="uni0449" unicode="&#x449;" horiz-adv-x="1002" 
d="M72 518h162v-383h176v383h162v-383h176v383h162v-383h87v-284h-145v149h-780v518z" />
    <glyph glyph-name="uni044A" unicode="&#x44a;" horiz-adv-x="755" 
d="M27 518h318v-156h173q106 0 156 -49t50 -130q0 -77 -50.5 -130t-154.5 -53h-336v383h-156v135zM490 238h-145v-114h145q71 0 71 59q0 55 -71 55z" />
    <glyph glyph-name="uni044B" unicode="&#x44b;" horiz-adv-x="916" 
d="M72 518h162v-156h173q106 0 156 -49t50 -130q0 -77 -50.5 -130t-154.5 -53h-336v518zM379 238h-145v-114h145q71 0 71 59q0 55 -71 55zM681 0v518h163v-518h-163z" />
    <glyph glyph-name="uni044C" unicode="&#x44c;" horiz-adv-x="643" 
d="M72 518h162v-156h173q106 0 156 -49t50 -130q0 -77 -50.5 -130t-154.5 -53h-336v518zM379 238h-145v-114h145q71 0 71 59q0 55 -71 55z" />
    <glyph glyph-name="uni044D" unicode="&#x44d;" horiz-adv-x="614" 
d="M35 177h157q9 -21 33.5 -40.5t64.5 -19.5q85 0 113 84h-169v121h167q-13 36 -41 57t-67 21q-72 0 -97 -59h-159q3 30 19 61t45 61t80.5 49t116.5 19q118 0 196 -75.5t78 -196.5t-79.5 -196.5t-198.5 -75.5q-65 0 -116.5 19t-80.5 49t-44.5 61.5t-17.5 60.5z" />
    <glyph glyph-name="uni044E" unicode="&#x44e;" horiz-adv-x="894" 
d="M71 0v518h162v-185h70q24 91 97 144.5t174 53.5q121 0 200 -76.5t79 -195.5t-79 -195.5t-200 -76.5q-105 0 -179.5 57.5t-94.5 153.5h-67v-198h-162zM574 128q52 0 84 37t32 94t-32 94t-84 37q-51 0 -84 -37t-33 -94t33 -94t84 -37z" />
    <glyph glyph-name="uni044F" unicode="&#x44f;" horiz-adv-x="655" 
d="M583 0h-162v162h-86l-115 -162h-180l137 186q-118 34 -118 155q0 77 51 127t153 50h320v-518zM286 286h135v108h-135q-63 0 -63 -54q0 -25 16.5 -39.5t46.5 -14.5z" />
    <glyph glyph-name="uni0451" unicode="&#x451;" horiz-adv-x="635" 
d="M319 531q125 0 201 -74.5t76 -200.5v-28h-394q6 -50 40.5 -82t87.5 -32q67 0 100 40h161q-3 -25 -19.5 -52t-46 -54t-81 -44t-114.5 -17q-131 0 -209.5 76t-78.5 196q0 122 77 197t200 75zM319 413q-90 0 -114 -86h228q-23 86 -114 86zM124 585v158h160v-158h-160z
M354 585v158h160v-158h-160z" />
    <glyph glyph-name="uni0452" unicode="&#x452;" horiz-adv-x="678" 
d="M72 0v570h-76v106h76v60h162v-60h182v-106h-182v-132q17 32 62 61.5t105 29.5q97 0 154 -62t57 -162v-333q0 -93 -40.5 -134t-126.5 -41h-148v125h78q41 0 57.5 17t16.5 54v279q0 52 -29 82.5t-78 30.5t-78.5 -31t-29.5 -82v-272h-162z" />
    <glyph glyph-name="uni0453" unicode="&#x453;" horiz-adv-x="513" 
d="M70 0v518h416v-135h-254v-383h-162zM186 582l109 190h163l-116 -190h-156z" />
    <glyph glyph-name="uni0454" unicode="&#x454;" horiz-adv-x="614" 
d="M578 341h-159q-29 59 -96 59q-85 0 -111 -78h168v-121h-170q27 -84 114 -84q42 0 66.5 20.5t30.5 39.5h157q-2 -29 -17.5 -60.5t-44.5 -61.5t-80.5 -49t-116.5 -19q-119 0 -198.5 75.5t-79.5 196.5t79.5 196.5t197.5 75.5q65 0 116 -19t80 -49t45 -61t19 -61z" />
    <glyph glyph-name="uni0455" unicode="&#x455;" horiz-adv-x="590" 
d="M323 191l-73 6q-98 6 -153 48.5t-55 120.5t64 122t177 44q69 0 120.5 -16t79.5 -41.5t41.5 -48t18.5 -45.5h-171q-36 36 -90 36q-36 0 -55.5 -11t-19.5 -30q0 -36 61 -41q12 -2 33.5 -3.5t34.5 -2.5q115 -8 165.5 -49.5t50.5 -123.5q0 -81 -63 -125.5t-187 -44.5
q-57 0 -104.5 12.5t-76 30.5t-49.5 41t-29.5 41.5t-11.5 35.5h175q2 -7 10.5 -16.5t31.5 -18.5t54 -9q84 0 84 43q0 40 -63 45z" />
    <glyph glyph-name="uni0456" unicode="&#x456;" horiz-adv-x="309" 
d="M69 585v160h170v-160h-170zM73 0v518h163v-518h-163z" />
    <glyph glyph-name="uni0457" unicode="&#x457;" horiz-adv-x="307" 
d="M16 585v160h119v-160h-119zM172 585v160h119v-160h-119zM72 0v518h163v-518h-163z" />
    <glyph glyph-name="uni0458" unicode="&#x458;" horiz-adv-x="306" 
d="M71 585v160h170v-160h-170zM237 518v-549q0 -91 -40 -131.5t-123 -40.5h-179v125h109q38 0 54 16t16 52v528h163z" />
    <glyph glyph-name="uni0459" unicode="&#x459;" horiz-adv-x="964" 
d="M110 240l27 278h431v-156h159q106 0 156.5 -49t50.5 -130q0 -77 -51 -130t-155 -53h-322v383h-135l-15 -162q-10 -120 -50.5 -171.5t-138.5 -51.5h-40v148h12q39 0 52 18t19 76zM700 238h-132v-114h132q70 0 70 59q0 55 -70 55z" />
    <glyph glyph-name="uni045A" unicode="&#x45a;" horiz-adv-x="976" 
d="M71 0v518h162v-160h202v160h162v-160h146q105 0 154 -48t49 -129q0 -77 -49.5 -129t-152.5 -52h-309v223h-202v-223h-162zM716 234h-119v-110h119q67 0 67 57q0 25 -17.5 39t-49.5 14z" />
    <glyph glyph-name="uni045B" unicode="&#x45b;" horiz-adv-x="678" 
d="M234 272v-272h-162v570h-76v106h76v60h162v-60h182v-106h-182v-132q17 32 62 61.5t105 29.5q95 0 153 -62.5t58 -161.5v-305h-163v272q0 52 -29 82.5t-78 30.5t-78.5 -31t-29.5 -82z" />
    <glyph glyph-name="uni045C" unicode="&#x45c;" horiz-adv-x="651" 
d="M242 582l109 190h163l-116 -190h-156zM71 0v518h162v-211l208 211h204l-247 -246l261 -272h-212l-214 226v-226h-162z" />
    <glyph glyph-name="uni045E" unicode="&#x45e;" horiz-adv-x="616" 
d="M611 518l-300 -721h-163l87 211l-232 510h184l130 -313l130 313h164zM306 695q25 0 36.5 15t11.5 37v16h125v-18q0 -72 -43.5 -117.5t-129.5 -45.5t-129.5 45.5t-43.5 117.5v18h125v-16q0 -22 11.5 -37t36.5 -15z" />
    <glyph glyph-name="uni045F" unicode="&#x45f;" horiz-adv-x="667" 
d="M260 -149v149h-188v518h162v-383h199v383h162v-518h-189v-149h-146z" />
    <glyph glyph-name="uni0490" unicode="&#x490;" horiz-adv-x="733" 
d="M86 0v710h463v169h154v-317h-447v-562h-170z" />
    <glyph glyph-name="uni0491" unicode="&#x491;" horiz-adv-x="510" 
d="M70 0v518h268v149h145v-284h-251v-383h-162z" />
    <glyph glyph-name="uni0492" unicode="&#x492;" horiz-adv-x="752" 
d="M11 290v136h95v284h617v-148h-447v-136h201v-136h-201v-290h-170v290h-95z" />
    <glyph glyph-name="uni0493" unicode="&#x493;" horiz-adv-x="517" 
d="M74 0v164h-61v132h61v222h416v-135h-254v-87h129v-132h-129v-164h-162z" />
    <glyph glyph-name="uni0496" unicode="&#x496;" horiz-adv-x="1157" 
d="M-4 0l335 365l-329 345h200l288 -305v305h163v-306l288 306h197l-322 -339l202 -222h136v-311h-153v162h-58l-290 316v-316h-163v315l-290 -315h-204z" />
    <glyph glyph-name="uni0497" unicode="&#x497;" horiz-adv-x="909" 
d="M369 0v218l-177 -218h-200l218 267l-210 251h198l171 -203v203h156v-203l171 203h196l-207 -247l112 -136h110v-284h-146v149h-59l-177 218v-218h-156z" />
    <glyph glyph-name="uni0498" unicode="&#x498;" horiz-adv-x="778" 
d="M393 722q157 0 236 -55.5t79 -144.5q0 -57 -32 -98t-79 -56q55 -15 92 -54t37 -96q0 -95 -65 -153t-189 -72v-155h-153v155q-68 10 -122 36t-84.5 60t-47 68.5t-18.5 66.5h170q32 -86 176 -86q159 0 159 86q0 68 -132 68h-107v137h104q117 0 117 71q0 72 -143 72
q-129 0 -169 -71h-171q14 91 100.5 156t241.5 65z" />
    <glyph glyph-name="uni0499" unicode="&#x499;" horiz-adv-x="628" 
d="M314 109q106 0 106 54q0 44 -80 44h-82v107h75q76 0 76 46q0 49 -93 49q-92 0 -116 -65h-155q11 80 78 133.5t195 53.5q123 0 187.5 -41.5t64.5 -112.5q0 -43 -24.5 -72t-60.5 -38q43 -10 71 -40.5t28 -73.5q0 -65 -50.5 -107t-144.5 -54v-141h-145v141q-97 15 -151 68.5
t-58 116.5h157q10 -28 41 -48t81 -20z" />
    <glyph glyph-name="uni049A" unicode="&#x49a;" horiz-adv-x="821" 
d="M86 0v710h170v-307l325 307h221l-361 -342l224 -219h153v-311h-153v162h-79l-330 319v-319h-170z" />
    <glyph glyph-name="uni049B" unicode="&#x49b;" horiz-adv-x="661" 
d="M71 0v518h162v-211l208 211h204l-247 -246l131 -137h130v-284h-146v149h-66l-214 226v-226h-162z" />
    <glyph glyph-name="uni049C" unicode="&#x49c;" horiz-adv-x="885" 
d="M86 0v710h170v-710h-170zM439 153h-130v406h130v-154l243 305h187l-272 -341l291 -369h-200l-249 317v-164z" />
    <glyph glyph-name="uni049D" unicode="&#x49d;" horiz-adv-x="742" 
d="M70 0v518h162v-518h-162zM377 95h-103v338h103v-123l169 208h188l-206 -247l222 -271h-198l-175 223v-128z" />
    <glyph glyph-name="uni04A0" unicode="&#x4a0;" horiz-adv-x="1071" 
d="M35 562v148h478v-307l325 307h221l-361 -342l377 -368h-232l-330 319v-319h-170v562h-308z" />
    <glyph glyph-name="uni04A1" unicode="&#x4a1;" horiz-adv-x="818" 
d="M238 0v383h-211v135h374v-211l208 211h203l-247 -246l261 -272h-212l-213 225v-225h-163z" />
    <glyph glyph-name="uni04A2" unicode="&#x4a2;" horiz-adv-x="889" 
d="M86 0v710h170v-279h347v279h169v-561h104v-311h-154v162h-120v149h1v132h-347v-281h-170z" />
    <glyph glyph-name="uni04A3" unicode="&#x4a3;" horiz-adv-x="697" 
d="M72 0v518h162v-185h209v185h162v-383h87v-284h-146v149h-103v198h-209v-198h-162z" />
    <glyph glyph-name="uni04AA" unicode="&#x4aa;" horiz-adv-x="798" 
d="M488 -162h-153v158q-128 26 -205.5 124t-77.5 235q0 159 102.5 263t261.5 104q81 0 146 -25.5t103 -65t59 -77t28 -72.5h-173q-11 18 -27.5 35t-53.5 34.5t-82 17.5q-86 0 -138 -61.5t-52 -152.5t52 -152.5t138 -61.5q112 0 164 87h172q-6 -28 -22 -60t-45 -69t-80.5 -66
t-116.5 -39v-156z" />
    <glyph glyph-name="uni04AB" unicode="&#x4ab;" horiz-adv-x="607" 
d="M571 337h-158q-33 53 -97 53q-50 0 -80.5 -37t-30.5 -94t31 -94.5t81 -37.5q29 0 52.5 11.5t32.5 22t13 19.5h156q-5 -54 -48.5 -108.5t-125.5 -74.5v-146h-145v142q-94 18 -152 89.5t-58 176.5q0 121 77 196.5t192 75.5q65 0 116 -19.5t80 -50t45 -62t19 -62.5z" />
    <glyph glyph-name="uni04AE" unicode="&#x4ae;" horiz-adv-x="798" 
d="M495 298v-298h-178v299l-315 411h216l193 -258l194 258h191z" />
    <glyph glyph-name="uni04AF" unicode="&#x4af;" horiz-adv-x="618" 
d="M233 -203v203l-229 518h183l130 -328l129 328h167l-218 -518v-203h-162z" />
    <glyph glyph-name="uni04B0" unicode="&#x4b0;" horiz-adv-x="798" 
d="M317 299l-315 411h217l193 -257l193 257h191l-301 -412h180v-141h-180v-157h-178v157h-180v141h180v1z" />
    <glyph glyph-name="uni04B1" unicode="&#x4b1;" horiz-adv-x="618" 
d="M233 -203v84h-130v119h130l-229 518h183l130 -328l129 328h167l-218 -518h130v-119h-130v-84h-162z" />
    <glyph glyph-name="uni04B2" unicode="&#x4b2;" horiz-adv-x="844" 
d="M209 0h-198l306 359l-297 351h221l185 -223l190 223h202l-293 -342l182 -219h131v-311h-154v162h-65l-203 241z" />
    <glyph glyph-name="uni04B3" unicode="&#x4b3;" horiz-adv-x="657" 
d="M186 0h-182l228 254l-228 264h208l124 -147l132 147h183l-226 -252l111 -131h119v-284h-146v149h-57l-131 151z" />
    <glyph glyph-name="uni04B6" unicode="&#x4b6;" horiz-adv-x="852" 
d="M566 0v257l-63 -8q-78 -8 -137 -8q-148 0 -222 65t-74 212v192h170v-191q0 -70 33.5 -100t104.5 -30q61 0 131 8l57 9v304h170v-561h103v-311h-153v162h-120z" />
    <glyph glyph-name="uni04B7" unicode="&#x4b7;" horiz-adv-x="671" 
d="M417 0v170q-22 -4 -34 -5q-28 -4 -86 -4q-120 0 -178.5 50.5t-58.5 166.5v140h162v-135q0 -48 19.5 -68t71.5 -20q49 0 76 3q6 1 16 2.5t12 1.5v216h162v-383h87v-284h-145v149h-104z" />
    <glyph glyph-name="uni04B8" unicode="&#x4b8;" horiz-adv-x="822" 
d="M466 113h-130v129q-133 5 -199.5 70.5t-66.5 205.5v192h170v-191q0 -59 23.5 -89t72.5 -38v147h130v-147q44 4 72 9l28 5v304h170v-710h-170v257q-4 0 -13.5 -1.5t-15.5 -2.5q-8 -1 -71 -8v-132z" />
    <glyph glyph-name="uni04B9" unicode="&#x4b9;" horiz-adv-x="665" 
d="M377 66h-103v96q-108 5 -161 56.5t-53 159.5v140h162v-135q0 -36 11.5 -55.5t40.5 -27.5v104h103v-107l40 3l14 2v216h162v-518h-162v170l-15 -2q-32 -4 -39 -4v-98z" />
    <glyph glyph-name="uni04BA" unicode="&#x4ba;" horiz-adv-x="822" 
d="M256 710v-257l63 8q78 8 137 8q148 0 222 -65t74 -212v-192h-170v191q0 70 -33.5 100t-104.5 30q-61 0 -131 -8l-57 -9v-304h-170v710h170z" />
    <glyph glyph-name="uni04BB" unicode="&#x4bb;" horiz-adv-x="678" 
d="M234 272v-272h-162v736h162v-298q17 32 62 61.5t105 29.5q95 0 153 -62.5t58 -161.5v-305h-163v272q0 52 -29 82.5t-78 30.5t-78.5 -31t-29.5 -82z" />
    <glyph glyph-name="uni04C0" unicode="&#x4c0;" horiz-adv-x="346" 
d="M88 0v710h170v-710h-170z" />
    <glyph glyph-name="uni04C1" unicode="&#x4c1;" horiz-adv-x="1151" 
d="M-4 0l335 365l-329 345h200l288 -305v305h163v-306l288 306h197l-322 -339l338 -371h-211l-290 316v-316h-163v315l-290 -315h-204zM573 875q25 0 38.5 15.5t13.5 37.5v10h125v-13q0 -72 -45 -117.5t-132 -45.5q-88 0 -132.5 45.5t-44.5 117.5v13h125v-10q0 -22 13 -37.5
t39 -15.5z" />
    <glyph glyph-name="uni04C2" unicode="&#x4c2;" horiz-adv-x="899" 
d="M369 0v218l-177 -218h-200l218 267l-210 251h198l171 -203v203h156v-203l171 203h196l-207 -247l222 -271h-205l-177 218v-218h-156zM447 690q25 0 36.5 15t11.5 37v16h125v-18q0 -72 -43.5 -117.5t-129.5 -45.5t-129.5 45.5t-43.5 117.5v18h125v-16q0 -22 11.5 -37
t36.5 -15z" />
    <glyph glyph-name="uni04CF" unicode="&#x4cf;" horiz-adv-x="311" 
d="M74 0v736h163v-736h-163z" />
    <glyph glyph-name="uni04D0" unicode="&#x4d0;" horiz-adv-x="830" 
d="M633 0l-53 123h-338l-53 -123h-171l311 711h174l310 -711h-180zM303 265h216l-108 251zM414 875q25 0 38.5 15.5t13.5 37.5v10h125v-13q0 -72 -45 -117.5t-132 -45.5q-88 0 -132.5 45.5t-44.5 117.5v13h125v-10q0 -22 13 -37.5t39 -15.5z" />
    <glyph glyph-name="uni04D1" unicode="&#x4d1;" horiz-adv-x="677" 
d="M445 0v76q-8 -14 -23 -31t-55 -36.5t-89 -19.5q-100 0 -167.5 73.5t-67.5 196.5q0 122 67.5 195.5t168.5 73.5q37 0 68 -10t50.5 -25t30 -26.5t15.5 -20.5v72h162v-518h-160zM445 259q0 57 -32.5 94t-85.5 37t-86.5 -37t-33.5 -94t33.5 -94t86.5 -37t85.5 37t32.5 94z
M326 689q25 0 36.5 15t11.5 37v16h125v-18q0 -72 -43.5 -117.5t-129.5 -45.5t-129.5 45.5t-43.5 117.5v18h125v-16q0 -22 11.5 -37t36.5 -15z" />
    <glyph glyph-name="uni04D6" unicode="&#x4d6;" horiz-adv-x="755" 
d="M86 0v710h594v-140h-424v-128h253v-143h-253v-152h463v-147h-633zM392 875q25 0 38.5 15.5t13.5 37.5v10h125v-13q0 -72 -45 -117.5t-132 -45.5q-88 0 -132.5 45.5t-44.5 117.5v13h125v-10q0 -22 13 -37.5t39 -15.5z" />
    <glyph glyph-name="uni04D7" unicode="&#x4d7;" horiz-adv-x="635" 
d="M319 531q125 0 201 -74.5t76 -200.5v-28h-394q6 -50 40.5 -82t87.5 -32q67 0 100 40h161q-3 -25 -19.5 -52t-46 -54t-81 -44t-114.5 -17q-131 0 -209.5 76t-78.5 196q0 122 77 197t200 75zM319 413q-90 0 -114 -86h228q-23 86 -114 86zM319 689q25 0 36.5 15t11.5 37v16
h125v-18q0 -72 -43.5 -117.5t-129.5 -45.5t-129.5 45.5t-43.5 117.5v18h125v-16q0 -22 11.5 -37t36.5 -15z" />
    <glyph glyph-name="uni04D8" unicode="&#x4d8;" horiz-adv-x="857" 
d="M425 573q-125 0 -177 -84h-172q11 41 37.5 81t69 74.5t106.5 56t139 21.5q166 0 271.5 -100.5t105.5 -266.5q0 -162 -108.5 -264.5t-269.5 -102.5q-162 0 -268.5 101t-106.5 266q0 22 1 33l2 19h578q-10 73 -65.5 119.5t-142.5 46.5zM427 133q80 0 134.5 42.5t69.5 103.5
h-403q13 -61 65 -103.5t134 -42.5z" />
    <glyph glyph-name="uni04D9" unicode="&#x4d9;" horiz-adv-x="638" 
d="M319 -13q-125 0 -201 74.5t-76 200.5v28h394q-6 50 -40.5 82t-87.5 32q-67 0 -100 -40h-161q3 25 19.5 52t46 54t81 44t114.5 17q131 0 209.5 -76t78.5 -196q0 -122 -77 -197t-200 -75zM319 105q90 0 114 86h-228q23 -86 114 -86z" />
    <glyph glyph-name="uni04E2" unicode="&#x4e2;" horiz-adv-x="868" 
d="M86 0v710h170v-478l356 478h170v-710h-170v478l-356 -478h-170zM619 789h-370v122h370v-122z" />
    <glyph glyph-name="uni04E3" unicode="&#x4e3;" horiz-adv-x="687" 
d="M72 0v518h160v-307l223 307h161v-518h-161v307l-223 -307h-160zM515 606h-342v123h342v-123z" />
    <glyph glyph-name="uni04E6" unicode="&#x4e6;" horiz-adv-x="857" 
d="M429 -12q-161 0 -269 103.5t-108 263.5q0 162 107.5 264.5t269.5 102.5q161 0 268.5 -102.5t107.5 -264.5q0 -160 -107.5 -263.5t-268.5 -103.5zM429 140q92 0 147.5 61.5t55.5 153.5t-55.5 153.5t-147.5 61.5q-91 0 -147.5 -61.5t-56.5 -153.5t56.5 -153.5t147.5 -61.5z
M231 769v158h159v-158h-159zM468 769v158h159v-158h-159z" />
    <glyph glyph-name="uni04E7" unicode="&#x4e7;" horiz-adv-x="652" 
d="M326 531q123 0 203.5 -76.5t80.5 -195.5t-80.5 -195.5t-203.5 -76.5t-203.5 76.5t-80.5 195.5t80.5 195.5t203.5 76.5zM326 128q54 0 87.5 37t33.5 94t-33.5 94t-87.5 37t-88 -37t-34 -94t34 -94t88 -37zM131 585v158h160v-158h-160zM361 585v158h160v-158h-160z" />
    <glyph glyph-name="uni04E8" unicode="&#x4e8;" horiz-adv-x="857" 
d="M429 -12q-161 0 -269 103.5t-108 263.5q0 162 107.5 264.5t269.5 102.5q161 0 268.5 -102.5t107.5 -264.5q0 -160 -107.5 -263.5t-268.5 -103.5zM429 577q-79 0 -132.5 -41.5t-68.5 -112.5h401q-15 70 -68.5 112t-131.5 42zM429 133q79 0 133 42t68 114h-404
q14 -72 68.5 -114t134.5 -42z" />
    <glyph glyph-name="uni04E9" unicode="&#x4e9;" horiz-adv-x="652" 
d="M326 531q123 0 203.5 -76.5t80.5 -195.5t-80.5 -195.5t-203.5 -76.5t-204 76.5t-81 195.5t81 195.5t204 76.5zM326 407q-96 0 -121 -93h242q-25 93 -121 93zM326 111q99 0 122 98h-244q23 -98 122 -98z" />
    <glyph glyph-name="uni04EE" unicode="&#x4ee;" horiz-adv-x="810" 
d="M372 0h-183l143 232l-317 478h202l212 -321l198 321h182zM609 789h-370v122h370v-122z" />
    <glyph glyph-name="uni04EF" unicode="&#x4ef;" horiz-adv-x="616" 
d="M611 518l-300 -721h-163l87 211l-232 510h184l130 -313l130 313h164zM477 600h-342v123h342v-123z" />
    <glyph glyph-name="uni04F2" unicode="&#x4f2;" horiz-adv-x="810" 
d="M372 0h-183l143 232l-317 478h202l212 -321l198 321h182zM455 769l81 162h155l-88 -162h-148zM235 769l77 162h156l-84 -162h-149z" />
    <glyph glyph-name="uni04F3" unicode="&#x4f3;" horiz-adv-x="616" 
d="M329 582l78 190h136l-83 -190h-131zM129 582l78 190h136l-83 -190h-131zM611 518l-300 -721h-163l87 211l-232 510h184l130 -313l130 313h164z" />
    <glyph glyph-name="Wgrave" unicode="&#x1e80;" horiz-adv-x="1147" 
d="M737 -1l-161 471l-163 -471h-152l-238 711h187l142 -458l152 459h156l153 -460l143 459h168l-231 -711h-156zM662 769h-166l-120 162h174z" />
    <glyph glyph-name="wgrave" unicode="&#x1e81;" horiz-adv-x="917" 
d="M571 -4l-113 334l-111 -334h-150l-188 522h176l101 -316l109 320h147l109 -317l100 313h157l-182 -522h-155zM543 582h-156l-116 190h163z" />
    <glyph glyph-name="Wacute" unicode="&#x1e82;" horiz-adv-x="1147" 
d="M737 -1l-161 471l-163 -471h-152l-238 711h187l142 -458l152 459h156l153 -460l143 459h168l-231 -711h-156zM499 769l112 162h174l-120 -162h-166z" />
    <glyph glyph-name="wacute" unicode="&#x1e83;" horiz-adv-x="917" 
d="M571 -4l-113 334l-111 -334h-150l-188 522h176l101 -316l109 320h147l109 -317l100 313h157l-182 -522h-155zM386 582l109 190h163l-116 -190h-156z" />
    <glyph glyph-name="Wdieresis" unicode="&#x1e84;" horiz-adv-x="1147" 
d="M737 -1l-161 471l-163 -471h-152l-238 711h187l142 -458l152 459h156l153 -460l143 459h168l-231 -711h-156zM381 769v158h159v-158h-159zM618 769v158h159v-158h-159z" />
    <glyph glyph-name="wdieresis" unicode="&#x1e85;" horiz-adv-x="917" 
d="M571 -4l-113 334l-111 -334h-150l-188 522h176l101 -316l109 320h147l109 -317l100 313h157l-182 -522h-155zM271 585v158h160v-158h-160zM501 585v158h160v-158h-160z" />
    <glyph glyph-name="Ygrave" unicode="&#x1ef2;" horiz-adv-x="798" 
d="M495 298v-298h-178v299l-315 411h216l193 -258l194 258h191zM502 769h-166l-120 162h174z" />
    <glyph glyph-name="ygrave" unicode="&#x1ef3;" horiz-adv-x="616" 
d="M611 518l-300 -721h-163l87 211l-232 510h184l130 -313l130 313h164zM395 582h-156l-116 190h163z" />
    <glyph glyph-name="uni2009" unicode="&#x2009;" horiz-adv-x="166" 
 />
    <glyph glyph-name="uni200A" unicode="&#x200a;" horiz-adv-x="83" 
 />
    <glyph glyph-name="endash" unicode="&#x2013;" horiz-adv-x="712" 
d="M76 246v109h560v-109h-560z" />
    <glyph glyph-name="emdash" unicode="&#x2014;" horiz-adv-x="1025" 
d="M76 246v109h873v-109h-873z" />
    <glyph glyph-name="quoteleft" unicode="&#x2018;" horiz-adv-x="328" 
d="M128 736h112q-62 -101 -69 -189h87v-178h-184v155q0 120 54 212z" />
    <glyph glyph-name="quoteright" unicode="&#x2019;" horiz-adv-x="328" 
d="M200 369h-111q62 106 68 189h-86v178h183v-155q0 -120 -54 -212z" />
    <glyph glyph-name="quotesinglbase" unicode="&#x201a;" horiz-adv-x="327" 
d="M200 -189h-111q62 106 68 189h-86v178h183v-155q0 -120 -54 -212z" />
    <glyph glyph-name="quotedblleft" unicode="&#x201c;" horiz-adv-x="582" 
d="M128 736h112q-62 -101 -69 -189h84v-178h-181v155q0 120 54 212zM385 736h111q-62 -106 -68 -189h84v-178h-181v155q0 120 54 212z" />
    <glyph glyph-name="quotedblright" unicode="&#x201d;" horiz-adv-x="582" 
d="M454 369h-111q63 102 68 189h-84v178h182v-155q0 -118 -55 -212zM197 369h-111q63 102 68 189h-83v178h181v-155q0 -118 -55 -212z" />
    <glyph glyph-name="quotedblbase" unicode="&#x201e;" horiz-adv-x="581" 
d="M454 -189h-111q63 102 68 189h-84v178h182v-155q0 -118 -55 -212zM197 -189h-111q63 102 68 189h-83v178h181v-155q0 -118 -55 -212z" />
    <glyph glyph-name="dagger" unicode="&#x2020;" horiz-adv-x="523" 
d="M484 403h-145v-403h-156v403h-145v147h145v160h156v-160h145v-147z" />
    <glyph glyph-name="daggerdbl" unicode="&#x2021;" horiz-adv-x="516" 
d="M474 150h-138v-150h-156v150h-138v141h138v130h-138v141h138v148h156v-148h138v-141h-138v-130h138v-141z" />
    <glyph glyph-name="bullet" unicode="&#x2022;" horiz-adv-x="604" 
d="M302 541q94 0 159.5 -66t65.5 -159q0 -94 -65.5 -159.5t-159.5 -65.5t-159.5 65.5t-65.5 159.5q0 93 65.5 159t159.5 66z" />
    <glyph glyph-name="ellipsis" unicode="&#x2026;" horiz-adv-x="898" 
d="M73 0v196h187v-196h-187zM355 0v196h188v-196h-188zM638 0v196h188v-196h-188z" />
    <glyph glyph-name="perthousand" unicode="&#x2030;" horiz-adv-x="1430" 
d="M239 340q-83 0 -139 55t-56 136t56 136t139 55q82 0 138 -55t56 -136t-56 -136t-138 -55zM166 0l520 710h142l-521 -710h-141zM239 456q32 0 52 21t20 54t-20 54t-52 21t-52.5 -21.5t-20.5 -53.5t20.5 -53.5t52.5 -21.5zM755 -14q-82 0 -138.5 55t-56.5 136t56.5 136
t138.5 55t138 -55t56 -136t-56 -136t-138 -55zM1192 -14q-82 0 -138 55t-56 136t56 136t138 55t138 -55t56 -136t-56 -136t-138 -55zM755 102q32 0 52 21t20 54t-20 54t-52 21t-52.5 -21.5t-20.5 -53.5t20.5 -53.5t52.5 -21.5zM1192 102q32 0 52 21t20 54t-20 54t-52 21
t-52.5 -21.5t-20.5 -53.5t20.5 -53.5t52.5 -21.5z" />
    <glyph glyph-name="uni2032" unicode="&#x2032;" horiz-adv-x="314" 
d="M184 402h-147l92 308h149z" />
    <glyph glyph-name="uni2033" unicode="&#x2033;" horiz-adv-x="539" 
d="M180 402h-143l92 308h145zM408 402h-144l94 308h144z" />
    <glyph glyph-name="guilsinglleft" unicode="&#x2039;" horiz-adv-x="365" 
d="M308 492l-107 -188l107 -191h-150l-103 190l104 189h149z" />
    <glyph glyph-name="guilsinglright" unicode="&#x203a;" horiz-adv-x="365" 
d="M310 303l-104 -190h-149l106 189l-106 190h150z" />
    <glyph glyph-name="fraction" unicode="&#x2044;" horiz-adv-x="596" 
d="M134 0h-134l463 710h133z" />
    <glyph glyph-name="zero.sup" unicode="&#x2070;" horiz-adv-x="548" 
d="M274 746q99 0 154.5 -51.5t55.5 -142.5v-138q0 -90 -55.5 -142t-154.5 -52t-154.5 51.5t-55.5 142.5v138q0 90 55.5 142t154.5 52zM274 343q35 0 53.5 21t18.5 57v124q0 36 -18.5 57t-53.5 21q-34 0 -52.5 -21t-18.5 -57v-124q0 -36 18.5 -57t52.5 -21z" />
    <glyph glyph-name="four.sup" unicode="&#x2074;" horiz-adv-x="561" 
d="M527 358h-97v-128h-136v128h-259v93l229 285h166v-268h97v-110zM170 468h124v158z" />
    <glyph glyph-name="five.sup" unicode="&#x2075;" horiz-adv-x="522" 
d="M71 441v295h378v-106h-248v-91q32 38 102 38q71 0 118.5 -45.5t47.5 -122.5v-1q0 -82 -56.5 -134.5t-155.5 -52.5q-103 0 -157 51.5t-54 117.5h141q3 -19 21 -36t49 -17q32 0 51.5 19.5t19.5 49.5v1q0 32 -19 50.5t-52 18.5q-44 0 -60 -35h-126z" />
    <glyph glyph-name="six.sup" unicode="&#x2076;" horiz-adv-x="523" 
d="M475 409q0 -83 -58 -135.5t-155 -52.5t-155.5 52t-58.5 135q0 57 20 98.5t68 100.5l105 129h152l-151 -185q29 23 75 23q71 0 114.5 -46t43.5 -119zM336 409q0 31 -20 51t-55 20q-32 0 -53 -20t-21 -52q0 -31 20.5 -51t53.5 -20q35 0 55 19.5t20 52.5z" />
    <glyph glyph-name="seven.sup" unicode="&#x2077;" horiz-adv-x="489" 
d="M449 653l-223 -423h-156l210 386h-239v120h408v-83z" />
    <glyph glyph-name="eight.sup" unicode="&#x2078;" horiz-adv-x="529" 
d="M478 367q0 -67 -53.5 -106.5t-149.5 -39.5h-22q-95 0 -148.5 39.5t-53.5 106.5q0 91 85 123q-30 10 -53.5 38.5t-23.5 75.5q0 64 51 102.5t144 38.5h21q93 0 143.5 -38t50.5 -103q0 -47 -23 -75.5t-53 -38.5q85 -32 85 -123zM268 643h-8q-28 0 -45 -13.5t-17 -39.5
t17 -40t45 -14h8q62 0 62 54q0 53 -62 53zM270 438h-11q-28 0 -47 -16t-19 -42t19 -42t47 -16h11q28 0 47 16t19 42q0 27 -18.5 42.5t-47.5 15.5z" />
    <glyph glyph-name="nine.sup" unicode="&#x2079;" horiz-adv-x="523" 
d="M387 359l-104 -129h-153l151 185q-29 -23 -75 -23q-71 0 -114.5 46t-43.5 119q0 82 58 135t155 53t155.5 -52t58.5 -135q0 -56 -20.5 -99.5t-67.5 -99.5zM187 557q0 -31 20.5 -51t53.5 -20t54 20t21 52q0 31 -21 51t-54 20q-34 0 -54 -20t-20 -52z" />
    <glyph glyph-name="zero.sub" unicode="&#x2080;" horiz-adv-x="548" 
d="M274 380q99 0 154.5 -51.5t55.5 -142.5v-138q0 -90 -55.5 -142t-154.5 -52t-154.5 51.5t-55.5 142.5v138q0 90 55.5 142t154.5 52zM274 -23q35 0 53.5 21t18.5 57v124q0 36 -18.5 57t-53.5 21q-34 0 -52.5 -21t-18.5 -57v-124q0 -36 18.5 -57t52.5 -21z" />
    <glyph glyph-name="one.sub" unicode="&#x2081;" horiz-adv-x="385" 
d="M306 372v-508h-140v360l-126 -68v124l161 92h105z" />
    <glyph glyph-name="two.sub" unicode="&#x2082;" horiz-adv-x="506" 
d="M469 -21v-115h-413v89l194 170q28 26 39.5 43t11.5 39q0 24 -15 39t-43 15q-29 0 -44.5 -17t-15.5 -47v-21h-133v23q0 81 51.5 131.5t142.5 50.5q93 0 146 -45t53 -121q0 -53 -27 -91t-85 -87l-64 -56h202z" />
    <glyph glyph-name="three.sub" unicode="&#x2083;" horiz-adv-x="517" 
d="M467 12q0 -72 -56.5 -114.5t-156.5 -42.5q-103 0 -158 50t-58 111h142q3 -17 22 -31.5t52 -14.5q71 0 71 51q0 46 -56 46h-101v110h89q54 0 54 43q0 21 -16.5 34t-46.5 13q-29 0 -44.5 -14t-19.5 -30h-138q3 62 55 109t147 47q97 0 149.5 -38t52.5 -110q0 -38 -20 -63
t-47 -34q84 -30 84 -122z" />
    <glyph glyph-name="four.sub" unicode="&#x2084;" horiz-adv-x="561" 
d="M527 -8h-97v-128h-136v128h-259v93l229 285h166v-268h97v-110zM170 102h124v158z" />
    <glyph glyph-name="five.sub" unicode="&#x2085;" horiz-adv-x="522" 
d="M71 75v295h378v-106h-248v-91q32 38 102 38q71 0 118.5 -45.5t47.5 -122.5v-1q0 -82 -56.5 -134.5t-155.5 -52.5q-103 0 -157 51.5t-54 117.5h141q3 -19 21 -36t49 -17q32 0 51.5 19.5t19.5 49.5v1q0 32 -19 50.5t-52 18.5q-44 0 -60 -35h-126z" />
    <glyph glyph-name="six.sub" unicode="&#x2086;" horiz-adv-x="523" 
d="M475 43q0 -83 -58 -135.5t-155 -52.5t-155.5 52t-58.5 135q0 57 20 98.5t68 100.5l105 129h152l-151 -185q29 23 75 23q71 0 114.5 -46t43.5 -119zM336 43q0 31 -20 51t-55 20q-32 0 -53 -20t-21 -52q0 -31 20.5 -51t53.5 -20q35 0 55 19.5t20 52.5z" />
    <glyph glyph-name="seven.sub" unicode="&#x2087;" horiz-adv-x="489" 
d="M449 287l-223 -423h-156l210 386h-239v120h408v-83z" />
    <glyph glyph-name="eight.sub" unicode="&#x2088;" horiz-adv-x="529" 
d="M478 1q0 -67 -53.5 -106.5t-149.5 -39.5h-22q-95 0 -148.5 39.5t-53.5 106.5q0 91 85 123q-30 10 -53.5 38.5t-23.5 75.5q0 64 51 102.5t144 38.5h21q93 0 143.5 -38t50.5 -103q0 -47 -23 -75.5t-53 -38.5q85 -32 85 -123zM268 277h-8q-28 0 -45 -13.5t-17 -39.5t17 -40
t45 -14h8q62 0 62 54q0 53 -62 53zM270 72h-11q-29 0 -47.5 -15.5t-18.5 -42.5t18.5 -42.5t47.5 -15.5h11q29 0 47.5 15.5t18.5 42.5q0 28 -18.5 43t-47.5 15z" />
    <glyph glyph-name="nine.sub" unicode="&#x2089;" horiz-adv-x="523" 
d="M387 -7l-104 -129h-153l151 185q-29 -23 -75 -23q-71 0 -114.5 46t-43.5 119q0 82 58 135t155 53t155.5 -52t58.5 -135q0 -56 -20.5 -99.5t-67.5 -99.5zM187 191q0 -31 20.5 -51t53.5 -20t54 20t21 52q0 31 -21 51t-54 20q-34 0 -54 -20t-20 -52z" />
    <glyph glyph-name="won" unicode="&#x20a9;" horiz-adv-x="1051" 
d="M636 0l-105 446l-106 -446h-152l-78 287h-154v139h117l-77 284h171l104 -440l99 440h154l100 -443l103 443h158l-72 -284h113v-139h-149l-73 -287h-153z" />
    <glyph glyph-name="Euro" unicode="&#x20ac;" horiz-adv-x="690" 
d="M485 221h155q-2 -109 -70.5 -170.5t-181.5 -61.5q-116 0 -180 61.5t-67 169.5h-102v109h102v59h-102v109h102q4 102 69 163.5t178 61.5t180.5 -62t71.5 -165h-155q-4 35 -28 60.5t-69 25.5q-43 0 -68 -23t-28 -61h137v-109h-137v-59h137v-109h-137q2 -42 27 -66t70 -24
t69.5 26t26.5 65z" />
    <glyph glyph-name="uni20B4" unicode="&#x20b4;" horiz-adv-x="804" 
d="M37 387v109h506q4 8 4 24q0 66 -125 66q-66 0 -106 -17t-54 -40h-172q9 36 29.5 68t57.5 61.5t100 47t145 17.5q133 0 216 -52.5t83 -146.5q0 -12 -2 -28h49v-109h-731zM77 206q0 16 2 32h-42v110h731v-110h-510q-5 -13 -5 -31q0 -83 138 -83q73 0 116 24t55 55h180
q-10 -40 -32 -75.5t-61.5 -68.5t-105.5 -52.5t-152 -19.5q-151 0 -232.5 59.5t-81.5 159.5z" />
    <glyph glyph-name="uni20B8" unicode="&#x20b8;" horiz-adv-x="750" 
d="M35 601v109h681v-109h-681zM290 0v394h-255v148h681v-148h-256v-394h-170z" />
    <glyph glyph-name="uni20BD" unicode="&#x20bd;" horiz-adv-x="855" 
d="M30 113v109h118v60h-118v109h118v319h407q121 0 187.5 -56t66.5 -158q0 -106 -66 -160.5t-188 -54.5h-238v-59h354v-109h-354v-113h-169v113h-118zM539 562h-222v-163h222q47 0 71.5 22t24.5 61q0 80 -96 80z" />
    <glyph glyph-name="uni2116" unicode="&#x2116;" horiz-adv-x="1303" 
d="M1052 321q-102 0 -157.5 55t-55.5 146q0 90 55.5 145t157.5 55t158 -55t56 -145t-56 -145.5t-158 -55.5zM1052 427q73 0 73 95t-73 95q-36 0 -54.5 -26t-18.5 -69q0 -44 18.5 -69.5t54.5 -25.5zM851 135v150h404v-150h-404zM777 710v-712h-138l-387 491v-489h-166v710
h193l336 -435v435h162z" />
    <glyph glyph-name="trademark" unicode="&#x2122;" horiz-adv-x="1034" 
d="M27 597v113h375v-113h-120v-290h-134v290h-121zM646 710l74 -219l75 219h176v-403h-118v284l-91 -286h-94l-91 288v-286h-113v403h182z" />
    <glyph glyph-name="onethird" unicode="&#x2153;" horiz-adv-x="1030" 
d="M986 131q0 -64 -51.5 -101.5t-143.5 -37.5t-142.5 45.5t-53.5 98.5h135q2 -7 7.5 -15t19.5 -15.5t34 -7.5q60 0 60 41q0 35 -45 35h-93v105h84q40 0 40 30q0 39 -52 39q-43 0 -52 -35h-133q3 55 50.5 96.5t134.5 41.5q90 0 138 -33t48 -98q0 -60 -59 -83q74 -23 74 -106z
M283 712v-445h-134v307l-113 -59v115l146 82h101zM304 0h-134l463 710h133z" />
    <glyph glyph-name="twothirds" unicode="&#x2154;" horiz-adv-x="1154" 
d="M424 374v-107h-374v83l175 149q42 36 42 64q0 19 -12 31t-35 12q-49 0 -49 -52v-17h-126v19q0 72 46 117t129 45q85 0 133 -40.5t48 -107.5q0 -47 -24.5 -81.5t-74.5 -72.5l-51 -42h173zM1109 131q0 -64 -51.5 -101.5t-143.5 -37.5t-142.5 45.5t-53.5 98.5h135
q2 -7 7.5 -15t19.5 -15.5t34 -7.5q60 0 60 41q0 35 -45 35h-93v105h84q40 0 40 30q0 39 -52 39q-43 0 -52 -35h-133q3 55 50.5 96.5t134.5 41.5q90 0 138 -33t48 -98q0 -60 -59 -83q74 -23 74 -106zM427 0h-134l463 710h133z" />
    <glyph glyph-name="oneeighth" unicode="&#x215b;" horiz-adv-x="1042" 
d="M998 120q0 -59 -48.5 -93.5t-135.5 -34.5h-21q-87 0 -135.5 34.5t-48.5 93.5q0 80 75 108q-25 7 -46.5 32.5t-21.5 66.5q0 57 46 90.5t132 33.5h19q85 0 131.5 -33.5t46.5 -90.5q0 -41 -21.5 -66.5t-47.5 -32.5q76 -32 76 -108zM806 358h-5q-24 0 -38 -12t-14 -33
q0 -20 14 -31.5t38 -11.5h5q23 0 37 11.5t14 31.5q0 21 -13.5 33t-37.5 12zM808 180h-9q-24 0 -38.5 -13t-14.5 -34q0 -23 14.5 -35t38.5 -12h9q24 0 38.5 12t14.5 35t-14.5 35t-38.5 12zM283 712v-445h-134v307l-113 -59v115l146 82h101zM304 0h-134l463 710h133z" />
    <glyph glyph-name="threeeighths" unicode="&#x215c;" horiz-adv-x="1141" 
d="M424 398q0 -64 -51.5 -101.5t-143.5 -37.5q-93 0 -143 45t-53 99h135q3 -13 18 -25.5t43 -12.5q60 0 60 40q0 35 -45 35h-93v105h84q40 0 40 31q0 38 -52 38q-43 0 -52 -35h-133q3 56 50.5 97.5t134.5 41.5q90 0 138 -33.5t48 -97.5q0 -59 -60 -83q31 -10 53 -36t22 -70z
M1097 120q0 -59 -48.5 -93.5t-135.5 -34.5h-21q-87 0 -135.5 34.5t-48.5 93.5q0 80 75 108q-25 7 -46.5 32.5t-21.5 66.5q0 57 46 90.5t132 33.5h19q85 0 131.5 -33.5t46.5 -90.5q0 -41 -21.5 -66.5t-47.5 -32.5q76 -32 76 -108zM905 358h-5q-24 0 -38 -12t-14 -33
q0 -20 14 -31.5t38 -11.5h5q23 0 37 11.5t14 31.5q0 21 -13.5 33t-37.5 12zM907 180h-9q-24 0 -38.5 -13t-14.5 -34q0 -23 14.5 -35t38.5 -12h9q24 0 38.5 12t14.5 35t-14.5 35t-38.5 12zM402 0h-134l463 710h133z" />
    <glyph glyph-name="fiveeighths" unicode="&#x215d;" horiz-adv-x="1133" 
d="M62 447v263h345v-99h-220v-73q32 32 87 32q67 0 109 -39.5t42 -107.5v-1q0 -72 -51 -117.5t-142 -45.5q-96 0 -144.5 44.5t-48.5 102.5h136q3 -14 17.5 -27.5t39.5 -13.5q26 0 41.5 15.5t15.5 39.5q-2 56 -57 56q-38 0 -49 -29h-121zM1089 120q0 -59 -48.5 -93.5
t-135.5 -34.5h-21q-87 0 -135.5 34.5t-48.5 93.5q0 80 75 108q-25 7 -46.5 32.5t-21.5 66.5q0 57 46 90.5t132 33.5h19q85 0 131.5 -33.5t46.5 -90.5q0 -41 -21.5 -66.5t-47.5 -32.5q76 -32 76 -108zM897 358h-5q-24 0 -38 -12t-14 -33q0 -20 14 -31.5t38 -11.5h5
q23 0 37 11.5t14 31.5q0 21 -13.5 33t-37.5 12zM899 180h-9q-24 0 -38.5 -13t-14.5 -34q0 -23 14.5 -35t38.5 -12h9q24 0 38.5 12t14.5 35t-14.5 35t-38.5 12zM395 0h-134l463 710h133z" />
    <glyph glyph-name="seveneighths" unicode="&#x215e;" horiz-adv-x="1047" 
d="M405 633l-194 -366h-150l183 333h-209v110h370v-77zM1003 120q0 -59 -48.5 -93.5t-135.5 -34.5h-21q-87 0 -135.5 34.5t-48.5 93.5q0 80 75 108q-25 7 -46.5 32.5t-21.5 66.5q0 57 46 90.5t132 33.5h19q85 0 131.5 -33.5t46.5 -90.5q0 -41 -21.5 -66.5t-47.5 -32.5
q76 -32 76 -108zM811 358h-5q-24 0 -38 -12t-14 -33q0 -20 14 -31.5t38 -11.5h5q23 0 37 11.5t14 31.5q0 21 -13.5 33t-37.5 12zM813 180h-9q-24 0 -38.5 -13t-14.5 -34q0 -23 14.5 -35t38.5 -12h9q24 0 38.5 12t14.5 35t-14.5 35t-38.5 12zM308 0h-134l463 710h133z" />
    <glyph glyph-name="minus" unicode="&#x2212;" horiz-adv-x="688" 
d="M612 255h-536v148h536v-148z" />
    <glyph glyph-name="uni24C5" unicode="&#x24c5;" horiz-adv-x="850" 
d="M425 -12q-159 0 -264.5 105t-105.5 262q0 156 105.5 261.5t264.5 105.5t264.5 -105.5t105.5 -261.5t-105.5 -261.5t-264.5 -105.5zM425 80q122 0 196 78t74 197t-74 197t-196 78q-121 0 -195 -78t-74 -197t74 -197t195 -78zM267 169v376h201q72 0 111 -34t39 -97
q0 -65 -39 -99t-111 -34h-87v-112h-114zM460 448h-79v-68h79q42 0 42 34t-42 34z" />
    <glyph glyph-name="zero.den" unicode="&#xe402;" horiz-adv-x="495" 
d="M248 452q90 0 140.5 -46t50.5 -125v-118q0 -79 -50.5 -125.5t-140.5 -46.5t-141.5 46.5t-51.5 125.5v118q0 79 51.5 125t141.5 46zM248 104q28 0 43 16.5t15 45.5v112q0 29 -15 45.5t-43 16.5q-29 0 -44 -17t-15 -45v-112q0 -28 15 -45t44 -17z" />
    <glyph glyph-name="one.den" unicode="&#xe403;" horiz-adv-x="351" 
d="M283 445v-445h-134v307l-113 -59v115l146 82h101z" />
    <glyph glyph-name="two.den" unicode="&#xe404;" horiz-adv-x="457" 
d="M424 108v-108h-374v84l175 148q23 20 32.5 34t9.5 31q0 19 -12.5 31t-34.5 12q-49 0 -49 -53v-17h-126v19q0 72 46 117t129 45q85 0 133 -40t48 -107q0 -47 -24 -80.5t-75 -74.5l-50 -41h172z" />
    <glyph glyph-name="three.den" unicode="&#xe405;" horiz-adv-x="468" 
d="M424 131q0 -64 -51.5 -101.5t-143.5 -37.5t-142.5 45.5t-53.5 98.5h135q2 -7 7.5 -15t19.5 -15.5t34 -7.5q60 0 60 41q0 35 -45 35h-93v105h84q40 0 40 30q0 39 -52 39q-43 0 -52 -35h-133q3 55 50.5 96.5t134.5 41.5q90 0 138 -33t48 -98q0 -60 -59 -83q74 -23 74 -106z
" />
    <glyph glyph-name="four.den" unicode="&#xe406;" horiz-adv-x="508" 
d="M478 106h-85v-106h-130v106h-232v90l201 247h161v-233h85v-104zM156 210h107v135z" />
    <glyph glyph-name="five.den" unicode="&#xe407;" horiz-adv-x="472" 
d="M62 181v262h345v-99h-220v-72q32 32 87 32q67 0 109 -40t42 -108v-1q0 -72 -51 -117.5t-142 -45.5q-96 0 -144.5 44.5t-48.5 102.5h136q3 -14 17.5 -27.5t39.5 -13.5q26 0 41.5 16t15.5 40q0 25 -15.5 40t-41.5 15q-38 0 -49 -28h-121z" />
    <glyph glyph-name="six.den" unicode="&#xe408;" horiz-adv-x="472" 
d="M431 159q0 -73 -53 -120t-141 -47q-87 0 -141 46.5t-54 119.5q0 50 18 87.5t60 88.5l92 109h145l-137 -164q24 24 70 24q63 0 102 -40.5t39 -103.5zM297 159q0 24 -17 40.5t-44 16.5q-26 0 -43 -16.5t-17 -41.5t16.5 -41t43.5 -16q28 0 44.5 16t16.5 42z" />
    <glyph glyph-name="seven.den" unicode="&#xe409;" horiz-adv-x="441" 
d="M405 366l-194 -366h-150l183 334h-209v109h370v-77z" />
    <glyph glyph-name="eight.den" unicode="&#xe40a;" horiz-adv-x="477" 
d="M433 120q0 -59 -48.5 -93.5t-135.5 -34.5h-21q-87 0 -135.5 34.5t-48.5 93.5q0 80 75 108q-25 7 -46.5 32.5t-21.5 66.5q0 57 46 90.5t132 33.5h19q85 0 131.5 -33.5t46.5 -90.5q0 -41 -21.5 -66.5t-47.5 -32.5q76 -32 76 -108zM241 358h-5q-24 0 -38 -12t-14 -33
q0 -20 14 -31.5t38 -11.5h5q23 0 37 11.5t14 31.5q0 21 -13.5 33t-37.5 12zM243 180h-9q-24 0 -38.5 -13t-14.5 -34q0 -23 14.5 -35t38.5 -12h9q24 0 38.5 12t14.5 35t-14.5 35t-38.5 12z" />
    <glyph glyph-name="nine.den" unicode="&#xe40b;" horiz-adv-x="472" 
d="M352 110l-92 -110h-145l137 164q-28 -24 -70 -24q-63 0 -101.5 40.5t-38.5 104.5q0 73 53 119.5t140 46.5q89 0 142 -46.5t53 -119.5q0 -50 -18.5 -88.5t-59.5 -86.5zM175 285q0 -25 17 -41.5t44 -16.5t44 16.5t17 41.5q0 26 -17 42t-44 16q-28 0 -44.5 -16t-16.5 -42z
" />
    <glyph glyph-name="zero.num" unicode="&#xe416;" horiz-adv-x="495" 
d="M248 719q90 0 140.5 -45.5t50.5 -126.5v-118q0 -79 -50.5 -125t-140.5 -46t-141.5 46t-51.5 125v118q0 80 51 126t142 46zM248 370q28 0 43 16.5t15 45.5v112q0 29 -15 45.5t-43 16.5q-29 0 -44 -17t-15 -45v-112q0 -28 15 -45t44 -17z" />
    <glyph glyph-name="one.num" unicode="&#xe417;" horiz-adv-x="351" 
d="M283 712v-445h-134v307l-113 -59v115l146 82h101z" />
    <glyph glyph-name="two.num" unicode="&#xe418;" horiz-adv-x="457" 
d="M424 374v-107h-374v83l175 149q42 36 42 64q0 19 -12 31t-35 12q-49 0 -49 -52v-17h-126v19q0 72 46 117t129 45q85 0 133 -40.5t48 -107.5q0 -47 -24.5 -81.5t-74.5 -72.5l-51 -42h173z" />
    <glyph glyph-name="three.num" unicode="&#xe419;" horiz-adv-x="468" 
d="M424 398q0 -64 -51.5 -101.5t-143.5 -37.5q-93 0 -143 45t-53 99h135q3 -13 18 -25.5t43 -12.5q60 0 60 40q0 35 -45 35h-93v105h84q40 0 40 31q0 38 -52 38q-43 0 -52 -35h-133q3 56 50.5 97.5t134.5 41.5q90 0 138 -33.5t48 -97.5q0 -59 -60 -83q31 -10 53 -36t22 -70z
" />
    <glyph glyph-name="four.num" unicode="&#xe41a;" horiz-adv-x="508" 
d="M478 372h-85v-105h-130v105h-232v91l201 247h161v-234h85v-104zM155 476h108v136z" />
    <glyph glyph-name="five.num" unicode="&#xe41b;" horiz-adv-x="472" 
d="M62 447v263h345v-99h-220v-73q32 32 87 32q67 0 109 -39.5t42 -107.5v-1q0 -72 -51 -117.5t-142 -45.5q-96 0 -144.5 44.5t-48.5 102.5h136q3 -14 17.5 -27.5t39.5 -13.5q26 0 41.5 15.5t15.5 39.5q-2 56 -57 56q-38 0 -49 -29h-121z" />
    <glyph glyph-name="six.num" unicode="&#xe41c;" horiz-adv-x="472" 
d="M431 425q0 -73 -53 -119.5t-141 -46.5q-87 0 -141 46.5t-54 119.5q0 49 18.5 88t59.5 87l92 110h145l-135 -162q24 22 68 22q63 0 102 -40.5t39 -104.5zM297 425q0 25 -17 41.5t-44 16.5q-26 0 -43 -16.5t-17 -41.5q0 -26 16.5 -42t43.5 -16q28 0 44.5 16t16.5 42z" />
    <glyph glyph-name="seven.num" unicode="&#xe41d;" horiz-adv-x="441" 
d="M405 633l-194 -366h-150l183 333h-209v110h370v-77z" />
    <glyph glyph-name="eight.num" unicode="&#xe41e;" horiz-adv-x="477" 
d="M433 387q0 -59 -48.5 -93.5t-135.5 -34.5h-21q-87 0 -135.5 34.5t-48.5 93.5q0 44 23 70t52 37q-68 28 -68 100q0 57 46 90.5t132 33.5h19q85 0 131.5 -33.5t46.5 -90.5q0 -41 -21.5 -67t-46.5 -33q29 -11 52 -37.5t23 -69.5zM241 624h-5q-52 0 -52 -44q0 -20 14.5 -32
t37.5 -12h5q23 0 37 12t14 32q0 44 -51 44zM243 446h-9q-24 0 -38.5 -12.5t-14.5 -33.5q0 -23 14.5 -35.5t38.5 -12.5h9q24 0 38.5 12.5t14.5 35.5q0 46 -53 46z" />
    <glyph glyph-name="nine.num" unicode="&#xe41f;" horiz-adv-x="472" 
d="M352 376l-92 -109h-145l139 166q-26 -26 -72 -26q-63 0 -101.5 40.5t-38.5 103.5q0 73 53 120t140 47q89 0 142 -46.5t53 -119.5q0 -50 -18 -87.5t-60 -88.5zM175 551q0 -24 17 -40.5t44 -16.5t44 16.5t17 41.5t-17 41t-44 16q-28 0 -44.5 -16t-16.5 -42z" />
    <glyph glyph-name="cyrbreve" unicode="&#xf6d4;" 
d="M300 689q25 0 36.5 15t11.5 37v16h125v-18q0 -72 -43.5 -117.5t-129.5 -45.5t-129.5 45.5t-43.5 117.5v18h125v-16q0 -22 11.5 -37t36.5 -15z" />
    <glyph glyph-name="f_i" unicode="&#xfb01;" horiz-adv-x="827" 
d="M493 385h-171v-385h-163v385h-134v133h134v70q0 70 40.5 109t120.5 39h203v-122h-135q-35 0 -50.5 -15.5t-15.5 -48.5v-32h171v-133zM587 585v160h170v-160h-170zM591 0v518h163v-518h-163z" />
    <glyph glyph-name="f_l" unicode="&#xfb02;" horiz-adv-x="829" 
d="M493 385h-171v-385h-163v385h-134v133h134v70q0 70 40.5 109t120.5 39h203v-122h-135q-35 0 -50.5 -15.5t-15.5 -48.5v-32h171v-133zM592 0v736h163v-736h-163z" />
    <glyph glyph-name="idotaccent" horiz-adv-x="309" 
d="M69 585v160h170v-160h-170zM73 0v518h163v-518h-163z" />
    <glyph glyph-name="f_b" horiz-adv-x="1200" 
d="M493 385h-171v-385h-163v385h-134v133h134v70q0 70 40.5 109t120.5 39h203v-122h-135q-35 0 -50.5 -15.5t-15.5 -48.5v-32h171v-133zM749 74v-74h-159v736h161v-294q4 8 15 20t31 28t52.5 27t70.5 11q102 0 169.5 -73.5t67.5 -195.5q0 -123 -67.5 -196.5t-169.5 -73.5
q-70 0 -114 30t-57 55zM749 259q0 -58 33.5 -94.5t89.5 -36.5t89 36.5t33 94.5t-33 94.5t-89 36.5t-89.5 -36.5t-33.5 -94.5z" />
    <glyph glyph-name="f_h" horiz-adv-x="1196" 
d="M493 385h-171v-385h-163v385h-134v133h134v70q0 70 40.5 109t120.5 39h203v-122h-135q-35 0 -50.5 -15.5t-15.5 -48.5v-32h171v-133zM752 272v-272h-162v736h162v-298q17 32 62 61.5t105 29.5q95 0 153 -62.5t58 -161.5v-305h-163v272q0 52 -29 82.5t-78 30.5t-78.5 -31
t-29.5 -82z" />
    <glyph glyph-name="f_j" horiz-adv-x="827" 
d="M493 385h-171v-385h-163v385h-134v133h134v70q0 70 40.5 109t120.5 39h203v-122h-135q-35 0 -50.5 -15.5t-15.5 -48.5v-32h171v-133zM588 585v160h170v-160h-170zM754 518v-549q0 -91 -40 -131.5t-123 -40.5h-179v125h109q39 0 54.5 16t15.5 52v528h163z" />
    <glyph glyph-name="f_k" horiz-adv-x="1169" 
d="M493 385h-171v-385h-163v385h-134v133h134v70q0 70 40.5 109t120.5 39h203v-122h-135q-35 0 -50.5 -15.5t-15.5 -48.5v-32h171v-133zM966 0l-214 231v-231h-162v736h162v-421l207 203h204l-248 -239l261 -279h-210z" />
    <glyph glyph-name="space_uni0326" horiz-adv-x="500" 
d="M302 -320h-105q32 60 45 113h-79v140h175v-104q0 -71 -36 -149z" />
    <glyph glyph-name="space_uni0326.alt" horiz-adv-x="500" 
d="M198 834h105q-32 -60 -45 -113h79v-140h-175v104q0 71 36 149z" />
    <glyph glyph-name="caron.alt" 
d="M199 582l56 193h142l-64 -193h-134z" />
    <glyph glyph-name="hyphen.uc" horiz-adv-x="490" 
d="M76 264v149h338v-149h-338z" />
    <glyph glyph-name="endash.uc" horiz-adv-x="712" 
d="M76 284v109h560v-109h-560z" />
    <glyph glyph-name="emdash.uc" horiz-adv-x="1025" 
d="M76 284v109h873v-109h-873z" />
    <glyph glyph-name="guilsinglleft.uc" horiz-adv-x="365" 
d="M308 513l-107 -188l107 -191h-150l-103 190l104 189h149z" />
    <glyph glyph-name="guilsinglright.uc" horiz-adv-x="365" 
d="M310 324l-104 -190h-149l106 189l-106 190h150z" />
    <glyph glyph-name="guillemotleft.uc" horiz-adv-x="604" 
d="M305 513l-104 -188l104 -191h-150l-100 190l101 189h149zM548 513l-106 -188l106 -191h-150l-102 190l103 189h149z" />
    <glyph glyph-name="guillemotright.uc" horiz-adv-x="604" 
d="M549 324l-101 -190h-149l104 189l-103 190h150zM308 324l-102 -190h-149l105 189l-105 190h149z" />
    <glyph glyph-name="at.uc" horiz-adv-x="1052" 
d="M807 60h152q-18 -28 -48 -55.5t-78 -56.5t-120 -46.5t-157 -17.5q-156 0 -271.5 62t-173.5 165t-58 232q0 204 138.5 336t353.5 132q216 0 335.5 -111t119.5 -279q0 -133 -64 -216.5t-170 -83.5t-134 65q-53 -65 -147 -65q-92 0 -150.5 59t-58.5 161t62 169t161 67
q50 0 85 -19.5t50 -49.5l11 61h143l-49 -286q-12 -59 39 -59q44 0 77.5 52t33.5 145q0 134 -90.5 211t-253.5 77q-164 0 -269 -102t-105 -266q0 -157 105.5 -255.5t279.5 -98.5q150 0 251 73zM523 449q-45 0 -72 -30t-27 -78q0 -42 23 -66t64 -24q45 0 72 30t27 78
q0 41 -23 65.5t-64 24.5z" />
    <glyph glyph-name="grave.uc" 
d="M443 769h-166l-120 162h174z" />
    <glyph glyph-name="dieresis.uc" 
d="M102 769v158h159v-158h-159zM339 769v158h159v-158h-159z" />
    <glyph glyph-name="macron.uc" horiz-adv-x="500" 
d="M435 789h-370v122h370v-122z" />
    <glyph glyph-name="acute.uc" 
d="M157 769l112 162h174l-120 -162h-166z" />
    <glyph glyph-name="circumflex.uc" 
d="M326 768l-66 77l-66 -77h-151l140 166h154l137 -166h-148z" />
    <glyph glyph-name="caron.uc" 
d="M474 934l-140 -166h-154l-137 166h148l66 -77l66 77h151z" />
    <glyph glyph-name="breve.uc" 
d="M300 875q25 0 38.5 15.5t13.5 37.5v10h125v-13q0 -72 -45 -117.5t-132 -45.5q-88 0 -132.5 45.5t-44.5 117.5v13h125v-10q0 -22 13 -37.5t39 -15.5z" />
    <glyph glyph-name="dotaccent.uc" 
d="M215 769v159h170v-159h-170z" />
    <glyph glyph-name="ring.uc" 
d="M300 759q-62 0 -101.5 39.5t-39.5 97.5q0 60 39.5 99t101.5 39t102 -39t40 -99q0 -58 -40 -97.5t-102 -39.5zM300 840q25 0 40.5 16t15.5 40q0 26 -15.5 41.5t-40.5 15.5t-40.5 -15.5t-15.5 -41.5q0 -24 15.5 -40t40.5 -16z" />
    <glyph glyph-name="tilde.uc" 
d="M307 799l-38 17q-21 10 -31 10q-15 0 -15 -20v-40h-113v87q0 45 23 71t67 26q33 0 93 -29l37 -17q20 -10 32 -10q15 0 15 20v41h113v-88q0 -45 -23.5 -70.5t-67.5 -25.5q-31 0 -92 28z" />
    <glyph glyph-name="hungarumlaut.uc" 
d="M292 769l81 162h155l-88 -162h-148zM72 769l77 162h156l-84 -162h-149z" />
    <glyph glyph-name="uni0414.bgr" horiz-adv-x="835" 
d="M687 -162v162h-539v-162h-153v311h83l250 562h173l256 -562h83v-311h-153zM253 149h315l-158 361z" />
    <glyph glyph-name="uni041B.bgr" horiz-adv-x="815" 
d="M17 0l297 711h175l308 -711h-194l-206 501l-203 -501h-177z" />
    <glyph glyph-name="uni0431.locl" horiz-adv-x="648" 
d="M41 244q0 139 121 210q-71 38 -71 113q0 146 209 157q143 8 261 19v-138q-104 -12 -255 -20q-70 -4 -70 -40q0 -30 108 -46l6 -1.5t5.5 -1t6.5 -0.5q112 -17 178.5 -78.5t66.5 -175.5q0 -113 -79.5 -184t-203.5 -71q-125 0 -204 71t-79 186zM324 125q58 0 89 32.5
t31 84.5t-31 84.5t-89 32.5t-89 -32.5t-31 -84.5t31 -84.5t89 -32.5z" />
    <glyph glyph-name="uni0432.bgr" horiz-adv-x="650" 
d="M62 244v255q0 108 68 179t197 71q119 0 188 -58t69 -151q0 -112 -93 -157q114 -45 114 -171q0 -101 -73 -163.5t-199 -62.5q-136 0 -203.5 68t-67.5 190zM326 611q-103 0 -103 -112v-61h96q105 0 105 87q0 41 -26.5 63.5t-71.5 22.5zM223 303v-67q0 -56 26 -84.5
t84 -28.5q55 0 83 24.5t28 67.5q0 88 -118 88h-103z" />
    <glyph glyph-name="uni0433.bgr" horiz-adv-x="583" 
d="M333 200l-73 -6q-63 -5 -63 -44q0 -43 84 -43q43 0 66 14.5t30 28.5h175q-4 -22 -18.5 -47t-44 -53t-84 -46t-124.5 -18q-124 0 -187.5 44.5t-63.5 125.5q0 80 50.5 120.5t166.5 48.5q13 1 34.5 2.5t33.5 3.5q61 7 61 42q0 40 -76 40q-11 0 -21 -1.5t-17.5 -3t-14.5 -4.5
t-11 -5.5t-9.5 -6t-7 -5.5t-5.5 -5l-3 -4h-171q5 23 18.5 46t41 49.5t79 42.5t120.5 16q114 0 178 -44t64 -122q0 -77 -55 -118.5t-153 -47.5z" />
    <glyph glyph-name="uni0433.locl" horiz-adv-x="513" 
d="M70 0v518h416v-135h-254v-383h-162z" />
    <glyph glyph-name="uni0434.bgr" horiz-adv-x="681" 
d="M449 25v57q-6 -13 -22.5 -30.5t-57 -36.5t-89.5 -19q-102 0 -169.5 73t-67.5 193q0 121 67.5 193.5t170.5 72.5q48 0 88 -18.5t56 -34.5t22 -29v72h162v-497q0 -110 -70.5 -172.5t-213.5 -62.5q-69 0 -124.5 18.5t-86.5 45.5t-47 51.5t-20 43.5h192q4 -6 12 -12.5
t28.5 -13.5t45.5 -7q60 0 92 29t32 84zM449 262q0 56 -33 92t-88 36t-88 -36t-33 -92t33 -92t88 -36t88 36t33 92z" />
    <glyph glyph-name="uni0434.locl" horiz-adv-x="670" 
d="M416 135v248h-143l-5 -38q-18 -149 -54 -210h202zM150 -149h-145v284h51q47 71 64 217l21 166h437v-383h87v-284h-145v149h-370v-149z" />
    <glyph glyph-name="uni0436.bgr" horiz-adv-x="899" 
d="M369 0v218l-177 -218h-200l218 267l-210 251h198l171 -203v421h156v-421l171 203h196l-207 -247l222 -271h-205l-177 218v-218h-156z" />
    <glyph glyph-name="uni0437.bgr" horiz-adv-x="588" 
d="M557 16q0 -103 -71 -164.5t-196 -61.5q-127 0 -195.5 64.5t-75.5 148.5h161q5 -27 32.5 -51t76.5 -24q52 0 79.5 24t27.5 64q0 87 -105 87h-81v135h73q93 0 93 81q0 34 -24.5 54t-66.5 20q-79 0 -97 -62h-157q4 79 70.5 139.5t183.5 60.5q119 0 185 -53.5t66 -150.5
q0 -55 -27.5 -90.5t-67.5 -52.5q48 -16 82 -58t34 -110z" />
    <glyph glyph-name="uni0438.bgr" horiz-adv-x="671" 
d="M436 0v76q-20 -33 -62.5 -60.5t-100.5 -27.5q-94 0 -150.5 61.5t-56.5 160.5v308h163v-276q0 -51 27.5 -80.5t75.5 -29.5t76 30t28 80v276h163v-518h-163z" />
    <glyph glyph-name="uni0439.bgr" horiz-adv-x="671" 
d="M436 0v76q-20 -33 -62.5 -60.5t-100.5 -27.5q-94 0 -150.5 61.5t-56.5 160.5v308h163v-276q0 -51 27.5 -80.5t75.5 -29.5t76 30t28 80v276h163v-518h-163zM334 690q25 0 36.5 15t11.5 37v16h125v-18q0 -72 -43.5 -117.5t-129.5 -45.5t-129.5 45.5t-43.5 117.5v18h125v-16
q0 -22 11.5 -37t36.5 -15z" />
    <glyph glyph-name="uni043A.bgr" horiz-adv-x="651" 
d="M448 0l-214 231v-231h-162v736h162v-421l207 203h204l-248 -239l261 -279h-210z" />
    <glyph glyph-name="uni043B.bgr" horiz-adv-x="618" 
d="M5 0l217 524h165l227 -524h-183l-130 326l-130 -326h-166z" />
    <glyph glyph-name="uni043D.bgr" horiz-adv-x="677" 
d="M72 0v518h162v-185h209v185h162v-518h-162v198h-209v-198h-162z" />
    <glyph glyph-name="uni043F.bgr" horiz-adv-x="678" 
d="M234 272v-272h-162v518h162v-80q17 32 62 61.5t105 29.5q95 0 153 -62.5t58 -161.5v-305h-163v272q0 52 -29 82.5t-78 30.5t-78.5 -31t-29.5 -82z" />
    <glyph glyph-name="uni043F.locl" horiz-adv-x="667" 
d="M72 0v518h523v-518h-162v383h-199v-383h-162z" />
    <glyph glyph-name="uni0442.bgr" horiz-adv-x="1047" 
d="M234 273v-273h-162v518h162v-78q19 32 62 60.5t103 28.5q131 0 183 -108q61 108 188 108q96 0 153 -62t57 -161v-306h-163v273q0 52 -28 82t-76 30t-77 -30.5t-29 -81.5v-273h-163v273q0 52 -28 82t-76 30t-77 -30.5t-29 -81.5z" />
    <glyph glyph-name="uni0442.locl" horiz-adv-x="602" 
d="M220 0v383h-193v135h548v-135h-193v-383h-162z" />
    <glyph glyph-name="uni0446.bgr" horiz-adv-x="690" 
d="M229 518v-276q0 -51 27.5 -80.5t75.5 -29.5t76 30t28 80v276h163v-383h86v-284h-145v149h-104v76q-20 -33 -62.5 -60.5t-100.5 -27.5q-94 0 -150.5 61.5t-56.5 160.5v308h163z" />
    <glyph glyph-name="uni0447.bgr" horiz-adv-x="651" 
d="M417 0v170q-21 -4 -35 -5q-31 -4 -85 -4q-120 0 -178.5 50.5t-58.5 166.5v140h162v-135q0 -48 19.5 -68t71.5 -20q49 0 76 3q6 1 16 2.5t12 1.5v216h162v-518h-162z" />
    <glyph glyph-name="uni0448.bgr" horiz-adv-x="1047" 
d="M813 245v273h162v-518h-162v78q-19 -32 -62 -60.5t-103 -28.5q-131 0 -183 108q-61 -108 -188 -108q-96 0 -153 62t-57 161v306h163v-273q0 -52 28 -82t76 -30t77 30.5t29 81.5v273h163v-273q0 -52 28 -82t76 -30t77 30.5t29 81.5z" />
    <glyph glyph-name="uni0449.bgr" horiz-adv-x="1066" 
d="M975 518v-383h86v-284h-145v149h-104v76q-22 -33 -63.5 -60t-100.5 -27q-131 0 -183 108q-22 -42 -69 -75t-119 -33q-96 0 -153 62t-57 161v306h163v-273q0 -52 28 -82t76 -30t77 30.5t29 81.5v273h163v-273q0 -52 28 -82t76 -30t77 30.5t29 81.5v273h162z" />
    <glyph glyph-name="uni044C.bgr" horiz-adv-x="624" 
d="M594 187q0 -83 -64.5 -141.5t-200.5 -58.5t-199.5 61.5t-63.5 154.5v315h162v-142h104q136 0 199 -50.5t63 -138.5zM228 252v-50q0 -91 100 -91q50 0 76.5 21t26.5 55q0 65 -104 65h-99z" />
    <glyph glyph-name="uni044E.bgr" horiz-adv-x="894" 
d="M71 0v736h162v-403h70q24 91 97 144.5t174 53.5q121 0 200 -76.5t79 -195.5t-79 -195.5t-200 -76.5q-105 0 -179.5 57.5t-94.5 153.5h-67v-198h-162zM574 128q52 0 84 37t32 94t-32 94t-84 37q-51 0 -84 -37t-33 -94t33 -94t84 -37z" />
    <glyph glyph-name="questiondown.uc" horiz-adv-x="551" 
d="M246 465v7h161v-36q0 -49 -16 -75t-68 -55l-68 -40q-56 -34 -56 -78q0 -32 19.5 -49.5t54.5 -17.5t55 21t20 57v26h158v-37q0 -91 -61.5 -145.5t-171.5 -54.5q-114 0 -175.5 52.5t-61.5 147.5q0 71 32 115.5t103 83.5l49 30q26 15 26 48zM420 710v-176h-187v176h187z" />
    <glyph glyph-name="exclamdown.uc" horiz-adv-x="347" 
d="M80 535v175h187v-175h-187zM93 0v472h161v-472h-161z" />
    <glyph glyph-name="A.sc" horiz-adv-x="720" 
d="M526 0l-36 88h-272l-36 -88h-160l248 587h180l248 -587h-172zM272 218h164l-82 199z" />
    <glyph glyph-name="B.sc" horiz-adv-x="717" 
d="M89 0v586h360q95 0 146 -41.5t51 -114.5q0 -44 -24 -75t-59 -44q42 -13 70.5 -50t28.5 -93q0 -78 -53.5 -123t-154.5 -45h-365zM412 463h-161v-102h161q66 0 66 51t-66 51zM419 240h-168v-117h168q73 0 73 59q0 58 -73 58z" />
    <glyph glyph-name="C.sc" horiz-adv-x="691" 
d="M361 -11q-135 0 -220.5 85.5t-85.5 218.5q0 134 85.5 219t220.5 85q70 0 125.5 -22t86.5 -57t47.5 -66.5t22.5 -60.5h-168q-9 20 -39 40t-75 20q-62 0 -100 -45t-38 -113t38 -113t100 -45q76 0 115 60h167q-3 -19 -12.5 -42.5t-31.5 -53.5t-52 -53.5t-79 -40t-107 -16.5z
" />
    <glyph glyph-name="D.sc" horiz-adv-x="719" 
d="M89 0v586h247q147 0 237.5 -74.5t90.5 -218.5q0 -141 -91 -217t-237 -76h-247zM334 447h-80v-307h80q72 0 117 40.5t45 112.5q0 75 -44.5 114.5t-117.5 39.5z" />
    <glyph glyph-name="E.sc" horiz-adv-x="666" 
d="M89 0v586h503v-129h-337v-87h201v-134h-201v-101h370v-135h-536z" />
    <glyph glyph-name="F.sc" horiz-adv-x="661" 
d="M89 0v586h535v-130h-370v-98h210v-134h-210v-224h-165z" />
    <glyph glyph-name="G.sc" horiz-adv-x="727" 
d="M653 352v-284q-32 -27 -102 -53t-162 -26q-153 0 -243.5 83.5t-90.5 223.5q0 134 86 218t223 84q66 0 119 -18t84.5 -47t49 -57.5t23.5 -55.5h-170q-40 40 -106 40q-65 0 -105 -45.5t-40 -118.5q0 -76 46 -123t128 -47q67 0 103 19v80h-165v127h322z" />
    <glyph glyph-name="H.sc" horiz-adv-x="765" 
d="M510 0v221h-256v-221h-165v586h165v-221h256v221h165v-586h-165z" />
    <glyph glyph-name="I.sc" horiz-adv-x="347" 
d="M91 0v586h165v-586h-165z" />
    <glyph glyph-name="J.sc" horiz-adv-x="623" 
d="M537 586v-383q0 -98 -62 -156t-176 -58q-113 0 -170.5 58.5t-57.5 155.5v155h156v-141q0 -36 18 -58t54 -22q35 0 53.5 22t18.5 58v369h166z" />
    <glyph glyph-name="K.sc" horiz-adv-x="720" 
d="M499 0l-245 258v-258h-165v586h165v-247l243 247h208l-277 -281l290 -305h-219z" />
    <glyph glyph-name="L.sc" horiz-adv-x="626" 
d="M587 144v-144h-498v586h165v-442h333z" />
    <glyph glyph-name="M.sc" horiz-adv-x="898" 
d="M329 586l124 -333l125 333h231v-586h-159v427l-151 -428h-109l-151 428v-427h-150v586h240z" />
    <glyph glyph-name="N.sc" horiz-adv-x="767" 
d="M539 0l-289 368v-368h-161v586h185l245 -319v319h158v-586h-138z" />
    <glyph glyph-name="O.sc" horiz-adv-x="741" 
d="M370 -11q-136 0 -225.5 85t-89.5 219q0 137 90 220.5t225 83.5q136 0 226 -83.5t90 -220.5q0 -134 -90.5 -219t-225.5 -85zM370 135q66 0 107 45.5t41 112.5q0 69 -40.5 114t-107.5 45q-66 0 -107 -45t-41 -114q0 -68 41 -113t107 -45z" />
    <glyph glyph-name="P.sc" horiz-adv-x="712" 
d="M89 0v586h358q104 0 160.5 -50t56.5 -147t-57 -148t-160 -51h-193v-190h-165zM421 450h-167v-124h167q74 0 74 62t-74 62z" />
    <glyph glyph-name="Q.sc" horiz-adv-x="741" 
d="M686 293q0 -88 -40 -155.5t-111 -106.5l139 -156h-199l-104 116h-1q-136 0 -225.5 84t-89.5 218q0 137 90 220.5t225 83.5q136 0 226 -83.5t90 -220.5zM370 135q66 0 107 45.5t41 112.5q0 69 -40.5 114t-107.5 45q-66 0 -107 -45t-41 -114q0 -68 41 -113t107 -45z" />
    <glyph glyph-name="R.sc" horiz-adv-x="718" 
d="M89 0v586h357q100 0 157.5 -49.5t57.5 -142.5q0 -124 -107 -168l128 -226h-174l-116 207h-138v-207h-165zM419 454h-165v-119h165q73 0 73 59q0 60 -73 60z" />
    <glyph glyph-name="S.sc" horiz-adv-x="662" 
d="M310 471q-87 0 -87 -45q0 -39 67 -45l83 -7q116 -9 175 -54t59 -137q0 -94 -68.5 -144t-199.5 -50q-74 0 -131.5 17t-91.5 45.5t-52.5 59t-25.5 64.5h175q10 -24 41.5 -41.5t84.5 -17.5q47 0 71.5 14.5t24.5 39.5q0 45 -71 51l-84 8q-108 9 -167 57t-59 131
q0 87 70.5 134t185.5 47q71 0 125 -15.5t85.5 -41.5t48.5 -54t24 -59h-166q-29 43 -117 43z" />
    <glyph glyph-name="T.sc" horiz-adv-x="670" 
d="M39 444v142h592v-142h-214v-444h-164v444h-214z" />
    <glyph glyph-name="U.sc" horiz-adv-x="749" 
d="M376 138q59 0 91.5 36.5t32.5 98.5v313h164v-323q0 -121 -75.5 -197.5t-212.5 -76.5q-141 0 -216 76t-75 198v323h166v-313q0 -62 32 -98.5t93 -36.5z" />
    <glyph glyph-name="V.sc" horiz-adv-x="711" 
d="M688 586l-241 -587h-172l-251 587h189l152 -384l151 384h172z" />
    <glyph glyph-name="W.sc" horiz-adv-x="984" 
d="M615 -1l-121 359l-121 -359h-151l-194 587h181l104 -347l111 348h154l111 -347l104 346h163l-188 -587h-153z" />
    <glyph glyph-name="X.sc" horiz-adv-x="733" 
d="M512 0l-150 180l-154 -180h-193l251 295l-242 291h215l134 -164l140 164h195l-240 -281l250 -305h-206z" />
    <glyph glyph-name="Y.sc" horiz-adv-x="691" 
d="M440 245v-245h-175v246l-258 340h210l141 -190l140 190h186z" />
    <glyph glyph-name="Z.sc" horiz-adv-x="699" 
d="M657 142v-142h-604v94l309 352h-300v140h559v-91l-312 -353h348z" />
    <glyph glyph-name="Oslash.sc" horiz-adv-x="740" 
d="M685 293q0 -134 -90.5 -219t-225.5 -85q-87 0 -161 41l-27 -30h-155l94 104q-66 79 -66 189q0 137 90 220.5t225 83.5q87 0 161 -40l27 29h157l-94 -103q65 -80 65 -190zM215 292q0 -45 10 -72l207 228q-27 9 -63 9q-69 0 -111.5 -46.5t-42.5 -118.5zM524 292
q0 45 -10 74l-208 -229q27 -9 63 -9q71 0 113 46.5t42 117.5z" />
    <glyph glyph-name="AE.sc" horiz-adv-x="1001" 
d="M961 138v-138h-519v108h-204l-63 -108h-176l345 586h584v-129h-323v-86h186v-133h-186v-100h356zM313 238h129v223z" />
    <glyph glyph-name="OE.sc" horiz-adv-x="1017" 
d="M56 293q0 141 90.5 217t236.5 76h560v-129h-325v-86h189v-133h-189v-100h358v-138h-593q-146 0 -236.5 76t-90.5 217zM386 139h70v308h-70q-73 0 -117.5 -40.5t-44.5 -113.5t44.5 -113.5t117.5 -40.5z" />
    <glyph glyph-name="Eth.sc" horiz-adv-x="744" 
d="M29 360h86v226h246q148 0 238 -74.5t90 -218.5q0 -142 -90.5 -217.5t-237.5 -75.5h-246v231h-86v129zM408 231h-128v-94h79q73 0 117.5 41t44.5 115q0 77 -44 117t-118 40h-79v-90h128v-129z" />
    <glyph glyph-name="Dcroat.sc" horiz-adv-x="744" 
d="M29 360h86v226h246q148 0 238 -74.5t90 -218.5q0 -142 -90.5 -217.5t-237.5 -75.5h-246v231h-86v129zM408 231h-128v-94h79q73 0 117.5 41t44.5 115q0 77 -44 117t-118 40h-79v-90h128v-129z" />
    <glyph glyph-name="Eng.sc" horiz-adv-x="767" 
d="M677 586v-605q0 -76 -32.5 -109t-101.5 -33h-163v117h89q52 0 52 41q0 20 -29 58l-241 310v-365h-162v586h185l245 -322v322h158z" />
    <glyph glyph-name="IJ.sc" horiz-adv-x="970" 
d="M91 0v586h165v-586h-165zM884 586v-383q0 -98 -62 -156t-176 -58q-113 0 -170.5 58.5t-57.5 155.5v155h156v-141q0 -36 18 -58t54 -22q35 0 53.5 22t18.5 58v369h166z" />
    <glyph glyph-name="Aacute.sc" horiz-adv-x="720" 
d="M526 0l-36 88h-272l-36 -88h-160l248 587h180l248 -587h-172zM272 218h164l-82 199zM278 645l112 162h174l-120 -162h-166z" />
    <glyph glyph-name="Abreve.sc" horiz-adv-x="720" 
d="M526 0l-36 88h-272l-36 -88h-160l248 587h180l248 -587h-172zM272 218h164l-82 199zM360 751q25 0 38.5 15.5t13.5 37.5v10h125v-13q0 -72 -45 -117.5t-132 -45.5q-88 0 -132.5 45.5t-44.5 117.5v13h125v-10q0 -22 13 -37.5t39 -15.5z" />
    <glyph glyph-name="Acircumflex.sc" horiz-adv-x="720" 
d="M526 0l-36 88h-272l-36 -88h-160l248 587h180l248 -587h-172zM272 218h164l-82 199zM426 644l-66 77l-66 -77h-151l140 166h154l137 -166h-148z" />
    <glyph glyph-name="Adieresis.sc" horiz-adv-x="720" 
d="M526 0l-36 88h-272l-36 -88h-160l248 587h180l248 -587h-172zM272 218h164l-82 199zM162 645v158h159v-158h-159zM399 645v158h159v-158h-159z" />
    <glyph glyph-name="Agrave.sc" horiz-adv-x="720" 
d="M526 0l-36 88h-272l-36 -88h-160l248 587h180l248 -587h-172zM272 218h164l-82 199zM443 645h-166l-120 162h174z" />
    <glyph glyph-name="Amacron.sc" horiz-adv-x="720" 
d="M526 0l-36 88h-272l-36 -88h-160l248 587h180l248 -587h-172zM272 218h164l-82 199zM545 665h-370v122h370v-122z" />
    <glyph glyph-name="Aogonek.sc" horiz-adv-x="720" 
d="M526 0l-36 88h-272l-36 -88h-160l248 587h180l248 -587q-63 -45 -71 -57q-6 -8 -6 -16q0 -21 27 -21h78v-109h-161q-57 0 -89.5 24t-32.5 68q0 33 20.5 58t60.5 53h2zM272 218h164l-82 199z" />
    <glyph glyph-name="Aring.sc" horiz-adv-x="720" 
d="M526 0l-36 88h-272l-36 -88h-160l248 587h180l248 -587h-172zM272 218h164l-82 199zM360 635q-62 0 -101.5 39.5t-39.5 97.5q0 60 39.5 99t101.5 39t102 -39t40 -99q0 -58 -40 -97.5t-102 -39.5zM360 716q25 0 40.5 16t15.5 40q0 26 -15.5 41.5t-40.5 15.5t-40.5 -15.5
t-15.5 -41.5q0 -24 15.5 -40t40.5 -16z" />
    <glyph glyph-name="Atilde.sc" horiz-adv-x="721" 
d="M526 0l-36 88h-272l-36 -88h-160l248 587h180l248 -587h-172zM272 218h164l-82 199zM367 675l-38 17q-21 10 -31 10q-15 0 -15 -20v-40h-113v87q0 45 23 71t67 26q33 0 93 -29l37 -17q20 -10 32 -10q15 0 15 20v41h113v-88q0 -45 -23.5 -70.5t-67.5 -25.5q-31 0 -92 28z
" />
    <glyph glyph-name="AEacute.sc" horiz-adv-x="1001" 
d="M961 138v-138h-519v108h-204l-63 -108h-176l345 586h584v-129h-323v-86h186v-133h-186v-100h356zM313 238h129v223zM547 645l112 162h174l-120 -162h-166z" />
    <glyph glyph-name="Cacute.sc" horiz-adv-x="691" 
d="M361 -11q-135 0 -220.5 85.5t-85.5 218.5q0 134 85.5 219t220.5 85q70 0 125.5 -22t86.5 -57t47.5 -66.5t22.5 -60.5h-168q-9 20 -39 40t-75 20q-62 0 -100 -45t-38 -113t38 -113t100 -45q76 0 115 60h167q-3 -19 -12.5 -42.5t-31.5 -53.5t-52 -53.5t-79 -40t-107 -16.5z
M279 645l112 162h174l-120 -162h-166z" />
    <glyph glyph-name="Ccaron.sc" horiz-adv-x="691" 
d="M361 -11q-135 0 -220.5 85.5t-85.5 218.5q0 134 85.5 219t220.5 85q70 0 125.5 -22t86.5 -57t47.5 -66.5t22.5 -60.5h-168q-9 20 -39 40t-75 20q-62 0 -100 -45t-38 -113t38 -113t100 -45q76 0 115 60h167q-3 -19 -12.5 -42.5t-31.5 -53.5t-52 -53.5t-79 -40t-107 -16.5z
M578 810l-140 -166h-154l-137 166h148l66 -77l66 77h151z" />
    <glyph glyph-name="Ccedilla.sc" horiz-adv-x="691" 
d="M361 -11q-135 0 -220.5 85.5t-85.5 218.5q0 134 85.5 219t220.5 85q70 0 125.5 -22t86.5 -57t47.5 -66.5t22.5 -60.5h-168q-9 20 -39 40t-75 20q-62 0 -100 -45t-38 -113t38 -113t100 -45q76 0 115 60h167q-3 -19 -12.5 -42.5t-31.5 -53.5t-52 -53.5t-79 -40t-107 -16.5z
M401 -157q0 26 -31 26h-96v131h118v-43h5q63 -1 95.5 -31.5t32.5 -86.5q0 -59 -33 -92.5t-98 -33.5h-155v103h131q31 0 31 27z" />
    <glyph glyph-name="Ccircumflex.sc" horiz-adv-x="691" 
d="M361 -11q-135 0 -220.5 85.5t-85.5 218.5q0 134 85.5 219t220.5 85q70 0 125.5 -22t86.5 -57t47.5 -66.5t22.5 -60.5h-168q-9 20 -39 40t-75 20q-62 0 -100 -45t-38 -113t38 -113t100 -45q76 0 115 60h167q-3 -19 -12.5 -42.5t-31.5 -53.5t-52 -53.5t-79 -40t-107 -16.5z
M427 644l-66 77l-66 -77h-151l140 166h154l137 -166h-148z" />
    <glyph glyph-name="Cdotaccent.sc" horiz-adv-x="691" 
d="M361 -11q-135 0 -220.5 85.5t-85.5 218.5q0 134 85.5 219t220.5 85q70 0 125.5 -22t86.5 -57t47.5 -66.5t22.5 -60.5h-168q-9 20 -39 40t-75 20q-62 0 -100 -45t-38 -113t38 -113t100 -45q76 0 115 60h167q-3 -19 -12.5 -42.5t-31.5 -53.5t-52 -53.5t-79 -40t-107 -16.5z
M276 645v159h170v-159h-170z" />
    <glyph glyph-name="Dcaron.sc" horiz-adv-x="719" 
d="M89 0v586h247q147 0 237.5 -74.5t90.5 -218.5q0 -141 -91 -217t-237 -76h-247zM334 447h-80v-307h80q72 0 117 40.5t45 112.5q0 75 -44.5 114.5t-117.5 39.5zM540 810l-140 -166h-154l-137 166h148l66 -77l66 77h151z" />
    <glyph glyph-name="Eacute.sc" horiz-adv-x="666" 
d="M89 0v586h503v-129h-337v-87h201v-134h-201v-101h370v-135h-536zM260 645l112 162h174l-120 -162h-166z" />
    <glyph glyph-name="Ebreve.sc" horiz-adv-x="666" 
d="M89 0v586h503v-129h-337v-87h201v-134h-201v-101h370v-135h-536zM342 751q25 0 38.5 15.5t13.5 37.5v10h125v-13q0 -72 -45 -117.5t-132 -45.5q-88 0 -132.5 45.5t-44.5 117.5v13h125v-10q0 -22 13 -37.5t39 -15.5z" />
    <glyph glyph-name="Ecaron.sc" horiz-adv-x="666" 
d="M89 0v586h503v-129h-337v-87h201v-134h-201v-101h370v-135h-536zM559 810l-140 -166h-154l-137 166h148l66 -77l66 77h151z" />
    <glyph glyph-name="Ecircumflex.sc" horiz-adv-x="666" 
d="M89 0v586h503v-129h-337v-87h201v-134h-201v-101h370v-135h-536zM408 644l-66 77l-66 -77h-151l140 166h154l137 -166h-148z" />
    <glyph glyph-name="Edieresis.sc" horiz-adv-x="666" 
d="M89 0v586h503v-129h-337v-87h201v-134h-201v-101h370v-135h-536zM144 645v158h159v-158h-159zM381 645v158h159v-158h-159z" />
    <glyph glyph-name="Edotaccent.sc" horiz-adv-x="666" 
d="M89 0v586h503v-129h-337v-87h201v-134h-201v-101h370v-135h-536zM257 645v159h170v-159h-170z" />
    <glyph glyph-name="Egrave.sc" horiz-adv-x="666" 
d="M89 0v586h503v-129h-337v-87h201v-134h-201v-101h370v-135h-536zM435 645h-166l-120 162h174z" />
    <glyph glyph-name="Emacron.sc" horiz-adv-x="666" 
d="M89 0v586h503v-129h-337v-87h201v-134h-201v-101h370v-135h-536zM527 665h-370v122h370v-122z" />
    <glyph glyph-name="Eogonek.sc" horiz-adv-x="666" 
d="M89 0v586h503v-129h-337v-87h201v-134h-201v-101h370v-135h-536zM572 -94v-109h-162q-57 0 -89.5 23t-32.5 67q0 33 23.5 58t69.5 55h163q-62 -45 -71 -56q-7 -9 -7 -17q0 -21 27 -21h79z" />
    <glyph glyph-name="Gbreve.sc" horiz-adv-x="727" 
d="M653 352v-284q-32 -27 -102 -53t-162 -26q-153 0 -243.5 83.5t-90.5 223.5q0 134 86 218t223 84q66 0 119 -18t84.5 -47t49 -57.5t23.5 -55.5h-170q-40 40 -106 40q-65 0 -105 -45.5t-40 -118.5q0 -76 46 -123t128 -47q67 0 103 19v80h-165v127h322zM364 751
q25 0 38.5 15.5t13.5 37.5v10h125v-13q0 -72 -45 -117.5t-132 -45.5q-88 0 -132.5 45.5t-44.5 117.5v13h125v-10q0 -22 13 -37.5t39 -15.5z" />
    <glyph glyph-name="Gcircumflex.sc" horiz-adv-x="727" 
d="M653 352v-284q-32 -27 -102 -53t-162 -26q-153 0 -243.5 83.5t-90.5 223.5q0 134 86 218t223 84q66 0 119 -18t84.5 -47t49 -57.5t23.5 -55.5h-170q-40 40 -106 40q-65 0 -105 -45.5t-40 -118.5q0 -76 46 -123t128 -47q67 0 103 19v80h-165v127h322zM430 644l-66 77
l-66 -77h-151l140 166h154l137 -166h-148z" />
    <glyph glyph-name="Gcommaaccent.sc" horiz-adv-x="727" 
d="M653 352v-284q-32 -27 -102 -53t-162 -26q-153 0 -243.5 83.5t-90.5 223.5q0 134 86 218t223 84q66 0 119 -18t84.5 -47t49 -57.5t23.5 -55.5h-170q-40 40 -106 40q-65 0 -105 -45.5t-40 -118.5q0 -76 46 -123t128 -47q67 0 103 19v80h-165v127h322zM443 -320h-105
q32 60 45 113h-79v140h175v-104q0 -71 -36 -149z" />
    <glyph glyph-name="Gdotaccent.sc" horiz-adv-x="727" 
d="M653 352v-284q-32 -27 -102 -53t-162 -26q-153 0 -243.5 83.5t-90.5 223.5q0 134 86 218t223 84q66 0 119 -18t84.5 -47t49 -57.5t23.5 -55.5h-170q-40 40 -106 40q-65 0 -105 -45.5t-40 -118.5q0 -76 46 -123t128 -47q67 0 103 19v80h-165v127h322zM279 645v159h170
v-159h-170z" />
    <glyph glyph-name="Hbar.sc" horiz-adv-x="765" 
d="M510 0v221h-256v-221h-165v427h-62v99h62v60h165v-60h256v60h165v-60h63v-99h-63v-427h-165zM254 365h256v62h-256v-62z" />
    <glyph glyph-name="Hcircumflex.sc" horiz-adv-x="765" 
d="M510 0v221h-256v-221h-165v586h165v-221h256v221h165v-586h-165zM448 644l-66 77l-66 -77h-151l140 166h154l137 -166h-148z" />
    <glyph glyph-name="Iacute.sc" horiz-adv-x="347" 
d="M91 0v586h165v-586h-165zM91 645l112 162h174l-120 -162h-166z" />
    <glyph glyph-name="Ibreve.sc" horiz-adv-x="347" 
d="M91 0v586h165v-586h-165zM173 751q25 0 38.5 15.5t13.5 37.5v10h125v-13q0 -72 -45 -117.5t-132 -45.5q-88 0 -132.5 45.5t-44.5 117.5v13h125v-10q0 -22 13 -37.5t39 -15.5z" />
    <glyph glyph-name="Icircumflex.sc" horiz-adv-x="347" 
d="M91 0v586h165v-586h-165zM239 644l-66 77l-66 -77h-151l140 166h154l137 -166h-148z" />
    <glyph glyph-name="Idieresis.sc" horiz-adv-x="347" 
d="M91 0v586h165v-586h-165zM-25 645v158h159v-158h-159zM212 645v158h159v-158h-159z" />
    <glyph glyph-name="Idotaccent.sc" horiz-adv-x="347" 
d="M91 0v586h165v-586h-165zM88 645v159h170v-159h-170z" />
    <glyph glyph-name="Igrave.sc" horiz-adv-x="347" 
d="M91 0v586h165v-586h-165zM256 645h-166l-120 162h174z" />
    <glyph glyph-name="Imacron.sc" horiz-adv-x="347" 
d="M91 0v586h165v-586h-165zM358 665h-370v122h370v-122z" />
    <glyph glyph-name="Iogonek.sc" horiz-adv-x="347" 
d="M91 0v586h165v-586q-63 -45 -71 -57q-6 -8 -6 -16q0 -21 27 -21h78v-109h-161q-57 0 -89.5 23t-32.5 67q0 34 23 59t67 54z" />
    <glyph glyph-name="Itilde.sc" horiz-adv-x="347" 
d="M91 0v586h165v-586h-165zM180 675l-38 17q-21 10 -31 10q-15 0 -15 -20v-40h-113v87q0 45 23 71t67 26q33 0 93 -29l37 -17q20 -10 32 -10q15 0 15 20v41h113v-88q0 -45 -23.5 -70.5t-67.5 -25.5q-31 0 -92 28z" />
    <glyph glyph-name="Jcircumflex.sc" horiz-adv-x="623" 
d="M537 586v-383q0 -98 -62 -156t-176 -58q-113 0 -170.5 58.5t-57.5 155.5v155h156v-141q0 -36 18 -58t54 -22q35 0 53.5 22t18.5 58v369h166zM515 644l-66 77l-66 -77h-151l140 166h154l137 -166h-148z" />
    <glyph glyph-name="Kcommaaccent.sc" horiz-adv-x="717" 
d="M499 0l-245 258v-258h-165v586h165v-247l243 247h208l-277 -281l290 -305h-219zM423 -320h-105q32 60 45 113h-79v140h175v-104q0 -71 -36 -149z" />
    <glyph glyph-name="Lacute.sc" horiz-adv-x="626" 
d="M587 144v-144h-498v586h165v-442h333zM90 645l112 162h174l-120 -162h-166z" />
    <glyph glyph-name="Lcaron.sc" horiz-adv-x="626" 
d="M587 144v-144h-498v586h165v-442h333zM307 430l56 193h142l-64 -193h-134z" />
    <glyph glyph-name="Lcommaaccent.sc" horiz-adv-x="626" 
d="M587 144v-144h-498v586h165v-442h333zM396 -320h-105q32 60 45 113h-79v140h175v-104q0 -71 -36 -149z" />
    <glyph glyph-name="Ldot.sc" horiz-adv-x="626" 
d="M587 144v-144h-498v586h165v-442h333zM395 263v196h187v-196h-187z" />
    <glyph glyph-name="Lslash.sc" horiz-adv-x="638" 
d="M599 144v-144h-498v166l-79 -33v127l79 34v292h165v-220l192 84v-132l-192 -82v-92h333z" />
    <glyph glyph-name="Nacute.sc" horiz-adv-x="767" 
d="M539 0l-289 368v-368h-161v586h185l245 -319v319h158v-586h-138zM301 645l112 162h174l-120 -162h-166z" />
    <glyph glyph-name="Ncaron.sc" horiz-adv-x="767" 
d="M539 0l-289 368v-368h-161v586h185l245 -319v319h158v-586h-138zM600 810l-140 -166h-154l-137 166h148l66 -77l66 77h151z" />
    <glyph glyph-name="Ncommaaccent.sc" horiz-adv-x="767" 
d="M539 0l-289 368v-368h-161v586h185l245 -319v319h158v-586h-138zM442 -320h-105q32 60 45 113h-79v140h175v-104q0 -71 -36 -149z" />
    <glyph glyph-name="Ntilde.sc" horiz-adv-x="767" 
d="M539 0l-289 368v-368h-161v586h185l245 -319v319h158v-586h-138zM390 675l-38 17q-21 10 -31 10q-15 0 -15 -20v-40h-113v87q0 45 23 71t67 26q33 0 93 -29l37 -17q20 -10 32 -10q15 0 15 20v41h113v-88q0 -45 -23.5 -70.5t-67.5 -25.5q-31 0 -92 28z" />
    <glyph glyph-name="Oacute.sc" horiz-adv-x="741" 
d="M370 -11q-136 0 -225.5 85t-89.5 219q0 137 90 220.5t225 83.5q136 0 226 -83.5t90 -220.5q0 -134 -90.5 -219t-225.5 -85zM370 135q66 0 107 45.5t41 112.5q0 69 -40.5 114t-107.5 45q-66 0 -107 -45t-41 -114q0 -68 41 -113t107 -45zM288 645l112 162h174l-120 -162
h-166z" />
    <glyph glyph-name="Obreve.sc" horiz-adv-x="741" 
d="M370 -11q-136 0 -225.5 85t-89.5 219q0 137 90 220.5t225 83.5q136 0 226 -83.5t90 -220.5q0 -134 -90.5 -219t-225.5 -85zM370 135q66 0 107 45.5t41 112.5q0 69 -40.5 114t-107.5 45q-66 0 -107 -45t-41 -114q0 -68 41 -113t107 -45zM370 751q25 0 38.5 15.5t13.5 37.5
v10h125v-13q0 -72 -45 -117.5t-132 -45.5q-88 0 -132.5 45.5t-44.5 117.5v13h125v-10q0 -22 13 -37.5t39 -15.5z" />
    <glyph glyph-name="Ocircumflex.sc" horiz-adv-x="741" 
d="M370 -11q-136 0 -225.5 85t-89.5 219q0 137 90 220.5t225 83.5q136 0 226 -83.5t90 -220.5q0 -134 -90.5 -219t-225.5 -85zM370 135q66 0 107 45.5t41 112.5q0 69 -40.5 114t-107.5 45q-66 0 -107 -45t-41 -114q0 -68 41 -113t107 -45zM436 644l-66 77l-66 -77h-151
l140 166h154l137 -166h-148z" />
    <glyph glyph-name="Odieresis.sc" horiz-adv-x="741" 
d="M370 -11q-136 0 -225.5 85t-89.5 219q0 137 90 220.5t225 83.5q136 0 226 -83.5t90 -220.5q0 -134 -90.5 -219t-225.5 -85zM370 135q66 0 107 45.5t41 112.5q0 69 -40.5 114t-107.5 45q-66 0 -107 -45t-41 -114q0 -68 41 -113t107 -45zM172 645v158h159v-158h-159z
M409 645v158h159v-158h-159z" />
    <glyph glyph-name="Ograve.sc" horiz-adv-x="741" 
d="M370 -11q-136 0 -225.5 85t-89.5 219q0 137 90 220.5t225 83.5q136 0 226 -83.5t90 -220.5q0 -134 -90.5 -219t-225.5 -85zM370 135q66 0 107 45.5t41 112.5q0 69 -40.5 114t-107.5 45q-66 0 -107 -45t-41 -114q0 -68 41 -113t107 -45zM453 645h-166l-120 162h174z" />
    <glyph glyph-name="Ohungarumlaut.sc" horiz-adv-x="741" 
d="M370 -11q-136 0 -225.5 85t-89.5 219q0 137 90 220.5t225 83.5q136 0 226 -83.5t90 -220.5q0 -134 -90.5 -219t-225.5 -85zM370 135q66 0 107 45.5t41 112.5q0 69 -40.5 114t-107.5 45q-66 0 -107 -45t-41 -114q0 -68 41 -113t107 -45zM404 645l81 162h155l-88 -162h-148
zM184 645l77 162h156l-84 -162h-149z" />
    <glyph glyph-name="Omacron.sc" horiz-adv-x="741" 
d="M370 -11q-136 0 -225.5 85t-89.5 219q0 137 90 220.5t225 83.5q136 0 226 -83.5t90 -220.5q0 -134 -90.5 -219t-225.5 -85zM370 135q66 0 107 45.5t41 112.5q0 69 -40.5 114t-107.5 45q-66 0 -107 -45t-41 -114q0 -68 41 -113t107 -45zM555 665h-370v122h370v-122z" />
    <glyph glyph-name="Otilde.sc" horiz-adv-x="741" 
d="M370 -11q-136 0 -225.5 85t-89.5 219q0 137 90 220.5t225 83.5q136 0 226 -83.5t90 -220.5q0 -134 -90.5 -219t-225.5 -85zM370 135q66 0 107 45.5t41 112.5q0 69 -40.5 114t-107.5 45q-66 0 -107 -45t-41 -114q0 -68 41 -113t107 -45zM377 675l-38 17q-21 10 -31 10
q-15 0 -15 -20v-40h-113v87q0 45 23 71t67 26q33 0 93 -29l37 -17q20 -10 32 -10q15 0 15 20v41h113v-88q0 -45 -23.5 -70.5t-67.5 -25.5q-31 0 -92 28z" />
    <glyph glyph-name="Oslashacute.sc" horiz-adv-x="740" 
d="M685 293q0 -134 -90.5 -219t-225.5 -85q-87 0 -161 41l-27 -30h-155l94 104q-66 79 -66 189q0 137 90 220.5t225 83.5q87 0 161 -40l27 29h157l-94 -103q65 -80 65 -190zM215 292q0 -45 10 -72l207 228q-27 9 -63 9q-69 0 -111.5 -46.5t-42.5 -118.5zM524 292
q0 45 -10 74l-208 -229q27 -9 63 -9q71 0 113 46.5t42 117.5zM287 645l112 162h174l-120 -162h-166z" />
    <glyph glyph-name="Racute.sc" horiz-adv-x="718" 
d="M89 0v586h357q100 0 157.5 -49.5t57.5 -142.5q0 -124 -107 -168l128 -226h-174l-116 207h-138v-207h-165zM419 454h-165v-119h165q73 0 73 59q0 60 -73 60zM268 645l112 162h174l-120 -162h-166z" />
    <glyph glyph-name="Rcaron.sc" horiz-adv-x="718" 
d="M89 0v586h357q100 0 157.5 -49.5t57.5 -142.5q0 -124 -107 -168l128 -226h-174l-116 207h-138v-207h-165zM419 454h-165v-119h165q73 0 73 59q0 60 -73 60zM567 810l-140 -166h-154l-137 166h148l66 -77l66 77h151z" />
    <glyph glyph-name="Rcommaaccent.sc" horiz-adv-x="718" 
d="M89 0v586h357q100 0 157.5 -49.5t57.5 -142.5q0 -124 -107 -168l128 -226h-174l-116 207h-138v-207h-165zM419 454h-165v-119h165q73 0 73 59q0 60 -73 60zM425 -320h-105q32 60 45 113h-79v140h175v-104q0 -71 -36 -149z" />
    <glyph glyph-name="Sacute.sc" horiz-adv-x="662" 
d="M310 471q-87 0 -87 -45q0 -39 67 -45l83 -7q116 -9 175 -54t59 -137q0 -94 -68.5 -144t-199.5 -50q-74 0 -131.5 17t-91.5 45.5t-52.5 59t-25.5 64.5h175q10 -24 41.5 -41.5t84.5 -17.5q47 0 71.5 14.5t24.5 39.5q0 45 -71 51l-84 8q-108 9 -167 57t-59 131
q0 87 70.5 134t185.5 47q71 0 125 -15.5t85.5 -41.5t48.5 -54t24 -59h-166q-29 43 -117 43zM241 645l112 162h174l-120 -162h-166z" />
    <glyph glyph-name="Scaron.sc" horiz-adv-x="662" 
d="M310 471q-87 0 -87 -45q0 -39 67 -45l83 -7q116 -9 175 -54t59 -137q0 -94 -68.5 -144t-199.5 -50q-74 0 -131.5 17t-91.5 45.5t-52.5 59t-25.5 64.5h175q10 -24 41.5 -41.5t84.5 -17.5q47 0 71.5 14.5t24.5 39.5q0 45 -71 51l-84 8q-108 9 -167 57t-59 131
q0 87 70.5 134t185.5 47q71 0 125 -15.5t85.5 -41.5t48.5 -54t24 -59h-166q-29 43 -117 43zM540 810l-140 -166h-154l-137 166h148l66 -77l66 77h151z" />
    <glyph glyph-name="Scedilla.sc" horiz-adv-x="662" 
d="M310 471q-87 0 -87 -45q0 -39 67 -45l83 -7q116 -9 175 -54t59 -137q0 -93 -68 -144q-61 -44 -178 -49v-33h4q63 -1 95.5 -31.5t32.5 -86.5q0 -59 -33 -92.5t-98 -33.5h-155v103h131q31 0 31 27q0 26 -31 26h-96v129q-15 2 -36 8q-145 48 -168 169h175q10 -24 41.5 -41.5
t84.5 -17.5q47 0 71.5 14.5t24.5 39.5q0 45 -71 51l-84 8q-108 9 -167 57t-59 131q0 87 70.5 134t185.5 47q71 0 125 -15.5t85.5 -41.5t48.5 -54t24 -59h-166q-29 43 -117 43z" />
    <glyph glyph-name="Scircumflex.sc" horiz-adv-x="662" 
d="M310 471q-87 0 -87 -45q0 -39 67 -45l83 -7q116 -9 175 -54t59 -137q0 -94 -68.5 -144t-199.5 -50q-74 0 -131.5 17t-91.5 45.5t-52.5 59t-25.5 64.5h175q10 -24 41.5 -41.5t84.5 -17.5q47 0 71.5 14.5t24.5 39.5q0 45 -71 51l-84 8q-108 9 -167 57t-59 131
q0 87 70.5 134t185.5 47q71 0 125 -15.5t85.5 -41.5t48.5 -54t24 -59h-166q-29 43 -117 43zM389 644l-66 77l-66 -77h-151l140 166h154l137 -166h-148z" />
    <glyph glyph-name="Scommaaccent.sc" horiz-adv-x="662" 
d="M310 471q-87 0 -87 -45q0 -39 67 -45l83 -7q116 -9 175 -54t59 -137q0 -94 -68.5 -144t-199.5 -50q-74 0 -131.5 17t-91.5 45.5t-52.5 59t-25.5 64.5h175q10 -24 41.5 -41.5t84.5 -17.5q47 0 71.5 14.5t24.5 39.5q0 45 -71 51l-84 8q-108 9 -167 57t-59 131
q0 87 70.5 134t185.5 47q71 0 125 -15.5t85.5 -41.5t48.5 -54t24 -59h-166q-29 43 -117 43zM392 -320h-105q32 60 45 113h-79v140h175v-104q0 -71 -36 -149z" />
    <glyph glyph-name="Tcaron.sc" horiz-adv-x="670" 
d="M39 444v142h592v-142h-214v-444h-164v444h-214zM552 810l-140 -166h-154l-137 166h148l66 -77l66 77h151z" />
    <glyph glyph-name="Tcommaaccent.sc" horiz-adv-x="670" 
d="M39 444v142h592v-142h-214v-444h-164v444h-214zM387 -320h-105q32 60 45 113h-79v140h175v-104q0 -71 -36 -149z" />
    <glyph glyph-name="uni021A.sc" horiz-adv-x="670" 
d="M39 444v142h592v-142h-214v-444h-164v444h-214zM387 -320h-105q32 60 45 113h-79v140h175v-104q0 -71 -36 -149z" />
    <glyph glyph-name="Tbar.sc" horiz-adv-x="670" 
d="M109 219v120h144v105h-214v142h592v-142h-214v-105h144v-120h-144v-219h-164v219h-144z" />
    <glyph glyph-name="Thorn.sc" horiz-adv-x="712" 
d="M452 107h-198v-107h-165v586h165v-95h199q101 0 156.5 -49t55.5 -143q0 -93 -56 -142.5t-157 -49.5zM428 354h-174v-111h174q67 0 67 56q0 55 -67 55z" />
    <glyph glyph-name="Uacute.sc" horiz-adv-x="749" 
d="M376 138q59 0 91.5 36.5t32.5 98.5v313h164v-323q0 -121 -75.5 -197.5t-212.5 -76.5q-141 0 -216 76t-75 198v323h166v-313q0 -62 32 -98.5t93 -36.5zM284 645l112 162h174l-120 -162h-166z" />
    <glyph glyph-name="Ubreve.sc" horiz-adv-x="749" 
d="M376 138q59 0 91.5 36.5t32.5 98.5v313h164v-323q0 -121 -75.5 -197.5t-212.5 -76.5q-141 0 -216 76t-75 198v323h166v-313q0 -62 32 -98.5t93 -36.5zM375 751q25 0 38.5 15.5t13.5 37.5v10h125v-13q0 -72 -45 -117.5t-132 -45.5q-88 0 -132.5 45.5t-44.5 117.5v13h125
v-10q0 -22 13 -37.5t39 -15.5z" />
    <glyph glyph-name="Ucircumflex.sc" horiz-adv-x="749" 
d="M376 138q59 0 91.5 36.5t32.5 98.5v313h164v-323q0 -121 -75.5 -197.5t-212.5 -76.5q-141 0 -216 76t-75 198v323h166v-313q0 -62 32 -98.5t93 -36.5zM441 644l-66 77l-66 -77h-151l140 166h154l137 -166h-148z" />
    <glyph glyph-name="Udieresis.sc" horiz-adv-x="749" 
d="M376 138q59 0 91.5 36.5t32.5 98.5v313h164v-323q0 -121 -75.5 -197.5t-212.5 -76.5q-141 0 -216 76t-75 198v323h166v-313q0 -62 32 -98.5t93 -36.5zM177 645v158h159v-158h-159zM414 645v158h159v-158h-159z" />
    <glyph glyph-name="Ugrave.sc" horiz-adv-x="749" 
d="M376 138q59 0 91.5 36.5t32.5 98.5v313h164v-323q0 -121 -75.5 -197.5t-212.5 -76.5q-141 0 -216 76t-75 198v323h166v-313q0 -62 32 -98.5t93 -36.5zM467 645h-166l-120 162h174z" />
    <glyph glyph-name="Uhungarumlaut.sc" horiz-adv-x="749" 
d="M376 138q59 0 91.5 36.5t32.5 98.5v313h164v-323q0 -121 -75.5 -197.5t-212.5 -76.5q-141 0 -216 76t-75 198v323h166v-313q0 -62 32 -98.5t93 -36.5zM409 645l81 162h155l-88 -162h-148zM189 645l77 162h156l-84 -162h-149z" />
    <glyph glyph-name="Umacron.sc" horiz-adv-x="749" 
d="M376 138q59 0 91.5 36.5t32.5 98.5v313h164v-323q0 -121 -75.5 -197.5t-212.5 -76.5q-141 0 -216 76t-75 198v323h166v-313q0 -62 32 -98.5t93 -36.5zM560 665h-370v122h370v-122z" />
    <glyph glyph-name="Uogonek.sc" horiz-adv-x="749" 
d="M571 -94v-109h-161q-57 0 -89.5 22t-32.5 63q0 33 24 57.5t73 49.5h-9q-141 0 -216 76t-75 198v323h166v-313q0 -62 32 -98.5t93 -36.5q59 0 91.5 36.5t32.5 98.5v313h164v-323q0 -135 -110 -235q-72 -63 -81 -77q-7 -11 -7 -21q0 -24 30 -24h75z" />
    <glyph glyph-name="Uring.sc" horiz-adv-x="749" 
d="M376 138q59 0 91.5 36.5t32.5 98.5v313h164v-323q0 -121 -75.5 -197.5t-212.5 -76.5q-141 0 -216 76t-75 198v323h166v-313q0 -62 32 -98.5t93 -36.5zM375 635q-62 0 -101.5 39.5t-39.5 97.5q0 60 39.5 99t101.5 39t102 -39t40 -99q0 -58 -40 -97.5t-102 -39.5zM375 716
q25 0 40.5 16t15.5 40q0 26 -15.5 41.5t-40.5 15.5t-40.5 -15.5t-15.5 -41.5q0 -24 15.5 -40t40.5 -16z" />
    <glyph glyph-name="Utilde.sc" horiz-adv-x="749" 
d="M376 138q59 0 91.5 36.5t32.5 98.5v313h164v-323q0 -121 -75.5 -197.5t-212.5 -76.5q-141 0 -216 76t-75 198v323h166v-313q0 -62 32 -98.5t93 -36.5zM382 675l-38 17q-21 10 -31 10q-15 0 -15 -20v-40h-113v87q0 45 23 71t67 26q33 0 93 -29l37 -17q20 -10 32 -10
q15 0 15 20v41h113v-88q0 -45 -23.5 -70.5t-67.5 -25.5q-31 0 -92 28z" />
    <glyph glyph-name="Wacute.sc" horiz-adv-x="984" 
d="M615 -1l-121 359l-121 -359h-151l-194 587h181l104 -347l111 348h154l111 -347l104 346h163l-188 -587h-153zM416 645l112 162h174l-120 -162h-166z" />
    <glyph glyph-name="Wcircumflex.sc" horiz-adv-x="984" 
d="M615 -1l-121 359l-121 -359h-151l-194 587h181l104 -347l111 348h154l111 -347l104 346h163l-188 -587h-153zM564 644l-66 77l-66 -77h-151l140 166h154l137 -166h-148z" />
    <glyph glyph-name="Wdieresis.sc" horiz-adv-x="984" 
d="M615 -1l-121 359l-121 -359h-151l-194 587h181l104 -347l111 348h154l111 -347l104 346h163l-188 -587h-153zM300 645v158h159v-158h-159zM537 645v158h159v-158h-159z" />
    <glyph glyph-name="Wgrave.sc" horiz-adv-x="984" 
d="M615 -1l-121 359l-121 -359h-151l-194 587h181l104 -347l111 348h154l111 -347l104 346h163l-188 -587h-153zM581 645h-166l-120 162h174z" />
    <glyph glyph-name="Yacute.sc" horiz-adv-x="691" 
d="M440 245v-245h-175v246l-258 340h210l141 -190l140 190h186zM273 645l112 162h174l-120 -162h-166z" />
    <glyph glyph-name="Ycircumflex.sc" horiz-adv-x="691" 
d="M440 245v-245h-175v246l-258 340h210l141 -190l140 190h186zM424 644l-66 77l-66 -77h-151l140 166h154l137 -166h-148z" />
    <glyph glyph-name="Ydieresis.sc" horiz-adv-x="691" 
d="M440 245v-245h-175v246l-258 340h210l141 -190l140 190h186zM160 645v158h159v-158h-159zM397 645v158h159v-158h-159z" />
    <glyph glyph-name="Ygrave.sc" horiz-adv-x="691" 
d="M440 245v-245h-175v246l-258 340h210l141 -190l140 190h186zM444 645h-166l-120 162h174z" />
    <glyph glyph-name="Zacute.sc" horiz-adv-x="699" 
d="M657 142v-142h-604v94l309 352h-300v140h559v-91l-312 -353h348zM259 645l112 162h174l-120 -162h-166z" />
    <glyph glyph-name="Zcaron.sc" horiz-adv-x="699" 
d="M657 142v-142h-604v94l309 352h-300v140h559v-91l-312 -353h348zM561 810l-140 -166h-154l-137 166h148l66 -77l66 77h151z" />
    <glyph glyph-name="Zdotaccent.sc" horiz-adv-x="699" 
d="M657 142v-142h-604v94l309 352h-300v140h559v-91l-312 -353h348zM258 645v159h170v-159h-170z" />
    <glyph glyph-name="germandbls.sc" horiz-adv-x="1324" 
d="M310 471q-87 0 -87 -45q0 -39 67 -45l83 -7q116 -9 175 -54t59 -137q0 -94 -68.5 -144t-199.5 -50q-74 0 -131.5 17t-91.5 45.5t-52.5 59t-25.5 64.5h175q10 -24 41.5 -41.5t84.5 -17.5q47 0 71.5 14.5t24.5 39.5q0 45 -71 51l-84 8q-108 9 -167 57t-59 131
q0 87 70.5 134t185.5 47q71 0 125 -15.5t85.5 -41.5t48.5 -54t24 -59h-166q-29 43 -117 43zM972 471q-87 0 -87 -45q0 -39 67 -45l83 -7q116 -9 175 -54t59 -137q0 -94 -68.5 -144t-199.5 -50q-74 0 -131.5 17t-91.5 45.5t-52.5 59t-25.5 64.5h175q10 -24 41.5 -41.5
t84.5 -17.5q47 0 71.5 14.5t24.5 39.5q0 45 -71 51l-84 8q-108 9 -167 57t-59 131q0 87 70.5 134t185.5 47q71 0 125 -15.5t85.5 -41.5t48.5 -54t24 -59h-166q-29 43 -117 43z" />
    <glyph glyph-name="napostrophe.sc" horiz-adv-x="1026" 
d="M798 0l-289 368v-368h-161v586h185l245 -319v319h158v-586h-138zM175 369h-111q62 106 68 189h-86v178h183v-155q0 -120 -54 -212z" />
    <glyph glyph-name="uni01FA.sc" horiz-adv-x="720" 
d="M526 0l-36 88h-272l-36 -88h-160l248 587h180l248 -587h-172zM272 218h164l-82 199zM280 944l102 147h173l-110 -147h-165zM360 635q-62 0 -101.5 39.5t-39.5 97.5q0 60 39.5 99t101.5 39t102 -39t40 -99q0 -58 -40 -97.5t-102 -39.5zM360 716q25 0 40.5 16t15.5 40
q0 26 -15.5 41.5t-40.5 15.5t-40.5 -15.5t-15.5 -41.5q0 -24 15.5 -40t40.5 -16z" />
    <glyph glyph-name="uni20B4.sc" horiz-adv-x="661" 
d="M37 315v97h380q3 8 3 18q0 24 -20.5 38t-57.5 14q-73 0 -88 -41h-156q7 69 67.5 113t177.5 44q109 0 173.5 -46.5t64.5 -126.5q0 -9 -1 -13h44v-97h-587zM37 188v97h587v-97h-376q-6 -10 -6 -24q0 -27 22.5 -43t64.5 -16q46 0 73 16.5t31 41.5h159q-6 -77 -74 -125.5
t-189 -48.5q-119 0 -184 49.5t-65 129.5q0 13 1 20h-44z" />
    <glyph glyph-name="uni20B8.sc" horiz-adv-x="678" 
d="M39 477v109h600v-109h-600zM257 0v276h-218v142h600v-142h-218v-276h-164z" />
    <glyph glyph-name="uni20BD.sc" horiz-adv-x="749" 
d="M41 81v109h90v45h-90v109h90v242h358q101 0 156.5 -45t55.5 -129q0 -87 -55.5 -132t-156.5 -45h-193v-45h283v-109h-283v-81h-165v81h-90zM464 457h-168v-108h168q68 0 68 55q0 53 -68 53z" />
    <glyph glyph-name="zero.old" horiz-adv-x="728" 
d="M365 598q137 0 227 -85t90 -220q0 -134 -90.5 -220t-226.5 -86q-137 0 -228 86t-91 220q0 135 90.5 220t228.5 85zM365 132q66 0 108.5 46.5t42.5 114.5t-42.5 114t-108.5 46q-67 0 -110 -46t-43 -114t43 -114.5t110 -46.5z" />
    <glyph glyph-name="one.old" horiz-adv-x="476" 
d="M382 591v-591h-165v407l-174 -99v154l214 129h125z" />
    <glyph glyph-name="two.old" horiz-adv-x="640" 
d="M601 134v-134h-541v110l244 153q51 33 70.5 58t19.5 58q0 34 -21.5 55t-62.5 21t-64 -27.5t-23 -71.5v-4h-161v9q0 102 66 169.5t182 67.5q120 0 186 -58t66 -153q0 -135 -166 -223l-55 -30h260z" />
    <glyph glyph-name="three.old" horiz-adv-x="650" 
d="M596 81q0 -99 -73.5 -158t-202.5 -59q-69 0 -123.5 20.5t-86.5 54t-49.5 70.5t-19.5 75h168q5 -27 32.5 -51t77.5 -24q53 0 81 22t28 61q0 77 -87 77h-135v142h126q76 0 76 68q0 36 -25 56.5t-70 20.5t-68 -21.5t-29 -48.5h-165q3 84 71.5 148t190.5 64
q126 0 194.5 -53.5t68.5 -150.5q0 -54 -28.5 -89.5t-65.5 -51.5q47 -14 80.5 -56.5t33.5 -115.5z" />
    <glyph glyph-name="four.old" horiz-adv-x="711" 
d="M683 68h-137v-192h-162v192h-353v108l324 410h191v-379h137v-139zM206 207h178v231z" />
    <glyph glyph-name="five.old" horiz-adv-x="660" 
d="M84 175v411h492v-136h-335v-139q44 52 135 52q98 0 163 -65.5t65 -175.5q0 -113 -74 -185t-203 -72q-133 0 -203.5 69.5t-73.5 161.5h168q5 -31 32 -58t77 -27q48 0 78.5 31.5t30.5 77.5q0 49 -29.5 79t-79.5 30q-61 0 -94 -54h-149z" />
    <glyph glyph-name="six.old" horiz-adv-x="663" 
d="M613 246q0 -113 -76.5 -185.5t-204.5 -72.5t-205 72t-77 185q0 78 28 137t90 139l149 189h184l-204 -258q43 28 98 28q97 0 157.5 -65t60.5 -169zM447 246q0 50 -31 82t-85 32q-51 0 -83 -32.5t-32 -82.5q0 -49 31.5 -80.5t83.5 -31.5q53 0 84.5 32t31.5 81z" />
    <glyph glyph-name="seven.old" horiz-adv-x="619" 
d="M581 480l-314 -604h-186l301 563h-341v147h540v-106z" />
    <glyph glyph-name="eight.old" horiz-adv-x="671" 
d="M615 193q0 -94 -71 -149.5t-196 -55.5h-27q-123 0 -194 55.5t-71 149.5q0 71 36 114t83 58q-43 15 -75 54t-32 106q0 89 67 143t188 54h25q121 0 188 -54t67 -143q0 -67 -32.5 -106.5t-74.5 -54.5q47 -15 83 -57.5t36 -113.5zM341 592h-12q-43 0 -69.5 -22.5t-26.5 -60.5
t26.5 -61t69.5 -23h12q43 0 70 23t27 61t-27 60.5t-70 22.5zM343 298h-16q-44 0 -73 -24.5t-29 -65.5t29 -65.5t73 -24.5h16q45 0 74 24.5t29 65.5t-29 65.5t-74 24.5z" />
    <glyph glyph-name="nine.old" horiz-adv-x="663" 
d="M495 66l-148 -190h-185l203 257q-41 -27 -96 -27q-98 0 -158.5 65t-60.5 169q0 113 76.5 185.5t204.5 72.5q129 0 205.5 -72t76.5 -185q0 -78 -28 -137.5t-90 -137.5zM216 340q0 -50 31 -82t85 -32q51 0 83 32t32 83q0 49 -31 80.5t-84 31.5t-84.5 -32t-31.5 -81z" />
    <glyph glyph-name="space.tab" horiz-adv-x="325" 
 />
    <glyph glyph-name="dollar.tab" horiz-adv-x="634" 
d="M564 205q0 -77 -46.5 -130.5t-132.5 -70.5v-127h-141v128q-86 17 -133 73t-47 138v4h157v-2q0 -41 25 -64t68 -23t65.5 18.5t22.5 50.5q0 55 -69 75l-89 25q-88 27 -129.5 76.5t-41.5 136.5q0 76 45.5 127.5t125.5 67.5v121h141v-121q79 -17 119 -68t42 -129v-1h-155v1
q-2 32 -22.5 52t-56.5 20q-37 0 -58 -17.5t-21 -47.5q0 -28 16.5 -44.5t52.5 -28.5l89 -25q88 -25 130.5 -76t42.5 -139z" />
    <glyph glyph-name="cent.tab" horiz-adv-x="650" 
d="M425 176h155q-5 -55 -46 -109t-121 -72v-118h-141v117q-86 21 -137.5 91.5t-51.5 173.5t52 173.5t137 91.5v113h141v-115q78 -21 119.5 -72.5t45.5 -105.5h-155q-6 16 -26 31.5t-56 15.5q-44 0 -69.5 -36.5t-25.5 -95.5t25.5 -96t69.5 -37q38 0 58 16.5t26 33.5z" />
    <glyph glyph-name="Euro.tab" horiz-adv-x="667" 
d="M475 221h155q-2 -109 -70.5 -170.5t-181.5 -61.5q-116 0 -180 61.5t-67 169.5h-103v109h103v60h-103v108h103q4 102 69 163.5t178 61.5t180.5 -62t71.5 -165h-155q-4 35 -28 60.5t-69 25.5q-43 0 -68 -23t-28 -61h137v-108h-137v-60h137v-109h-137q2 -42 27 -66t69 -24
q45 0 70 26t27 65z" />
    <glyph glyph-name="sterling.tab" horiz-adv-x="684" 
d="M661 141v-141h-618v141h109v116h-109v141h109v107q0 102 58 159.5t170 57.5q114 0 171.5 -57.5t57.5 -159.5v-29h-154v24q0 40 -20 61.5t-55 21.5t-54 -21.5t-19 -61.5v-102h181v-141h-181v-116h354z" />
    <glyph glyph-name="yen.tab" horiz-adv-x="655" 
d="M596 123h-175v-123h-175v123h-174v109h174v60h-174v109h162l-233 309h207l131 -183l130 183h186l-222 -309h163v-109h-175v-60h175v-109z" />
    <glyph glyph-name="florin.tab" horiz-adv-x="650" 
d="M532 314h-172l-75 -514h-162l74 514h-126v133h145l16 113q10 77 51 113.5t126 36.5h197v-129h-141q-38 0 -54 -13.5t-21 -49.5l-10 -71h152v-133z" />
    <glyph glyph-name="zero.tab" horiz-adv-x="650" 
d="M325 723q125 0 196.5 -69.5t71.5 -190.5v-216q0 -123 -71 -191.5t-197 -68.5t-197 68.5t-71 191.5v216q0 121 71.5 190.5t196.5 69.5zM325 137q50 0 76.5 31t26.5 84v206q0 53 -26.5 84t-76.5 31t-76.5 -31t-26.5 -84v-206q0 -53 26.5 -84t76.5 -31z" />
    <glyph glyph-name="one.tab" horiz-adv-x="650" 
d="M482 713v-713h-166v527l-206 -116v155l248 147h124z" />
    <glyph glyph-name="two.tab" horiz-adv-x="650" 
d="M614 145v-145h-551v110l265 239q44 41 63 71t19 66q0 39 -24 63.5t-67 24.5q-42 0 -66.5 -27t-24.5 -71v-38h-163v43q0 104 67.5 172.5t186.5 68.5q121 0 190 -63t69 -167q0 -75 -37.5 -131t-114.5 -123l-102 -93h290z" />
    <glyph glyph-name="three.tab" horiz-adv-x="650" 
d="M600 205q0 -99 -74.5 -158t-205.5 -59q-70 0 -125 20.5t-87.5 54t-50 70.5t-20.5 75h168q5 -27 34 -50.5t80 -23.5q53 0 82 22t29 59q0 77 -86 77h-141v143h130q77 0 77 68q0 36 -26 56t-71 20q-84 0 -99 -69h-165q3 84 71.5 148t192.5 64q126 0 195 -53.5t69 -150.5
q0 -53 -28 -90t-64 -51q47 -14 81 -56.5t34 -115.5z" />
    <glyph glyph-name="four.tab" horiz-adv-x="650" 
d="M617 192h-106v-192h-158v192h-316v107l286 411h188v-381h106v-137zM195 329h158v231z" />
    <glyph glyph-name="five.tab" horiz-adv-x="650" 
d="M79 302v408h494v-136h-338v-136q46 52 137 52q98 0 163 -65.5t65 -175.5v-4q0 -113 -75 -185t-202 -72q-136 0 -205.5 69.5t-72.5 161.5h167q5 -31 32.5 -57.5t78.5 -26.5q48 0 79 31t31 77v3q0 50 -30 79t-80 29q-66 0 -96 -52h-148z" />
    <glyph glyph-name="six.tab" horiz-adv-x="650" 
d="M606 246q0 -113 -76.5 -185.5t-204.5 -72.5t-204.5 72t-76.5 185q0 78 27.5 137t89.5 139l149 189h184l-203 -258q41 27 97 27q98 0 158 -64.5t60 -168.5zM440 246q0 50 -31 81.5t-84 31.5q-51 0 -83 -31.5t-32 -82.5q0 -49 31 -80t84 -31t84 31.5t31 80.5z" />
    <glyph glyph-name="seven.tab" horiz-adv-x="650" 
d="M596 603l-314 -603h-185l301 563h-341v147h539v-107z" />
    <glyph glyph-name="eight.tab" horiz-adv-x="650" 
d="M606 193q0 -94 -71 -149.5t-196 -55.5h-29q-125 0 -195.5 55.5t-70.5 149.5q0 71 36 113.5t83 57.5q-42 15 -74.5 54.5t-32.5 106.5q0 89 67 143t188 54h28q121 0 188 -54t67 -143q0 -67 -32 -106t-75 -54q47 -15 83 -58t36 -114zM333 592h-15q-43 0 -69.5 -22t-26.5 -61
t26.5 -61.5t69.5 -22.5h15q43 0 69.5 22.5t26.5 61.5t-26.5 61t-69.5 22zM335 298h-19q-46 0 -74 -24.5t-28 -65.5t28 -65.5t74 -24.5h19q46 0 74 24.5t28 65.5t-28 65.5t-74 24.5z" />
    <glyph glyph-name="nine.tab" horiz-adv-x="650" 
d="M489 189l-149 -189h-184l203 258q-41 -27 -97 -27q-99 0 -158.5 64t-59.5 169q0 113 76.5 185.5t204.5 72.5t204.5 -72t76.5 -185q0 -78 -27.5 -137t-89.5 -139zM210 464q0 -50 31 -81.5t84 -31.5q51 0 83 31.5t32 82.5q0 49 -31 80t-84 31t-84 -31.5t-31 -80.5z" />
    <glyph glyph-name="percent.tab" horiz-adv-x="975" 
d="M229 340q-82 0 -138 55t-56 136t56 136t138 55t138 -55t56 -136t-56 -136t-138 -55zM157 0l520 710h142l-521 -710h-141zM229 456q32 0 52.5 21.5t20.5 53.5t-20.5 53.5t-52.5 21.5t-52 -21t-20 -54t20 -54t52 -21zM746 -14q-82 0 -138 55t-56 136t56 136t138 55t138 -55
t56 -136t-56 -136t-138 -55zM746 102q32 0 52 21t20 54t-20 54t-52 21t-52.5 -21.5t-20.5 -53.5t20.5 -53.5t52.5 -21.5z" />
    <glyph glyph-name="perthousand.tab" horiz-adv-x="1300" 
d="M215 361q-77 0 -130.5 52.5t-53.5 128.5t53.5 128t130.5 52t130.5 -52t53.5 -128t-53.5 -128.5t-130.5 -52.5zM254 0h-140l521 710h140zM215 474q29 0 47.5 19.5t18.5 48.5q0 28 -18.5 47.5t-47.5 19.5t-47.5 -19.5t-18.5 -47.5q0 -30 18 -49t48 -19zM672 -14
q-77 0 -130 52t-53 128t53 128.5t130 52.5t130.5 -52.5t53.5 -128.5t-53.5 -128t-130.5 -52zM1085 -14q-78 0 -131 52t-53 128t53.5 128.5t130.5 52.5t130.5 -52.5t53.5 -128.5t-53.5 -128t-130.5 -52zM672 99q30 0 48.5 19t18.5 48q0 30 -18.5 49t-48.5 19
q-29 0 -47.5 -19.5t-18.5 -48.5t18.5 -48t47.5 -19zM1085 99q30 0 48 18.5t18 48.5t-18 49t-48 19q-29 0 -47.5 -19.5t-18.5 -48.5t18.5 -48t47.5 -19z" />
    <glyph glyph-name="plus.tab" horiz-adv-x="650" 
d="M601 257h-200v-208h-152v208h-200v144h200v207h152v-207h200v-144z" />
    <glyph glyph-name="minus.tab" horiz-adv-x="650" 
d="M593 255h-536v148h536v-148z" />
    <glyph glyph-name="multiply.tab" horiz-adv-x="650" 
d="M593 371h-536v143h536v-143zM593 137h-536v143h536v-143z" />
    <glyph glyph-name="divide.tab" horiz-adv-x="650" 
d="M234 468v174h180v-174h-180zM602 257h-556v144h556v-144zM234 10v174h180v-174h-180z" />
    <glyph glyph-name="equal.tab" horiz-adv-x="650" 
d="M591 157l-106 -103l-161 162l-160 -162l-105 101l162 164l-162 163l108 106l159 -162l160 162l105 -102l-162 -164z" />
    <glyph glyph-name="less.tab" horiz-adv-x="650" 
d="M558 205v-155l-475 206v135l475 205v-156l-285 -118z" />
    <glyph glyph-name="greater.tab" horiz-adv-x="650" 
d="M568 256l-475 -206v156l285 119l-285 116v155l475 -205v-135z" />
    <glyph glyph-name="period.tab" horiz-adv-x="325" 
d="M69 0v196h188v-196h-188z" />
    <glyph glyph-name="comma.tab" horiz-adv-x="343" 
d="M207 -200h-114q72 117 78 200h-89v196h187v-173q0 -118 -62 -223z" />
    <glyph glyph-name="colon.tab" horiz-adv-x="350" 
d="M82 0v196h187v-196h-187zM82 319v196h187v-196h-187z" />
    <glyph glyph-name="semicolon.tab" horiz-adv-x="350" 
d="M82 319v196h187v-196h-187zM207 -200h-114q72 117 78 200h-89v196h187v-173q0 -118 -62 -223z" />
    <glyph glyph-name="a.alt" horiz-adv-x="631" 
d="M39 163q0 77 54.5 119t150.5 42h163q0 37 -27 60.5t-76 23.5q-38 0 -60 -14t-28 -28h-165q4 22 18.5 47.5t42 53.5t78 46t114.5 18q124 0 192 -56.5t68 -152.5v-158q0 -21 8 -30.5t28 -11.5v-124h-77q-87 2 -110 64q-21 -30 -63 -52t-101 -22q-90 0 -150 49.5t-60 125.5z
M295 102q49 0 80.5 23t31.5 61v36h-126q-82 0 -82 -54q0 -31 26 -48.5t70 -17.5z" />
    <glyph glyph-name="u.alt" horiz-adv-x="671" 
d="M436 0v76q-20 -33 -62.5 -60.5t-100.5 -27.5q-94 0 -150.5 61.5t-56.5 160.5v308h163v-276q0 -51 27.5 -80.5t75.5 -29.5t76 30t28 80v276h163v-518h-163z" />
    <glyph glyph-name="aacute.alt" horiz-adv-x="631" 
d="M39 163q0 77 54.5 119t150.5 42h163q0 37 -27 60.5t-76 23.5q-38 0 -60 -14t-28 -28h-165q4 22 18.5 47.5t42 53.5t78 46t114.5 18q124 0 192 -56.5t68 -152.5v-158q0 -21 8 -30.5t28 -11.5v-124h-77q-87 2 -110 64q-21 -30 -63 -52t-101 -22q-90 0 -150 49.5t-60 125.5z
M295 102q49 0 80.5 23t31.5 61v36h-126q-82 0 -82 -54q0 -31 26 -48.5t70 -17.5zM222 582l109 190h163l-116 -190h-156z" />
    <glyph glyph-name="abreve.alt" horiz-adv-x="631" 
d="M39 163q0 77 54.5 119t150.5 42h163q0 37 -27 60.5t-76 23.5q-38 0 -60 -14t-28 -28h-165q4 22 18.5 47.5t42 53.5t78 46t114.5 18q124 0 192 -56.5t68 -152.5v-158q0 -21 8 -30.5t28 -11.5v-124h-77q-87 2 -110 64q-21 -30 -63 -52t-101 -22q-90 0 -150 49.5t-60 125.5z
M295 102q49 0 80.5 23t31.5 61v36h-126q-82 0 -82 -54q0 -31 26 -48.5t70 -17.5zM304 689q25 0 36.5 15t11.5 37v16h125v-18q0 -72 -43.5 -117.5t-129.5 -45.5t-129.5 45.5t-43.5 117.5v18h125v-16q0 -22 11.5 -37t36.5 -15z" />
    <glyph glyph-name="acircumflex.alt" horiz-adv-x="631" 
d="M39 163q0 77 54.5 119t150.5 42h163q0 37 -27 60.5t-76 23.5q-38 0 -60 -14t-28 -28h-165q4 22 18.5 47.5t42 53.5t78 46t114.5 18q124 0 192 -56.5t68 -152.5v-158q0 -21 8 -30.5t28 -11.5v-124h-77q-87 2 -110 64q-21 -30 -63 -52t-101 -22q-90 0 -150 49.5t-60 125.5z
M295 102q49 0 80.5 23t31.5 61v36h-126q-82 0 -82 -54q0 -31 26 -48.5t70 -17.5zM365 581l-61 95l-61 -95h-143l132 198h144l129 -198h-140z" />
    <glyph glyph-name="adieresis.alt" horiz-adv-x="631" 
d="M39 163q0 77 54.5 119t150.5 42h163q0 37 -27 60.5t-76 23.5q-38 0 -60 -14t-28 -28h-165q4 22 18.5 47.5t42 53.5t78 46t114.5 18q124 0 192 -56.5t68 -152.5v-158q0 -21 8 -30.5t28 -11.5v-124h-77q-87 2 -110 64q-21 -30 -63 -52t-101 -22q-90 0 -150 49.5t-60 125.5z
M295 102q49 0 80.5 23t31.5 61v36h-126q-82 0 -82 -54q0 -31 26 -48.5t70 -17.5zM109 585v158h160v-158h-160zM339 585v158h160v-158h-160z" />
    <glyph glyph-name="agrave.alt" horiz-adv-x="631" 
d="M39 163q0 77 54.5 119t150.5 42h163q0 37 -27 60.5t-76 23.5q-38 0 -60 -14t-28 -28h-165q4 22 18.5 47.5t42 53.5t78 46t114.5 18q124 0 192 -56.5t68 -152.5v-158q0 -21 8 -30.5t28 -11.5v-124h-77q-87 2 -110 64q-21 -30 -63 -52t-101 -22q-90 0 -150 49.5t-60 125.5z
M295 102q49 0 80.5 23t31.5 61v36h-126q-82 0 -82 -54q0 -31 26 -48.5t70 -17.5zM381 582h-156l-116 190h163z" />
    <glyph glyph-name="amacron.alt" horiz-adv-x="631" 
d="M39 163q0 77 54.5 119t150.5 42h163q0 37 -27 60.5t-76 23.5q-38 0 -60 -14t-28 -28h-165q4 22 18.5 47.5t42 53.5t78 46t114.5 18q124 0 192 -56.5t68 -152.5v-158q0 -21 8 -30.5t28 -11.5v-124h-77q-87 2 -110 64q-21 -30 -63 -52t-101 -22q-90 0 -150 49.5t-60 125.5z
M295 102q49 0 80.5 23t31.5 61v36h-126q-82 0 -82 -54q0 -31 26 -48.5t70 -17.5zM478 606h-342v123h342v-123z" />
    <glyph glyph-name="aogonek.alt" horiz-adv-x="631" 
d="M39 163q0 77 54 119t151 42h163q0 37 -27 60.5t-76 23.5q-39 0 -60.5 -14t-27.5 -28h-165q2 21 17 47t43 53.5t78.5 46t114.5 18.5q124 0 192 -56.5t68 -152.5v-158q0 -21 8 -30.5t28 -11.5v-122q-63 -45 -71 -57q-6 -8 -6 -16q0 -21 27 -21h78v-109h-162q-55 0 -88 23.5
t-33 64.5q0 40 31.5 67t91.5 57q-41 14 -55 53q-57 -74 -164 -74q-90 0 -150 49.5t-60 125.5zM295 102q49 0 80.5 23t31.5 61v36h-126q-82 0 -82 -54q0 -31 25.5 -48.5t70.5 -17.5z" />
    <glyph glyph-name="aring.alt" horiz-adv-x="631" 
d="M39 163q0 77 54.5 119t150.5 42h163q0 37 -27 60.5t-76 23.5q-38 0 -60 -14t-28 -28h-165q4 22 18.5 47.5t42 53.5t78 46t114.5 18q124 0 192 -56.5t68 -152.5v-158q0 -21 8 -30.5t28 -11.5v-124h-77q-87 2 -110 64q-21 -30 -63 -52t-101 -22q-90 0 -150 49.5t-60 125.5z
M295 102q49 0 80.5 23t31.5 61v36h-126q-82 0 -82 -54q0 -31 26 -48.5t70 -17.5zM304 572q-62 0 -101.5 39.5t-39.5 97.5q0 60 39.5 99t101.5 39t102 -39t40 -99q0 -58 -40 -97.5t-102 -39.5zM304 653q25 0 40.5 16t15.5 40q0 26 -15.5 41.5t-40.5 15.5t-40.5 -15.5
t-15.5 -41.5q0 -24 15.5 -40t40.5 -16z" />
    <glyph glyph-name="aringacute.alt" horiz-adv-x="631" 
d="M39 163q0 77 54.5 119t150.5 42h163q0 37 -27 60.5t-76 23.5q-38 0 -60 -14t-28 -28h-165q4 22 18.5 47.5t42 53.5t78 46t114.5 18q124 0 192 -56.5t68 -152.5v-158q0 -21 8 -30.5t28 -11.5v-124h-77q-87 2 -110 64q-21 -30 -63 -52t-101 -22q-90 0 -150 49.5t-60 125.5z
M295 102q49 0 80.5 23t31.5 61v36h-126q-82 0 -82 -54q0 -31 26 -48.5t70 -17.5zM229 881l94 159h163l-101 -159h-156zM304 572q-62 0 -101.5 39.5t-39.5 97.5q0 60 39.5 99t101.5 39t102 -39t40 -99q0 -58 -40 -97.5t-102 -39.5zM304 653q25 0 40.5 16t15.5 40
q0 26 -15.5 41.5t-40.5 15.5t-40.5 -15.5t-15.5 -41.5q0 -24 15.5 -40t40.5 -16z" />
    </font>
</defs>
</svg>
