<?xml version="1.0" standalone="no"?>
<!DOCTYPE svg PUBLIC "-//W3C//DTD SVG 1.1//EN" "http://www.w3.org/Graphics/SVG/1.1/DTD/svg11.dtd" >
<svg xmlns="http://www.w3.org/2000/svg" xmlns:xlink="http://www.w3.org/1999/xlink" version="1.1">
<metadata>
Created by FontForge 20190801 at Wed Feb 20 06:38:24 2019
 By www-data
Copyright (c) 2016 by Commercial Type, Inc. All rights reserved. |DCNT
</metadata>
<defs>
<font id="StyreneALCMedium" horiz-adv-x="600" >
  <font-face 
    font-family="StyreneALCMedium"
    font-weight="500"
    font-stretch="normal"
    units-per-em="1000"
    panose-1="0 0 0 0 0 0 0 0 0 0"
    ascent="736"
    descent="-264"
    x-height="506"
    cap-height="710"
    bbox="-111 -322 1382 1208"
    underline-thickness="76"
    underline-position="-76"
    unicode-range="U+000D-FB02"
  />
<missing-glyph horiz-adv-x="258" 
 />
    <glyph glyph-name=".notdef" horiz-adv-x="258" 
 />
    <glyph glyph-name=".null" horiz-adv-x="0" 
 />
    <glyph glyph-name="nonmarkingreturn" horiz-adv-x="333" 
 />
    <glyph glyph-name="NULL" horiz-adv-x="0" 
 />
    <glyph glyph-name="NULL" horiz-adv-x="0" 
 />
    <glyph glyph-name="CR" unicode="&#xd;" horiz-adv-x="258" 
 />
    <glyph glyph-name="space" unicode=" " horiz-adv-x="258" 
 />
    <glyph glyph-name="exclam" unicode="!" horiz-adv-x="342" 
d="M107 235v475h127v-475h-127zM94 0v159h153v-159h-153z" />
    <glyph glyph-name="quotedbl" unicode="&#x22;" horiz-adv-x="498" 
d="M202 403h-111v307h111v-307zM407 403h-111v307h111v-307z" />
    <glyph glyph-name="numbersign" unicode="#" horiz-adv-x="748" 
d="M346 0l49 179h-142l-50 -179h-108l49 179h-117v96h144l47 171h-118v96h145l46 168h109l-47 -168h143l46 168h109l-47 -168h117v-96h-143l-48 -171h118v-96h-144l-50 -179h-108zM279 275h143l47 171h-142z" />
    <glyph glyph-name="dollar" unicode="$" horiz-adv-x="607" 
d="M541 198q0 -77 -47.5 -129.5t-133.5 -66.5v-125h-110v125q-87 14 -135.5 70t-48.5 140v4h126v-2q0 -50 30.5 -78.5t80.5 -28.5q52 0 80 24.5t28 64.5q0 69 -85 94l-81 23q-86 25 -128 74.5t-42 133.5q0 77 47.5 127t127.5 63v118h110v-119q80 -14 122 -65.5t43 -131.5v-2
h-124v2q-1 42 -27 67.5t-72 25.5q-45 0 -72 -22t-27 -61q0 -67 86 -92q5 -2 39.5 -11.5t41.5 -12.5q86 -26 128.5 -75t42.5 -134z" />
    <glyph glyph-name="percent" unicode="%" horiz-adv-x="1003" 
d="M245 348q-80 0 -134 54t-54 133t54 133t134 54t134 -54t54 -133t-54 -133t-134 -54zM186 0l512 710h119l-512 -710h-119zM245 443q39 0 63.5 26.5t24.5 65.5t-24.5 65t-63.5 26q-38 0 -62.5 -26t-24.5 -65q0 -40 24 -66t63 -26zM758 -14q-80 0 -134 54t-54 133t54 133
t134 54t134 -54t54 -133t-54 -133t-134 -54zM758 82q39 0 63.5 26t24.5 65t-24.5 65.5t-63.5 26.5q-38 0 -62.5 -26.5t-24.5 -65.5t24.5 -65t62.5 -26z" />
    <glyph glyph-name="ampersand" unicode="&#x26;" horiz-adv-x="791" 
d="M616 0l-107 103q-55 -57 -107 -86t-124 -29q-103 0 -165.5 51.5t-62.5 138.5q0 72 43 122t117 92q-41 44 -62 81t-21 81q0 72 55 120t142 48q95 0 148.5 -46t53.5 -122q0 -99 -136 -179l114 -113l122 132h147l-190 -210l186 -184h-153zM250 553q0 -19 12 -40t24 -34
t36 -37q41 27 62.5 52t21.5 57q0 34 -22 53.5t-57 19.5q-33 0 -55 -19.5t-22 -51.5zM180 191q0 -39 27.5 -64.5t73.5 -25.5q40 0 73.5 19t74.5 60l-146 141q-34 -23 -52.5 -38t-34.5 -40t-16 -52z" />
    <glyph glyph-name="quotesingle" unicode="'" horiz-adv-x="296" 
d="M205 403h-114v307h114v-307z" />
    <glyph glyph-name="parenleft" unicode="(" horiz-adv-x="364" 
d="M201 822h116q-26 -50 -41 -83.5t-37.5 -96.5t-34 -136.5t-11.5 -155.5q0 -107 23 -208t45 -152t56 -114h-116q-121 229 -121 474q0 105 22.5 205t44 152t54.5 115z" />
    <glyph glyph-name="parenright" unicode=")" horiz-adv-x="364" 
d="M163 -124h-116q34 63 56 114t45 152t23 208q0 82 -11.5 155.5t-34 136.5t-37.5 96.5t-41 83.5h116q24 -46 40.5 -83.5t37.5 -99.5t32.5 -135.5t11.5 -153.5q0 -240 -122 -474z" />
    <glyph glyph-name="asterisk" unicode="*" horiz-adv-x="484" 
d="M407 396l-72 -54l-92 117l-93 -117l-72 54l96 118l-138 47l30 82l130 -45v139h92l-1 -139l131 45l30 -82l-137 -47z" />
    <glyph glyph-name="plus" unicode="+" horiz-adv-x="696" 
d="M616 266h-209v-217h-118v217h-209v112h209v216h118v-216h209v-112z" />
    <glyph glyph-name="comma" unicode="," horiz-adv-x="313" 
d="M170 -207h-95q73 119 77 207h-72v170h153v-154q0 -115 -63 -223z" />
    <glyph glyph-name="hyphen" unicode="-" horiz-adv-x="493" 
d="M80 239v118h333v-118h-333z" />
    <glyph glyph-name="period" unicode="." horiz-adv-x="313" 
d="M80 0v170h153v-170h-153z" />
    <glyph glyph-name="slash" unicode="/" horiz-adv-x="422" 
d="M27 -70l249 830h113l-249 -830h-113z" />
    <glyph glyph-name="zero" unicode="0" horiz-adv-x="695" 
d="M348 723q120 0 190.5 -70.5t70.5 -192.5v-210q0 -124 -70.5 -193.5t-190.5 -69.5t-190.5 69.5t-70.5 193.5v210q0 122 70.5 192.5t190.5 70.5zM348 107q62 0 95.5 40t33.5 105v206q0 65 -33.5 105t-95.5 40q-63 0 -96 -39.5t-33 -105.5v-206q0 -66 33 -105.5t96 -39.5z
" />
    <glyph glyph-name="one" unicode="1" horiz-adv-x="459" 
d="M351 713v-713h-132v563l-175 -100v124l208 126h99z" />
    <glyph glyph-name="two" unicode="2" horiz-adv-x="630" 
d="M592 117v-117h-525v86l252 238q54 53 77.5 89t23.5 81q0 49 -29 79t-81 30q-51 0 -81 -32.5t-30 -85.5v-42h-130v45q0 102 64.5 168t176.5 66q114 0 179 -62t65 -163q0 -76 -36.5 -130.5t-117.5 -130.5l-126 -119h318z" />
    <glyph glyph-name="three" unicode="3" horiz-adv-x="649" 
d="M586 200q0 -97 -71 -154.5t-196 -57.5t-192.5 63.5t-74.5 146.5h133q7 -36 41 -64t93 -28q63 0 98 27t35 75t-30 73.5t-85 25.5h-134v116h130q46 0 72 23t26 67t-31 68.5t-85 24.5q-53 0 -81.5 -25t-35.5 -62h-131q3 80 67.5 141.5t179.5 61.5q118 0 184 -54t66 -146
q0 -57 -29.5 -94.5t-67.5 -51.5q48 -14 83.5 -58t35.5 -118z" />
    <glyph glyph-name="four" unicode="4" horiz-adv-x="704" 
d="M669 205h-144v-205h-129v205h-356v81l335 424h150v-392h144v-113zM193 318h203v262z" />
    <glyph glyph-name="five" unicode="5" horiz-adv-x="656" 
d="M99 308v402h466v-113h-341v-170q52 52 140 52q97 0 162.5 -64.5t65.5 -172.5v-8q0 -109 -71.5 -177.5t-192.5 -68.5q-125 0 -192.5 65t-71.5 155h132q5 -37 37.5 -69.5t94.5 -32.5q59 0 95 36t36 91v7q0 58 -35.5 92.5t-95.5 34.5q-34 0 -61 -12.5t-37 -23.5t-16 -23
h-115z" />
    <glyph glyph-name="six" unicode="6" horiz-adv-x="660" 
d="M599 238q0 -109 -73 -179.5t-196 -70.5q-124 0 -196 69.5t-72 180.5q0 75 28.5 134t87.5 135l157 203h151l-204 -259q35 23 94 23q99 0 161 -65.5t62 -170.5zM466 238q0 59 -36.5 96.5t-100.5 37.5q-60 0 -97.5 -38t-37.5 -96q0 -56 37 -94t98 -38q64 0 100.5 38t36.5 94
z" />
    <glyph glyph-name="seven" unicode="7" horiz-adv-x="621" 
d="M574 620l-333 -620h-147l324 592h-364v118h520v-90z" />
    <glyph glyph-name="eight" unicode="8" horiz-adv-x="672" 
d="M604 192q0 -91 -69 -147.5t-187 -56.5h-28q-116 0 -184 56.5t-68 147.5q0 70 37.5 115t84.5 59q-44 15 -76.5 54.5t-32.5 104.5q0 88 63.5 142.5t177.5 54.5h27q115 0 178.5 -54.5t63.5 -142.5q0 -65 -33 -104.5t-76 -54.5q47 -15 84.5 -59.5t37.5 -114.5zM346 613h-20
q-51 0 -82.5 -26.5t-31.5 -71.5t31.5 -71.5t82.5 -26.5h20q51 0 82.5 26.5t31.5 71.5t-31.5 71.5t-82.5 26.5zM348 310h-24q-54 0 -88 -29.5t-34 -77.5t33.5 -77t88.5 -29h24q55 0 88.5 29t33.5 77q0 50 -33.5 78.5t-88.5 28.5z" />
    <glyph glyph-name="nine" unicode="9" horiz-adv-x="660" 
d="M482 203l-157 -203h-150l204 260q-37 -24 -95 -24q-99 0 -160.5 65.5t-61.5 170.5q0 109 72.5 179.5t195.5 70.5q124 0 196.5 -69.5t72.5 -180.5q0 -75 -28 -132t-89 -137zM194 472q0 -59 36.5 -96.5t100.5 -37.5q61 0 98 37.5t37 96.5q0 56 -36.5 94t-98.5 38
q-64 0 -100.5 -38t-36.5 -94z" />
    <glyph glyph-name="colon" unicode=":" horiz-adv-x="323" 
d="M85 0v170h153v-170h-153zM85 331v170h153v-170h-153z" />
    <glyph glyph-name="semicolon" unicode=";" horiz-adv-x="323" 
d="M85 331v170h153v-170h-153zM175 -207h-95q73 119 77 207h-72v170h153v-154q0 -115 -63 -223z" />
    <glyph glyph-name="less" unicode="&#x3c;" horiz-adv-x="638" 
d="M548 177v-122l-468 203v103l468 204v-124l-318 -132z" />
    <glyph glyph-name="equal" unicode="=" horiz-adv-x="701" 
d="M617 371h-532v111h532v-111zM617 151h-532v111h532v-111z" />
    <glyph glyph-name="greater" unicode="&#x3e;" horiz-adv-x="638" 
d="M558 258l-468 -203v123l318 133l-318 132v122l468 -204v-103z" />
    <glyph glyph-name="question" unicode="?" horiz-adv-x="547" 
d="M282 239v-4h-128v22q0 47 15.5 72t64.5 57l70 45q68 44 68 98q0 39 -24.5 62t-68.5 23t-69 -27t-25 -71v-29h-124v36q0 91 58.5 145t159.5 54q105 0 163 -51t58 -142q0 -66 -31 -109.5t-97 -84.5l-61 -39q-29 -20 -29 -57zM142 0v159h152v-159h-152z" />
    <glyph glyph-name="at" unicode="@" horiz-adv-x="1054" 
d="M829 -5h125q-18 -28 -48.5 -55.5t-78 -55.5t-118.5 -45.5t-153 -17.5q-230 0 -362.5 130t-132.5 329q0 203 137 335.5t349 132.5q107 0 193.5 -31.5t141 -85.5t83.5 -123.5t29 -148.5q0 -129 -63.5 -213t-164.5 -84q-103 0 -128 66q-20 -29 -57.5 -47.5t-88.5 -18.5
q-90 0 -147.5 57.5t-57.5 157.5t61.5 166t161.5 66q102 0 142 -75l12 68h114l-50 -287q-12 -66 45 -66q49 0 86.5 55.5t37.5 155.5q0 137 -92.5 219t-257.5 82q-168 0 -276.5 -106t-108.5 -277q0 -164 108 -266t286 -102q166 0 273 85zM525 403q-53 0 -85.5 -35.5
t-32.5 -92.5q0 -49 27 -78t76 -29q53 0 85.5 35.5t32.5 92.5q0 49 -26.5 78t-76.5 29z" />
    <glyph glyph-name="A" unicode="A" horiz-adv-x="816" 
d="M648 0l-65 146h-358l-65 -146h-135l319 713h127l320 -713h-143zM276 262h256l-128 287z" />
    <glyph glyph-name="B" unicode="B" horiz-adv-x="794" 
d="M98 0v710h380q115 0 176.5 -50.5t61.5 -141.5q0 -54 -31 -91t-76 -53q54 -17 88.5 -61t34.5 -110q0 -95 -63.5 -149t-184.5 -54h-386zM463 596h-233v-174h233q115 0 115 87t-115 87zM468 309h-238v-195h238q127 0 127 98q0 97 -127 97z" />
    <glyph glyph-name="C" unicode="C" horiz-adv-x="803" 
d="M418 -12q-155 0 -256.5 105t-101.5 262t101.5 262t256.5 105q77 0 140.5 -23.5t101 -61t59.5 -74t30 -71.5h-138q-23 40 -70.5 73.5t-122.5 33.5q-97 0 -158 -71t-61 -173t61 -173t158 -71q81 0 128 34t67 74h136q-5 -25 -18 -53t-40 -60.5t-62.5 -58t-90.5 -42.5
t-120 -17z" />
    <glyph glyph-name="D" unicode="D" horiz-adv-x="826" 
d="M98 0v710h287q173 0 276.5 -94.5t103.5 -260.5q0 -164 -103.5 -259.5t-276.5 -95.5h-287zM383 592h-151v-474h151q112 0 178.5 63.5t66.5 173.5q0 112 -66.5 174.5t-178.5 62.5z" />
    <glyph glyph-name="E" unicode="E" horiz-adv-x="752" 
d="M98 0v710h575v-116h-441v-162h263v-117h-263v-196h481v-119h-615z" />
    <glyph glyph-name="F" unicode="F" horiz-adv-x="735" 
d="M98 0v710h601v-117h-467v-167h269v-117h-269v-309h-134z" />
    <glyph glyph-name="G" unicode="G" horiz-adv-x="842" 
d="M762 409v-317q-47 -42 -125.5 -73.5t-187.5 -31.5q-176 0 -282.5 102.5t-106.5 267.5q0 159 103 262.5t262 103.5q74 0 134 -19t96.5 -50.5t58 -62.5t31.5 -63h-142q-61 76 -178 76q-103 0 -165.5 -70t-62.5 -177q0 -112 68.5 -181.5t184.5 -69.5q119 0 183 44v145h-250
v114h379z" />
    <glyph glyph-name="H" unicode="H" horiz-adv-x="854" 
d="M622 0v297h-390v-297h-134v710h134v-293h390v293h135v-710h-135z" />
    <glyph glyph-name="I" unicode="I" horiz-adv-x="333" 
d="M99 0v710h135v-710h-135z" />
    <glyph glyph-name="J" unicode="J" horiz-adv-x="675" 
d="M580 710v-480q0 -114 -68 -178.5t-186 -64.5t-183 63.5t-65 179.5v190h130v-182q0 -58 31 -92.5t87 -34.5q58 0 89 34.5t31 92.5v472h134z" />
    <glyph glyph-name="K" unicode="K" horiz-adv-x="798" 
d="M608 0l-376 325v-325h-134v710h134v-319l366 319h180l-397 -345l414 -365h-187z" />
    <glyph glyph-name="L" unicode="L" horiz-adv-x="707" 
d="M671 121v-121h-573v710h134v-589h439z" />
    <glyph glyph-name="M" unicode="M" horiz-adv-x="1015" 
d="M299 710l212 -517l213 517h193v-710h-130v582l-238 -585h-91l-236 580v-577h-124v710h201z" />
    <glyph glyph-name="N" unicode="N" horiz-adv-x="862" 
d="M764 710v-713h-105l-431 544v-541h-130v710h156l381 -487v487h129z" />
    <glyph glyph-name="O" unicode="O" horiz-adv-x="864" 
d="M432 -12q-160 0 -266 104t-106 263t106.5 263t265.5 104t265.5 -104t106.5 -263q0 -158 -106.5 -262.5t-265.5 -104.5zM432 110q104 0 169.5 70.5t65.5 174.5q0 103 -65.5 174t-169.5 71t-169 -70.5t-65 -174.5q0 -105 64.5 -175t169.5 -70z" />
    <glyph glyph-name="P" unicode="P" horiz-adv-x="790" 
d="M98 0v710h392q120 0 184 -55.5t64 -161.5q0 -104 -64.5 -162.5t-183.5 -58.5h-258v-272h-134zM483 590h-251v-198h251q58 0 87.5 26.5t29.5 72.5q0 99 -117 99z" />
    <glyph glyph-name="Q" unicode="Q" horiz-adv-x="864" 
d="M804 355q0 -111 -57 -198.5t-152 -130.5l180 -178h-172l-151 144h-20q-160 0 -266 102.5t-106 260.5q0 159 106.5 263t265.5 104t265.5 -104t106.5 -263zM432 110q104 0 169.5 70.5t65.5 174.5q0 103 -65.5 174t-169.5 71t-169 -70.5t-65 -174.5q0 -105 64.5 -175
t169.5 -70z" />
    <glyph glyph-name="R" unicode="R" horiz-adv-x="809" 
d="M98 0v710h397q118 0 180.5 -54t62.5 -158q0 -72 -36 -121.5t-104 -70.5l167 -306h-142l-161 292h-230v-292h-134zM484 591h-252v-182h252q116 0 116 89q0 93 -116 93z" />
    <glyph glyph-name="S" unicode="S" horiz-adv-x="755" 
d="M350 609q-72 0 -110 -22.5t-38 -62.5q0 -71 116 -85q2 0 125 -13q251 -23 251 -218q0 -100 -78 -160.5t-224 -60.5q-83 0 -147.5 19.5t-104.5 53t-63 69.5t-34 77h143q18 -42 68 -73.5t138 -31.5q79 0 122 27t43 71q0 48 -31.5 70t-91.5 29l-126 13q-110 10 -176 63.5
t-66 145.5q0 94 78 148.5t206 54.5q80 0 141.5 -17.5t98.5 -47.5t57.5 -62.5t29.5 -69.5h-137q-52 83 -190 83z" />
    <glyph glyph-name="T" unicode="T" horiz-adv-x="772" 
d="M37 590v120h698v-120h-282v-590h-134v590h-282z" />
    <glyph glyph-name="U" unicode="U" horiz-adv-x="842" 
d="M422 111q91 0 142 55t51 149v395h133v-404q0 -139 -86 -229.5t-240 -90.5q-159 0 -243.5 89t-84.5 231v404h135v-395q0 -94 50.5 -149t142.5 -55z" />
    <glyph glyph-name="V" unicode="V" horiz-adv-x="809" 
d="M780 710l-304 -712h-134l-313 712h154l229 -544l230 544h138z" />
    <glyph glyph-name="W" unicode="W" horiz-adv-x="1138" 
d="M751 -3l-180 516l-181 -516h-116l-241 713h146l163 -509l174 512h119l175 -513l163 510h132l-234 -713h-120z" />
    <glyph glyph-name="X" unicode="X" horiz-adv-x="828" 
d="M637 0l-227 266l-230 -266h-158l308 359l-300 351h176l211 -250l214 250h162l-297 -344l310 -366h-169z" />
    <glyph glyph-name="Y" unicode="Y" horiz-adv-x="782" 
d="M465 300v-300h-138v299l-319 411h171l221 -289l220 289h154z" />
    <glyph glyph-name="Z" unicode="Z" horiz-adv-x="791" 
d="M751 120v-120h-700v77l442 514h-432v119h643v-77l-446 -513h493z" />
    <glyph glyph-name="bracketleft" unicode="[" horiz-adv-x="385" 
d="M94 -124v946h269v-97h-158v-752h158v-97h-269z" />
    <glyph glyph-name="backslash" unicode="\" horiz-adv-x="422" 
d="M395 -70h-112l-250 830h113z" />
    <glyph glyph-name="bracketright" unicode="]" horiz-adv-x="385" 
d="M23 725v97h268v-946h-268v97h157v752h-157z" />
    <glyph glyph-name="asciicircum" unicode="^" horiz-adv-x="585" 
d="M422 263l-131 298l-132 -298h-125l201 453h113l202 -453h-128z" />
    <glyph glyph-name="underscore" unicode="_" horiz-adv-x="617" 
d="M34 -153v93h549v-93h-549z" />
    <glyph glyph-name="grave" unicode="`" 
d="M421 580h-126l-116 187h133z" />
    <glyph glyph-name="a" unicode="a" horiz-adv-x="668" 
d="M459 0v80q-5 -11 -16 -23.5t-30.5 -29t-52.5 -27.5t-72 -11q-101 0 -169.5 72t-68.5 192t69 192t170 72q49 0 88.5 -18.5t56 -36t24.5 -32.5v76h128v-506h-127zM460 253q0 65 -38.5 108.5t-99.5 43.5q-64 0 -103 -43t-39 -109t39 -109t103 -43q61 0 99.5 43.5t38.5 108.5
z" />
    <glyph glyph-name="b" unicode="b" horiz-adv-x="674" 
d="M208 77v-77h-125v736h126v-310q6 11 17 23t31.5 29t53.5 28t72 11q103 0 172 -72t69 -192t-69 -192t-172 -72q-71 0 -116.5 31t-58.5 57zM207 253q0 -66 40 -109t104 -43t103.5 43t39.5 109t-39.5 109t-103.5 43t-104 -43t-40 -109z" />
    <glyph glyph-name="c" unicode="c" horiz-adv-x="601" 
d="M558 339h-127q-41 67 -120 67q-58 0 -95 -44t-37 -109t37 -109t96 -44q79 0 119 64q1 2 2 3h125q-2 -18 -10 -39.5t-27.5 -47t-46 -45.5t-70 -34t-94.5 -14q-111 0 -186 75t-75 191t74.5 191t185.5 75q63 0 113 -20t77 -50t41 -58t18 -52z" />
    <glyph glyph-name="d" unicode="d" horiz-adv-x="676" 
d="M466 0v80q-8 -15 -24.5 -33t-58 -38t-92.5 -20q-102 0 -171.5 72t-69.5 192t69.5 192t171.5 72q50 0 91.5 -19t58 -36t24.5 -32v306h128v-736h-127zM467 253q0 66 -39 109t-103 43q-65 0 -105 -43t-40 -109t40 -109t105 -43q64 0 103 43t39 109z" />
    <glyph glyph-name="e" unicode="e" horiz-adv-x="624" 
d="M314 519q118 0 191.5 -75t73.5 -198v-14h-402q4 -60 44.5 -99.5t102.5 -39.5q88 0 123 55h126q-3 -22 -18.5 -47.5t-43.5 -52t-77 -44t-110 -17.5q-122 0 -198.5 75.5t-76.5 190.5q0 117 74.5 191.5t190.5 74.5zM314 420q-52 0 -86.5 -26.5t-46.5 -73.5h264
q-30 100 -131 100z" />
    <glyph glyph-name="f" unicode="f" horiz-adv-x="504" 
d="M476 398h-181v-398h-128v398h-139v108h139v74q0 156 169 156h218v-102h-179q-80 0 -80 -79v-49h181v-108z" />
    <glyph glyph-name="g" unicode="g" horiz-adv-x="674" 
d="M465 13v70q-5 -11 -17 -24t-32.5 -29.5t-53.5 -27.5t-71 -11q-102 0 -171.5 71.5t-69.5 191.5t69.5 191.5t171.5 71.5q50 0 91 -19.5t57 -36.5t25 -32v77h128v-495q0 -108 -69.5 -172t-202.5 -64q-68 0 -121.5 19t-82.5 47t-43.5 51t-18.5 41h147q42 -52 119 -52
q69 0 107 34.5t38 97.5zM466 254q0 65 -39.5 108t-102.5 43q-65 0 -104.5 -43t-39.5 -108q0 -64 39.5 -107.5t104.5 -43.5q63 0 102.5 43.5t39.5 107.5z" />
    <glyph glyph-name="h" unicode="h" horiz-adv-x="665" 
d="M210 270v-270h-127v736h127v-315q19 35 62.5 65.5t105.5 30.5q94 0 152.5 -62t58.5 -160v-295h-129v270q0 60 -33 96.5t-90 36.5t-92 -36.5t-35 -96.5z" />
    <glyph glyph-name="i" unicode="i" horiz-adv-x="295" 
d="M81 587v152h133v-152h-133zM84 0v506h128v-506h-128z" />
    <glyph glyph-name="j" unicode="j" horiz-adv-x="296" 
d="M81 587v152h134v-152h-134zM212 506v-548q0 -87 -41 -129t-125 -42h-157v105h114q42 0 61.5 20t19.5 62v532h128z" />
    <glyph glyph-name="k" unicode="k" horiz-adv-x="622" 
d="M451 0l-242 230v-230h-126v736h126v-436l232 206h167l-269 -236l283 -270h-171z" />
    <glyph glyph-name="l" unicode="l" horiz-adv-x="297" 
d="M85 0v736h128v-736h-128z" />
    <glyph glyph-name="m" unicode="m" horiz-adv-x="1033" 
d="M210 270v-270h-127v506h127v-85q17 35 61.5 65.5t104.5 30.5q64 0 112 -30t72 -83q59 113 186 113q95 0 152.5 -62t57.5 -160v-295h-128v270q0 61 -32 97t-88 36q-57 0 -91 -36.5t-34 -96.5v-270h-128v270q0 61 -32 97t-88 36q-57 0 -91 -36.5t-34 -96.5z" />
    <glyph glyph-name="n" unicode="n" horiz-adv-x="665" 
d="M210 270v-270h-127v506h127v-85q19 35 62.5 65.5t105.5 30.5q94 0 152.5 -62t58.5 -160v-295h-129v270q0 60 -33 96.5t-90 36.5t-92 -36.5t-35 -96.5z" />
    <glyph glyph-name="o" unicode="o" horiz-adv-x="643" 
d="M322 519q116 0 194 -75.5t78 -190.5t-78 -190.5t-194 -75.5q-117 0 -195 75.5t-78 190.5t78 190.5t195 75.5zM322 101q63 0 103 43.5t40 108.5t-40 108.5t-103 43.5t-103.5 -44t-40.5 -108t40.5 -108t103.5 -44z" />
    <glyph glyph-name="p" unicode="p" horiz-adv-x="674" 
d="M209 77v-289h-126v718h127v-80q11 25 57.5 58t116.5 33q102 0 171 -72t69 -192t-69 -192t-171 -72q-71 0 -116.5 30.5t-58.5 57.5zM208 253q0 -66 39.5 -109t103.5 -43q65 0 104.5 43t39.5 109t-39.5 109t-104.5 43q-64 0 -103.5 -43t-39.5 -109z" />
    <glyph glyph-name="q" unicode="q" horiz-adv-x="676" 
d="M466 -213v293q-8 -15 -24.5 -33t-58 -38t-92.5 -20q-102 0 -171.5 72t-69.5 192t69.5 192t172.5 72q49 0 90 -19t57.5 -36t25.5 -32v76h128v-719h-127zM467 253q0 66 -39.5 109t-102.5 43q-65 0 -105 -43t-40 -109t40 -109t105 -43q63 0 102.5 43.5t39.5 108.5z" />
    <glyph glyph-name="r" unicode="r" horiz-adv-x="523" 
d="M210 266v-266h-127v506h127v-85q39 88 164 88h118v-127h-135q-80 0 -113.5 -27.5t-33.5 -88.5z" />
    <glyph glyph-name="s" unicode="s" horiz-adv-x="578" 
d="M327 198q-38 3 -89 9q-86 6 -136 46.5t-50 111.5t60.5 113t162.5 42q64 0 112.5 -15t75.5 -39t40.5 -45t19.5 -44h-135q-38 46 -114 46q-45 0 -69 -13.5t-24 -37.5q0 -43 72 -53l86 -9q102 -9 147.5 -48.5t45.5 -115.5q0 -73 -60.5 -116.5t-173.5 -43.5q-53 0 -97.5 12
t-72 29.5t-48 39.5t-29.5 40.5t-12 34.5h137q4 -9 14.5 -20.5t39.5 -24t68 -12.5q51 0 77.5 15.5t26.5 40.5q0 24 -17 38t-58 19z" />
    <glyph glyph-name="t" unicode="t" horiz-adv-x="529" 
d="M482 114v-114h-140q-175 0 -175 165v232h-139v109h139v204h128v-204h187v-109h-187v-193q0 -49 19.5 -69.5t70.5 -20.5h97z" />
    <glyph glyph-name="u" unicode="u" horiz-adv-x="652" 
d="M328 -11q-118 0 -184.5 65t-66.5 169v283h128v-269q0 -60 31.5 -95.5t89.5 -35.5t89.5 35.5t31.5 95.5v269h129v-283q0 -104 -66.5 -169t-181.5 -65z" />
    <glyph glyph-name="v" unicode="v" 
d="M586 506l-223 -513h-120l-230 513h144l149 -354l149 354h131z" />
    <glyph glyph-name="w" unicode="w" horiz-adv-x="894" 
d="M576 -4l-129 352l-128 -352h-112l-189 510h139l117 -340l125 344h113l124 -341l116 337h124l-185 -510h-115z" />
    <glyph glyph-name="x" unicode="x" horiz-adv-x="629" 
d="M459 0l-148 167l-150 -167h-147l224 250l-225 256h164l143 -165l148 165h148l-223 -248l223 -258h-157z" />
    <glyph glyph-name="y" unicode="y" horiz-adv-x="599" 
d="M585 506l-312 -719h-128l96 222l-228 497h144l149 -344l149 344h130z" />
    <glyph glyph-name="z" unicode="z" horiz-adv-x="621" 
d="M585 107v-107h-536v71l305 329h-297v106h491v-69l-309 -330h346z" />
    <glyph glyph-name="braceleft" unicode="{" horiz-adv-x="399" 
d="M376 -27v-97h-120q-85 0 -123 42.5t-24 128.5l27 184q10 69 -62 69h-37v98h37q72 0 62 69l-27 184q-14 85 24 128t123 43h120v-97h-89q-39 0 -57.5 -18.5t-12.5 -53.5l26 -176q9 -56 -14.5 -87.5t-66.5 -40.5q99 -21 81 -128l-26 -172q-12 -76 70 -76h89z" />
    <glyph glyph-name="bar" unicode="|" horiz-adv-x="326" 
d="M106 -116v938h114v-938h-114z" />
    <glyph glyph-name="braceright" unicode="}" horiz-adv-x="400" 
d="M263 231l27 -184q14 -86 -24 -128.5t-123 -42.5h-120v97h89q82 0 70 76l-26 172q-17 108 81 128q-98 20 -81 128l26 176q6 35 -12.5 53.5t-57.5 18.5h-89v97h120q85 0 123 -43t24 -128l-27 -184q-10 -69 62 -69h38v-98h-38q-72 0 -62 -69z" />
    <glyph glyph-name="asciitilde" unicode="~" horiz-adv-x="718" 
d="M370 476l62 -84q10 -15 16 -22t16 -14t21 -7q35 0 35 49v181h122v-197q1 -79 -36 -123.5t-107 -44.5q-48 0 -81.5 23.5t-69.5 72.5l-62 85q-2 2 -5.5 7t-5 7t-5 6t-5 6t-4.5 5t-5 4.5t-5 3t-5.5 2.5t-6 1.5t-6.5 0.5q-35 0 -35 -49v-178h-123v194q0 78 37 123t107 45
q48 0 81 -23.5t70 -73.5z" />
    <glyph glyph-name="uni00A0" unicode="&#xa0;" horiz-adv-x="258" 
 />
    <glyph glyph-name="exclamdown" unicode="&#xa1;" horiz-adv-x="342" 
d="M94 347v159h153v-159h-153zM108 -204v475h125v-475h-125z" />
    <glyph glyph-name="cent" unicode="&#xa2;" horiz-adv-x="583" 
d="M408 162h123q-2 -20 -12 -43.5t-28.5 -49.5t-53 -47.5t-78.5 -29.5v-113h-109v113q-85 18 -138 89t-53 172t53 172t138 89v113h109v-113q80 -16 122 -68t47 -100h-123q-31 61 -101 61q-52 0 -83.5 -43.5t-31.5 -110.5t31.5 -110.5t83.5 -43.5q72 0 104 63z" />
    <glyph glyph-name="sterling" unicode="&#xa3;" horiz-adv-x="704" 
d="M664 115v-115h-608v115h113v150h-113v116h113v127q0 102 56.5 158t161.5 56q106 0 162 -55.5t56 -158.5v-33h-124v30q0 50 -24.5 76.5t-69.5 26.5q-92 0 -92 -103v-124h202v-116h-202v-150h369z" />
    <glyph glyph-name="yen" unicode="&#xa5;" horiz-adv-x="704" 
d="M614 136h-189v-136h-137v136h-188v94h188v75h-188v93h181l-242 312h165l156 -208l156 208h149l-234 -312h183v-93h-189v-75h189v-94z" />
    <glyph glyph-name="brokenbar" unicode="&#xa6;" horiz-adv-x="326" 
d="M106 411v411h114v-411h-114zM106 -116v424h114v-424h-114z" />
    <glyph glyph-name="section" unicode="&#xa7;" horiz-adv-x="684" 
d="M553 -21v-23q0 -90 -56 -141t-153 -51q-103 0 -155.5 50t-52.5 143v41h124v-38q0 -42 22.5 -65t61.5 -23t61 22.5t22 64.5v13q0 36 -15.5 56.5t-51.5 28.5l-152 33q-157 34 -157 174q0 56 34 92.5t92 46.5q-44 44 -44 133v20q0 90 56.5 141.5t152.5 51.5q100 0 154 -50.5
t54 -143.5v-39h-124v37q0 44 -22 66.5t-62 22.5q-39 0 -61 -22.5t-22 -64.5v-14q0 -36 15.5 -56.5t51.5 -28.5l150 -33q80 -17 118.5 -59t38.5 -114q0 -55 -31 -91.5t-90 -49.5q41 -42 41 -130zM439 309l-155 33q-48 10 -77 -8t-29 -57q0 -59 67 -72l155 -33q47 -11 76.5 7
t29.5 57q0 29 -18 48t-49 25z" />
    <glyph glyph-name="dieresis" unicode="&#xa8;" 
d="M132 587v149h127v-149h-127zM341 587v149h127v-149h-127z" />
    <glyph glyph-name="copyright" unicode="&#xa9;" horiz-adv-x="867" 
d="M433 -12q-159 0 -263.5 105t-104.5 262q0 156 105.5 261.5t262.5 105.5q158 0 263.5 -105.5t105.5 -261.5t-105.5 -261.5t-263.5 -105.5zM433 68q125 0 203 82t78 205q0 122 -78 204.5t-203 82.5q-126 0 -203.5 -82t-77.5 -205q0 -124 78 -205.5t203 -81.5zM349 357
q0 -44 23.5 -74t64.5 -30q30 0 50 14t27 29h100q-5 -49 -49.5 -93.5t-127.5 -44.5q-84 0 -139 57t-55 142q0 84 55.5 141.5t138.5 57.5q78 0 122.5 -43t52.5 -91h-102q-28 39 -73 39q-41 0 -64.5 -29t-23.5 -75z" />
    <glyph glyph-name="ordfeminine" unicode="&#xaa;" horiz-adv-x="561" 
d="M362 276v60q-6 -13 -17.5 -27t-40 -28.5t-64.5 -14.5q-80 0 -131 61.5t-51 165.5q0 105 51 166t131 61q28 0 51 -8t37 -20.5t21.5 -21.5t11.5 -18v58h120v-434h-119zM362 493q0 57 -24 90t-66 33q-44 0 -67.5 -33t-23.5 -90q0 -56 24 -89.5t67 -33.5q42 0 66 33.5
t24 89.5z" />
    <glyph glyph-name="guillemotleft" unicode="&#xab;" horiz-adv-x="578" 
d="M285 473l-107 -183l107 -185h-121l-104 184l105 184h120zM515 473l-109 -183l109 -185h-121l-105 184l106 184h120z" />
    <glyph glyph-name="registered" unicode="&#xae;" horiz-adv-x="596" 
d="M298 225q-108 0 -179.5 71.5t-71.5 177.5t72 177.5t179 71.5q106 0 178.5 -71.5t72.5 -177.5q0 -105 -72.5 -177t-178.5 -72zM298 286q82 0 133 54t51 134q0 81 -50.5 134.5t-133.5 53.5t-133.5 -53.5t-50.5 -134.5q0 -80 51 -134t133 -54zM191 355v245h131q97 0 97 -83
q0 -50 -40 -69l44 -93h-74l-38 82h-48v-82h-72zM318 539h-55v-44h55q29 0 29 22t-29 22z" />
    <glyph glyph-name="macron" unicode="&#xaf;" horiz-adv-x="500" 
d="M412 613h-324v101h324v-101z" />
    <glyph glyph-name="degree" unicode="&#xb0;" horiz-adv-x="540" 
d="M270 340q-82 0 -136.5 54.5t-54.5 136.5t54.5 136.5t136.5 54.5t136.5 -54.5t54.5 -136.5t-54.5 -136.5t-136.5 -54.5zM270 430q44 0 70.5 28.5t26.5 72.5t-26.5 72.5t-70.5 28.5t-70.5 -28.5t-26.5 -72.5t26.5 -72.5t70.5 -28.5z" />
    <glyph glyph-name="two.sup" unicode="&#xb2;" horiz-adv-x="491" 
d="M452 332v-96h-391v72l184 168q34 33 48 55t14 49q0 30 -18.5 48t-51.5 18q-34 0 -52.5 -20.5t-18.5 -55.5v-24h-109v26q0 77 48 124.5t133 47.5q86 0 135 -43.5t49 -115.5q0 -54 -25.5 -91t-83.5 -90l-80 -72h219z" />
    <glyph glyph-name="three.sup" unicode="&#xb3;" horiz-adv-x="503" 
d="M445 378q0 -69 -52 -110t-145 -41q-95 0 -145.5 46.5t-54.5 106.5h115q5 -22 26 -39.5t59 -17.5t60 17t22 46q0 59 -71 59h-95v94h88q64 0 64 54q0 26 -20 41.5t-53 15.5q-62 0 -73 -54h-112q3 60 50.5 104t134.5 44q89 0 137.5 -38t48.5 -105q0 -38 -21 -64t-47 -36
q33 -10 58.5 -40.5t25.5 -82.5z" />
    <glyph glyph-name="acute" unicode="&#xb4;" 
d="M179 580l109 187h133l-116 -187h-126z" />
    <glyph glyph-name="paragraph" unicode="&#xb6;" horiz-adv-x="689" 
d="M40 516q0 88 58.5 141t153.5 53h339v-710h-101v614h-105v-614h-102v321h-31q-94 0 -153 54t-59 141z" />
    <glyph glyph-name="periodcentered" unicode="&#xb7;" horiz-adv-x="313" 
d="M80 277v170h153v-170h-153z" />
    <glyph glyph-name="cedilla" unicode="&#xb8;" 
d="M330 -156q0 30 -36 30h-91v126h100v-49h9q124 0 124 -110q0 -53 -31.5 -85t-92.5 -32h-146v88h128q36 0 36 32z" />
    <glyph glyph-name="one.sup" unicode="&#xb9;" horiz-adv-x="370" 
d="M282 738v-502h-113v378l-125 -69v103l153 90h85z" />
    <glyph glyph-name="ordmasculine" unicode="&#xba;" horiz-adv-x="560" 
d="M280 723q96 0 156.5 -63.5t60.5 -166.5q0 -102 -60.5 -165t-156.5 -63t-156.5 63t-60.5 165q0 103 60.5 166.5t156.5 63.5zM280 368q46 0 71 35t25 90t-25 90.5t-71 35.5t-70.5 -35t-24.5 -91q0 -55 24.5 -90t70.5 -35z" />
    <glyph glyph-name="guillemotright" unicode="&#xbb;" horiz-adv-x="578" 
d="M519 289l-106 -184h-120l108 183l-108 185h121zM290 289l-106 -184h-121l109 183l-109 185h121z" />
    <glyph glyph-name="onequarter" unicode="&#xbc;" horiz-adv-x="981" 
d="M947 109h-84v-109h-107v109h-223v75l197 251h133v-239h84v-87zM640 196h116v151zM259 712v-437h-111v319l-109 -59v98l137 79h83zM279 0h-113l448 710h114z" />
    <glyph glyph-name="onehalf" unicode="&#xbd;" horiz-adv-x="975" 
d="M259 712v-437h-111v319l-109 -59v98l137 79h83zM278 0h-113l448 710h114zM939 92v-92h-349v70l163 146q27 26 38.5 43t11.5 37q0 24 -14.5 38t-40.5 14q-27 0 -42.5 -16.5t-15.5 -43.5v-20h-104v21q0 68 43 110.5t119 42.5q78 0 122 -38.5t44 -102.5q0 -46 -23 -79.5
t-73 -75.5l-62 -54h183z" />
    <glyph glyph-name="threequarters" unicode="&#xbe;" horiz-adv-x="1079" 
d="M399 401q0 -61 -47.5 -97t-131.5 -36q-85 0 -130.5 42t-48.5 94h111q3 -17 20 -31t48 -14q67 0 67 49q0 45 -54 45h-86v90h80q47 0 47 40q0 22 -15.5 34t-42.5 12q-52 0 -59 -43h-109q3 53 46 92t122 39q81 0 124.5 -32.5t43.5 -92.5q0 -62 -57 -85q30 -10 51 -36t21 -70
zM1044 109h-84v-109h-107v109h-223v75l197 251h133v-239h84v-87zM737 196h116v151zM377 0h-113l448 710h114z" />
    <glyph glyph-name="questiondown" unicode="&#xbf;" horiz-adv-x="547" 
d="M265 267v4h128v-22q0 -47 -15.5 -72t-64.5 -57l-70 -45q-68 -44 -68 -98q0 -39 24.5 -62t68.5 -23t69 27t25 71v29h124v-36q0 -91 -58.5 -145t-159.5 -54q-105 0 -163 51t-58 142q0 66 31 109.5t97 84.5l61 39q29 20 29 57zM405 506v-159h-152v159h152z" />
    <glyph glyph-name="Agrave" unicode="&#xc0;" horiz-adv-x="816" 
d="M648 0l-65 146h-358l-65 -146h-135l319 713h127l320 -713h-143zM276 262h256l-128 287zM475 773h-136l-120 156h144z" />
    <glyph glyph-name="Aacute" unicode="&#xc1;" horiz-adv-x="816" 
d="M648 0l-65 146h-358l-65 -146h-135l319 713h127l320 -713h-143zM276 262h256l-128 287zM340 773l112 156h144l-120 -156h-136z" />
    <glyph glyph-name="Acircumflex" unicode="&#xc2;" horiz-adv-x="816" 
d="M648 0l-65 146h-358l-65 -146h-135l319 713h127l320 -713h-143zM276 262h256l-128 287zM480 771l-73 83l-73 -83h-125l139 161h118l136 -161h-122z" />
    <glyph glyph-name="Atilde" unicode="&#xc3;" horiz-adv-x="816" 
d="M648 0l-65 146h-358l-65 -146h-135l319 713h127l320 -713h-143zM276 262h256l-128 287zM409 807l-38 20q-26 12 -35 12q-16 0 -16 -22v-48h-93v77q0 96 84 96q16 0 34.5 -6t25.5 -9.5t34 -18.5l38 -19q28 -13 34 -13q17 0 17 23v48h93v-77q0 -45 -21.5 -70.5t-62.5 -25.5
q-17 0 -34.5 5.5t-26 9.5t-33.5 18z" />
    <glyph glyph-name="Adieresis" unicode="&#xc4;" horiz-adv-x="816" 
d="M648 0l-65 146h-358l-65 -146h-135l319 713h127l320 -713h-143zM276 262h256l-128 287zM233 773v149h127v-149h-127zM454 773v149h127v-149h-127z" />
    <glyph glyph-name="Aring" unicode="&#xc5;" horiz-adv-x="816" 
d="M648 0l-65 146h-358l-65 -146h-135l319 713h127l320 -713h-143zM276 262h256l-128 287zM407 763q-59 0 -97.5 38.5t-38.5 94.5t39 94t97 38t97.5 -38t39.5 -94t-39 -94.5t-98 -38.5zM407 835q26 0 43 17.5t17 43.5t-16.5 43t-43.5 17t-43.5 -17t-16.5 -43t17 -43.5
t43 -17.5z" />
    <glyph glyph-name="AE" unicode="&#xc6;" horiz-adv-x="1170" 
d="M1131 119v-119h-596v165h-281l-108 -165h-149l468 710h626v-116h-422v-162h244v-117h-244v-196h462zM329 280h206v316z" />
    <glyph glyph-name="Ccedilla" unicode="&#xc7;" horiz-adv-x="803" 
d="M418 -12q-155 0 -256.5 105t-101.5 262t101.5 262t256.5 105q77 0 140.5 -23.5t101 -61t59.5 -74t30 -71.5h-138q-23 40 -70.5 73.5t-122.5 33.5q-97 0 -158 -71t-61 -173t61 -173t158 -71q81 0 128 34t67 74h136q-5 -25 -18 -53t-40 -60.5t-62.5 -58t-90.5 -42.5
t-120 -17zM467 -156q0 30 -36 30h-91v126h100v-49h9q124 0 124 -110q0 -53 -31.5 -85t-92.5 -32h-146v88h128q36 0 36 32z" />
    <glyph glyph-name="Egrave" unicode="&#xc8;" horiz-adv-x="752" 
d="M98 0v710h575v-116h-441v-162h263v-117h-263v-196h481v-119h-615zM464 773h-136l-120 156h144z" />
    <glyph glyph-name="Eacute" unicode="&#xc9;" horiz-adv-x="752" 
d="M98 0v710h575v-116h-441v-162h263v-117h-263v-196h481v-119h-615zM321 773l112 156h144l-120 -156h-136z" />
    <glyph glyph-name="Ecircumflex" unicode="&#xca;" horiz-adv-x="752" 
d="M98 0v710h575v-116h-441v-162h263v-117h-263v-196h481v-119h-615zM469 771l-73 83l-73 -83h-125l139 161h118l136 -161h-122z" />
    <glyph glyph-name="Edieresis" unicode="&#xcb;" horiz-adv-x="752" 
d="M98 0v710h575v-116h-441v-162h263v-117h-263v-196h481v-119h-615zM222 773v149h127v-149h-127zM443 773v149h127v-149h-127z" />
    <glyph glyph-name="Igrave" unicode="&#xcc;" horiz-adv-x="333" 
d="M99 0v710h135v-710h-135zM234 773h-136l-120 156h144z" />
    <glyph glyph-name="Iacute" unicode="&#xcd;" horiz-adv-x="333" 
d="M99 0v710h135v-710h-135zM99 773l112 156h144l-120 -156h-136z" />
    <glyph glyph-name="Icircumflex" unicode="&#xce;" horiz-adv-x="333" 
d="M99 0v710h135v-710h-135zM239 771l-73 83l-73 -83h-125l139 161h118l136 -161h-122z" />
    <glyph glyph-name="Idieresis" unicode="&#xcf;" horiz-adv-x="333" 
d="M99 0v710h135v-710h-135zM-8 773v149h127v-149h-127zM213 773v149h127v-149h-127z" />
    <glyph glyph-name="Eth" unicode="&#xd0;" horiz-adv-x="852" 
d="M12 300v116h111v294h287q173 0 276.5 -94.5t103.5 -260.5q0 -164 -103.5 -259.5t-276.5 -95.5h-287v300h-111zM408 592h-151v-176h212v-116h-212v-182h151q112 0 178.5 63.5t66.5 173.5q0 112 -66.5 174.5t-178.5 62.5z" />
    <glyph glyph-name="Ntilde" unicode="&#xd1;" horiz-adv-x="862" 
d="M764 710v-713h-105l-431 544v-541h-130v710h156l381 -487v487h129zM443 807l-38 20q-26 12 -35 12q-16 0 -16 -22v-48h-93v77q0 96 84 96q16 0 34.5 -6t25.5 -9.5t34 -18.5l38 -19q28 -13 34 -13q17 0 17 23v48h93v-77q0 -45 -21.5 -70.5t-62.5 -25.5q-17 0 -34.5 5.5
t-26 9.5t-33.5 18z" />
    <glyph glyph-name="Ograve" unicode="&#xd2;" horiz-adv-x="864" 
d="M432 -12q-160 0 -266 104t-106 263t106.5 263t265.5 104t265.5 -104t106.5 -263q0 -158 -106.5 -262.5t-265.5 -104.5zM432 110q104 0 169.5 70.5t65.5 174.5q0 103 -65.5 174t-169.5 71t-169 -70.5t-65 -174.5q0 -105 64.5 -175t169.5 -70zM500 773h-136l-120 156h144z
" />
    <glyph glyph-name="Oacute" unicode="&#xd3;" horiz-adv-x="864" 
d="M432 -12q-160 0 -266 104t-106 263t106.5 263t265.5 104t265.5 -104t106.5 -263q0 -158 -106.5 -262.5t-265.5 -104.5zM432 110q104 0 169.5 70.5t65.5 174.5q0 103 -65.5 174t-169.5 71t-169 -70.5t-65 -174.5q0 -105 64.5 -175t169.5 -70zM365 773l112 156h144
l-120 -156h-136z" />
    <glyph glyph-name="Ocircumflex" unicode="&#xd4;" horiz-adv-x="864" 
d="M432 -12q-160 0 -266 104t-106 263t106.5 263t265.5 104t265.5 -104t106.5 -263q0 -158 -106.5 -262.5t-265.5 -104.5zM432 110q104 0 169.5 70.5t65.5 174.5q0 103 -65.5 174t-169.5 71t-169 -70.5t-65 -174.5q0 -105 64.5 -175t169.5 -70zM505 771l-73 83l-73 -83h-125
l139 161h118l136 -161h-122z" />
    <glyph glyph-name="Otilde" unicode="&#xd5;" horiz-adv-x="864" 
d="M432 -12q-160 0 -266 104t-106 263t106.5 263t265.5 104t265.5 -104t106.5 -263q0 -158 -106.5 -262.5t-265.5 -104.5zM432 110q104 0 169.5 70.5t65.5 174.5q0 103 -65.5 174t-169.5 71t-169 -70.5t-65 -174.5q0 -105 64.5 -175t169.5 -70zM434 807l-38 20
q-26 12 -35 12q-16 0 -16 -22v-48h-93v77q0 96 84 96q16 0 34.5 -6t25.5 -9.5t34 -18.5l38 -19q28 -13 34 -13q17 0 17 23v48h93v-77q0 -45 -21.5 -70.5t-62.5 -25.5q-17 0 -34.5 5.5t-26 9.5t-33.5 18z" />
    <glyph glyph-name="Odieresis" unicode="&#xd6;" horiz-adv-x="864" 
d="M432 -12q-160 0 -266 104t-106 263t106.5 263t265.5 104t265.5 -104t106.5 -263q0 -158 -106.5 -262.5t-265.5 -104.5zM432 110q104 0 169.5 70.5t65.5 174.5q0 103 -65.5 174t-169.5 71t-169 -70.5t-65 -174.5q0 -105 64.5 -175t169.5 -70zM258 773v149h127v-149h-127z
M479 773v149h127v-149h-127z" />
    <glyph glyph-name="multiply" unicode="&#xd7;" horiz-adv-x="660" 
d="M581 135l-82 -79l-171 171l-170 -171l-80 78l171 172l-171 171l84 83l169 -171l170 171l80 -78l-172 -173z" />
    <glyph glyph-name="Oslash" unicode="&#xd8;" horiz-adv-x="864" 
d="M804 355q0 -158 -106.5 -262.5t-265.5 -104.5q-116 0 -207 59l-42 -47h-142l105 116q-86 100 -86 239q0 159 106.5 263t265.5 104q114 0 205 -59l42 47h145l-106 -118q86 -99 86 -237zM197 355q0 -79 36 -142l322 358q-52 31 -123 31q-104 0 -169.5 -71.5t-65.5 -175.5z
M667 355q0 80 -36 141l-323 -357q53 -31 124 -31q104 0 169.5 70.5t65.5 176.5z" />
    <glyph glyph-name="Ugrave" unicode="&#xd9;" horiz-adv-x="842" 
d="M422 111q91 0 142 55t51 149v395h133v-404q0 -139 -86 -229.5t-240 -90.5q-159 0 -243.5 89t-84.5 231v404h135v-395q0 -94 50.5 -149t142.5 -55zM498 773h-136l-120 156h144z" />
    <glyph glyph-name="Uacute" unicode="&#xda;" horiz-adv-x="842" 
d="M422 111q91 0 142 55t51 149v395h133v-404q0 -139 -86 -229.5t-240 -90.5q-159 0 -243.5 89t-84.5 231v404h135v-395q0 -94 50.5 -149t142.5 -55zM344 773l112 156h144l-120 -156h-136z" />
    <glyph glyph-name="Ucircumflex" unicode="&#xdb;" horiz-adv-x="842" 
d="M422 111q91 0 142 55t51 149v395h133v-404q0 -139 -86 -229.5t-240 -90.5q-159 0 -243.5 89t-84.5 231v404h135v-395q0 -94 50.5 -149t142.5 -55zM494 771l-73 83l-73 -83h-125l139 161h118l136 -161h-122z" />
    <glyph glyph-name="Udieresis" unicode="&#xdc;" horiz-adv-x="842" 
d="M422 111q91 0 142 55t51 149v395h133v-404q0 -139 -86 -229.5t-240 -90.5q-159 0 -243.5 89t-84.5 231v404h135v-395q0 -94 50.5 -149t142.5 -55zM247 773v149h127v-149h-127zM468 773v149h127v-149h-127z" />
    <glyph glyph-name="Yacute" unicode="&#xdd;" horiz-adv-x="782" 
d="M465 300v-300h-138v299l-319 411h171l221 -289l220 289h154zM323 773l112 156h144l-120 -156h-136z" />
    <glyph glyph-name="Thorn" unicode="&#xde;" horiz-adv-x="790" 
d="M497 152h-265v-152h-134v710h134v-135h265q117 0 179 -53.5t62 -156.5q0 -101 -62.5 -157t-178.5 -56zM490 455h-258v-184h258q53 0 81.5 25t28.5 67q0 92 -110 92z" />
    <glyph glyph-name="germandbls" unicode="&#xdf;" horiz-adv-x="658" 
d="M212 519v-519h-129v524q0 107 62.5 165.5t177.5 58.5q111 0 176 -52.5t65 -144.5q0 -58 -27 -94.5t-66 -50.5q57 -15 97.5 -64t40.5 -125q0 -100 -62 -158.5t-174 -58.5h-84v114h64q62 0 94 28.5t32 80.5t-32 80.5t-94 28.5h-64v112h40q50 0 78 24t28 71q0 46 -30.5 71
t-81.5 25q-52 0 -81.5 -29.5t-29.5 -86.5z" />
    <glyph glyph-name="agrave" unicode="&#xe0;" horiz-adv-x="668" 
d="M459 0v80q-5 -11 -16 -23.5t-30.5 -29t-52.5 -27.5t-72 -11q-101 0 -169.5 72t-68.5 192t69 192t170 72q49 0 88.5 -18.5t56 -36t24.5 -32.5v76h128v-506h-127zM460 253q0 65 -38.5 108.5t-99.5 43.5q-64 0 -103 -43t-39 -109t39 -109t103 -43q61 0 99.5 43.5t38.5 108.5
zM384 580h-126l-116 187h133z" />
    <glyph glyph-name="aacute" unicode="&#xe1;" horiz-adv-x="668" 
d="M459 0v80q-5 -11 -16 -23.5t-30.5 -29t-52.5 -27.5t-72 -11q-101 0 -169.5 72t-68.5 192t69 192t170 72q49 0 88.5 -18.5t56 -36t24.5 -32.5v76h128v-506h-127zM460 253q0 65 -38.5 108.5t-99.5 43.5q-64 0 -103 -43t-39 -109t39 -109t103 -43q61 0 99.5 43.5t38.5 108.5
zM251 580l109 187h133l-116 -187h-126z" />
    <glyph glyph-name="acircumflex" unicode="&#xe2;" horiz-adv-x="668" 
d="M459 0v80q-5 -11 -16 -23.5t-30.5 -29t-52.5 -27.5t-72 -11q-101 0 -169.5 72t-68.5 192t69 192t170 72q49 0 88.5 -18.5t56 -36t24.5 -32.5v76h128v-506h-127zM460 253q0 65 -38.5 108.5t-99.5 43.5q-64 0 -103 -43t-39 -109t39 -109t103 -43q61 0 99.5 43.5t38.5 108.5
zM389 578l-67 104l-67 -104h-118l129 196h112l126 -196h-115z" />
    <glyph glyph-name="atilde" unicode="&#xe3;" horiz-adv-x="668" 
d="M459 0v80q-5 -11 -16 -23.5t-30.5 -29t-52.5 -27.5t-72 -11q-101 0 -169.5 72t-68.5 192t69 192t170 72q49 0 88.5 -18.5t56 -36t24.5 -32.5v76h128v-506h-127zM460 253q0 65 -38.5 108.5t-99.5 43.5q-64 0 -103 -43t-39 -109t39 -109t103 -43q61 0 99.5 43.5t38.5 108.5
zM243 576h-91v84q0 95 84 95q39 0 88 -36l29 -21q21 -14 31 -14q17 0 17 21v55h91v-83q0 -96 -84 -96q-39 0 -88 36l-29 21q-22 15 -31 15q-17 0 -17 -22v-55z" />
    <glyph glyph-name="adieresis" unicode="&#xe4;" horiz-adv-x="668" 
d="M459 0v80q-5 -11 -16 -23.5t-30.5 -29t-52.5 -27.5t-72 -11q-101 0 -169.5 72t-68.5 192t69 192t170 72q49 0 88.5 -18.5t56 -36t24.5 -32.5v76h128v-506h-127zM460 253q0 65 -38.5 108.5t-99.5 43.5q-64 0 -103 -43t-39 -109t39 -109t103 -43q61 0 99.5 43.5t38.5 108.5
zM154 587v149h127v-149h-127zM363 587v149h127v-149h-127z" />
    <glyph glyph-name="aring" unicode="&#xe5;" horiz-adv-x="668" 
d="M459 0v80q-5 -11 -16 -23.5t-30.5 -29t-52.5 -27.5t-72 -11q-101 0 -169.5 72t-68.5 192t69 192t170 72q49 0 88.5 -18.5t56 -36t24.5 -32.5v76h128v-506h-127zM460 253q0 65 -38.5 108.5t-99.5 43.5q-64 0 -103 -43t-39 -109t39 -109t103 -43q61 0 99.5 43.5t38.5 108.5
zM322 569q-59 0 -97.5 38.5t-38.5 94.5t39 94t97 38t97.5 -38t39.5 -94t-39 -94.5t-98 -38.5zM322 641q26 0 43 17.5t17 43.5t-16.5 43t-43.5 17t-43.5 -17t-16.5 -43t17 -43.5t43 -17.5z" />
    <glyph glyph-name="ae" unicode="&#xe6;" horiz-adv-x="973" 
d="M48 160q0 76 53.5 117t148.5 41h159q0 46 -31.5 72.5t-85.5 26.5q-43 0 -69 -17.5t-32 -33.5h-130q5 22 19.5 46.5t40.5 49.5t70.5 41t99.5 16q136 0 189 -82q27 37 76.5 59.5t111.5 22.5q117 0 189 -74t72 -199v-15l-16 1h-381q4 -60 43.5 -99.5t100.5 -39.5
q86 0 121 55h126q-3 -22 -18.5 -47.5t-43 -52t-76.5 -44t-109 -17.5q-76 0 -133 29.5t-90 77.5q-63 -105 -186 -105q-97 0 -158 46.5t-61 124.5zM666 420q-51 0 -85.5 -27t-45.5 -75h261q-13 49 -47 75.5t-83 26.5zM175 162q0 -36 29 -57t77 -21q56 0 92 28.5t36 74.5v43
h-138q-96 0 -96 -68z" />
    <glyph glyph-name="ccedilla" unicode="&#xe7;" horiz-adv-x="601" 
d="M558 339h-127q-41 67 -120 67q-58 0 -95 -44t-37 -109t37 -109t96 -44q79 0 119 64q1 2 2 3h125q-4 -39 -37 -85.5t-97 -74.5q-36 -16 -91 -19v-37h9q124 0 124 -110q0 -53 -31.5 -85t-92.5 -32h-147v88h129q36 0 36 32q0 30 -36 30h-91v124q-6 1 -26 8q-72 31 -115 95.5
t-43 151.5q0 116 74.5 191t185.5 75q63 0 113 -20t77 -50t41 -58t18 -52z" />
    <glyph glyph-name="egrave" unicode="&#xe8;" horiz-adv-x="624" 
d="M314 519q118 0 191.5 -75t73.5 -198v-14h-402q4 -60 44.5 -99.5t102.5 -39.5q88 0 123 55h126q-3 -22 -18.5 -47.5t-43.5 -52t-77 -44t-110 -17.5q-122 0 -198.5 75.5t-76.5 190.5q0 117 74.5 191.5t190.5 74.5zM314 420q-52 0 -86.5 -26.5t-46.5 -73.5h264
q-30 100 -131 100zM376 580h-126l-116 187h133z" />
    <glyph glyph-name="eacute" unicode="&#xe9;" horiz-adv-x="624" 
d="M314 519q118 0 191.5 -75t73.5 -198v-14h-402q4 -60 44.5 -99.5t102.5 -39.5q88 0 123 55h126q-3 -22 -18.5 -47.5t-43.5 -52t-77 -44t-110 -17.5q-122 0 -198.5 75.5t-76.5 190.5q0 117 74.5 191.5t190.5 74.5zM314 420q-52 0 -86.5 -26.5t-46.5 -73.5h264
q-30 100 -131 100zM244 580l109 187h133l-116 -187h-126z" />
    <glyph glyph-name="ecircumflex" unicode="&#xea;" horiz-adv-x="624" 
d="M314 519q118 0 191.5 -75t73.5 -198v-14h-402q4 -60 44.5 -99.5t102.5 -39.5q88 0 123 55h126q-3 -22 -18.5 -47.5t-43.5 -52t-77 -44t-110 -17.5q-122 0 -198.5 75.5t-76.5 190.5q0 117 74.5 191.5t190.5 74.5zM314 420q-52 0 -86.5 -26.5t-46.5 -73.5h264
q-30 100 -131 100zM381 578l-67 104l-67 -104h-118l129 196h112l126 -196h-115z" />
    <glyph glyph-name="edieresis" unicode="&#xeb;" horiz-adv-x="624" 
d="M314 519q118 0 191.5 -75t73.5 -198v-14h-402q4 -60 44.5 -99.5t102.5 -39.5q88 0 123 55h126q-3 -22 -18.5 -47.5t-43.5 -52t-77 -44t-110 -17.5q-122 0 -198.5 75.5t-76.5 190.5q0 117 74.5 191.5t190.5 74.5zM314 420q-52 0 -86.5 -26.5t-46.5 -73.5h264
q-30 100 -131 100zM146 587v149h127v-149h-127zM355 587v149h127v-149h-127z" />
    <glyph glyph-name="igrave" unicode="&#xec;" horiz-adv-x="295" 
d="M84 0v506h128v-506h-128zM209 580h-126l-116 187h133z" />
    <glyph glyph-name="iacute" unicode="&#xed;" horiz-adv-x="295" 
d="M84 0v506h128v-506h-128zM84 580l109 187h133l-116 -187h-126z" />
    <glyph glyph-name="icircumflex" unicode="&#xee;" horiz-adv-x="295" 
d="M211 578l-64 106l-63 -106h-116l123 196h113l120 -196h-113zM84 0v506h128v-506h-128z" />
    <glyph glyph-name="idieresis" unicode="&#xef;" horiz-adv-x="295" 
d="M-17 587v149h124v-149h-124zM188 587v149h124v-149h-124zM84 0v506h128v-506h-128z" />
    <glyph glyph-name="eth" unicode="&#xf0;" horiz-adv-x="643" 
d="M594 253q0 -115 -78 -190.5t-195 -75.5t-194.5 75.5t-77.5 190.5q0 105 65 175t159 70q56 0 103 -35l-95 112l-160 -60l-30 75l134 50l-82 96h142l48 -55l141 53l31 -75l-116 -43l88 -102q60 -71 88.5 -129.5t28.5 -131.5zM321 101q64 0 104 44t40 108t-40 108t-104 44
q-63 0 -103 -44t-40 -108t40 -108t103 -44z" />
    <glyph glyph-name="ntilde" unicode="&#xf1;" horiz-adv-x="665" 
d="M210 270v-270h-127v506h127v-85q19 35 62.5 65.5t105.5 30.5q94 0 152.5 -62t58.5 -160v-295h-129v270q0 60 -33 96.5t-90 36.5t-92 -36.5t-35 -96.5zM257 576h-91v84q0 95 84 95q39 0 88 -36l29 -21q21 -14 31 -14q17 0 17 21v55h91v-83q0 -96 -84 -96q-39 0 -88 36
l-29 21q-22 15 -31 15q-17 0 -17 -22v-55z" />
    <glyph glyph-name="ograve" unicode="&#xf2;" horiz-adv-x="643" 
d="M322 519q116 0 194 -75.5t78 -190.5t-78 -190.5t-194 -75.5q-117 0 -195 75.5t-78 190.5t78 190.5t195 75.5zM322 101q63 0 103 43.5t40 108.5t-40 108.5t-103 43.5t-103.5 -44t-40.5 -108t40.5 -108t103.5 -44zM383 580h-126l-116 187h133z" />
    <glyph glyph-name="oacute" unicode="&#xf3;" horiz-adv-x="643" 
d="M322 519q116 0 194 -75.5t78 -190.5t-78 -190.5t-194 -75.5q-117 0 -195 75.5t-78 190.5t78 190.5t195 75.5zM322 101q63 0 103 43.5t40 108.5t-40 108.5t-103 43.5t-103.5 -44t-40.5 -108t40.5 -108t103.5 -44zM251 580l109 187h133l-116 -187h-126z" />
    <glyph glyph-name="ocircumflex" unicode="&#xf4;" horiz-adv-x="643" 
d="M322 519q116 0 194 -75.5t78 -190.5t-78 -190.5t-194 -75.5q-117 0 -195 75.5t-78 190.5t78 190.5t195 75.5zM322 101q63 0 103 43.5t40 108.5t-40 108.5t-103 43.5t-103.5 -44t-40.5 -108t40.5 -108t103.5 -44zM388 578l-67 104l-67 -104h-118l129 196h112l126 -196
h-115z" />
    <glyph glyph-name="otilde" unicode="&#xf5;" horiz-adv-x="643" 
d="M322 519q116 0 194 -75.5t78 -190.5t-78 -190.5t-194 -75.5q-117 0 -195 75.5t-78 190.5t78 190.5t195 75.5zM322 101q63 0 103 43.5t40 108.5t-40 108.5t-103 43.5t-103.5 -44t-40.5 -108t40.5 -108t103.5 -44zM242 576h-91v84q0 95 84 95q39 0 88 -36l29 -21
q21 -14 31 -14q17 0 17 21v55h91v-83q0 -96 -84 -96q-39 0 -88 36l-29 21q-22 15 -31 15q-17 0 -17 -22v-55z" />
    <glyph glyph-name="odieresis" unicode="&#xf6;" horiz-adv-x="643" 
d="M322 519q116 0 194 -75.5t78 -190.5t-78 -190.5t-194 -75.5q-117 0 -195 75.5t-78 190.5t78 190.5t195 75.5zM322 101q63 0 103 43.5t40 108.5t-40 108.5t-103 43.5t-103.5 -44t-40.5 -108t40.5 -108t103.5 -44zM153 587v149h127v-149h-127zM362 587v149h127v-149h-127z
" />
    <glyph glyph-name="divide" unicode="&#xf7;" horiz-adv-x="704" 
d="M278 458v159h148v-159h-148zM622 266h-542v113h542v-113zM278 20v159h148v-159h-148z" />
    <glyph glyph-name="oslash" unicode="&#xf8;" horiz-adv-x="644" 
d="M595 253q0 -115 -78 -190.5t-195 -75.5q-82 0 -151 44l-29 -31h-120l84 90q-57 72 -57 163q0 116 77.5 191t195.5 75q79 0 149 -43l28 30h122l-84 -89q58 -71 58 -164zM172 253q0 -46 15 -79l209 221q-32 15 -74 15q-66 0 -108 -45t-42 -112zM472 253q0 47 -15 80
l-210 -222q31 -15 75 -15q66 0 108 45t42 112z" />
    <glyph glyph-name="ugrave" unicode="&#xf9;" horiz-adv-x="651" 
d="M328 -11q-118 0 -184.5 65t-66.5 169v283h128v-269q0 -60 31.5 -95.5t89.5 -35.5t89.5 35.5t31.5 95.5v269h129v-283q0 -104 -66.5 -169t-181.5 -65zM387 580h-126l-116 187h133z" />
    <glyph glyph-name="uacute" unicode="&#xfa;" horiz-adv-x="651" 
d="M328 -11q-118 0 -184.5 65t-66.5 169v283h128v-269q0 -60 31.5 -95.5t89.5 -35.5t89.5 35.5t31.5 95.5v269h129v-283q0 -104 -66.5 -169t-181.5 -65zM255 580l109 187h133l-116 -187h-126z" />
    <glyph glyph-name="ucircumflex" unicode="&#xfb;" horiz-adv-x="651" 
d="M328 -11q-118 0 -184.5 65t-66.5 169v283h128v-269q0 -60 31.5 -95.5t89.5 -35.5t89.5 35.5t31.5 95.5v269h129v-283q0 -104 -66.5 -169t-181.5 -65zM392 578l-67 104l-67 -104h-118l129 196h112l126 -196h-115z" />
    <glyph glyph-name="udieresis" unicode="&#xfc;" horiz-adv-x="651" 
d="M328 -11q-118 0 -184.5 65t-66.5 169v283h128v-269q0 -60 31.5 -95.5t89.5 -35.5t89.5 35.5t31.5 95.5v269h129v-283q0 -104 -66.5 -169t-181.5 -65zM157 587v149h127v-149h-127zM366 587v149h127v-149h-127z" />
    <glyph glyph-name="yacute" unicode="&#xfd;" horiz-adv-x="599" 
d="M585 506l-312 -719h-128l96 222l-228 497h144l149 -344l149 344h130zM236 580l109 187h133l-116 -187h-126z" />
    <glyph glyph-name="thorn" unicode="&#xfe;" horiz-adv-x="675" 
d="M208 77v-290h-125v949h126v-310q6 11 17 23t31.5 29t53.5 28t72 11q103 0 172 -72t69 -192t-69 -192t-172 -72q-71 0 -116.5 31t-58.5 57zM207 253q0 -66 40 -109t104 -43t104 43t40 109t-40 109t-104 43t-104 -43t-40 -109z" />
    <glyph glyph-name="ydieresis" unicode="&#xff;" horiz-adv-x="599" 
d="M585 506l-312 -719h-128l96 222l-228 497h144l149 -344l149 344h130zM138 587v149h127v-149h-127zM347 587v149h127v-149h-127z" />
    <glyph glyph-name="Amacron" unicode="&#x100;" horiz-adv-x="816" 
d="M648 0l-65 146h-358l-65 -146h-135l319 713h127l320 -713h-143zM276 262h256l-128 287zM582 801h-350v100h350v-100z" />
    <glyph glyph-name="amacron" unicode="&#x101;" horiz-adv-x="668" 
d="M459 0v80q-5 -11 -16 -23.5t-30.5 -29t-52.5 -27.5t-72 -11q-101 0 -169.5 72t-68.5 192t69 192t170 72q49 0 88.5 -18.5t56 -36t24.5 -32.5v76h128v-506h-127zM460 253q0 65 -38.5 108.5t-99.5 43.5q-64 0 -103 -43t-39 -109t39 -109t103 -43q61 0 99.5 43.5t38.5 108.5
zM484 613h-324v101h324v-101z" />
    <glyph glyph-name="Abreve" unicode="&#x102;" horiz-adv-x="816" 
d="M648 0l-65 146h-358l-65 -146h-135l319 713h127l320 -713h-143zM276 262h256l-128 287zM407 860q30 0 45 18t15 45v11h101v-13q0 -68 -41.5 -111.5t-119.5 -43.5t-119.5 43.5t-41.5 111.5v13h101v-11q0 -27 15 -45t45 -18z" />
    <glyph glyph-name="abreve" unicode="&#x103;" horiz-adv-x="668" 
d="M459 0v80q-5 -11 -16 -23.5t-30.5 -29t-52.5 -27.5t-72 -11q-101 0 -169.5 72t-68.5 192t69 192t170 72q49 0 88.5 -18.5t56 -36t24.5 -32.5v76h128v-506h-127zM460 253q0 65 -38.5 108.5t-99.5 43.5q-64 0 -103 -43t-39 -109t39 -109t103 -43q61 0 99.5 43.5t38.5 108.5
zM322 668q27 0 41 17.5t14 43.5v17h101v-19q0 -68 -39.5 -110.5t-116.5 -42.5t-116.5 42.5t-39.5 110.5v19h101v-17q0 -26 14 -43.5t41 -17.5z" />
    <glyph glyph-name="Aogonek" unicode="&#x104;" horiz-adv-x="816" 
d="M648 0l-65 146h-358l-65 -146h-135l319 713h127l320 -713h-1q-6 -4 -17 -13q-28 -21 -40 -31t-22 -23t-10 -25q0 -25 32 -25h82v-96h-126q-59 0 -92 23.5t-33 68.5q0 36 20.5 62t62.5 59h1zM276 262h256l-128 287z" />
    <glyph glyph-name="aogonek" unicode="&#x105;" horiz-adv-x="668" 
d="M459 0v80q-5 -11 -16 -23.5t-30.5 -29t-52.5 -27.5t-72 -11q-101 0 -169.5 72t-68.5 192t69 192t170 72q49 0 88.5 -18.5t56 -36t24.5 -32.5v76h128v-506q-6 -4 -17 -13q-28 -21 -40 -31t-22 -23t-10 -25q0 -25 32 -25h82v-96h-126q-59 0 -92.5 23t-33.5 67q0 25 16 48.5
t32.5 37t51.5 37.5zM460 253q0 65 -38.5 108.5t-99.5 43.5q-64 0 -103 -43t-39 -109t39 -109t103 -43q61 0 99.5 43.5t38.5 108.5z" />
    <glyph glyph-name="Cacute" unicode="&#x106;" horiz-adv-x="803" 
d="M418 -12q-155 0 -256.5 105t-101.5 262t101.5 262t256.5 105q77 0 140.5 -23.5t101 -61t59.5 -74t30 -71.5h-138q-23 40 -70.5 73.5t-122.5 33.5q-97 0 -158 -71t-61 -173t61 -173t158 -71q81 0 128 34t67 74h136q-5 -25 -18 -53t-40 -60.5t-62.5 -58t-90.5 -42.5
t-120 -17zM351 773l112 156h144l-120 -156h-136z" />
    <glyph glyph-name="cacute" unicode="&#x107;" horiz-adv-x="601" 
d="M558 339h-127q-41 67 -120 67q-58 0 -95 -44t-37 -109t37 -109t96 -44q79 0 119 64q1 2 2 3h125q-2 -18 -10 -39.5t-27.5 -47t-46 -45.5t-70 -34t-94.5 -14q-111 0 -186 75t-75 191t74.5 191t185.5 75q63 0 113 -20t77 -50t41 -58t18 -52zM239 580l109 187h133l-116 -187
h-126z" />
    <glyph glyph-name="Ccircumflex" unicode="&#x108;" horiz-adv-x="803" 
d="M418 -12q-155 0 -256.5 105t-101.5 262t101.5 262t256.5 105q77 0 140.5 -23.5t101 -61t59.5 -74t30 -71.5h-138q-23 40 -70.5 73.5t-122.5 33.5q-97 0 -158 -71t-61 -173t61 -173t158 -71q81 0 128 34t67 74h136q-5 -25 -18 -53t-40 -60.5t-62.5 -58t-90.5 -42.5
t-120 -17zM491 771l-73 83l-73 -83h-125l139 161h118l136 -161h-122z" />
    <glyph glyph-name="ccircumflex" unicode="&#x109;" horiz-adv-x="601" 
d="M558 339h-127q-41 67 -120 67q-58 0 -95 -44t-37 -109t37 -109t96 -44q79 0 119 64q1 2 2 3h125q-2 -18 -10 -39.5t-27.5 -47t-46 -45.5t-70 -34t-94.5 -14q-111 0 -186 75t-75 191t74.5 191t185.5 75q63 0 113 -20t77 -50t41 -58t18 -52zM376 578l-67 104l-67 -104h-118
l129 196h112l126 -196h-115z" />
    <glyph glyph-name="Cdotaccent" unicode="&#x10a;" horiz-adv-x="803" 
d="M418 -12q-155 0 -256.5 105t-101.5 262t101.5 262t256.5 105q77 0 140.5 -23.5t101 -61t59.5 -74t30 -71.5h-138q-23 40 -70.5 73.5t-122.5 33.5q-97 0 -158 -71t-61 -173t61 -173t158 -71q81 0 128 34t67 74h136q-5 -25 -18 -53t-40 -60.5t-62.5 -58t-90.5 -42.5
t-120 -17zM352 773v152h132v-152h-132z" />
    <glyph glyph-name="cdotaccent" unicode="&#x10b;" horiz-adv-x="601" 
d="M558 339h-127q-41 67 -120 67q-58 0 -95 -44t-37 -109t37 -109t96 -44q79 0 119 64q1 2 2 3h125q-2 -18 -10 -39.5t-27.5 -47t-46 -45.5t-70 -34t-94.5 -14q-111 0 -186 75t-75 191t74.5 191t185.5 75q63 0 113 -20t77 -50t41 -58t18 -52zM243 587v152h132v-152h-132z
" />
    <glyph glyph-name="Ccaron" unicode="&#x10c;" horiz-adv-x="803" 
d="M418 -12q-155 0 -256.5 105t-101.5 262t101.5 262t256.5 105q77 0 140.5 -23.5t101 -61t59.5 -74t30 -71.5h-138q-23 40 -70.5 73.5t-122.5 33.5q-97 0 -158 -71t-61 -173t61 -173t158 -71q81 0 128 34t67 74h136q-5 -25 -18 -53t-40 -60.5t-62.5 -58t-90.5 -42.5
t-120 -17zM616 932l-139 -161h-118l-136 161h122l73 -83l73 83h125z" />
    <glyph glyph-name="ccaron" unicode="&#x10d;" horiz-adv-x="601" 
d="M558 339h-127q-41 67 -120 67q-58 0 -95 -44t-37 -109t37 -109t96 -44q79 0 119 64q1 2 2 3h125q-2 -18 -10 -39.5t-27.5 -47t-46 -45.5t-70 -34t-94.5 -14q-111 0 -186 75t-75 191t74.5 191t185.5 75q63 0 113 -20t77 -50t41 -58t18 -52zM492 776l-129 -196h-112
l-126 196h116l67 -105l67 105h117z" />
    <glyph glyph-name="Dcaron" unicode="&#x10e;" horiz-adv-x="826" 
d="M98 0v710h287q173 0 276.5 -94.5t103.5 -260.5q0 -164 -103.5 -259.5t-276.5 -95.5h-287zM383 592h-151v-474h151q112 0 178.5 63.5t66.5 173.5q0 112 -66.5 174.5t-178.5 62.5zM579 932l-139 -161h-118l-136 161h122l73 -83l73 83h125z" />
    <glyph glyph-name="dcaron" unicode="&#x10f;" horiz-adv-x="676" 
d="M466 0v80q-8 -15 -24.5 -33t-58 -38t-92.5 -20q-102 0 -171.5 72t-69.5 192t69.5 192t171.5 72q50 0 91.5 -19t58 -36t24.5 -32v306h128v-736h-127zM467 253q0 66 -39 109t-103 43q-65 0 -105 -43t-40 -109t40 -109t105 -43q64 0 103 43t39 109zM642 580l53 194h115
l-61 -194h-107z" />
    <glyph glyph-name="Dcroat" unicode="&#x110;" horiz-adv-x="846" 
d="M11 302v112h107v296h287q173 0 276.5 -94.5t103.5 -260.5q0 -164 -103.5 -259.5t-276.5 -95.5h-287v302h-107zM403 592h-151v-178h216v-112h-216v-184h151q112 0 178.5 63.5t66.5 173.5q0 112 -66.5 174.5t-178.5 62.5z" />
    <glyph glyph-name="dcroat" unicode="&#x111;" horiz-adv-x="676" 
d="M466 0v80q-8 -15 -24.5 -33t-58 -38t-92.5 -20q-102 0 -171.5 72t-69.5 192t69.5 192t171.5 72q50 0 91.5 -19t58 -36t24.5 -32v142h-199v91h199v73h128v-73h89v-91h-89v-572h-127zM467 253q0 66 -39 109t-103 43q-65 0 -105 -43t-40 -109t40 -109t105 -43q64 0 103 43
t39 109z" />
    <glyph glyph-name="Emacron" unicode="&#x112;" horiz-adv-x="752" 
d="M98 0v710h575v-116h-441v-162h263v-117h-263v-196h481v-119h-615zM571 801h-350v100h350v-100z" />
    <glyph glyph-name="emacron" unicode="&#x113;" horiz-adv-x="624" 
d="M314 519q118 0 191.5 -75t73.5 -198v-14h-402q4 -60 44.5 -99.5t102.5 -39.5q88 0 123 55h126q-3 -22 -18.5 -47.5t-43.5 -52t-77 -44t-110 -17.5q-122 0 -198.5 75.5t-76.5 190.5q0 117 74.5 191.5t190.5 74.5zM314 420q-52 0 -86.5 -26.5t-46.5 -73.5h264
q-30 100 -131 100zM476 613h-324v101h324v-101z" />
    <glyph glyph-name="Ebreve" unicode="&#x114;" horiz-adv-x="752" 
d="M98 0v710h575v-116h-441v-162h263v-117h-263v-196h481v-119h-615zM396 860q30 0 45 18t15 45v11h101v-13q0 -68 -41.5 -111.5t-119.5 -43.5t-119.5 43.5t-41.5 111.5v13h101v-11q0 -27 15 -45t45 -18z" />
    <glyph glyph-name="ebreve" unicode="&#x115;" horiz-adv-x="624" 
d="M314 519q118 0 191.5 -75t73.5 -198v-14h-402q4 -60 44.5 -99.5t102.5 -39.5q88 0 123 55h126q-3 -22 -18.5 -47.5t-43.5 -52t-77 -44t-110 -17.5q-122 0 -198.5 75.5t-76.5 190.5q0 117 74.5 191.5t190.5 74.5zM314 420q-52 0 -86.5 -26.5t-46.5 -73.5h264
q-30 100 -131 100zM314 668q27 0 41 17.5t14 43.5v17h101v-19q0 -68 -39.5 -110.5t-116.5 -42.5t-116.5 42.5t-39.5 110.5v19h101v-17q0 -26 14 -43.5t41 -17.5z" />
    <glyph glyph-name="Edotaccent" unicode="&#x116;" horiz-adv-x="752" 
d="M98 0v710h575v-116h-441v-162h263v-117h-263v-196h481v-119h-615zM330 773v152h132v-152h-132z" />
    <glyph glyph-name="edotaccent" unicode="&#x117;" horiz-adv-x="624" 
d="M314 519q118 0 191.5 -75t73.5 -198v-14h-402q4 -60 44.5 -99.5t102.5 -39.5q88 0 123 55h126q-3 -22 -18.5 -47.5t-43.5 -52t-77 -44t-110 -17.5q-122 0 -198.5 75.5t-76.5 190.5q0 117 74.5 191.5t190.5 74.5zM314 420q-52 0 -86.5 -26.5t-46.5 -73.5h264
q-30 100 -131 100zM248 587v152h132v-152h-132z" />
    <glyph glyph-name="Eogonek" unicode="&#x118;" horiz-adv-x="752" 
d="M98 0v710h575v-116h-441v-162h263v-117h-263v-196h481v-119h-615zM632 -117v-96h-126q-59 0 -92 23.5t-33 68.5q0 25 16 48t31 35.5t51 37.5h128q-6 -4 -17 -13q-28 -21 -40 -31t-22 -23t-10 -25q0 -25 32 -25h82z" />
    <glyph glyph-name="eogonek" unicode="&#x119;" horiz-adv-x="624" 
d="M314 519q118 0 191.5 -75t73.5 -198v-14h-402q4 -60 44.5 -99.5t102.5 -39.5q88 0 123 55h126q-12 -58 -92 -131q-70 -63 -82 -81q-9 -14 -9 -26q0 -27 37 -27h80v-96h-127q-59 0 -92.5 22.5t-33.5 66.5q0 60 93 112q-8 -1 -23 -1q-122 0 -198.5 75.5t-76.5 190.5
q0 117 74.5 191.5t190.5 74.5zM314 420q-52 0 -86.5 -26.5t-46.5 -73.5h264q-30 100 -131 100z" />
    <glyph glyph-name="Ecaron" unicode="&#x11a;" horiz-adv-x="752" 
d="M98 0v710h575v-116h-441v-162h263v-117h-263v-196h481v-119h-615zM594 932l-139 -161h-118l-136 161h122l73 -83l73 83h125z" />
    <glyph glyph-name="ecaron" unicode="&#x11b;" horiz-adv-x="624" 
d="M314 519q118 0 191.5 -75t73.5 -198v-14h-402q4 -60 44.5 -99.5t102.5 -39.5q88 0 123 55h126q-3 -22 -18.5 -47.5t-43.5 -52t-77 -44t-110 -17.5q-122 0 -198.5 75.5t-76.5 190.5q0 117 74.5 191.5t190.5 74.5zM314 420q-52 0 -86.5 -26.5t-46.5 -73.5h264
q-30 100 -131 100zM497 776l-129 -196h-112l-126 196h116l67 -105l67 105h117z" />
    <glyph glyph-name="Gcircumflex" unicode="&#x11c;" horiz-adv-x="842" 
d="M762 409v-317q-47 -42 -125.5 -73.5t-187.5 -31.5q-176 0 -282.5 102.5t-106.5 267.5q0 159 103 262.5t262 103.5q74 0 134 -19t96.5 -50.5t58 -62.5t31.5 -63h-142q-61 76 -178 76q-103 0 -165.5 -70t-62.5 -177q0 -112 68.5 -181.5t184.5 -69.5q119 0 183 44v145h-250
v114h379zM498 771l-73 83l-73 -83h-125l139 161h118l136 -161h-122z" />
    <glyph glyph-name="gcircumflex" unicode="&#x11d;" horiz-adv-x="674" 
d="M465 13v70q-5 -11 -17 -24t-32.5 -29.5t-53.5 -27.5t-71 -11q-102 0 -171.5 71.5t-69.5 191.5t69.5 191.5t171.5 71.5q50 0 91 -19.5t57 -36.5t25 -32v77h128v-495q0 -108 -69.5 -172t-202.5 -64q-68 0 -121.5 19t-82.5 47t-43.5 51t-18.5 41h147q42 -52 119 -52
q69 0 107 34.5t38 97.5zM466 254q0 65 -39.5 108t-102.5 43q-65 0 -104.5 -43t-39.5 -108q0 -64 39.5 -107.5t104.5 -43.5q63 0 102.5 43.5t39.5 107.5zM388 578l-67 104l-67 -104h-118l129 196h112l126 -196h-115z" />
    <glyph glyph-name="Gbreve" unicode="&#x11e;" horiz-adv-x="842" 
d="M762 409v-317q-47 -42 -125.5 -73.5t-187.5 -31.5q-176 0 -282.5 102.5t-106.5 267.5q0 159 103 262.5t262 103.5q74 0 134 -19t96.5 -50.5t58 -62.5t31.5 -63h-142q-61 76 -178 76q-103 0 -165.5 -70t-62.5 -177q0 -112 68.5 -181.5t184.5 -69.5q119 0 183 44v145h-250
v114h379zM425 860q30 0 45 18t15 45v11h101v-13q0 -68 -41.5 -111.5t-119.5 -43.5t-119.5 43.5t-41.5 111.5v13h101v-11q0 -27 15 -45t45 -18z" />
    <glyph glyph-name="gbreve" unicode="&#x11f;" horiz-adv-x="674" 
d="M465 13v70q-5 -11 -17 -24t-32.5 -29.5t-53.5 -27.5t-71 -11q-102 0 -171.5 71.5t-69.5 191.5t69.5 191.5t171.5 71.5q50 0 91 -19.5t57 -36.5t25 -32v77h128v-495q0 -108 -69.5 -172t-202.5 -64q-68 0 -121.5 19t-82.5 47t-43.5 51t-18.5 41h147q42 -52 119 -52
q69 0 107 34.5t38 97.5zM466 254q0 65 -39.5 108t-102.5 43q-65 0 -104.5 -43t-39.5 -108q0 -64 39.5 -107.5t104.5 -43.5q63 0 102.5 43.5t39.5 107.5zM321 668q27 0 41 17.5t14 43.5v17h101v-19q0 -68 -39.5 -110.5t-116.5 -42.5t-116.5 42.5t-39.5 110.5v19h101v-17
q0 -26 14 -43.5t41 -17.5z" />
    <glyph glyph-name="Gdotaccent" unicode="&#x120;" horiz-adv-x="842" 
d="M762 409v-317q-47 -42 -125.5 -73.5t-187.5 -31.5q-176 0 -282.5 102.5t-106.5 267.5q0 159 103 262.5t262 103.5q74 0 134 -19t96.5 -50.5t58 -62.5t31.5 -63h-142q-61 76 -178 76q-103 0 -165.5 -70t-62.5 -177q0 -112 68.5 -181.5t184.5 -69.5q119 0 183 44v145h-250
v114h379zM359 773v152h132v-152h-132z" />
    <glyph glyph-name="gdotaccent" unicode="&#x121;" horiz-adv-x="674" 
d="M465 13v70q-5 -11 -17 -24t-32.5 -29.5t-53.5 -27.5t-71 -11q-102 0 -171.5 71.5t-69.5 191.5t69.5 191.5t171.5 71.5q50 0 91 -19.5t57 -36.5t25 -32v77h128v-495q0 -108 -69.5 -172t-202.5 -64q-68 0 -121.5 19t-82.5 47t-43.5 51t-18.5 41h147q42 -52 119 -52
q69 0 107 34.5t38 97.5zM466 254q0 65 -39.5 108t-102.5 43q-65 0 -104.5 -43t-39.5 -108q0 -64 39.5 -107.5t104.5 -43.5q63 0 102.5 43.5t39.5 107.5zM255 587v152h132v-152h-132z" />
    <glyph glyph-name="uni0122" unicode="&#x122;" horiz-adv-x="842" 
d="M762 409v-317q-47 -42 -125.5 -73.5t-187.5 -31.5q-176 0 -282.5 102.5t-106.5 267.5q0 159 103 262.5t262 103.5q74 0 134 -19t96.5 -50.5t58 -62.5t31.5 -63h-142q-61 76 -178 76q-103 0 -165.5 -70t-62.5 -177q0 -112 68.5 -181.5t184.5 -69.5q119 0 183 44v145h-250
v114h379zM492 -322h-87q35 64 40 114h-66v127h145v-101q0 -68 -32 -140z" />
    <glyph glyph-name="uni0123" unicode="&#x123;" horiz-adv-x="674" 
d="M465 13v70q-5 -11 -17 -24t-32.5 -29.5t-53.5 -27.5t-71 -11q-102 0 -171.5 71.5t-69.5 191.5t69.5 191.5t171.5 71.5q50 0 91 -19.5t57 -36.5t25 -32v77h128v-495q0 -108 -69.5 -172t-202.5 -64q-68 0 -121.5 19t-82.5 47t-43.5 51t-18.5 41h147q42 -52 119 -52
q69 0 107 34.5t38 97.5zM466 254q0 65 -39.5 108t-102.5 43q-65 0 -104.5 -43t-39.5 -108q0 -64 39.5 -107.5t104.5 -43.5q63 0 102.5 43.5t39.5 107.5zM273 828h87q-35 -64 -40 -114h66v-127h-145v101q0 68 32 140z" />
    <glyph glyph-name="Hcircumflex" unicode="&#x124;" horiz-adv-x="854" 
d="M622 0v297h-390v-297h-134v710h134v-293h390v293h135v-710h-135zM500 771l-73 83l-73 -83h-125l139 161h118l136 -161h-122z" />
    <glyph glyph-name="hcircumflex" unicode="&#x125;" horiz-adv-x="665" 
d="M210 270v-270h-127v736h127v-315q19 35 62.5 65.5t105.5 30.5q94 0 152.5 -62t58.5 -160v-295h-129v270q0 60 -33 96.5t-90 36.5t-92 -36.5t-35 -96.5zM409 797l-73 83l-73 -83h-125l139 161h118l136 -161h-122z" />
    <glyph glyph-name="Hbar" unicode="&#x126;" horiz-adv-x="854" 
d="M622 0v297h-390v-297h-134v515h-91v93h91v102h134v-102h390v102h135v-102h90v-93h-90v-515h-135zM232 417h390v98h-390v-98z" />
    <glyph glyph-name="hbar" unicode="&#x127;" horiz-adv-x="665" 
d="M210 270v-270h-127v572h-90v91h90v73h127v-73h193v-91h-193v-151q19 35 62.5 65.5t105.5 30.5q94 0 152.5 -62t58.5 -160v-295h-129v270q0 60 -33 96.5t-90 36.5t-92 -36.5t-35 -96.5z" />
    <glyph glyph-name="Itilde" unicode="&#x128;" horiz-adv-x="333" 
d="M99 0v710h135v-710h-135zM168 807l-38 20q-26 12 -35 12q-16 0 -16 -22v-48h-93v77q0 96 84 96q16 0 34.5 -6t25.5 -9.5t34 -18.5l38 -19q28 -13 34 -13q17 0 17 23v48h93v-77q0 -45 -21.5 -70.5t-62.5 -25.5q-17 0 -34.5 5.5t-26 9.5t-33.5 18z" />
    <glyph glyph-name="itilde" unicode="&#x129;" horiz-adv-x="295" 
d="M74 576h-90v84q0 95 82 95q17 0 32.5 -5.5t24.5 -11.5t29 -21l22 -17q19 -16 30 -16q16 0 16 21v55h91v-83q0 -45 -21 -70.5t-62 -25.5q-17 0 -32 5.5t-24 11.5t-29 21l-23 17q-23 17 -30 17q-16 0 -16 -22v-55zM84 0v506h128v-506h-128z" />
    <glyph glyph-name="Imacron" unicode="&#x12a;" horiz-adv-x="333" 
d="M99 0v710h135v-710h-135zM341 801h-350v100h350v-100z" />
    <glyph glyph-name="imacron" unicode="&#x12b;" horiz-adv-x="295" 
d="M296 613h-297v101h297v-101zM84 0v506h128v-506h-128z" />
    <glyph glyph-name="Ibreve" unicode="&#x12c;" horiz-adv-x="333" 
d="M99 0v710h135v-710h-135zM166 860q30 0 45 18t15 45v11h101v-13q0 -68 -41.5 -111.5t-119.5 -43.5t-119.5 43.5t-41.5 111.5v13h101v-11q0 -27 15 -45t45 -18z" />
    <glyph glyph-name="ibreve" unicode="&#x12d;" horiz-adv-x="295" 
d="M147 668q26 0 39.5 16.5t13.5 41.5v20h101v-22q0 -66 -39.5 -108t-114.5 -42t-114 42t-39 108v22h101v-20q0 -24 13 -41t39 -17zM84 0v506h128v-506h-128z" />
    <glyph glyph-name="Iogonek" unicode="&#x12e;" horiz-adv-x="333" 
d="M99 0v710h135v-710q-6 -4 -17 -13q-28 -21 -40 -31t-22 -23t-10 -25q0 -25 32 -25h82v-96h-127q-59 0 -92 23t-33 67q0 36 24 64.5t68 58.5z" />
    <glyph glyph-name="iogonek" unicode="&#x12f;" horiz-adv-x="295" 
d="M81 587v152h133v-152h-133zM84 0v506h128v-506h-128zM236 -117v-96h-126q-59 0 -92 23.5t-33 68.5q0 25 16 48t31 35.5t51 37.5h128q-6 -4 -17 -13q-28 -21 -40 -31t-22 -23t-10 -25q0 -25 32 -25h82z" />
    <glyph glyph-name="Idotaccent" unicode="&#x130;" horiz-adv-x="333" 
d="M99 0v710h135v-710h-135zM100 773v152h132v-152h-132z" />
    <glyph glyph-name="dotlessi" unicode="&#x131;" horiz-adv-x="295" 
d="M84 0v506h128v-506h-128z" />
    <glyph glyph-name="IJ" unicode="&#x132;" horiz-adv-x="1008" 
d="M99 0v710h135v-710h-135zM913 710v-480q0 -114 -68 -178.5t-186 -64.5t-183 63.5t-65 179.5v190h130v-182q0 -58 31 -92.5t87 -34.5q58 0 89 34.5t31 92.5v472h134z" />
    <glyph glyph-name="ij" unicode="&#x133;" horiz-adv-x="591" 
d="M81 587v152h133v-152h-133zM84 0v506h128v-506h-128zM376 587v152h134v-152h-134zM507 506v-548q0 -87 -41 -129t-125 -42h-157v105h114q42 0 61.5 20t19.5 62v532h128z" />
    <glyph glyph-name="Jcircumflex" unicode="&#x134;" horiz-adv-x="675" 
d="M580 710v-480q0 -114 -68 -178.5t-186 -64.5t-183 63.5t-65 179.5v190h130v-182q0 -58 31 -92.5t87 -34.5q58 0 89 34.5t31 92.5v472h134zM584 771l-73 83l-73 -83h-125l139 161h118l136 -161h-122z" />
    <glyph glyph-name="jcircumflex" unicode="&#x135;" horiz-adv-x="295" 
d="M211 578l-64 106l-63 -106h-116l123 196h113l120 -196h-113zM212 506v-548q0 -87 -41 -129t-125 -42h-157v105h114q42 0 61.5 20t19.5 62v532h128z" />
    <glyph glyph-name="uni0136" unicode="&#x136;" horiz-adv-x="798" 
d="M608 0l-376 325v-325h-134v710h134v-319l366 319h180l-397 -345l414 -365h-187zM451 -322h-87q35 64 40 114h-66v127h145v-101q0 -68 -32 -140z" />
    <glyph glyph-name="uni0137" unicode="&#x137;" horiz-adv-x="622" 
d="M451 0l-242 230v-230h-126v736h126v-436l232 206h167l-269 -236l283 -270h-171zM365 -322h-87q35 64 40 114h-66v127h145v-101q0 -68 -32 -140z" />
    <glyph glyph-name="Lacute" unicode="&#x139;" horiz-adv-x="707" 
d="M671 121v-121h-573v710h134v-589h439zM99 773l112 156h144l-120 -156h-136z" />
    <glyph glyph-name="lacute" unicode="&#x13a;" horiz-adv-x="297" 
d="M85 0v736h128v-736h-128zM81 799l112 156h144l-120 -156h-136z" />
    <glyph glyph-name="uni013B" unicode="&#x13b;" horiz-adv-x="707" 
d="M671 121v-121h-573v710h134v-589h439zM434 -322h-87q35 64 40 114h-66v127h145v-101q0 -68 -32 -140z" />
    <glyph glyph-name="uni013C" unicode="&#x13c;" horiz-adv-x="297" 
d="M85 0v736h128v-736h-128zM190 -322h-87q35 64 40 114h-66v127h145v-101q0 -68 -32 -140z" />
    <glyph glyph-name="Lcaron" unicode="&#x13d;" horiz-adv-x="708" 
d="M671 121v-121h-573v710h134v-589h439zM289 580l53 194h115l-61 -194h-107z" />
    <glyph glyph-name="lcaron" unicode="&#x13e;" horiz-adv-x="297" 
d="M85 0v736h128v-736h-128zM262 580l53 194h115l-61 -194h-107z" />
    <glyph glyph-name="Ldot" unicode="&#x13f;" horiz-adv-x="708" 
d="M671 121v-121h-573v710h134v-589h439zM442 318v170h153v-170h-153z" />
    <glyph glyph-name="ldot" unicode="&#x140;" horiz-adv-x="500" 
d="M85 0v736h128v-736h-128zM322 285v170h153v-170h-153z" />
    <glyph glyph-name="Lslash" unicode="&#x141;" horiz-adv-x="723" 
d="M686 121v-121h-573v213l-97 -46v114l97 47v382h134v-317l266 130v-118l-266 -128v-156h439z" />
    <glyph glyph-name="lslash" unicode="&#x142;" horiz-adv-x="385" 
d="M21 255v111l108 50v320h128v-261l106 49v-114l-106 -48v-362h-128v304z" />
    <glyph glyph-name="Nacute" unicode="&#x143;" horiz-adv-x="862" 
d="M764 710v-713h-105l-431 544v-541h-130v710h156l381 -487v487h129zM373 773l112 156h144l-120 -156h-136z" />
    <glyph glyph-name="nacute" unicode="&#x144;" horiz-adv-x="665" 
d="M210 270v-270h-127v506h127v-85q19 35 62.5 65.5t105.5 30.5q94 0 152.5 -62t58.5 -160v-295h-129v270q0 60 -33 96.5t-90 36.5t-92 -36.5t-35 -96.5zM265 580l109 187h133l-116 -187h-126z" />
    <glyph glyph-name="uni0145" unicode="&#x145;" horiz-adv-x="862" 
d="M764 710v-713h-105l-431 544v-541h-130v710h156l381 -487v487h129zM477 -322h-87q35 64 40 114h-66v127h145v-101q0 -68 -32 -140z" />
    <glyph glyph-name="uni0146" unicode="&#x146;" horiz-adv-x="665" 
d="M210 270v-270h-127v506h127v-85q19 35 62.5 65.5t105.5 30.5q94 0 152.5 -62t58.5 -160v-295h-129v270q0 60 -33 96.5t-90 36.5t-92 -36.5t-35 -96.5zM378 -322h-87q35 64 40 114h-66v127h145v-101q0 -68 -32 -140z" />
    <glyph glyph-name="Ncaron" unicode="&#x147;" horiz-adv-x="862" 
d="M764 710v-713h-105l-431 544v-541h-130v710h156l381 -487v487h129zM640 932l-139 -161h-118l-136 161h122l73 -83l73 83h125z" />
    <glyph glyph-name="ncaron" unicode="&#x148;" horiz-adv-x="665" 
d="M210 270v-270h-127v506h127v-85q19 35 62.5 65.5t105.5 30.5q94 0 152.5 -62t58.5 -160v-295h-129v270q0 60 -33 96.5t-90 36.5t-92 -36.5t-35 -96.5zM519 776l-129 -196h-112l-126 196h116l67 -105l67 105h117z" />
    <glyph glyph-name="napostrophe" unicode="&#x149;" horiz-adv-x="912" 
d="M457 270v-270h-127v506h127v-85q19 35 62.5 65.5t105.5 30.5q94 0 152.5 -62t58.5 -160v-295h-129v270q0 60 -33 96.5t-90 36.5t-92 -36.5t-35 -96.5zM158 386h-92q61 105 65 195h-71v155h151v-138q0 -115 -53 -212z" />
    <glyph glyph-name="Eng" unicode="&#x14a;" horiz-adv-x="862" 
d="M764 710v-751q0 -89 -42 -130.5t-129 -41.5h-151v107h106q89 0 89 71q0 37 -48 101l-361 472v-538h-130v710h156l381 -504v504h129z" />
    <glyph glyph-name="eng" unicode="&#x14b;" horiz-adv-x="665" 
d="M589 295v-330q0 -92 -43 -135t-131 -43h-149v105h107q87 0 87 88v290q0 60 -33 96.5t-90 36.5t-92 -36.5t-35 -96.5v-270h-127v506h127v-85q19 35 62.5 65.5t105.5 30.5q94 0 152.5 -62t58.5 -160z" />
    <glyph glyph-name="Omacron" unicode="&#x14c;" horiz-adv-x="864" 
d="M432 -12q-160 0 -266 104t-106 263t106.5 263t265.5 104t265.5 -104t106.5 -263q0 -158 -106.5 -262.5t-265.5 -104.5zM432 110q104 0 169.5 70.5t65.5 174.5q0 103 -65.5 174t-169.5 71t-169 -70.5t-65 -174.5q0 -105 64.5 -175t169.5 -70zM607 801h-350v100h350v-100z
" />
    <glyph glyph-name="omacron" unicode="&#x14d;" horiz-adv-x="643" 
d="M322 519q116 0 194 -75.5t78 -190.5t-78 -190.5t-194 -75.5q-117 0 -195 75.5t-78 190.5t78 190.5t195 75.5zM322 101q63 0 103 43.5t40 108.5t-40 108.5t-103 43.5t-103.5 -44t-40.5 -108t40.5 -108t103.5 -44zM483 613h-324v101h324v-101z" />
    <glyph glyph-name="Obreve" unicode="&#x14e;" horiz-adv-x="864" 
d="M432 -12q-160 0 -266 104t-106 263t106.5 263t265.5 104t265.5 -104t106.5 -263q0 -158 -106.5 -262.5t-265.5 -104.5zM432 110q104 0 169.5 70.5t65.5 174.5q0 103 -65.5 174t-169.5 71t-169 -70.5t-65 -174.5q0 -105 64.5 -175t169.5 -70zM432 860q30 0 45 18t15 45v11
h101v-13q0 -68 -41.5 -111.5t-119.5 -43.5t-119.5 43.5t-41.5 111.5v13h101v-11q0 -27 15 -45t45 -18z" />
    <glyph glyph-name="obreve" unicode="&#x14f;" horiz-adv-x="643" 
d="M322 519q116 0 194 -75.5t78 -190.5t-78 -190.5t-194 -75.5q-117 0 -195 75.5t-78 190.5t78 190.5t195 75.5zM322 101q63 0 103 43.5t40 108.5t-40 108.5t-103 43.5t-103.5 -44t-40.5 -108t40.5 -108t103.5 -44zM321 668q27 0 41 17.5t14 43.5v17h101v-19
q0 -68 -39.5 -110.5t-116.5 -42.5t-116.5 42.5t-39.5 110.5v19h101v-17q0 -26 14 -43.5t41 -17.5z" />
    <glyph glyph-name="Ohungarumlaut" unicode="&#x150;" horiz-adv-x="864" 
d="M432 -12q-160 0 -266 104t-106 263t106.5 263t265.5 104t265.5 -104t106.5 -263q0 -158 -106.5 -262.5t-265.5 -104.5zM432 110q104 0 169.5 70.5t65.5 174.5q0 103 -65.5 174t-169.5 71t-169 -70.5t-65 -174.5q0 -105 64.5 -175t169.5 -70zM470 773l80 156h124l-86 -156
h-118zM272 773l77 156h125l-85 -156h-117z" />
    <glyph glyph-name="ohungarumlaut" unicode="&#x151;" horiz-adv-x="643" 
d="M322 519q116 0 194 -75.5t78 -190.5t-78 -190.5t-194 -75.5q-117 0 -195 75.5t-78 190.5t78 190.5t195 75.5zM322 101q63 0 103 43.5t40 108.5t-40 108.5t-103 43.5t-103.5 -44t-40.5 -108t40.5 -108t103.5 -44zM360 580l81 187h113l-87 -187h-107zM172 580l82 187h112
l-87 -187h-107z" />
    <glyph glyph-name="OE" unicode="&#x152;" horiz-adv-x="1185" 
d="M61 355q0 165 106.5 260t278.5 95h661v-116h-422v-162h244v-117h-244v-196h461v-119h-700q-172 0 -278.5 95t-106.5 260zM447 119h104v472h-104q-114 0 -181.5 -63.5t-67.5 -172.5t67.5 -172.5t181.5 -63.5z" />
    <glyph glyph-name="oe" unicode="&#x153;" horiz-adv-x="1031" 
d="M854 148h126q-3 -22 -18.5 -47.5t-43 -52t-75.5 -44t-108 -17.5q-73 0 -127.5 27.5t-86.5 71.5q-70 -99 -204 -99q-115 0 -191.5 75.5t-76.5 190.5q0 116 76.5 191t191.5 75q68 0 121.5 -27t84.5 -75q64 102 203 102q118 0 189 -74t71 -199v-15l-16 1h-381
q4 -60 43.5 -99.5t100.5 -39.5q86 0 121 55zM724 420q-52 0 -86.5 -27t-45.5 -75h261q-13 49 -47 75.5t-82 26.5zM319 101q63 0 102.5 44t39.5 108t-39.5 108t-102.5 44q-62 0 -101.5 -44t-39.5 -108t39.5 -108t101.5 -44z" />
    <glyph glyph-name="Racute" unicode="&#x154;" horiz-adv-x="809" 
d="M98 0v710h397q118 0 180.5 -54t62.5 -158q0 -72 -36 -121.5t-104 -70.5l167 -306h-142l-161 292h-230v-292h-134zM484 591h-252v-182h252q116 0 116 89q0 93 -116 93zM331 773l112 156h144l-120 -156h-136z" />
    <glyph glyph-name="racute" unicode="&#x155;" horiz-adv-x="520" 
d="M210 266v-266h-127v506h127v-85q39 88 164 88h118v-127h-135q-80 0 -113.5 -27.5t-33.5 -88.5zM232 580l109 187h133l-116 -187h-126z" />
    <glyph glyph-name="uni0156" unicode="&#x156;" horiz-adv-x="809" 
d="M98 0v710h397q118 0 180.5 -54t62.5 -158q0 -72 -36 -121.5t-104 -70.5l167 -306h-142l-161 292h-230v-292h-134zM484 591h-252v-182h252q116 0 116 89q0 93 -116 93zM446 -322h-87q35 64 40 114h-66v127h145v-101q0 -68 -32 -140z" />
    <glyph glyph-name="uni0157" unicode="&#x157;" horiz-adv-x="520" 
d="M210 266v-266h-127v506h127v-85q39 88 164 88h118v-127h-135q-80 0 -113.5 -27.5t-33.5 -88.5zM189 -322h-87q35 64 40 114h-66v127h145v-101q0 -68 -32 -140z" />
    <glyph glyph-name="Rcaron" unicode="&#x158;" horiz-adv-x="809" 
d="M98 0v710h397q118 0 180.5 -54t62.5 -158q0 -72 -36 -121.5t-104 -70.5l167 -306h-142l-161 292h-230v-292h-134zM484 591h-252v-182h252q116 0 116 89q0 93 -116 93zM596 932l-139 -161h-118l-136 161h122l73 -83l73 83h125z" />
    <glyph glyph-name="rcaron" unicode="&#x159;" horiz-adv-x="520" 
d="M210 266v-266h-127v506h127v-85q39 88 164 88h118v-127h-135q-80 0 -113.5 -27.5t-33.5 -88.5zM485 776l-129 -196h-112l-126 196h116l67 -105l67 105h117z" />
    <glyph glyph-name="Sacute" unicode="&#x15a;" horiz-adv-x="755" 
d="M350 609q-72 0 -110 -22.5t-38 -62.5q0 -71 116 -85q2 0 125 -13q251 -23 251 -218q0 -100 -78 -160.5t-224 -60.5q-83 0 -147.5 19.5t-104.5 53t-63 69.5t-34 77h143q18 -42 68 -73.5t138 -31.5q79 0 122 27t43 71q0 48 -31.5 70t-91.5 29l-126 13q-110 10 -176 63.5
t-66 145.5q0 94 78 148.5t206 54.5q80 0 141.5 -17.5t98.5 -47.5t57.5 -62.5t29.5 -69.5h-137q-52 83 -190 83zM301 773l112 156h144l-120 -156h-136z" />
    <glyph glyph-name="sacute" unicode="&#x15b;" horiz-adv-x="578" 
d="M327 198q-38 3 -89 9q-86 6 -136 46.5t-50 111.5t60.5 113t162.5 42q64 0 112.5 -15t75.5 -39t40.5 -45t19.5 -44h-135q-38 46 -114 46q-45 0 -69 -13.5t-24 -37.5q0 -43 72 -53l86 -9q102 -9 147.5 -48.5t45.5 -115.5q0 -73 -60.5 -116.5t-173.5 -43.5q-53 0 -97.5 12
t-72 29.5t-48 39.5t-29.5 40.5t-12 34.5h137q4 -9 14.5 -20.5t39.5 -24t68 -12.5q51 0 77.5 15.5t26.5 40.5q0 24 -17 38t-58 19zM215 580l109 187h133l-116 -187h-126z" />
    <glyph glyph-name="Scircumflex" unicode="&#x15c;" horiz-adv-x="755" 
d="M350 609q-72 0 -110 -22.5t-38 -62.5q0 -71 116 -85q2 0 125 -13q251 -23 251 -218q0 -100 -78 -160.5t-224 -60.5q-83 0 -147.5 19.5t-104.5 53t-63 69.5t-34 77h143q18 -42 68 -73.5t138 -31.5q79 0 122 27t43 71q0 48 -31.5 70t-91.5 29l-126 13q-110 10 -176 63.5
t-66 145.5q0 94 78 148.5t206 54.5q80 0 141.5 -17.5t98.5 -47.5t57.5 -62.5t29.5 -69.5h-137q-52 83 -190 83zM441 771l-73 83l-73 -83h-125l139 161h118l136 -161h-122z" />
    <glyph glyph-name="scircumflex" unicode="&#x15d;" horiz-adv-x="578" 
d="M327 198q-38 3 -89 9q-86 6 -136 46.5t-50 111.5t60.5 113t162.5 42q64 0 112.5 -15t75.5 -39t40.5 -45t19.5 -44h-135q-38 46 -114 46q-45 0 -69 -13.5t-24 -37.5q0 -43 72 -53l86 -9q102 -9 147.5 -48.5t45.5 -115.5q0 -73 -60.5 -116.5t-173.5 -43.5q-53 0 -97.5 12
t-72 29.5t-48 39.5t-29.5 40.5t-12 34.5h137q4 -9 14.5 -20.5t39.5 -24t68 -12.5q51 0 77.5 15.5t26.5 40.5q0 24 -17 38t-58 19zM353 578l-67 104l-67 -104h-118l129 196h112l126 -196h-115z" />
    <glyph glyph-name="uni015E" unicode="&#x15e;" horiz-adv-x="755" 
d="M350 609q-72 0 -110 -22.5t-38 -62.5q0 -71 116 -85q2 0 125 -13q251 -23 251 -218q0 -100 -78 -160.5t-224 -60.5q-83 0 -147.5 19.5t-104.5 53t-63 69.5t-34 77h143q18 -42 68 -73.5t138 -31.5q79 0 122 27t43 71q0 48 -31.5 70t-91.5 29l-126 13q-110 10 -176 63.5
t-66 145.5q0 94 78 148.5t206 54.5q80 0 141.5 -17.5t98.5 -47.5t57.5 -62.5t29.5 -69.5h-137q-52 83 -190 83zM421 -156q0 30 -36 30h-91v126h100v-49h9q124 0 124 -110q0 -53 -31.5 -85t-92.5 -32h-146v88h128q36 0 36 32z" />
    <glyph glyph-name="uni015F" unicode="&#x15f;" horiz-adv-x="578" 
d="M327 198q-38 3 -89 9q-86 6 -136 46.5t-50 111.5t60.5 113t162.5 42q64 0 112.5 -15t75.5 -39t40.5 -45t19.5 -44h-135q-38 46 -114 46q-45 0 -69 -13.5t-24 -37.5q0 -43 72 -53l86 -9q102 -9 147.5 -48.5t45.5 -115.5q0 -71 -59 -116q-56 -41 -161 -44v-35h9
q124 0 124 -110q0 -53 -31.5 -85t-92.5 -32h-147v88h129q36 0 36 32q0 30 -36 30h-91v120q-21 5 -33 10q-65 25 -98.5 63t-41.5 75h137q4 -9 14.5 -20.5t39.5 -24t68 -12.5q51 0 77.5 15.5t26.5 40.5q0 24 -17 38t-58 19z" />
    <glyph glyph-name="Scaron" unicode="&#x160;" horiz-adv-x="755" 
d="M350 609q-72 0 -110 -22.5t-38 -62.5q0 -71 116 -85q2 0 125 -13q251 -23 251 -218q0 -100 -78 -160.5t-224 -60.5q-83 0 -147.5 19.5t-104.5 53t-63 69.5t-34 77h143q18 -42 68 -73.5t138 -31.5q79 0 122 27t43 71q0 48 -31.5 70t-91.5 29l-126 13q-110 10 -176 63.5
t-66 145.5q0 94 78 148.5t206 54.5q80 0 141.5 -17.5t98.5 -47.5t57.5 -62.5t29.5 -69.5h-137q-52 83 -190 83zM566 932l-139 -161h-118l-136 161h122l73 -83l73 83h125z" />
    <glyph glyph-name="scaron" unicode="&#x161;" horiz-adv-x="578" 
d="M327 198q-38 3 -89 9q-86 6 -136 46.5t-50 111.5t60.5 113t162.5 42q64 0 112.5 -15t75.5 -39t40.5 -45t19.5 -44h-135q-38 46 -114 46q-45 0 -69 -13.5t-24 -37.5q0 -43 72 -53l86 -9q102 -9 147.5 -48.5t45.5 -115.5q0 -73 -60.5 -116.5t-173.5 -43.5q-53 0 -97.5 12
t-72 29.5t-48 39.5t-29.5 40.5t-12 34.5h137q4 -9 14.5 -20.5t39.5 -24t68 -12.5q51 0 77.5 15.5t26.5 40.5q0 24 -17 38t-58 19zM469 776l-129 -196h-112l-126 196h116l67 -105l67 105h117z" />
    <glyph glyph-name="Tcommaaccent" unicode="&#x162;" horiz-adv-x="772" 
d="M37 590v120h698v-120h-282v-590h-134v590h-282zM428 -322h-87q35 64 40 114h-66v127h145v-101q0 -68 -32 -140z" />
    <glyph glyph-name="tcommaaccent" unicode="&#x163;" horiz-adv-x="529" 
d="M482 114v-114h-140q-175 0 -175 165v232h-139v109h139v204h128v-204h187v-109h-187v-193q0 -49 19.5 -69.5t70.5 -20.5h97zM332 -322h-87q35 64 40 114h-66v127h145v-101q0 -68 -32 -140z" />
    <glyph glyph-name="Tcaron" unicode="&#x164;" horiz-adv-x="772" 
d="M37 590v120h698v-120h-282v-590h-134v590h-282zM584 932l-139 -161h-118l-136 161h122l73 -83l73 83h125z" />
    <glyph glyph-name="tcaron" unicode="&#x165;" horiz-adv-x="529" 
d="M482 114v-114h-140q-175 0 -175 165v232h-139v109h139v204h128v-204h187v-109h-187v-193q0 -49 19.5 -69.5t70.5 -20.5h97zM345 580l53 194h115l-61 -194h-107z" />
    <glyph glyph-name="Tbar" unicode="&#x166;" horiz-adv-x="772" 
d="M131 311v108h188v171h-282v120h698v-120h-282v-171h188v-108h-188v-311h-134v311h-188z" />
    <glyph glyph-name="tbar" unicode="&#x167;" horiz-adv-x="547" 
d="M491 114v-114h-140q-175 0 -175 165v71h-140v86h140v79h-140v105h140v204h128v-204h187v-105h-187v-79h188v-86h-188v-36q0 -46 18.5 -66t67.5 -20h101z" />
    <glyph glyph-name="Utilde" unicode="&#x168;" horiz-adv-x="842" 
d="M422 111q91 0 142 55t51 149v395h133v-404q0 -139 -86 -229.5t-240 -90.5q-159 0 -243.5 89t-84.5 231v404h135v-395q0 -94 50.5 -149t142.5 -55zM423 807l-38 20q-26 12 -35 12q-16 0 -16 -22v-48h-93v77q0 96 84 96q16 0 34.5 -6t25.5 -9.5t34 -18.5l38 -19
q28 -13 34 -13q17 0 17 23v48h93v-77q0 -45 -21.5 -70.5t-62.5 -25.5q-17 0 -34.5 5.5t-26 9.5t-33.5 18z" />
    <glyph glyph-name="utilde" unicode="&#x169;" horiz-adv-x="651" 
d="M328 -11q-118 0 -184.5 65t-66.5 169v283h128v-269q0 -60 31.5 -95.5t89.5 -35.5t89.5 35.5t31.5 95.5v269h129v-283q0 -104 -66.5 -169t-181.5 -65zM246 576h-91v84q0 95 84 95q39 0 88 -36l29 -21q21 -14 31 -14q17 0 17 21v55h91v-83q0 -96 -84 -96q-39 0 -88 36
l-29 21q-22 15 -31 15q-17 0 -17 -22v-55z" />
    <glyph glyph-name="Umacron" unicode="&#x16a;" horiz-adv-x="842" 
d="M422 111q91 0 142 55t51 149v395h133v-404q0 -139 -86 -229.5t-240 -90.5q-159 0 -243.5 89t-84.5 231v404h135v-395q0 -94 50.5 -149t142.5 -55zM596 801h-350v100h350v-100z" />
    <glyph glyph-name="umacron" unicode="&#x16b;" horiz-adv-x="651" 
d="M328 -11q-118 0 -184.5 65t-66.5 169v283h128v-269q0 -60 31.5 -95.5t89.5 -35.5t89.5 35.5t31.5 95.5v269h129v-283q0 -104 -66.5 -169t-181.5 -65zM487 613h-324v101h324v-101z" />
    <glyph glyph-name="Ubreve" unicode="&#x16c;" horiz-adv-x="842" 
d="M422 111q91 0 142 55t51 149v395h133v-404q0 -139 -86 -229.5t-240 -90.5q-159 0 -243.5 89t-84.5 231v404h135v-395q0 -94 50.5 -149t142.5 -55zM421 860q30 0 45 18t15 45v11h101v-13q0 -68 -41.5 -111.5t-119.5 -43.5t-119.5 43.5t-41.5 111.5v13h101v-11
q0 -27 15 -45t45 -18z" />
    <glyph glyph-name="ubreve" unicode="&#x16d;" horiz-adv-x="651" 
d="M328 -11q-118 0 -184.5 65t-66.5 169v283h128v-269q0 -60 31.5 -95.5t89.5 -35.5t89.5 35.5t31.5 95.5v269h129v-283q0 -104 -66.5 -169t-181.5 -65zM325 668q27 0 41 17.5t14 43.5v17h101v-19q0 -68 -39.5 -110.5t-116.5 -42.5t-116.5 42.5t-39.5 110.5v19h101v-17
q0 -26 14 -43.5t41 -17.5z" />
    <glyph glyph-name="Uring" unicode="&#x16e;" horiz-adv-x="842" 
d="M422 111q91 0 142 55t51 149v395h133v-404q0 -139 -86 -229.5t-240 -90.5q-159 0 -243.5 89t-84.5 231v404h135v-395q0 -94 50.5 -149t142.5 -55zM421 763q-59 0 -97.5 38.5t-38.5 94.5t39 94t97 38t97.5 -38t39.5 -94t-39 -94.5t-98 -38.5zM421 835q26 0 43 17.5
t17 43.5t-16.5 43t-43.5 17t-43.5 -17t-16.5 -43t17 -43.5t43 -17.5z" />
    <glyph glyph-name="uring" unicode="&#x16f;" horiz-adv-x="651" 
d="M328 -11q-118 0 -184.5 65t-66.5 169v283h128v-269q0 -60 31.5 -95.5t89.5 -35.5t89.5 35.5t31.5 95.5v269h129v-283q0 -104 -66.5 -169t-181.5 -65zM325 569q-59 0 -97.5 38.5t-38.5 94.5t39 94t97 38t97.5 -38t39.5 -94t-39 -94.5t-98 -38.5zM325 641q26 0 43 17.5
t17 43.5t-16.5 43t-43.5 17t-43.5 -17t-16.5 -43t17 -43.5t43 -17.5z" />
    <glyph glyph-name="Uhungarumlaut" unicode="&#x170;" horiz-adv-x="842" 
d="M422 111q91 0 142 55t51 149v395h133v-404q0 -139 -86 -229.5t-240 -90.5q-159 0 -243.5 89t-84.5 231v404h135v-395q0 -94 50.5 -149t142.5 -55zM458 773l80 156h124l-86 -156h-118zM260 773l77 156h125l-85 -156h-117z" />
    <glyph glyph-name="uhungarumlaut" unicode="&#x171;" horiz-adv-x="651" 
d="M328 -11q-118 0 -184.5 65t-66.5 169v283h128v-269q0 -60 31.5 -95.5t89.5 -35.5t89.5 35.5t31.5 95.5v269h129v-283q0 -104 -66.5 -169t-181.5 -65zM364 580l81 187h113l-87 -187h-107zM176 580l82 187h112l-87 -187h-107z" />
    <glyph glyph-name="Uogonek" unicode="&#x172;" horiz-adv-x="842" 
d="M620 -117v-96h-126q-59 0 -92 23t-33 66q0 58 93 112q-30 -2 -40 -2q-159 0 -243.5 89t-84.5 231v404h135v-395q0 -94 50.5 -149t142.5 -55q91 0 142 55t51 149v395h133v-404q0 -91 -35 -156.5t-103 -126.5q-13 -11 -30 -26t-25 -22t-18 -17t-14.5 -15t-9 -11.5t-6 -11.5
t-1.5 -11q0 -26 34 -26h80z" />
    <glyph glyph-name="uogonek" unicode="&#x173;" horiz-adv-x="651" 
d="M508 -117v-96h-126q-58 0 -91 22.5t-33 66.5q0 33 22.5 58t69.5 56q-8 -1 -22 -1q-118 0 -184.5 65t-66.5 169v283h128v-269q0 -60 31.5 -95.5t89.5 -35.5t89.5 35.5t31.5 95.5v269h129v-283q0 -61 -23.5 -108t-69.5 -92l-17.5 -17.5l-15.5 -15.5l-13 -13t-12 -12.5
t-9.5 -11t-8 -10t-6 -8.5t-4.5 -9t-2 -8.5t-1 -8.5q0 -26 34 -26h80z" />
    <glyph glyph-name="Wcircumflex" unicode="&#x174;" horiz-adv-x="1138" 
d="M751 -3l-180 516l-181 -516h-116l-241 713h146l163 -509l174 512h119l175 -513l163 510h132l-234 -713h-120zM646 771l-73 83l-73 -83h-125l139 161h118l136 -161h-122z" />
    <glyph glyph-name="wcircumflex" unicode="&#x175;" horiz-adv-x="894" 
d="M576 -4l-129 352l-128 -352h-112l-189 510h139l117 -340l125 344h113l124 -341l116 337h124l-185 -510h-115zM520 578l-67 104l-67 -104h-118l129 196h112l126 -196h-115z" />
    <glyph glyph-name="Ycircumflex" unicode="&#x176;" horiz-adv-x="782" 
d="M465 300v-300h-138v299l-319 411h171l221 -289l220 289h154zM473 771l-73 83l-73 -83h-125l139 161h118l136 -161h-122z" />
    <glyph glyph-name="ycircumflex" unicode="&#x177;" horiz-adv-x="599" 
d="M585 506l-312 -719h-128l96 222l-228 497h144l149 -344l149 344h130zM373 578l-67 104l-67 -104h-118l129 196h112l126 -196h-115z" />
    <glyph glyph-name="Ydieresis" unicode="&#x178;" horiz-adv-x="782" 
d="M465 300v-300h-138v299l-319 411h171l221 -289l220 289h154zM226 773v149h127v-149h-127zM447 773v149h127v-149h-127z" />
    <glyph glyph-name="Zacute" unicode="&#x179;" horiz-adv-x="791" 
d="M751 120v-120h-700v77l442 514h-432v119h643v-77l-446 -513h493zM310 773l112 156h144l-120 -156h-136z" />
    <glyph glyph-name="zacute" unicode="&#x17a;" horiz-adv-x="621" 
d="M585 107v-107h-536v71l305 329h-297v106h491v-69l-309 -330h346zM232 580l109 187h133l-116 -187h-126z" />
    <glyph glyph-name="Zdotaccent" unicode="&#x17b;" horiz-adv-x="791" 
d="M751 120v-120h-700v77l442 514h-432v119h643v-77l-446 -513h493zM315 773v152h132v-152h-132z" />
    <glyph glyph-name="zdotaccent" unicode="&#x17c;" horiz-adv-x="621" 
d="M585 107v-107h-536v71l305 329h-297v106h491v-69l-309 -330h346zM237 587v152h132v-152h-132z" />
    <glyph glyph-name="Zcaron" unicode="&#x17d;" horiz-adv-x="791" 
d="M751 120v-120h-700v77l442 514h-432v119h643v-77l-446 -513h493zM580 932l-139 -161h-118l-136 161h122l73 -83l73 83h125z" />
    <glyph glyph-name="zcaron" unicode="&#x17e;" horiz-adv-x="621" 
d="M585 107v-107h-536v71l305 329h-297v106h491v-69l-309 -330h346zM486 776l-129 -196h-112l-126 196h116l67 -105l67 105h117z" />
    <glyph glyph-name="uni018F" unicode="&#x18f;" horiz-adv-x="864" 
d="M427 602q-148 0 -206 -106h-135q25 91 115 158.5t229 67.5q163 0 268.5 -101.5t105.5 -265.5q0 -159 -106.5 -263t-265.5 -104q-161 0 -266.5 103t-105.5 264q0 19 1 28l2 16h604q-10 90 -75 146.5t-165 56.5zM432 106q92 0 154.5 53t77.5 133h-463q14 -79 76 -132.5
t155 -53.5z" />
    <glyph glyph-name="uni0192" unicode="&#x192;" horiz-adv-x="581" 
d="M483 328h-181l-81 -535h-128l80 535h-138v108h155l17 116q13 82 54 120t131 38h172v-107h-140q-46 0 -65.5 -17.5t-26.5 -61.5l-13 -88h164v-108z" />
    <glyph glyph-name="Aringacute" unicode="&#x1fa;" horiz-adv-x="816" 
d="M648 0l-65 146h-358l-65 -146h-135l319 713h127l320 -713h-143zM276 262h256l-128 287zM343 1064l103 144h141l-111 -144h-133zM407 763q-59 0 -97.5 38.5t-38.5 94.5t39 94t97 38t97.5 -38t39.5 -94t-39 -94.5t-98 -38.5zM407 835q26 0 43 17.5t17 43.5t-16.5 43
t-43.5 17t-43.5 -17t-16.5 -43t17 -43.5t43 -17.5z" />
    <glyph glyph-name="aringacute" unicode="&#x1fb;" horiz-adv-x="668" 
d="M459 0v80q-5 -11 -16 -23.5t-30.5 -29t-52.5 -27.5t-72 -11q-101 0 -169.5 72t-68.5 192t69 192t170 72q49 0 88.5 -18.5t56 -36t24.5 -32.5v76h128v-506h-127zM460 253q0 65 -38.5 108.5t-99.5 43.5q-64 0 -103 -43t-39 -109t39 -109t103 -43q61 0 99.5 43.5t38.5 108.5
zM257 871l95 154h131l-102 -154h-124zM316 569q-59 0 -97.5 38.5t-38.5 94.5t39 94t97 38t97.5 -38t39.5 -94t-39 -94.5t-98 -38.5zM316 641q26 0 43 17.5t17 43.5t-16.5 43t-43.5 17t-43.5 -17t-16.5 -43t17 -43.5t43 -17.5z" />
    <glyph glyph-name="AEacute" unicode="&#x1fc;" horiz-adv-x="1170" 
d="M1131 119v-119h-596v165h-281l-108 -165h-149l468 710h626v-116h-422v-162h244v-117h-244v-196h462zM329 280h206v316zM712 773l112 156h144l-120 -156h-136z" />
    <glyph glyph-name="aeacute" unicode="&#x1fd;" horiz-adv-x="973" 
d="M48 160q0 76 53.5 117t148.5 41h159q0 46 -31.5 72.5t-85.5 26.5q-43 0 -69 -17.5t-32 -33.5h-130q5 22 19.5 46.5t40.5 49.5t70.5 41t99.5 16q136 0 189 -82q27 37 76.5 59.5t111.5 22.5q117 0 189 -74t72 -199v-15l-16 1h-381q4 -60 43.5 -99.5t100.5 -39.5
q86 0 121 55h126q-3 -22 -18.5 -47.5t-43 -52t-76.5 -44t-109 -17.5q-76 0 -133 29.5t-90 77.5q-63 -105 -186 -105q-97 0 -158 46.5t-61 124.5zM666 420q-51 0 -85.5 -27t-45.5 -75h261q-13 49 -47 75.5t-83 26.5zM175 162q0 -36 29 -57t77 -21q56 0 92 28.5t36 74.5v43
h-138q-96 0 -96 -68zM411 580l109 187h133l-116 -187h-126z" />
    <glyph glyph-name="Oslashacute" unicode="&#x1fe;" horiz-adv-x="864" 
d="M804 355q0 -158 -106.5 -262.5t-265.5 -104.5q-116 0 -207 59l-42 -47h-142l105 116q-86 100 -86 239q0 159 106.5 263t265.5 104q114 0 205 -59l42 47h145l-106 -118q86 -99 86 -237zM197 355q0 -79 36 -142l322 358q-52 31 -123 31q-104 0 -169.5 -71.5t-65.5 -175.5z
M667 355q0 80 -36 141l-323 -357q53 -31 124 -31q104 0 169.5 70.5t65.5 176.5zM366 773l112 156h144l-120 -156h-136z" />
    <glyph glyph-name="oslashacute" unicode="&#x1ff;" horiz-adv-x="644" 
d="M595 253q0 -115 -78 -190.5t-195 -75.5q-82 0 -151 44l-29 -31h-120l84 90q-57 72 -57 163q0 116 77.5 191t195.5 75q79 0 149 -43l28 30h122l-84 -89q58 -71 58 -164zM172 253q0 -46 15 -79l209 221q-32 15 -74 15q-66 0 -108 -45t-42 -112zM472 253q0 47 -15 80
l-210 -222q31 -15 75 -15q66 0 108 45t42 112zM251 580l109 187h133l-116 -187h-126z" />
    <glyph glyph-name="uni0218" unicode="&#x218;" horiz-adv-x="755" 
d="M350 609q-72 0 -110 -22.5t-38 -62.5q0 -71 116 -85q2 0 125 -13q251 -23 251 -218q0 -100 -78 -160.5t-224 -60.5q-83 0 -147.5 19.5t-104.5 53t-63 69.5t-34 77h143q18 -42 68 -73.5t138 -31.5q79 0 122 27t43 71q0 48 -31.5 70t-91.5 29l-126 13q-110 10 -176 63.5
t-66 145.5q0 94 78 148.5t206 54.5q80 0 141.5 -17.5t98.5 -47.5t57.5 -62.5t29.5 -69.5h-137q-52 83 -190 83zM433 -322h-87q35 64 40 114h-66v127h145v-101q0 -68 -32 -140z" />
    <glyph glyph-name="uni0219" unicode="&#x219;" horiz-adv-x="578" 
d="M327 198q-38 3 -89 9q-86 6 -136 46.5t-50 111.5t60.5 113t162.5 42q64 0 112.5 -15t75.5 -39t40.5 -45t19.5 -44h-135q-38 46 -114 46q-45 0 -69 -13.5t-24 -37.5q0 -43 72 -53l86 -9q102 -9 147.5 -48.5t45.5 -115.5q0 -73 -60.5 -116.5t-173.5 -43.5q-53 0 -97.5 12
t-72 29.5t-48 39.5t-29.5 40.5t-12 34.5h137q4 -9 14.5 -20.5t39.5 -24t68 -12.5q51 0 77.5 15.5t26.5 40.5q0 24 -17 38t-58 19zM343 -322h-87q35 64 40 114h-66v127h145v-101q0 -68 -32 -140z" />
    <glyph glyph-name="uni021A" unicode="&#x21a;" horiz-adv-x="772" 
d="M37 590v120h698v-120h-282v-590h-134v590h-282zM428 -322h-87q35 64 40 114h-66v127h145v-101q0 -68 -32 -140z" />
    <glyph glyph-name="uni021B" unicode="&#x21b;" horiz-adv-x="529" 
d="M482 114v-114h-140q-175 0 -175 165v232h-139v109h139v204h128v-204h187v-109h-187v-193q0 -49 19.5 -69.5t70.5 -20.5h97zM332 -322h-87q35 64 40 114h-66v127h145v-101q0 -68 -32 -140z" />
    <glyph glyph-name="uni0237" unicode="&#x237;" horiz-adv-x="295" 
d="M212 506v-548q0 -87 -41 -129t-125 -42h-157v105h114q42 0 61.5 20t19.5 62v532h128z" />
    <glyph glyph-name="uni0259" unicode="&#x259;" horiz-adv-x="624" 
d="M314 -12q-118 0 -191.5 75t-73.5 198v14h402q-4 60 -44.5 99.5t-102.5 39.5q-88 0 -123 -55h-126q3 22 18.5 47.5t43.5 52t77 44t110 17.5q122 0 198.5 -75.5t76.5 -190.5q0 -118 -74.5 -192t-190.5 -74zM314 87q52 0 86.5 26.5t46.5 73.5h-264q30 -100 131 -100z" />
    <glyph glyph-name="uni02BC" unicode="&#x2bc;" horiz-adv-x="311" 
d="M177 386h-92q61 105 65 195h-71v155h151v-138q0 -115 -53 -212z" />
    <glyph glyph-name="circumflex" unicode="&#x2c6;" 
d="M327 578l-67 104l-67 -104h-118l129 196h112l126 -196h-115z" />
    <glyph glyph-name="caron" unicode="&#x2c7;" 
d="M444 776l-129 -196h-112l-126 196h116l67 -105l67 105h117z" />
    <glyph glyph-name="breve" unicode="&#x2d8;" 
d="M300 668q27 0 41 17.5t14 43.5v17h101v-19q0 -68 -39.5 -110.5t-116.5 -42.5t-116.5 42.5t-39.5 110.5v19h101v-17q0 -26 14 -43.5t41 -17.5z" />
    <glyph glyph-name="dotaccent" unicode="&#x2d9;" 
d="M234 587v152h132v-152h-132z" />
    <glyph glyph-name="ring" unicode="&#x2da;" 
d="M300 569q-59 0 -97.5 38.5t-38.5 94.5t39 94t97 38t97.5 -38t39.5 -94t-39 -94.5t-98 -38.5zM300 641q26 0 43 17.5t17 43.5t-16.5 43t-43.5 17t-43.5 -17t-16.5 -43t17 -43.5t43 -17.5z" />
    <glyph glyph-name="ogonek" unicode="&#x2db;" 
d="M457 -117v-96h-126q-59 0 -92 23.5t-33 68.5q0 25 16 48t31 35.5t51 37.5h128q-6 -4 -17 -13q-28 -21 -40 -31t-22 -23t-10 -25q0 -25 32 -25h82z" />
    <glyph glyph-name="tilde" unicode="&#x2dc;" 
d="M221 576h-91v84q0 95 84 95q39 0 88 -36l29 -21q21 -14 31 -14q17 0 17 21v55h91v-83q0 -96 -84 -96q-39 0 -88 36l-29 21q-22 15 -31 15q-17 0 -17 -22v-55z" />
    <glyph glyph-name="hungarumlaut" unicode="&#x2dd;" 
d="M296 580l81 187h113l-87 -187h-107zM108 580l82 187h112l-87 -187h-107z" />
    <glyph glyph-name="uni0401" unicode="&#x401;" horiz-adv-x="752" 
d="M98 0v710h575v-116h-441v-162h263v-117h-263v-196h481v-119h-615zM222 773v149h127v-149h-127zM443 773v149h127v-149h-127z" />
    <glyph glyph-name="uni0402" unicode="&#x402;" horiz-adv-x="978" 
d="M296 0v591h-259v119h676v-119h-283v-182q16 4 47 10q64 11 107 11q150 0 232.5 -65.5t82.5 -188.5q0 -122 -77 -194t-226 -72v118q85 0 127 38t42 108q0 68 -46.5 104t-136.5 36q-58 0 -106 -12q-20 -3 -46 -11v-291h-134z" />
    <glyph glyph-name="uni0403" unicode="&#x403;" horiz-adv-x="721" 
d="M98 0v710h593v-120h-459v-590h-134zM313 773l112 156h144l-120 -156h-136z" />
    <glyph glyph-name="uni0404" unicode="&#x404;" horiz-adv-x="803" 
d="M418 -12q-155 0 -256.5 105t-101.5 262t101.5 262t256.5 105q77 0 140.5 -23.5t101 -61t59.5 -74t30 -71.5h-137q-23 40 -71 73.5t-123 33.5q-86 0 -144 -52t-73 -133h302v-114h-302q12 -81 71 -135t146 -54q81 0 128 34t67 74h136q-5 -26 -18 -53.5t-40 -60t-62.5 -58
t-90.5 -42.5t-120 -17z" />
    <glyph glyph-name="uni0405" unicode="&#x405;" horiz-adv-x="755" 
d="M350 609q-72 0 -110 -22.5t-38 -62.5q0 -71 116 -85q2 0 125 -13q251 -23 251 -218q0 -100 -78 -160.5t-224 -60.5q-83 0 -147.5 19.5t-104.5 53t-63 69.5t-34 77h143q18 -42 68 -73.5t138 -31.5q79 0 122 27t43 71q0 48 -31.5 70t-91.5 29l-126 13q-110 10 -176 63.5
t-66 145.5q0 94 78 148.5t206 54.5q80 0 141.5 -17.5t98.5 -47.5t57.5 -62.5t29.5 -69.5h-137q-52 83 -190 83z" />
    <glyph glyph-name="uni0406" unicode="&#x406;" horiz-adv-x="333" 
d="M99 0v710h135v-710h-135z" />
    <glyph glyph-name="uni0407" unicode="&#x407;" horiz-adv-x="332" 
d="M99 0v710h135v-710h-135zM-8 773v149h127v-149h-127zM213 773v149h127v-149h-127z" />
    <glyph glyph-name="uni0408" unicode="&#x408;" horiz-adv-x="675" 
d="M580 710v-480q0 -114 -68 -178.5t-186 -64.5t-183 63.5t-65 179.5v190h130v-182q0 -58 31 -92.5t87 -34.5q58 0 89 34.5t31 92.5v472h134z" />
    <glyph glyph-name="uni0409" unicode="&#x409;" horiz-adv-x="1271" 
d="M166 305l39 405h515v-247h239q125 0 192 -61.5t67 -171.5q0 -112 -66.5 -171t-192.5 -59h-372v590h-268l-28 -297q-9 -81 -21.5 -132.5t-38 -92t-67.5 -58t-106 -17.5h-21v132h16q57 0 80 39t33 141zM952 343h-232v-224h232q129 0 129 112q0 52 -32.5 82t-96.5 30z" />
    <glyph glyph-name="uni040A" unicode="&#x40a;" horiz-adv-x="1284" 
d="M98 0v710h134v-267h380v267h134v-267h229q124 0 190.5 -59t66.5 -163q0 -108 -66 -164.5t-191 -56.5h-363v322h-380v-322h-134zM967 323h-221v-204h221q127 0 127 103q0 47 -32 74t-95 27z" />
    <glyph glyph-name="uni040B" unicode="&#x40b;" horiz-adv-x="978" 
d="M296 0v591h-259v119h676v-119h-283v-182q19 4 54 10q73 11 123 11q146 0 219 -65t73 -209v-156h-134v154q0 85 -41.5 122.5t-127.5 37.5q-63 0 -116 -12q-23 -4 -50 -11v-291h-134z" />
    <glyph glyph-name="uni040C" unicode="&#x40c;" horiz-adv-x="797" 
d="M98 0v710h134v-319l366 319h180l-397 -345l414 -365h-187l-376 325v-325h-134zM325 773l112 156h144l-120 -156h-136z" />
    <glyph glyph-name="uni040E" unicode="&#x40e;" horiz-adv-x="794" 
d="M339 0h-142l143 226l-320 484h157l239 -362l229 362h141zM416 860q30 0 45 18t15 45v11h101v-13q0 -68 -41.5 -111.5t-119.5 -43.5t-119.5 43.5t-41.5 111.5v13h101v-11q0 -27 15 -45t45 -18z" />
    <glyph glyph-name="uni040F" unicode="&#x40f;" horiz-adv-x="844" 
d="M98 710h134v-590h380v590h134v-710h-264v-161h-120v161h-264v710z" />
    <glyph glyph-name="uni0410" unicode="&#x410;" horiz-adv-x="815" 
d="M648 0l-65 146h-358l-65 -146h-135l319 713h127l320 -713h-143zM276 262h256l-128 287z" />
    <glyph glyph-name="uni0411" unicode="&#x411;" horiz-adv-x="792" 
d="M232 429h241q124 0 191 -56.5t67 -157.5q0 -105 -66.5 -160t-191.5 -55h-375v710h575v-120h-441v-161zM470 315h-238v-196h238q123 0 123 98q0 46 -31 72t-92 26z" />
    <glyph glyph-name="uni0412" unicode="&#x412;" horiz-adv-x="794" 
d="M98 0v710h380q115 0 176.5 -50.5t61.5 -141.5q0 -54 -31 -91t-76 -53q54 -17 88.5 -61t34.5 -110q0 -95 -63.5 -149t-184.5 -54h-386zM463 596h-233v-174h233q115 0 115 87t-115 87zM468 309h-238v-195h238q127 0 127 98q0 97 -127 97z" />
    <glyph glyph-name="uni0413" unicode="&#x413;" horiz-adv-x="721" 
d="M98 0v710h593v-120h-459v-590h-134z" />
    <glyph glyph-name="uni0414" unicode="&#x414;" horiz-adv-x="845" 
d="M588 120v470h-291l-28 -254q-16 -151 -50 -216h369zM184 710h538v-590h106v-281h-120v161h-579v-161h-121v281h77q41 67 59 223z" />
    <glyph glyph-name="uni0415" unicode="&#x415;" horiz-adv-x="752" 
d="M98 0v710h575v-116h-441v-162h263v-117h-263v-196h481v-119h-615z" />
    <glyph glyph-name="uni0416" unicode="&#x416;" horiz-adv-x="1151" 
d="M2 0l372 362l-360 348h167l327 -319v319h130v-320l327 320h166l-357 -344l375 -366h-174l-337 326v-326h-130v325l-337 -325h-169z" />
    <glyph glyph-name="uni0417" unicode="&#x417;" horiz-adv-x="776" 
d="M392 722q149 0 227 -54t78 -144q0 -60 -33 -101.5t-81 -54.5q56 -15 93.5 -54.5t37.5 -98.5q0 -107 -83 -167t-237 -60q-83 0 -148.5 21.5t-104 56.5t-60 72.5t-25.5 75.5h136q16 -44 65.5 -74.5t136.5 -30.5q89 0 136 28t47 80q0 87 -156 87h-106v114h106q138 0 138 93
q0 90 -169 90q-147 0 -194 -93h-137q7 38 29 74t60 68.5t101.5 52t142.5 19.5z" />
    <glyph glyph-name="uni0418" unicode="&#x418;" horiz-adv-x="864" 
d="M98 0v710h134v-530l400 530h134v-710h-134v530l-400 -530h-134z" />
    <glyph glyph-name="uni0419" unicode="&#x419;" horiz-adv-x="864" 
d="M98 0v710h134v-530l400 530h134v-710h-134v530l-400 -530h-134zM432 860q30 0 45 18t15 45v11h101v-13q0 -68 -41.5 -111.5t-119.5 -43.5t-119.5 43.5t-41.5 111.5v13h101v-11q0 -27 15 -45t45 -18z" />
    <glyph glyph-name="uni041A" unicode="&#x41a;" horiz-adv-x="797" 
d="M98 0v710h134v-319l366 319h180l-397 -345l414 -365h-187l-376 325v-325h-134z" />
    <glyph glyph-name="uni041B" unicode="&#x41b;" horiz-adv-x="849" 
d="M319 590l-28 -297q-9 -81 -21.5 -132.5t-38 -92t-67.5 -58t-106 -17.5h-21v132h16q57 0 80 39t33 141l39 405h546v-710h-134v590h-298z" />
    <glyph glyph-name="uni041C" unicode="&#x41c;" horiz-adv-x="1014" 
d="M299 710l212 -517l213 517h193v-710h-130v582l-238 -585h-91l-236 580v-577h-124v710h201z" />
    <glyph glyph-name="uni041D" unicode="&#x41d;" horiz-adv-x="854" 
d="M622 0v297h-390v-297h-134v710h134v-293h390v293h135v-710h-135z" />
    <glyph glyph-name="uni041E" unicode="&#x41e;" horiz-adv-x="864" 
d="M432 -12q-160 0 -266 104t-106 263t106.5 263t265.5 104t265.5 -104t106.5 -263q0 -158 -106.5 -262.5t-265.5 -104.5zM432 110q104 0 169.5 70.5t65.5 174.5q0 103 -65.5 174t-169.5 71t-169 -70.5t-65 -174.5q0 -105 64.5 -175t169.5 -70z" />
    <glyph glyph-name="uni041F" unicode="&#x41f;" horiz-adv-x="844" 
d="M98 0v710h648v-710h-134v590h-380v-590h-134z" />
    <glyph glyph-name="uni0420" unicode="&#x420;" horiz-adv-x="790" 
d="M98 0v710h392q120 0 184 -55.5t64 -161.5q0 -104 -64.5 -162.5t-183.5 -58.5h-258v-272h-134zM483 590h-251v-198h251q58 0 87.5 26.5t29.5 72.5q0 99 -117 99z" />
    <glyph glyph-name="uni0421" unicode="&#x421;" horiz-adv-x="803" 
d="M418 -12q-155 0 -256.5 105t-101.5 262t101.5 262t256.5 105q77 0 140.5 -23.5t101 -61t59.5 -74t30 -71.5h-138q-23 40 -70.5 73.5t-122.5 33.5q-97 0 -158 -71t-61 -173t61 -173t158 -71q81 0 128 34t67 74h136q-5 -25 -18 -53t-40 -60.5t-62.5 -58t-90.5 -42.5
t-120 -17z" />
    <glyph glyph-name="uni0422" unicode="&#x422;" horiz-adv-x="772" 
d="M37 590v120h698v-120h-282v-590h-134v590h-282z" />
    <glyph glyph-name="uni0423" unicode="&#x423;" horiz-adv-x="794" 
d="M339 0h-142l143 226l-320 484h157l239 -362l229 362h141z" />
    <glyph glyph-name="uni0424" unicode="&#x424;" horiz-adv-x="1113" 
d="M490 119h-163q-133 0 -204 65t-71 181q0 118 70 180t204 62h164v113h133v-113h163q135 0 204.5 -62t69.5 -180q0 -116 -70.5 -181t-203.5 -65h-163v-129h-133v129zM490 239v249h-157q-143 0 -143 -125q0 -58 36.5 -91t106.5 -33h157zM779 488h-156v-249h156
q70 0 106.5 33t36.5 91q0 125 -143 125z" />
    <glyph glyph-name="uni0425" unicode="&#x425;" horiz-adv-x="828" 
d="M637 0l-227 266l-230 -266h-158l308 359l-300 351h176l211 -250l214 250h162l-297 -344l310 -366h-169z" />
    <glyph glyph-name="uni0426" unicode="&#x426;" horiz-adv-x="870" 
d="M612 120v590h134v-590h107v-281h-121v161h-634v710h134v-590h380z" />
    <glyph glyph-name="uni0427" unicode="&#x427;" horiz-adv-x="817" 
d="M585 0v277q-21 -4 -67 -10q-80 -10 -151 -10q-145 0 -216 63t-71 206v184h134v-182q0 -84 38 -119t121 -35q70 0 148 10q42 5 64 11v315h134v-710h-134z" />
    <glyph glyph-name="uni0428" unicode="&#x428;" horiz-adv-x="1187" 
d="M98 710h134v-590h295v590h134v-590h294v590h134v-710h-991v710z" />
    <glyph glyph-name="uni0429" unicode="&#x429;" horiz-adv-x="1213" 
d="M98 710h134v-590h295v590h134v-590h294v590h134v-590h107v-281h-121v161h-977v710z" />
    <glyph glyph-name="uni042A" unicode="&#x42a;" horiz-adv-x="949" 
d="M37 590v120h355v-247h246q124 0 191 -61.5t67 -171.5q0 -112 -66.5 -171t-191.5 -59h-380v590h-221zM630 343h-238v-224h238q129 0 129 112q0 53 -32.5 82.5t-96.5 29.5z" />
    <glyph glyph-name="uni042B" unicode="&#x42b;" horiz-adv-x="1069" 
d="M232 463h245q125 0 192 -61.5t67 -171.5q0 -112 -66.5 -171t-192.5 -59h-379v710h134v-247zM470 343h-238v-224h238q128 0 128 112q0 53 -32 82.5t-96 29.5zM836 0v710h135v-710h-135z" />
    <glyph glyph-name="uni042C" unicode="&#x42c;" horiz-adv-x="789" 
d="M232 463h245q125 0 192 -61.5t67 -171.5q0 -112 -66.5 -171t-192.5 -59h-379v710h134v-247zM470 343h-238v-224h238q128 0 128 112q0 53 -32 82.5t-96 29.5z" />
    <glyph glyph-name="uni042D" unicode="&#x42d;" horiz-adv-x="803" 
d="M385 -12q-64 0 -119 17t-90.5 42.5t-62.5 58t-40.5 60.5t-18.5 53h136q20 -40 66.5 -74t128.5 -34q87 0 146 54t71 135h-302v114h302q-12 81 -69 133t-144 52q-77 0 -127 -33.5t-71 -73.5h-137q8 35 30 71.5t60.5 74t102.5 61t142 23.5q158 0 256 -103.5t98 -263.5
q0 -157 -101.5 -262t-256.5 -105z" />
    <glyph glyph-name="uni042E" unicode="&#x42e;" horiz-adv-x="1128" 
d="M98 0v710h134v-293h117q20 135 119 220t238 85q155 0 258 -104t103 -263q0 -158 -103.5 -262.5t-257.5 -104.5q-141 0 -240.5 86t-117.5 223h-116v-297h-134zM706 110q100 0 162 70.5t62 174.5t-62 174.5t-162 70.5t-162.5 -70.5t-62.5 -174.5q0 -105 62.5 -175
t162.5 -70z" />
    <glyph glyph-name="uni042F" unicode="&#x42f;" horiz-adv-x="816" 
d="M201 0h-145l175 290q-153 42 -153 198q0 109 63 165.5t182 56.5h395v-710h-134v273h-220zM334 389h250v203h-250q-60 0 -89 -25t-29 -79q0 -99 118 -99z" />
    <glyph glyph-name="uni0430" unicode="&#x430;" horiz-adv-x="668" 
d="M459 0v80q-5 -11 -16 -23.5t-30.5 -29t-52.5 -27.5t-72 -11q-101 0 -169.5 72t-68.5 192t69 192t170 72q49 0 88.5 -18.5t56 -36t24.5 -32.5v76h128v-506h-127zM460 253q0 65 -38.5 108.5t-99.5 43.5q-64 0 -103 -43t-39 -109t39 -109t103 -43q61 0 99.5 43.5t38.5 108.5
z" />
    <glyph glyph-name="uni0431" unicode="&#x431;" horiz-adv-x="649" 
d="M354 492q111 0 178.5 -68.5t67.5 -182.5q0 -112 -76 -183t-196 -71q-125 0 -198.5 75.5t-73.5 208.5q0 51 6 133q13 135 78.5 208t213.5 96l201 33v-112l-199 -32q-94 -16 -134.5 -56t-48.5 -130q51 81 181 81zM328 99q68 0 105.5 39.5t37.5 101.5q0 61 -37.5 100.5
t-105.5 39.5t-105.5 -39.5t-37.5 -100.5q0 -62 37.5 -101.5t105.5 -39.5z" />
    <glyph glyph-name="uni0432" unicode="&#x432;" horiz-adv-x="623" 
d="M83 0v506h294q80 0 128 -35t48 -99q0 -43 -23 -72t-54 -38q39 -11 65.5 -40t26.5 -76q0 -67 -50.5 -106.5t-138.5 -39.5h-296zM357 409h-147v-106h147q70 0 70 55q0 24 -18.5 37.5t-51.5 13.5zM362 210h-152v-113h152q76 0 76 60q0 53 -76 53z" />
    <glyph glyph-name="uni0433" unicode="&#x433;" horiz-adv-x="502" 
d="M81 0v506h392v-109h-265v-397h-127z" />
    <glyph glyph-name="uni0434" unicode="&#x434;" horiz-adv-x="648" 
d="M423 109v288h-172l-9 -73q-18 -158 -54 -215h235zM123 -149h-113v258h55q44 64 62 222l21 175h402v-397h88v-258h-113v149h-402v-149z" />
    <glyph glyph-name="uni0435" unicode="&#x435;" horiz-adv-x="624" 
d="M314 519q118 0 191.5 -75t73.5 -198v-14h-402q4 -60 44.5 -99.5t102.5 -39.5q88 0 123 55h126q-3 -22 -18.5 -47.5t-43.5 -52t-77 -44t-110 -17.5q-122 0 -198.5 75.5t-76.5 190.5q0 117 74.5 191.5t190.5 74.5zM314 420q-52 0 -86.5 -26.5t-46.5 -73.5h264
q-30 100 -131 100z" />
    <glyph glyph-name="uni0436" unicode="&#x436;" horiz-adv-x="873" 
d="M374 0v222l-211 -222h-163l248 260l-238 246h163l201 -209v209h122v-208l200 208h162l-235 -243l250 -263h-167l-210 221v-221h-122z" />
    <glyph glyph-name="uni0437" unicode="&#x437;" horiz-adv-x="607" 
d="M305 90q118 0 118 64q0 55 -92 55h-82v93h78q86 0 86 57q0 58 -109 58q-97 0 -128 -67h-122q11 70 74.5 119.5t177.5 49.5q112 0 172.5 -40t60.5 -110q0 -42 -23.5 -70.5t-58.5 -38.5q42 -10 68.5 -39t26.5 -71q0 -75 -65.5 -119t-181.5 -44q-118 0 -186.5 53.5
t-75.5 123.5h125q13 -30 47 -52t90 -22z" />
    <glyph glyph-name="uni0438" unicode="&#x438;" horiz-adv-x="672" 
d="M83 0v506h126v-339l254 339h127v-506h-127v340l-254 -340h-126z" />
    <glyph glyph-name="uni0439" unicode="&#x439;" horiz-adv-x="672" 
d="M83 0v506h126v-339l254 339h127v-506h-127v340l-254 -340h-126zM338 668q27 0 41 17.5t14 43.5v17h101v-19q0 -68 -39.5 -110.5t-116.5 -42.5t-116.5 42.5t-39.5 110.5v19h101v-17q0 -26 14 -43.5t41 -17.5z" />
    <glyph glyph-name="uni043A" unicode="&#x43a;" horiz-adv-x="621" 
d="M81 0v506h126v-213l234 213h167l-269 -242l282 -264h-170l-244 227v-227h-126z" />
    <glyph glyph-name="uni043B" unicode="&#x43b;" horiz-adv-x="640" 
d="M122 230l27 276h408v-506h-127v397h-177l-17 -180q-10 -118 -48.5 -170t-125.5 -52h-34v116h12q44 0 60 24t22 95z" />
    <glyph glyph-name="uni043C" unicode="&#x43c;" horiz-adv-x="846" 
d="M83 0v506h174l168 -351l168 351h170v-506h-124v377l-177 -379h-85l-176 376v-374h-118z" />
    <glyph glyph-name="uni043D" unicode="&#x43d;" horiz-adv-x="662" 
d="M83 0v506h127v-193h242v193h127v-506h-127v204h-242v-204h-127z" />
    <glyph glyph-name="uni043E" unicode="&#x43e;" horiz-adv-x="643" 
d="M322 519q116 0 194 -75.5t78 -190.5t-78 -190.5t-194 -75.5q-117 0 -195 75.5t-78 190.5t78 190.5t195 75.5zM322 101q63 0 103 43.5t40 108.5t-40 108.5t-103 43.5t-103.5 -44t-40.5 -108t40.5 -108t103.5 -44z" />
    <glyph glyph-name="uni043F" unicode="&#x43f;" horiz-adv-x="652" 
d="M83 0v506h486v-506h-127v397h-232v-397h-127z" />
    <glyph glyph-name="uni0440" unicode="&#x440;" horiz-adv-x="674" 
d="M209 77v-289h-126v718h127v-80q11 25 57.5 58t116.5 33q102 0 171 -72t69 -192t-69 -192t-171 -72q-71 0 -116.5 30.5t-58.5 57.5zM208 253q0 -66 39.5 -109t103.5 -43q65 0 104.5 43t39.5 109t-39.5 109t-104.5 43q-64 0 -103.5 -43t-39.5 -109z" />
    <glyph glyph-name="uni0441" unicode="&#x441;" horiz-adv-x="601" 
d="M558 339h-127q-41 67 -120 67q-58 0 -95 -44t-37 -109t37 -109t96 -44q79 0 119 64q1 2 2 3h125q-2 -18 -10 -39.5t-27.5 -47t-46 -45.5t-70 -34t-94.5 -14q-111 0 -186 75t-75 191t74.5 191t185.5 75q63 0 113 -20t77 -50t41 -58t18 -52z" />
    <glyph glyph-name="uni0442" unicode="&#x442;" horiz-adv-x="577" 
d="M225 0v397h-197v109h520v-109h-196v-397h-127z" />
    <glyph glyph-name="uni0443" unicode="&#x443;" horiz-adv-x="599" 
d="M585 506l-312 -719h-128l96 222l-228 497h144l149 -344l149 344h130z" />
    <glyph glyph-name="uni0444" unicode="&#x444;" horiz-adv-x="816" 
d="M344 -207v194q-131 2 -213 76.5t-82 189.5t81.5 188.5t213.5 77.5v217h128v-217q132 -4 213.5 -77.5t81.5 -188.5q0 -114 -82 -189t-213 -77v-194h-128zM178 253q0 -66 43.5 -109t122.5 -45v308q-79 -2 -122.5 -45t-43.5 -109zM638 253q0 65 -43.5 108t-122.5 46v-308
q79 3 122.5 46t43.5 108z" />
    <glyph glyph-name="uni0445" unicode="&#x445;" horiz-adv-x="629" 
d="M459 0l-148 167l-150 -167h-147l224 250l-225 256h164l143 -165l148 165h148l-223 -248l223 -258h-157z" />
    <glyph glyph-name="uni0446" unicode="&#x446;" horiz-adv-x="667" 
d="M83 506h127v-397h232v397h127v-397h88v-258h-114v149h-460v506z" />
    <glyph glyph-name="uni0447" unicode="&#x447;" horiz-adv-x="635" 
d="M425 0v179l-37 -6q-38 -5 -95 -5q-112 0 -167.5 47.5t-55.5 155.5v135h127v-128q0 -54 22.5 -78t82.5 -24q58 0 89 4q12 1 34 5v221h127v-506h-127z" />
    <glyph glyph-name="uni0448" unicode="&#x448;" horiz-adv-x="953" 
d="M83 506h127v-397h203v397h127v-397h203v397h127v-506h-787v506z" />
    <glyph glyph-name="uni0449" unicode="&#x449;" horiz-adv-x="968" 
d="M83 506h127v-397h203v397h127v-397h203v397h127v-397h88v-258h-113v149h-762v506z" />
    <glyph glyph-name="uni044A" unicode="&#x44a;" horiz-adv-x="712" 
d="M319 349h161q103 0 152.5 -47.5t49.5 -125.5q0 -75 -50 -125.5t-151 -50.5h-289v397h-164v109h291v-157zM461 245h-142v-142h142q91 0 91 73q0 33 -23.5 51t-67.5 18z" />
    <glyph glyph-name="uni044B" unicode="&#x44b;" horiz-adv-x="859" 
d="M210 349h161q103 0 152.5 -47.5t49.5 -125.5q0 -75 -50 -125.5t-151 -50.5h-289v506h127v-157zM352 245h-142v-142h142q91 0 91 73q0 33 -23.5 51t-67.5 18zM649 0v506h128v-506h-128z" />
    <glyph glyph-name="uni044C" unicode="&#x44c;" horiz-adv-x="603" 
d="M210 349h161q103 0 152.5 -47.5t49.5 -125.5q0 -75 -50 -125.5t-151 -50.5h-289v506h127v-157zM352 245h-142v-142h142q91 0 91 73q0 33 -23.5 51t-67.5 18z" />
    <glyph glyph-name="uni044D" unicode="&#x44d;" horiz-adv-x="604" 
d="M43 166h124q6 -14 16.5 -27.5t39 -28.5t65.5 -15q50 0 85.5 30t47.5 80h-198v102h197q-13 48 -47 76t-83 28q-36 0 -64.5 -15t-39 -28.5t-16.5 -27.5h-126q4 25 18 52.5t41 57.5t76.5 49.5t112.5 19.5q112 0 187.5 -75.5t75.5 -190.5q0 -116 -76 -191t-189 -75
q-63 0 -113 20t-77 50t-41 58t-16 51z" />
    <glyph glyph-name="uni044E" unicode="&#x44e;" horiz-adv-x="867" 
d="M81 0v506h127v-193h82q20 93 91.5 149.5t169.5 56.5q114 0 190.5 -75.5t76.5 -190.5t-76.5 -190.5t-190.5 -75.5q-102 0 -174.5 60.5t-88.5 156.5h-80v-204h-127zM551 100q61 0 99.5 44t38.5 109t-38.5 109t-99.5 44t-99.5 -44t-38.5 -109t38.5 -109t99.5 -44z" />
    <glyph glyph-name="uni044F" unicode="&#x44f;" horiz-adv-x="631" 
d="M549 0h-127v170h-116l-118 -170h-143l134 189q-117 30 -117 152q0 71 48 118t142 47h297v-506zM269 274h153v129h-153q-77 0 -77 -63q0 -66 77 -66z" />
    <glyph glyph-name="uni0451" unicode="&#x451;" horiz-adv-x="624" 
d="M314 519q118 0 191.5 -75t73.5 -198v-14h-402q4 -60 44.5 -99.5t102.5 -39.5q88 0 123 55h126q-3 -22 -18.5 -47.5t-43.5 -52t-77 -44t-110 -17.5q-122 0 -198.5 75.5t-76.5 190.5q0 117 74.5 191.5t190.5 74.5zM314 420q-52 0 -86.5 -26.5t-46.5 -73.5h264
q-30 100 -131 100zM146 587v149h127v-149h-127zM355 587v149h127v-149h-127z" />
    <glyph glyph-name="uni0452" unicode="&#x452;" horiz-adv-x="665" 
d="M83 0v572h-90v90h90v74h127v-74h193v-90h-193v-151q17 34 62 65t105 31q95 0 153 -62t58 -160v-330q0 -92 -42.5 -135t-130.5 -43h-135v105h93q46 0 66.5 21.5t20.5 66.5v290q0 60 -33 96.5t-90 36.5t-92 -36.5t-35 -96.5v-270h-127z" />
    <glyph glyph-name="uni0453" unicode="&#x453;" horiz-adv-x="502" 
d="M81 0v506h392v-109h-265v-397h-127zM206 580l109 187h133l-116 -187h-126z" />
    <glyph glyph-name="uni0454" unicode="&#x454;" horiz-adv-x="604" 
d="M561 340h-126q-5 9 -11.5 18.5t-20.5 22.5t-37 21.5t-51 8.5q-48 0 -82.5 -27.5t-48.5 -76.5h197v-102h-198q12 -51 47.5 -80.5t85.5 -29.5q88 0 121 71h124q-2 -23 -16 -51t-41 -58t-77 -50t-113 -20q-113 0 -189 75t-76 191q0 115 75.5 190.5t187.5 75.5
q63 0 113 -19.5t77 -49.5t41 -57.5t18 -52.5z" />
    <glyph glyph-name="uni0455" unicode="&#x455;" horiz-adv-x="578" 
d="M327 198q-38 3 -89 9q-86 6 -136 46.5t-50 111.5t60.5 113t162.5 42q64 0 112.5 -15t75.5 -39t40.5 -45t19.5 -44h-135q-38 46 -114 46q-45 0 -69 -13.5t-24 -37.5q0 -43 72 -53l86 -9q102 -9 147.5 -48.5t45.5 -115.5q0 -73 -60.5 -116.5t-173.5 -43.5q-53 0 -97.5 12
t-72 29.5t-48 39.5t-29.5 40.5t-12 34.5h137q4 -9 14.5 -20.5t39.5 -24t68 -12.5q51 0 77.5 15.5t26.5 40.5q0 24 -17 38t-58 19z" />
    <glyph glyph-name="uni0456" unicode="&#x456;" horiz-adv-x="295" 
d="M81 587v152h133v-152h-133zM84 0v506h128v-506h-128z" />
    <glyph glyph-name="uni0457" unicode="&#x457;" horiz-adv-x="292" 
d="M18 587v152h106v-152h-106zM168 587v152h106v-152h-106zM82 0v506h128v-506h-128z" />
    <glyph glyph-name="uni0458" unicode="&#x458;" horiz-adv-x="294" 
d="M82 587v152h134v-152h-134zM213 506v-548q0 -87 -41 -129t-125 -42h-157v105h114q42 0 61.5 20t19.5 62v532h128z" />
    <glyph glyph-name="uni0459" unicode="&#x459;" horiz-adv-x="911" 
d="M122 230l27 276h385v-157h145q103 0 152.5 -47.5t49.5 -125.5q0 -75 -50 -125.5t-151 -50.5h-273v397h-154l-17 -180q-10 -118 -48.5 -170t-125.5 -52h-34v116h12q44 0 60 24t22 95zM660 245h-126v-142h126q91 0 91 73q0 33 -23.5 51t-67.5 18z" />
    <glyph glyph-name="uni045A" unicode="&#x45a;" horiz-adv-x="945" 
d="M81 0v506h127v-166h236v166h127v-166h149q99 0 147 -46t48 -121q0 -73 -49 -123t-145 -50h-277v231h-236v-231h-127zM701 237h-130v-134h130q83 0 83 70q0 30 -21.5 47t-61.5 17z" />
    <glyph glyph-name="uni045B" unicode="&#x45b;" horiz-adv-x="665" 
d="M210 270v-270h-127v572h-90v91h90v73h127v-73h193v-91h-193v-151q19 35 62.5 65.5t105.5 30.5q94 0 152.5 -62t58.5 -160v-295h-129v270q0 60 -33 96.5t-90 36.5t-92 -36.5t-35 -96.5z" />
    <glyph glyph-name="uni045C" unicode="&#x45c;" horiz-adv-x="621" 
d="M246 580l109 187h133l-116 -187h-126zM81 0v506h126v-213l234 213h167l-269 -242l282 -264h-170l-244 227v-227h-126z" />
    <glyph glyph-name="uni045E" unicode="&#x45e;" horiz-adv-x="599" 
d="M585 506l-312 -719h-128l96 222l-228 497h144l149 -344l149 344h130zM300 671q27 0 41 17.5t14 43.5v17h101v-19q0 -68 -39.5 -110.5t-116.5 -42.5t-116.5 42.5t-39.5 110.5v19h101v-17q0 -26 14 -43.5t41 -17.5z" />
    <glyph glyph-name="uni045F" unicode="&#x45f;" horiz-adv-x="652" 
d="M269 -149v149h-186v506h127v-397h232v397h127v-506h-186v-149h-114z" />
    <glyph glyph-name="uni0490" unicode="&#x490;" horiz-adv-x="721" 
d="M98 0v710h472v165h121v-285h-459v-590h-134z" />
    <glyph glyph-name="uni0491" unicode="&#x491;" horiz-adv-x="495" 
d="M81 0v506h272v149h114v-258h-259v-397h-127z" />
    <glyph glyph-name="uni0492" unicode="&#x492;" horiz-adv-x="741" 
d="M11 302v112h107v296h593v-120h-459v-176h225v-112h-225v-302h-134v302h-107z" />
    <glyph glyph-name="uni0493" unicode="&#x493;" horiz-adv-x="509" 
d="M88 0v182h-72v104h72v220h392v-109h-265v-111h137v-104h-137v-182h-127z" />
    <glyph glyph-name="uni0496" unicode="&#x496;" horiz-adv-x="1155" 
d="M2 0l372 362l-360 348h167l327 -319v319h130v-320l327 320h166l-357 -344l252 -246h123v-281h-121v161h-53l-337 326v-326h-130v325l-337 -325h-169z" />
    <glyph glyph-name="uni0497" unicode="&#x497;" horiz-adv-x="879" 
d="M374 0v222l-211 -222h-163l248 260l-238 246h163l201 -209v209h122v-208l200 208h162l-235 -243l146 -154h104v-258h-113v149h-54l-210 221v-221h-122z" />
    <glyph glyph-name="uni0498" unicode="&#x498;" horiz-adv-x="776" 
d="M392 722q149 0 227 -54t78 -144q0 -60 -33 -101.5t-81 -54.5q56 -15 93.5 -54.5t37.5 -98.5q0 -96 -66 -154t-189 -70v-152h-121v152q-68 6 -122.5 30t-87.5 56.5t-51 67.5t-21 69h136q16 -44 65.5 -74.5t136.5 -30.5q89 0 136 28t47 80q0 87 -156 87h-106v114h106
q138 0 138 93q0 90 -169 90q-147 0 -194 -93h-137q7 38 29 74t60 68.5t101.5 52t142.5 19.5z" />
    <glyph glyph-name="uni0499" unicode="&#x499;" horiz-adv-x="607" 
d="M305 90q118 0 118 64q0 55 -92 55h-82v93h78q86 0 86 57q0 58 -109 58q-97 0 -128 -67h-122q11 70 74.5 119.5t177.5 49.5q112 0 172.5 -40t60.5 -110q0 -42 -23.5 -70.5t-58.5 -38.5q42 -10 68.5 -39t26.5 -71q0 -66 -50 -108t-141 -52v-139h-113v140
q-93 13 -145.5 62.5t-59.5 110.5h125q13 -30 47 -52t90 -22z" />
    <glyph glyph-name="uni049A" unicode="&#x49a;" horiz-adv-x="801" 
d="M98 0v710h134v-319l366 319h180l-397 -345l278 -245h136v-281h-121v161h-66l-376 325v-325h-134z" />
    <glyph glyph-name="uni049B" unicode="&#x49b;" horiz-adv-x="627" 
d="M81 0v506h126v-213l234 213h167l-269 -242l166 -155h116v-258h-113v149h-57l-244 227v-227h-126z" />
    <glyph glyph-name="uni049C" unicode="&#x49c;" horiz-adv-x="878" 
d="M98 0v710h134v-710h-134zM406 157h-109v395h109v-162l295 320h151l-320 -346l343 -364h-163l-306 326v-169z" />
    <glyph glyph-name="uni049D" unicode="&#x49d;" horiz-adv-x="705" 
d="M81 0v506h125v-506h-125zM339 97h-88v322h88v-125l192 212h156l-223 -242l241 -264h-164l-202 225v-128z" />
    <glyph glyph-name="uni04A0" unicode="&#x4a0;" horiz-adv-x="1054" 
d="M37 590v120h452v-319l366 319h180l-397 -345l414 -365h-187l-376 325v-325h-134v590h-318z" />
    <glyph glyph-name="uni04A1" unicode="&#x4a1;" horiz-adv-x="782" 
d="M242 0v397h-214v109h339v-213l234 213h167l-269 -242l283 -264h-171l-244 227v-227h-125z" />
    <glyph glyph-name="uni04A2" unicode="&#x4a2;" horiz-adv-x="880" 
d="M98 0v710h134v-293h390v293h135v-590h106v-281h-121v161h-120v297h-390v-297h-134z" />
    <glyph glyph-name="uni04A3" unicode="&#x4a3;" horiz-adv-x="678" 
d="M83 0v506h127v-193h242v193h127v-397h89v-258h-114v149h-102v204h-242v-204h-127z" />
    <glyph glyph-name="uni04AA" unicode="&#x4aa;" horiz-adv-x="803" 
d="M473 -161h-120v155q-130 22 -211.5 121.5t-81.5 239.5q0 157 101.5 262t256.5 105q77 0 140.5 -23.5t101 -61t59.5 -74t30 -71.5h-138q-23 40 -70.5 73.5t-122.5 33.5q-97 0 -158 -71t-61 -173t61 -173t158 -71q81 0 128 34t67 74h136q-7 -30 -24.5 -62t-49 -68t-84 -63
t-118.5 -34v-153z" />
    <glyph glyph-name="uni04AB" unicode="&#x4ab;" horiz-adv-x="601" 
d="M558 339h-127q-41 67 -120 67q-58 0 -95 -44t-37 -109t37 -109t96 -44q79 0 119 64q1 2 2 3h125q-5 -48 -52 -103.5t-136 -71.5v-141h-113v141q-92 18 -150 89t-58 172q0 116 74.5 191t185.5 75q63 0 113 -20t77 -50t41 -58t18 -52z" />
    <glyph glyph-name="uni04AE" unicode="&#x4ae;" horiz-adv-x="782" 
d="M465 300v-300h-138v299l-319 411h171l221 -289l220 289h154z" />
    <glyph glyph-name="uni04AF" unicode="&#x4af;" 
d="M240 -213v213l-227 506h144l149 -357l149 357h131l-219 -506v-213h-127z" />
    <glyph glyph-name="uni04B0" unicode="&#x4b0;" horiz-adv-x="782" 
d="M137 185v115h189l-318 410h172l220 -289l220 289h154l-309 -410h190v-115h-190v-185h-138v185h-190z" />
    <glyph glyph-name="uni04B1" unicode="&#x4b1;" 
d="M240 -213v116h-135v97h135l-227 506h144l149 -357l149 357h131l-219 -506h135v-97h-135v-116h-127z" />
    <glyph glyph-name="uni04B2" unicode="&#x4b2;" horiz-adv-x="831" 
d="M180 0h-158l308 359l-300 351h176l211 -250l214 250h162l-297 -344l208 -246h115v-281h-121v161h-61l-227 266z" />
    <glyph glyph-name="uni04B3" unicode="&#x4b3;" horiz-adv-x="627" 
d="M161 0h-147l224 250l-225 256h164l143 -165l148 165h148l-223 -248l129 -149h100v-258h-113v149h-50l-148 167z" />
    <glyph glyph-name="uni04B6" unicode="&#x4b6;" horiz-adv-x="842" 
d="M585 0v277q-21 -4 -67 -10q-80 -10 -151 -10q-145 0 -216 63t-71 206v184h134v-182q0 -84 38 -119t121 -35q70 0 148 10q42 5 64 11v315h134v-590h107v-281h-121v161h-120z" />
    <glyph glyph-name="uni04B7" unicode="&#x4b7;" horiz-adv-x="650" 
d="M425 0v179l-37 -6q-38 -5 -95 -5q-112 0 -167.5 47.5t-55.5 155.5v135h127v-128q0 -54 22.5 -78t82.5 -24q58 0 89 4q12 1 34 5v221h127v-397h88v-258h-113v149h-102z" />
    <glyph glyph-name="uni04B8" unicode="&#x4b8;" horiz-adv-x="817" 
d="M455 126h-109v131q-134 4 -200 67.5t-66 201.5v184h134v-182q0 -77 32 -112.5t100 -40.5v157h109v-155q49 4 93 11q6 1 37 7v315h134v-710h-134v277l-37 -6q-50 -7 -93 -10v-135z" />
    <glyph glyph-name="uni04B9" unicode="&#x4b9;" horiz-adv-x="642" 
d="M358 68h-89v101q-100 6 -149.5 53.5t-49.5 148.5v135h127v-128q0 -46 16 -69.5t56 -29.5v110h89v-112q40 2 54 5l20 3v221h127v-506h-127v179l-20 -3q-20 -4 -54 -6v-102z" />
    <glyph glyph-name="uni04BA" unicode="&#x4ba;" horiz-adv-x="817" 
d="M232 710v-277q21 4 67 10q80 10 151 10q145 0 216 -63t71 -206v-184h-134v182q0 84 -38 119t-121 35q-70 0 -148 -10q-42 -5 -64 -11v-315h-134v710h134z" />
    <glyph glyph-name="uni04BB" unicode="&#x4bb;" horiz-adv-x="665" 
d="M210 270v-270h-127v736h127v-315q19 35 62.5 65.5t105.5 30.5q94 0 152.5 -62t58.5 -160v-295h-129v270q0 60 -33 96.5t-90 36.5t-92 -36.5t-35 -96.5z" />
    <glyph glyph-name="uni04C0" unicode="&#x4c0;" horiz-adv-x="333" 
d="M99 0v710h135v-710h-135z" />
    <glyph glyph-name="uni04C1" unicode="&#x4c1;" horiz-adv-x="1151" 
d="M2 0l372 362l-360 348h167l327 -319v319h130v-320l327 320h166l-357 -344l375 -366h-174l-337 326v-326h-130v325l-337 -325h-169zM574 860q30 0 45 18t15 45v11h101v-13q0 -68 -41.5 -111.5t-119.5 -43.5t-119.5 43.5t-41.5 111.5v13h101v-11q0 -27 15 -45t45 -18z" />
    <glyph glyph-name="uni04C2" unicode="&#x4c2;" horiz-adv-x="873" 
d="M374 0v222l-211 -222h-163l248 260l-238 246h163l201 -209v209h122v-208l200 208h162l-235 -243l250 -263h-167l-210 221v-221h-122zM435 668q27 0 41 17.5t14 43.5v17h101v-19q0 -68 -39.5 -110.5t-116.5 -42.5t-116.5 42.5t-39.5 110.5v19h101v-17q0 -26 14 -43.5
t41 -17.5z" />
    <glyph glyph-name="uni04CF" unicode="&#x4cf;" horiz-adv-x="297" 
d="M85 0v736h128v-736h-128z" />
    <glyph glyph-name="uni04D0" unicode="&#x4d0;" horiz-adv-x="815" 
d="M648 0l-65 146h-358l-65 -146h-135l319 713h127l320 -713h-143zM276 262h256l-128 287zM407 860q30 0 45 18t15 45v11h101v-13q0 -68 -41.5 -111.5t-119.5 -43.5t-119.5 43.5t-41.5 111.5v13h101v-11q0 -27 15 -45t45 -18z" />
    <glyph glyph-name="uni04D1" unicode="&#x4d1;" horiz-adv-x="668" 
d="M459 0v80q-5 -11 -16 -23.5t-30.5 -29t-52.5 -27.5t-72 -11q-101 0 -169.5 72t-68.5 192t69 192t170 72q49 0 88.5 -18.5t56 -36t24.5 -32.5v76h128v-506h-127zM460 253q0 65 -38.5 108.5t-99.5 43.5q-64 0 -103 -43t-39 -109t39 -109t103 -43q61 0 99.5 43.5t38.5 108.5
zM321 668q27 0 41 17.5t14 43.5v17h101v-19q0 -68 -39.5 -110.5t-116.5 -42.5t-116.5 42.5t-39.5 110.5v19h101v-17q0 -26 14 -43.5t41 -17.5z" />
    <glyph glyph-name="uni04D6" unicode="&#x4d6;" horiz-adv-x="752" 
d="M98 0v710h575v-116h-441v-162h263v-117h-263v-196h481v-119h-615zM396 860q30 0 45 18t15 45v11h101v-13q0 -68 -41.5 -111.5t-119.5 -43.5t-119.5 43.5t-41.5 111.5v13h101v-11q0 -27 15 -45t45 -18z" />
    <glyph glyph-name="uni04D7" unicode="&#x4d7;" horiz-adv-x="624" 
d="M314 519q118 0 191.5 -75t73.5 -198v-14h-402q4 -60 44.5 -99.5t102.5 -39.5q88 0 123 55h126q-3 -22 -18.5 -47.5t-43.5 -52t-77 -44t-110 -17.5q-122 0 -198.5 75.5t-76.5 190.5q0 117 74.5 191.5t190.5 74.5zM314 420q-52 0 -86.5 -26.5t-46.5 -73.5h264
q-30 100 -131 100zM314 668q27 0 41 17.5t14 43.5v17h101v-19q0 -68 -39.5 -110.5t-116.5 -42.5t-116.5 42.5t-39.5 110.5v19h101v-17q0 -26 14 -43.5t41 -17.5z" />
    <glyph glyph-name="uni04D8" unicode="&#x4d8;" horiz-adv-x="864" 
d="M427 602q-148 0 -206 -106h-135q25 91 115 158.5t229 67.5q163 0 268.5 -101.5t105.5 -265.5q0 -159 -106.5 -263t-265.5 -104q-161 0 -266.5 103t-105.5 264q0 19 1 28l2 16h604q-10 90 -75 146.5t-165 56.5zM432 106q92 0 154.5 53t77.5 133h-463q14 -79 76 -132.5
t155 -53.5z" />
    <glyph glyph-name="uni04D9" unicode="&#x4d9;" horiz-adv-x="628" 
d="M314 -12q-118 0 -191.5 75t-73.5 198v14h402q-4 60 -44.5 99.5t-102.5 39.5q-88 0 -123 -55h-126q3 22 18.5 47.5t43.5 52t77 44t110 17.5q122 0 198.5 -75.5t76.5 -190.5q0 -118 -74.5 -192t-190.5 -74zM314 87q52 0 86.5 26.5t46.5 73.5h-264q30 -100 131 -100z" />
    <glyph glyph-name="uni04E2" unicode="&#x4e2;" horiz-adv-x="864" 
d="M98 0v710h134v-530l400 530h134v-710h-134v530l-400 -530h-134zM606 801h-350v100h350v-100z" />
    <glyph glyph-name="uni04E3" unicode="&#x4e3;" horiz-adv-x="672" 
d="M83 0v506h126v-339l254 339h127v-506h-127v340l-254 -340h-126zM499 613h-324v101h324v-101z" />
    <glyph glyph-name="uni04E6" unicode="&#x4e6;" horiz-adv-x="864" 
d="M432 -12q-160 0 -266 104t-106 263t106.5 263t265.5 104t265.5 -104t106.5 -263q0 -158 -106.5 -262.5t-265.5 -104.5zM432 110q104 0 169.5 70.5t65.5 174.5q0 103 -65.5 174t-169.5 71t-169 -70.5t-65 -174.5q0 -105 64.5 -175t169.5 -70zM258 773v149h127v-149h-127z
M479 773v149h127v-149h-127z" />
    <glyph glyph-name="uni04E7" unicode="&#x4e7;" horiz-adv-x="643" 
d="M322 519q116 0 194 -75.5t78 -190.5t-78 -190.5t-194 -75.5q-117 0 -195 75.5t-78 190.5t78 190.5t195 75.5zM322 101q63 0 103 43.5t40 108.5t-40 108.5t-103 43.5t-103.5 -44t-40.5 -108t40.5 -108t103.5 -44zM153 587v149h127v-149h-127zM362 587v149h127v-149h-127z
" />
    <glyph glyph-name="uni04E8" unicode="&#x4e8;" horiz-adv-x="864" 
d="M432 -12q-160 0 -266 104t-106 263t106.5 263t265.5 104t265.5 -104t106.5 -263q0 -158 -106.5 -262.5t-265.5 -104.5zM432 604q-91 0 -154.5 -53.5t-77.5 -138.5h465q-16 85 -79 138.5t-154 53.5zM432 106q93 0 156.5 54t77.5 142h-467q14 -88 77 -142t156 -54z" />
    <glyph glyph-name="uni04E9" unicode="&#x4e9;" horiz-adv-x="643" 
d="M322 519q116 0 194 -75.5t78 -190.5t-78 -190.5t-194 -75.5q-117 0 -195 75.5t-78 190.5t78 190.5t195 75.5zM322 414q-54 0 -91 -30t-50 -81h281q-13 52 -50 81.5t-90 29.5zM322 92q55 0 92.5 31.5t48.5 85.5h-283q11 -54 48.5 -85.5t93.5 -31.5z" />
    <glyph glyph-name="uni04EE" unicode="&#x4ee;" horiz-adv-x="794" 
d="M339 0h-142l143 226l-320 484h157l239 -362l229 362h141zM590 801h-350v100h350v-100z" />
    <glyph glyph-name="uni04EF" unicode="&#x4ef;" horiz-adv-x="599" 
d="M585 506l-312 -719h-128l96 222l-228 497h144l149 -344l149 344h130zM462 610h-324v101h324v-101z" />
    <glyph glyph-name="uni04F2" unicode="&#x4f2;" horiz-adv-x="794" 
d="M339 0h-142l143 226l-320 484h157l239 -362l229 362h141zM446 773l80 156h124l-86 -156h-118zM248 773l77 156h125l-85 -156h-117z" />
    <glyph glyph-name="uni04F3" unicode="&#x4f3;" horiz-adv-x="599" 
d="M331 580l81 187h113l-87 -187h-107zM143 580l82 187h112l-87 -187h-107zM585 506l-312 -719h-128l96 222l-228 497h144l149 -344l149 344h130z" />
    <glyph glyph-name="Wgrave" unicode="&#x1e80;" horiz-adv-x="1138" 
d="M751 -3l-180 516l-181 -516h-116l-241 713h146l163 -509l174 512h119l175 -513l163 510h132l-234 -713h-120zM641 773h-136l-120 156h144z" />
    <glyph glyph-name="wgrave" unicode="&#x1e81;" horiz-adv-x="894" 
d="M576 -4l-129 352l-128 -352h-112l-189 510h139l117 -340l125 344h113l124 -341l116 337h124l-185 -510h-115zM515 580h-126l-116 187h133z" />
    <glyph glyph-name="Wacute" unicode="&#x1e82;" horiz-adv-x="1138" 
d="M751 -3l-180 516l-181 -516h-116l-241 713h146l163 -509l174 512h119l175 -513l163 510h132l-234 -713h-120zM507 773l112 156h144l-120 -156h-136z" />
    <glyph glyph-name="wacute" unicode="&#x1e83;" horiz-adv-x="894" 
d="M576 -4l-129 352l-128 -352h-112l-189 510h139l117 -340l125 344h113l124 -341l116 337h124l-185 -510h-115zM388 580l109 187h133l-116 -187h-126z" />
    <glyph glyph-name="Wdieresis" unicode="&#x1e84;" horiz-adv-x="1138" 
d="M751 -3l-180 516l-181 -516h-116l-241 713h146l163 -509l174 512h119l175 -513l163 510h132l-234 -713h-120zM399 773v149h127v-149h-127zM620 773v149h127v-149h-127z" />
    <glyph glyph-name="wdieresis" unicode="&#x1e85;" horiz-adv-x="894" 
d="M576 -4l-129 352l-128 -352h-112l-189 510h139l117 -340l125 344h113l124 -341l116 337h124l-185 -510h-115zM285 587v149h127v-149h-127zM494 587v149h127v-149h-127z" />
    <glyph glyph-name="Ygrave" unicode="&#x1ef2;" horiz-adv-x="782" 
d="M465 300v-300h-138v299l-319 411h171l221 -289l220 289h154zM476 773h-136l-120 156h144z" />
    <glyph glyph-name="ygrave" unicode="&#x1ef3;" horiz-adv-x="599" 
d="M585 506l-312 -719h-128l96 222l-228 497h144l149 -344l149 344h130zM370 580h-126l-116 187h133z" />
    <glyph glyph-name="uni2009" unicode="&#x2009;" horiz-adv-x="166" 
 />
    <glyph glyph-name="uni200A" unicode="&#x200a;" horiz-adv-x="83" 
 />
    <glyph glyph-name="endash" unicode="&#x2013;" horiz-adv-x="708" 
d="M80 251v93h548v-93h-548z" />
    <glyph glyph-name="emdash" unicode="&#x2014;" horiz-adv-x="1013" 
d="M80 251v93h853v-93h-853z" />
    <glyph glyph-name="quoteleft" unicode="&#x2018;" horiz-adv-x="311" 
d="M133 736h92q-61 -111 -65 -195h72v-155h-151v138q0 114 52 212z" />
    <glyph glyph-name="quoteright" unicode="&#x2019;" horiz-adv-x="311" 
d="M177 386h-92q61 105 65 195h-71v155h151v-138q0 -115 -53 -212z" />
    <glyph glyph-name="quotesinglbase" unicode="&#x201a;" horiz-adv-x="310" 
d="M177 -195h-92q61 105 65 195h-71v155h151v-138q0 -115 -53 -212z" />
    <glyph glyph-name="quotedblleft" unicode="&#x201c;" horiz-adv-x="540" 
d="M133 736h92q-61 -111 -65 -195h70v-155h-149v138q0 114 52 212zM364 736h92q-61 -111 -65 -195h70v-155h-150v138q0 115 53 212z" />
    <glyph glyph-name="quotedblright" unicode="&#x201d;" horiz-adv-x="540" 
d="M407 386h-92q61 111 65 195h-70v155h149v-138q0 -114 -52 -212zM176 386h-92q61 111 65 195h-70v155h150v-138q0 -115 -53 -212z" />
    <glyph glyph-name="quotedblbase" unicode="&#x201e;" horiz-adv-x="539" 
d="M407 -195h-92q61 111 65 195h-70v155h149v-138q0 -114 -52 -212zM176 -195h-92q61 111 65 195h-70v155h150v-138q0 -115 -53 -212z" />
    <glyph glyph-name="dagger" unicode="&#x2020;" horiz-adv-x="522" 
d="M476 422h-153v-422h-123v422h-154v115h154v173h123v-173h153v-115z" />
    <glyph glyph-name="daggerdbl" unicode="&#x2021;" horiz-adv-x="519" 
d="M471 169h-150v-169h-123v169h-150v111h150v151h-150v111h150v168h123v-168h150v-111h-150v-151h150v-111z" />
    <glyph glyph-name="bullet" unicode="&#x2022;" 
d="M300 526q87 0 148.5 -61.5t61.5 -148.5t-61.5 -148.5t-148.5 -61.5t-148.5 61.5t-61.5 148.5t61.5 148.5t148.5 61.5z" />
    <glyph glyph-name="ellipsis" unicode="&#x2026;" horiz-adv-x="849" 
d="M80 0v170h153v-170h-153zM348 0v170h153v-170h-153zM616 0v170h153v-170h-153z" />
    <glyph glyph-name="perthousand" unicode="&#x2030;" horiz-adv-x="1440" 
d="M245 348q-80 0 -134 54t-54 133t54 133t134 54t134 -54t54 -133t-54 -133t-134 -54zM186 0l512 710h119l-512 -710h-119zM245 443q39 0 63.5 26.5t24.5 65.5t-24.5 65t-63.5 26q-38 0 -62.5 -26t-24.5 -65q0 -40 24 -66t63 -26zM758 -14q-80 0 -134 54t-54 133t54 133
t134 54t134 -54t54 -133t-54 -133t-134 -54zM1194 -14q-80 0 -134 54t-54 133t54 133t134 54t134 -54t54 -133t-54 -133t-134 -54zM758 82q39 0 63.5 26t24.5 65t-24.5 65.5t-63.5 26.5q-38 0 -62.5 -26.5t-24.5 -65.5t24.5 -65t62.5 -26zM1194 82q39 0 63.5 26t24.5 65
t-24.5 65.5t-63.5 26.5q-38 0 -62.5 -26.5t-24.5 -65.5t24.5 -65t62.5 -26z" />
    <glyph glyph-name="uni2032" unicode="&#x2032;" horiz-adv-x="301" 
d="M160 403h-117l97 307h117z" />
    <glyph glyph-name="uni2033" unicode="&#x2033;" horiz-adv-x="505" 
d="M157 403h-114l97 307h114zM362 403h-113l98 307h115z" />
    <glyph glyph-name="guilsinglleft" unicode="&#x2039;" horiz-adv-x="353" 
d="M290 473l-111 -183l111 -185h-122l-108 184l109 184h121z" />
    <glyph glyph-name="guilsinglright" unicode="&#x203a;" horiz-adv-x="353" 
d="M293 289l-109 -184h-121l111 183l-111 185h122z" />
    <glyph glyph-name="fraction" unicode="&#x2044;" horiz-adv-x="562" 
d="M113 0h-113l448 710h114z" />
    <glyph glyph-name="zero.sup" unicode="&#x2070;" horiz-adv-x="535" 
d="M267 745q91 0 143.5 -50t52.5 -138v-142q0 -89 -52.5 -139t-143.5 -50t-143 49.5t-52 139.5v142q0 88 52 138t143 50zM267 327q41 0 62 25.5t21 66.5v133q0 43 -21 68t-62 25t-61.5 -25t-20.5 -68v-133q0 -42 21 -67t61 -25z" />
    <glyph glyph-name="four.sup" unicode="&#x2074;" horiz-adv-x="542" 
d="M504 370h-99v-134h-111v134h-253v77l228 289h136v-274h99v-92zM156 462h138v179z" />
    <glyph glyph-name="five.sup" unicode="&#x2075;" horiz-adv-x="509" 
d="M81 449v287h349v-91h-242v-106q32 36 99 36q70 0 116 -45t46 -121v-4q0 -78 -53 -128t-143 -50q-95 0 -145.5 48t-50.5 112h114q3 -23 23.5 -43t58.5 -20q37 0 59.5 23t22.5 58v3q0 36 -22 58t-60 22q-54 0 -72 -39h-100z" />
    <glyph glyph-name="six.sup" unicode="&#x2076;" horiz-adv-x="510" 
d="M455 407q0 -79 -54 -129.5t-146 -50.5q-91 0 -145 50.5t-54 129.5q0 54 20 95.5t64 97.5l108 136h126l-144 -181q25 18 68 18q70 0 113.5 -46t43.5 -120zM341 407q0 38 -22.5 61t-63.5 23q-38 0 -62 -23.5t-24 -60.5q0 -36 24 -59.5t62 -23.5q41 0 63.5 23t22.5 60z" />
    <glyph glyph-name="seven.sup" unicode="&#x2077;" horiz-adv-x="480" 
d="M433 664l-228 -428h-127l220 401h-248v99h383v-72z" />
    <glyph glyph-name="eight.sup" unicode="&#x2078;" horiz-adv-x="517" 
d="M457 372q0 -67 -50 -106t-139 -39h-21q-88 0 -137.5 39t-49.5 106q0 50 26 79.5t60 41.5q-31 10 -54.5 38t-23.5 75q0 63 47.5 100.5t133.5 37.5h20q86 0 133 -37.5t47 -100.5q0 -47 -23.5 -75t-54.5 -38q86 -33 86 -121zM265 658h-13q-32 0 -51 -16.5t-19 -45.5
q0 -30 18.5 -46t51.5 -16h13q33 0 51.5 16t18.5 46q0 29 -19 45.5t-51 16.5zM266 449h-15q-34 0 -55 -18t-21 -50t21 -49.5t55 -17.5h15q34 0 55 17.5t21 49.5t-21 50t-55 18z" />
    <glyph glyph-name="nine.sup" unicode="&#x2079;" horiz-adv-x="510" 
d="M370 372l-108 -136h-126l147 183q-29 -20 -71 -20q-71 0 -114 45.5t-43 119.5q0 79 54 129.5t146 50.5q91 0 145 -50t54 -129q0 -54 -20 -95.5t-64 -97.5zM169 564q0 -37 22.5 -60t63.5 -23q39 0 62.5 23.5t23.5 60.5q0 36 -23.5 59.5t-62.5 23.5q-41 0 -63.5 -23.5
t-22.5 -60.5z" />
    <glyph glyph-name="zero.sub" unicode="&#x2080;" horiz-adv-x="535" 
d="M267 379q91 0 143.5 -50t52.5 -138v-142q0 -89 -52.5 -139t-143.5 -50t-143 49.5t-52 139.5v142q0 88 52 138t143 50zM267 -39q41 0 62 25.5t21 66.5v133q0 43 -21 68t-62 25t-61.5 -25t-20.5 -68v-133q0 -42 21 -67t61 -25z" />
    <glyph glyph-name="one.sub" unicode="&#x2081;" horiz-adv-x="370" 
d="M282 372v-502h-113v378l-125 -69v103l153 90h85z" />
    <glyph glyph-name="two.sub" unicode="&#x2082;" horiz-adv-x="491" 
d="M452 -34v-96h-391v72l184 168q34 33 48 55t14 49q0 30 -18.5 48t-51.5 18q-34 0 -52.5 -20.5t-18.5 -55.5v-24h-109v26q0 77 48 124.5t133 47.5q86 0 135 -43.5t49 -115.5q0 -54 -25.5 -91t-83.5 -90l-80 -72h219z" />
    <glyph glyph-name="three.sub" unicode="&#x2083;" horiz-adv-x="503" 
d="M445 12q0 -69 -52 -110t-145 -41q-95 0 -145.5 46.5t-54.5 106.5h115q5 -22 26 -39.5t59 -17.5t60 17t22 46q0 59 -71 59h-95v94h88q64 0 64 54q0 26 -20 41.5t-53 15.5q-62 0 -73 -54h-112q3 60 50.5 104t134.5 44q89 0 137.5 -38t48.5 -105q0 -38 -21 -64t-47 -36
q33 -10 58.5 -40.5t25.5 -82.5z" />
    <glyph glyph-name="four.sub" unicode="&#x2084;" horiz-adv-x="542" 
d="M504 4h-99v-134h-111v134h-253v77l228 289h136v-274h99v-92zM156 96h138v179z" />
    <glyph glyph-name="five.sub" unicode="&#x2085;" horiz-adv-x="509" 
d="M81 83v287h349v-91h-242v-106q32 36 99 36q70 0 116 -45t46 -121v-4q0 -78 -53 -128t-143 -50q-95 0 -145.5 48t-50.5 112h114q3 -23 23.5 -43t58.5 -20q37 0 59.5 23t22.5 58v3q0 36 -22 58t-60 22q-54 0 -72 -39h-100z" />
    <glyph glyph-name="six.sub" unicode="&#x2086;" horiz-adv-x="510" 
d="M455 41q0 -79 -54 -129.5t-146 -50.5q-91 0 -145 50.5t-54 129.5q0 54 20 95.5t64 97.5l108 136h126l-144 -181q25 18 68 18q70 0 113.5 -46t43.5 -120zM341 41q0 38 -22.5 61t-63.5 23q-38 0 -62 -23.5t-24 -60.5q0 -36 24 -59.5t62 -23.5q41 0 63.5 23t22.5 60z" />
    <glyph glyph-name="seven.sub" unicode="&#x2087;" horiz-adv-x="480" 
d="M433 298l-228 -428h-127l220 401h-248v99h383v-72z" />
    <glyph glyph-name="eight.sub" unicode="&#x2088;" horiz-adv-x="517" 
d="M457 6q0 -67 -50 -106t-139 -39h-21q-88 0 -137.5 39t-49.5 106q0 50 26 79.5t60 41.5q-31 10 -54.5 38t-23.5 75q0 63 47.5 100.5t133.5 37.5h20q86 0 133 -37.5t47 -100.5q0 -47 -23.5 -75t-54.5 -38q86 -33 86 -121zM265 292h-13q-32 0 -51 -16.5t-19 -45.5
q0 -30 18.5 -46t51.5 -16h13q33 0 51.5 16t18.5 46q0 29 -19 45.5t-51 16.5zM266 83h-15q-34 0 -55 -18t-21 -50t21 -49.5t55 -17.5h15q34 0 55 17.5t21 49.5t-21 50t-55 18z" />
    <glyph glyph-name="nine.sub" unicode="&#x2089;" horiz-adv-x="510" 
d="M370 6l-108 -136h-126l147 183q-29 -20 -71 -20q-71 0 -114 45.5t-43 119.5q0 79 54 129.5t146 50.5q91 0 145 -50t54 -129q0 -54 -20 -95.5t-64 -97.5zM169 198q0 -37 22.5 -60t63.5 -23q39 0 62.5 23.5t23.5 60.5q0 36 -23.5 59.5t-62.5 23.5q-41 0 -63.5 -23.5
t-22.5 -60.5z" />
    <glyph glyph-name="won" unicode="&#x20a9;" horiz-adv-x="1054" 
d="M650 -3l-70 311h-95l-69 -311h-136l-81 307h-144v102h117l-81 304h136l71 -309h98l68 312h136l69 -312h98l70 309h125l-75 -304h111v-102h-136l-77 -307h-135zM501 401h61l-31 149zM318 308l31 -148l28 148h-59zM688 308l29 -153l31 153h-60z" />
    <glyph glyph-name="Euro" unicode="&#x20ac;" horiz-adv-x="701" 
d="M512 222h127q-2 -110 -68 -171.5t-177 -61.5q-112 0 -176.5 62.5t-64.5 175.5h-110v94h110v75h-110v94h110q2 108 66 170t175 62t176 -61.5t69 -166.5h-127q-4 49 -33 81t-85 32q-55 0 -86 -33t-31 -84h158v-94h-158v-75h158v-94h-158q1 -58 31.5 -90.5t86.5 -32.5
t85.5 32t31.5 86z" />
    <glyph glyph-name="uni20B4" unicode="&#x20b4;" horiz-adv-x="785" 
d="M38 394v94h514q6 15 6 36q0 40 -38 62.5t-110 22.5q-77 0 -122 -23.5t-62 -56.5h-136q9 36 29 68t56 61.5t96.5 47t138.5 17.5q127 0 205.5 -53t78.5 -144q0 -22 -3 -38h56v-94h-709zM79 202q0 28 4 43h-45v94h709v-94h-522q-9 -20 -9 -42q0 -48 42.5 -75.5t122.5 -27.5
q85 0 133.5 31t65.5 72h142q-11 -41 -33.5 -76.5t-61 -68.5t-102 -52t-144.5 -19q-146 0 -224 60t-78 155z" />
    <glyph glyph-name="uni20B8" unicode="&#x20b8;" horiz-adv-x="756" 
d="M37 616v94h682v-94h-682zM311 0v422h-274v119h682v-119h-274v-422h-134z" />
    <glyph glyph-name="uni20BD" unicode="&#x20bd;" horiz-adv-x="846" 
d="M30 126v94h131v75h-131v93h131v322h387q119 0 182 -54t63 -153q0 -100 -63.5 -154.5t-181.5 -54.5h-254v-74h354v-94h-354v-126h-133v126h-131zM541 591h-247v-198h247q56 0 85.5 27.5t29.5 74.5q0 96 -115 96z" />
    <glyph glyph-name="uni2116" unicode="&#x2116;" horiz-adv-x="1284" 
d="M1037 319q-95 0 -151 55t-56 146q0 92 56 147t151 55q96 0 152 -55t56 -147q0 -91 -56 -146t-152 -55zM1037 409q45 0 70.5 29.5t25.5 81.5q0 53 -25.5 82.5t-70.5 29.5t-70 -29.5t-25 -82.5q0 -52 25 -81.5t70 -29.5zM846 157v118h384v-118h-384zM764 710v-713h-105
l-431 544v-541h-130v710h156l381 -487v487h129z" />
    <glyph glyph-name="trademark" unicode="&#x2122;" horiz-adv-x="1026" 
d="M29 617v93h373v-93h-133v-306h-108v306h-132zM624 710l91 -249l92 249h147v-399h-97v304l-110 -306h-73l-109 308v-306h-94v399h153z" />
    <glyph glyph-name="onethird" unicode="&#x2153;" horiz-adv-x="985" 
d="M936 126q0 -61 -47.5 -97t-131.5 -36q-85 0 -130.5 42t-48.5 94h111q3 -17 20 -31t48 -14q67 0 67 49q0 45 -54 45h-86v90h80q47 0 47 40q0 22 -15.5 34t-42.5 12q-52 0 -59 -43h-109q3 53 46 92t122 39q81 0 124.5 -32.5t43.5 -92.5q0 -62 -57 -85q30 -10 51 -36t21 -70
zM259 712v-437h-111v319l-109 -59v98l137 79h83zM279 0h-113l448 710h114z" />
    <glyph glyph-name="twothirds" unicode="&#x2154;" horiz-adv-x="1106" 
d="M403 367v-92h-349v70l163 146q27 26 38.5 43t11.5 37q0 24 -14.5 38t-40.5 14q-27 0 -42.5 -16.5t-15.5 -43.5v-20h-104v21q0 68 43 110.5t119 42.5q78 0 122 -38.5t44 -102.5q0 -46 -23 -79.5t-73 -75.5l-62 -54h183zM1056 126q0 -61 -47.5 -97t-131.5 -36
q-85 0 -130.5 42t-48.5 94h111q3 -17 20 -31t48 -14q67 0 67 49q0 45 -54 45h-86v90h80q47 0 47 40q0 22 -15.5 34t-42.5 12q-52 0 -59 -43h-109q3 53 46 92t122 39q81 0 124.5 -32.5t43.5 -92.5q0 -62 -57 -85q30 -10 51 -36t21 -70zM400 0h-113l448 710h114z" />
    <glyph glyph-name="oneeighth" unicode="&#x215b;" horiz-adv-x="1002" 
d="M951 118q0 -58 -45 -91.5t-125 -33.5h-19q-79 0 -124 33.5t-45 91.5q0 43 22 69t52 36q-26 9 -46.5 34t-20.5 64q0 55 43 88t120 33h18q77 0 120 -33t43 -88q0 -72 -67 -98q30 -10 52 -36t22 -69zM776 361h-8q-27 0 -42.5 -13t-15.5 -37q0 -23 16 -36.5t42 -13.5h8
q26 0 42 13.5t16 36.5q0 24 -15.5 37t-42.5 13zM778 182h-12q-27 0 -44 -14t-17 -40t17 -40t44 -14h12q27 0 44 14t17 40t-17 40t-44 14zM259 712v-437h-111v319l-109 -59v98l137 79h83zM279 0h-113l448 710h114z" />
    <glyph glyph-name="threeeighths" unicode="&#x215c;" horiz-adv-x="1100" 
d="M399 401q0 -61 -47.5 -97t-131.5 -36q-85 0 -130.5 42t-48.5 94h111q3 -17 20 -31t48 -14q67 0 67 49q0 45 -54 45h-86v90h80q47 0 47 40q0 22 -15.5 34t-42.5 12q-52 0 -59 -43h-109q3 53 46 92t122 39q81 0 124.5 -32.5t43.5 -92.5q0 -62 -57 -85q30 -10 51 -36t21 -70
zM1049 118q0 -58 -45 -91.5t-125 -33.5h-19q-79 0 -124 33.5t-45 91.5q0 43 22 69t52 36q-26 9 -46.5 34t-20.5 64q0 55 43 88t120 33h18q77 0 120 -33t43 -88q0 -72 -67 -98q30 -10 52 -36t22 -69zM874 361h-8q-27 0 -42.5 -13t-15.5 -37q0 -23 16 -36.5t42 -13.5h8
q26 0 42 13.5t16 36.5q0 24 -15.5 37t-42.5 13zM876 182h-12q-27 0 -44 -14t-17 -40t17 -40t44 -14h12q27 0 44 14t17 40t-17 40t-44 14zM377 0h-113l448 710h114z" />
    <glyph glyph-name="fiveeighths" unicode="&#x215d;" horiz-adv-x="1096" 
d="M69 457v253h316v-86h-213v-84q30 32 85 32q64 0 104.5 -39t40.5 -107v-2q0 -70 -47.5 -113t-129.5 -43q-87 0 -132 42t-45 98h110q3 -18 20 -33.5t47 -15.5q29 0 47.5 18t18.5 46v2q0 29 -18 46.5t-48 17.5q-40 0 -58 -32h-98zM1045 118q0 -58 -45 -91.5t-125 -33.5h-19
q-79 0 -124 33.5t-45 91.5q0 43 22 69t52 36q-26 9 -46.5 34t-20.5 64q0 55 43 88t120 33h18q77 0 120 -33t43 -88q0 -72 -67 -98q30 -10 52 -36t22 -69zM870 361h-8q-27 0 -42.5 -13t-15.5 -37q0 -23 16 -36.5t42 -13.5h8q26 0 42 13.5t16 36.5q0 24 -15.5 37t-42.5 13z
M872 182h-12q-27 0 -44 -14t-17 -40t17 -40t44 -14h12q27 0 44 14t17 40t-17 40t-44 14zM373 0h-113l448 710h114z" />
    <glyph glyph-name="seveneighths" unicode="&#x215e;" horiz-adv-x="1011" 
d="M386 643l-196 -368h-123l187 342h-212v93h344v-67zM960 118q0 -58 -45 -91.5t-125 -33.5h-19q-79 0 -124 33.5t-45 91.5q0 43 22 69t52 36q-26 9 -46.5 34t-20.5 64q0 55 43 88t120 33h18q77 0 120 -33t43 -88q0 -72 -67 -98q30 -10 52 -36t22 -69zM785 361h-8
q-27 0 -42.5 -13t-15.5 -37q0 -23 16 -36.5t42 -13.5h8q26 0 42 13.5t16 36.5q0 24 -15.5 37t-42.5 13zM787 182h-12q-27 0 -44 -14t-17 -40t17 -40t44 -14h12q27 0 44 14t17 40t-17 40t-44 14zM289 0h-113l448 710h114z" />
    <glyph glyph-name="minus" unicode="&#x2212;" horiz-adv-x="692" 
d="M612 265h-532v115h532v-115z" />
    <glyph glyph-name="uni24C5" unicode="&#x24c5;" horiz-adv-x="867" 
d="M433 -12q-159 0 -263.5 105t-104.5 262q0 156 105.5 261.5t262.5 105.5q158 0 263.5 -105.5t105.5 -261.5t-105.5 -261.5t-263.5 -105.5zM433 68q125 0 203 82t78 205q0 122 -78 204.5t-203 82.5q-126 0 -203.5 -82t-77.5 -205q0 -124 78 -205.5t203 -81.5zM276 169v376
h202q72 0 110 -32.5t38 -94.5q0 -61 -38 -94.5t-110 -33.5h-101v-121h-101zM474 458h-97v-80h97q50 0 50 40t-50 40z" />
    <glyph glyph-name="zero.den" unicode="&#xe402;" horiz-adv-x="475" 
d="M238 443q82 0 129 -44t47 -122v-119q0 -78 -47 -122t-129 -44t-129.5 44t-47.5 122v119q0 78 47.5 122t129.5 44zM238 87q32 0 49 20t17 53v115q0 33 -17 53t-49 20t-49 -20t-17 -53v-115q0 -33 17 -53t49 -20z" />
    <glyph glyph-name="one.den" unicode="&#xe403;" horiz-adv-x="334" 
d="M259 437v-437h-111v319l-109 -59v98l137 79h83z" />
    <glyph glyph-name="two.den" unicode="&#xe404;" horiz-adv-x="439" 
d="M403 92v-92h-349v70l163 146q27 26 38.5 43t11.5 37q0 24 -14.5 38t-40.5 14q-27 0 -42.5 -16.5t-15.5 -43.5v-20h-104v21q0 68 43 110.5t119 42.5q78 0 122 -38.5t44 -102.5q0 -46 -23 -79.5t-73 -75.5l-62 -54h183z" />
    <glyph glyph-name="three.den" unicode="&#xe405;" horiz-adv-x="449" 
d="M399 126q0 -61 -47.5 -97t-131.5 -36q-85 0 -130.5 42t-48.5 94h111q3 -17 20 -31t48 -14q67 0 67 49q0 45 -54 45h-86v90h80q47 0 47 40q0 22 -15.5 34t-42.5 12q-52 0 -59 -43h-109q3 53 46 92t122 39q81 0 124.5 -32.5t43.5 -92.5q0 -62 -57 -85q30 -10 51 -36t21 -70
z" />
    <glyph glyph-name="four.den" unicode="&#xe406;" horiz-adv-x="485" 
d="M450 109h-84v-109h-107v109h-223v75l197 251h133v-239h84v-87zM143 196h116v151z" />
    <glyph glyph-name="five.den" unicode="&#xe407;" horiz-adv-x="454" 
d="M69 182v253h316v-86h-213v-84q30 32 85 32q64 0 104.5 -39t40.5 -107v-2q0 -70 -47.5 -113t-129.5 -43q-87 0 -132 42.5t-45 97.5h110q3 -18 20 -33.5t47 -15.5q29 0 47.5 18t18.5 46v1q0 29 -18 47t-48 18q-40 0 -58 -32h-98z" />
    <glyph glyph-name="six.den" unicode="&#xe408;" horiz-adv-x="454" 
d="M407 152q0 -70 -49 -114.5t-130 -44.5q-82 0 -131 43.5t-49 114.5q0 48 18 86t57 83l92 115h121l-127 -157q27 16 60 16q62 0 100 -39.5t38 -102.5zM296 152q0 30 -18.5 48.5t-50.5 18.5q-31 0 -50 -19.5t-19 -48.5t19 -47.5t50 -18.5q32 0 50.5 18.5t18.5 48.5z" />
    <glyph glyph-name="seven.den" unicode="&#xe409;" horiz-adv-x="426" 
d="M386 368l-196 -368h-123l187 342h-212v93h344v-67z" />
    <glyph glyph-name="eight.den" unicode="&#xe40a;" horiz-adv-x="460" 
d="M409 118q0 -58 -45 -91.5t-125 -33.5h-19q-79 0 -124 33.5t-45 91.5q0 43 22 69t52 36q-26 9 -46.5 34t-20.5 64q0 55 43 88t120 33h18q77 0 120 -33t43 -88q0 -72 -67 -98q30 -10 52 -36t22 -69zM234 361h-8q-27 0 -42.5 -13t-15.5 -37q0 -23 16 -36.5t42 -13.5h8
q26 0 42 13.5t16 36.5q0 24 -15.5 37t-42.5 13zM236 182h-12q-27 0 -44 -14t-17 -40t17 -40t44 -14h12q27 0 44 14t17 40t-17 40t-44 14z" />
    <glyph glyph-name="nine.den" unicode="&#xe40b;" horiz-adv-x="454" 
d="M332 115l-93 -115h-121l128 158q-25 -17 -61 -17q-62 0 -99.5 39t-37.5 103q0 70 48.5 114.5t129.5 44.5q82 0 131 -44.5t49 -113.5q0 -48 -17.5 -84.5t-56.5 -84.5zM158 283q0 -30 18.5 -48.5t50.5 -18.5q31 0 50.5 19.5t19.5 48.5q0 30 -19 48t-51 18t-50.5 -18.5
t-18.5 -48.5z" />
    <glyph glyph-name="zero.num" unicode="&#xe416;" horiz-adv-x="475" 
d="M238 718q82 0 129 -44t47 -122v-119q0 -78 -47 -122t-129 -44t-129.5 44t-47.5 122v119q0 78 47.5 122t129.5 44zM238 362q32 0 49 20t17 53v115q0 33 -17 53t-49 20t-49 -20t-17 -53v-115q0 -33 17 -53t49 -20z" />
    <glyph glyph-name="one.num" unicode="&#xe417;" horiz-adv-x="334" 
d="M259 712v-437h-111v319l-109 -59v98l137 79h83z" />
    <glyph glyph-name="two.num" unicode="&#xe418;" horiz-adv-x="439" 
d="M403 367v-92h-349v70l163 146q27 26 38.5 43t11.5 37q0 24 -14.5 38t-40.5 14q-27 0 -42.5 -16.5t-15.5 -43.5v-20h-104v21q0 68 43 110.5t119 42.5q78 0 122 -38.5t44 -102.5q0 -46 -23 -79.5t-73 -75.5l-62 -54h183z" />
    <glyph glyph-name="three.num" unicode="&#xe419;" horiz-adv-x="449" 
d="M399 401q0 -61 -47.5 -97t-131.5 -36q-85 0 -130.5 42t-48.5 94h111q3 -17 20 -31t48 -14q67 0 67 49q0 45 -54 45h-86v90h80q47 0 47 40q0 22 -15.5 34t-42.5 12q-52 0 -59 -43h-109q3 53 46 92t122 39q81 0 124.5 -32.5t43.5 -92.5q0 -62 -57 -85q30 -10 51 -36t21 -70
z" />
    <glyph glyph-name="four.num" unicode="&#xe41a;" horiz-adv-x="485" 
d="M450 384h-84v-109h-107v109h-223v75l197 251h133v-239h84v-87zM143 471h116v151z" />
    <glyph glyph-name="five.num" unicode="&#xe41b;" horiz-adv-x="454" 
d="M69 457v253h316v-86h-213v-84q30 32 85 32q64 0 104.5 -39t40.5 -107v-2q0 -70 -47.5 -113t-129.5 -43q-87 0 -132 42t-45 98h110q3 -18 20 -33.5t47 -15.5q29 0 47.5 18t18.5 46v2q0 29 -18 46.5t-48 17.5q-40 0 -58 -32h-98z" />
    <glyph glyph-name="six.num" unicode="&#xe41c;" horiz-adv-x="454" 
d="M407 427q0 -70 -49 -114.5t-130 -44.5q-82 0 -131 43.5t-49 114.5q0 48 18 86t57 83l92 115h121l-127 -157q27 16 60 16q62 0 100 -39.5t38 -102.5zM296 427q0 30 -18.5 48.5t-50.5 18.5q-31 0 -50 -19t-19 -49q0 -28 19 -47t50 -19q32 0 50.5 18.5t18.5 48.5z" />
    <glyph glyph-name="seven.num" unicode="&#xe41d;" horiz-adv-x="426" 
d="M386 643l-196 -368h-123l187 342h-212v93h344v-67z" />
    <glyph glyph-name="eight.num" unicode="&#xe41e;" horiz-adv-x="460" 
d="M409 393q0 -58 -45 -91.5t-125 -33.5h-19q-79 0 -124 33.5t-45 91.5q0 43 22 69.5t52 36.5q-25 7 -46 32.5t-21 64.5q0 55 43 88t120 33h18q77 0 120 -33t43 -88q0 -41 -20.5 -65.5t-46.5 -31.5q30 -10 52 -36.5t22 -69.5zM234 636h-8q-27 0 -42.5 -13t-15.5 -37
q0 -23 16 -36.5t42 -13.5h8q26 0 42 13.5t16 36.5q0 24 -15.5 37t-42.5 13zM236 457h-12q-27 0 -44 -14t-17 -40t17 -40t44 -14h12q27 0 44 14t17 40t-17 40t-44 14z" />
    <glyph glyph-name="nine.num" unicode="&#xe41f;" horiz-adv-x="454" 
d="M332 390l-93 -115h-121l128 158q-25 -17 -61 -17q-62 0 -99.5 39t-37.5 103q0 70 48.5 114.5t129.5 44.5q82 0 131 -44.5t49 -113.5q0 -48 -17.5 -84.5t-56.5 -84.5zM158 558q0 -30 18.5 -48.5t50.5 -18.5q31 0 50.5 19.5t19.5 48.5q0 30 -19 48t-51 18t-50.5 -18.5
t-18.5 -48.5z" />
    <glyph glyph-name="cyrbreve" unicode="&#xf6d4;" 
d="M300 668q27 0 41 17.5t14 43.5v17h101v-19q0 -68 -39.5 -110.5t-116.5 -42.5t-116.5 42.5t-39.5 110.5v19h101v-17q0 -26 14 -43.5t41 -17.5z" />
    <glyph glyph-name="f_i" unicode="&#xfb01;" horiz-adv-x="799" 
d="M476 398h-181v-398h-128v398h-139v108h139v74q0 156 169 156h171v-102h-132q-80 0 -80 -79v-49h181v-108zM585 587v152h133v-152h-133zM588 0v506h128v-506h-128z" />
    <glyph glyph-name="f_l" unicode="&#xfb02;" horiz-adv-x="801" 
d="M476 398h-181v-398h-128v398h-139v108h139v74q0 156 169 156h171v-102h-132q-80 0 -80 -79v-49h181v-108zM589 0v736h128v-736h-128z" />
    <glyph glyph-name="idotaccent" horiz-adv-x="295" 
d="M81 587v152h133v-152h-133zM84 0v506h128v-506h-128z" />
    <glyph glyph-name="f_b" horiz-adv-x="1178" 
d="M476 398h-181v-398h-128v398h-139v108h139v74q0 156 169 156h171v-102h-132q-80 0 -80 -79v-49h181v-108zM712 77v-77h-125v736h126v-310q6 11 17 23t31.5 29t53.5 28t72 11q103 0 172 -72t69 -192t-69 -192t-172 -72q-71 0 -116.5 31t-58.5 57zM711 253q0 -66 40 -109
t104 -43t103.5 43t39.5 109t-39.5 109t-103.5 43t-104 -43t-40 -109z" />
    <glyph glyph-name="f_h" horiz-adv-x="1169" 
d="M476 398h-181v-398h-128v398h-139v108h139v74q0 156 169 156h171v-102h-132q-80 0 -80 -79v-49h181v-108zM714 270v-270h-127v736h127v-315q19 35 62.5 65.5t105.5 30.5q94 0 152.5 -62t58.5 -160v-295h-129v270q0 60 -33 96.5t-90 36.5t-92 -36.5t-35 -96.5z" />
    <glyph glyph-name="f_j" horiz-adv-x="799" 
d="M476 398h-181v-398h-128v398h-139v108h139v74q0 156 169 156h171v-102h-132q-80 0 -80 -79v-49h181v-108zM585 587v152h134v-152h-134zM716 506v-548q0 -87 -41 -129t-125 -42h-157v105h114q42 0 61.5 20t19.5 62v532h128z" />
    <glyph glyph-name="f_k" horiz-adv-x="1126" 
d="M476 398h-181v-398h-128v398h-139v108h139v74q0 156 169 156h171v-102h-132q-80 0 -80 -79v-49h181v-108zM955 0l-242 230v-230h-126v736h126v-436l232 206h167l-269 -236l283 -270h-171z" />
    <glyph glyph-name="space_uni0326" horiz-adv-x="500" 
d="M291 -322h-87q35 64 40 114h-66v127h145v-101q0 -68 -32 -140z" />
    <glyph glyph-name="space_uni0326.alt" horiz-adv-x="500" 
d="M210 826h87q-35 -64 -40 -114h66v-127h-145v101q0 68 32 140z" />
    <glyph glyph-name="caron.alt" 
d="M215 580l53 194h115l-61 -194h-107z" />
    <glyph glyph-name="hyphen.uc" horiz-adv-x="493" 
d="M80 279v119h333v-119h-333z" />
    <glyph glyph-name="endash.uc" horiz-adv-x="708" 
d="M80 292v93h548v-93h-548z" />
    <glyph glyph-name="emdash.uc" horiz-adv-x="1013" 
d="M80 292v93h853v-93h-853z" />
    <glyph glyph-name="guilsinglleft.uc" horiz-adv-x="353" 
d="M290 500l-111 -183l111 -185h-122l-108 184l109 184h121z" />
    <glyph glyph-name="guilsinglright.uc" horiz-adv-x="353" 
d="M293 316l-109 -184h-121l111 183l-111 185h122z" />
    <glyph glyph-name="guillemotleft.uc" horiz-adv-x="578" 
d="M285 500l-107 -183l107 -185h-121l-104 184l105 184h120zM515 500l-109 -183l109 -185h-121l-105 184l106 184h120z" />
    <glyph glyph-name="guillemotright.uc" horiz-adv-x="578" 
d="M519 316l-106 -184h-120l108 183l-108 185h121zM290 316l-106 -184h-121l109 183l-109 185h121z" />
    <glyph glyph-name="at.uc" horiz-adv-x="1053" 
d="M828 56h125q-18 -28 -48.5 -55.5t-78 -55.5t-118.5 -45.5t-153 -17.5q-230 0 -362.5 130t-132.5 329q0 203 137 335.5t349 132.5q107 0 193.5 -31.5t141 -85.5t83.5 -123.5t29 -148.5q0 -129 -63.5 -213t-164.5 -84q-103 0 -128 66q-20 -29 -57.5 -47.5t-88.5 -18.5
q-90 0 -147.5 57.5t-57.5 157.5t61.5 166t161.5 66q102 0 142 -75l12 68h114l-50 -287q-12 -66 45 -66q49 0 86.5 55.5t37.5 155.5q0 137 -92.5 219t-257.5 82q-168 0 -276.5 -106t-108.5 -277q0 -164 108 -266t286 -102q166 0 273 85zM524 464q-53 0 -85.5 -35.5
t-32.5 -92.5q0 -49 27 -78t76 -29q53 0 85.5 35.5t32.5 92.5q0 49 -26.5 78t-76.5 29z" />
    <glyph glyph-name="grave.uc" 
d="M428 773h-136l-120 156h144z" />
    <glyph glyph-name="dieresis.uc" 
d="M126 773v149h127v-149h-127zM347 773v149h127v-149h-127z" />
    <glyph glyph-name="macron.uc" horiz-adv-x="500" 
d="M425 801h-350v100h350v-100z" />
    <glyph glyph-name="acute.uc" 
d="M172 773l112 156h144l-120 -156h-136z" />
    <glyph glyph-name="circumflex.uc" 
d="M333 771l-73 83l-73 -83h-125l139 161h118l136 -161h-122z" />
    <glyph glyph-name="caron.uc" 
d="M455 932l-139 -161h-118l-136 161h122l73 -83l73 83h125z" />
    <glyph glyph-name="breve.uc" 
d="M300 860q30 0 45 18t15 45v11h101v-13q0 -68 -41.5 -111.5t-119.5 -43.5t-119.5 43.5t-41.5 111.5v13h101v-11q0 -27 15 -45t45 -18z" />
    <glyph glyph-name="dotaccent.uc" 
d="M234 773v152h132v-152h-132z" />
    <glyph glyph-name="ring.uc" 
d="M300 763q-59 0 -97.5 38.5t-38.5 94.5t39 94t97 38t97.5 -38t39.5 -94t-39 -94.5t-98 -38.5zM300 835q26 0 43 17.5t17 43.5t-16.5 43t-43.5 17t-43.5 -17t-16.5 -43t17 -43.5t43 -17.5z" />
    <glyph glyph-name="tilde.uc" 
d="M302 807l-38 20q-26 12 -35 12q-16 0 -16 -22v-48h-93v77q0 96 84 96q16 0 34.5 -6t25.5 -9.5t34 -18.5l38 -19q28 -13 34 -13q17 0 17 23v48h93v-77q0 -45 -21.5 -70.5t-62.5 -25.5q-17 0 -34.5 5.5t-26 9.5t-33.5 18z" />
    <glyph glyph-name="hungarumlaut.uc" 
d="M297 773l80 156h124l-86 -156h-118zM99 773l77 156h125l-85 -156h-117z" />
    <glyph glyph-name="uni0414.bgr" horiz-adv-x="825" 
d="M704 -161v161h-584v-161h-120v281h79l267 593h130l270 -593h79v-281h-121zM215 120h384l-192 430z" />
    <glyph glyph-name="uni041B.bgr" horiz-adv-x="801" 
d="M25 0l304 712h134l313 -712h-154l-229 544l-230 -544h-138z" />
    <glyph glyph-name="uni0431.locl" horiz-adv-x="640" 
d="M49 240q0 68 32.5 124t94.5 88q-85 36 -85 117q0 70 47.5 107.5t149.5 44.5q195 15 261 22v-111q-39 -5 -258 -22q-80 -6 -80 -54q0 -28 31 -41t97 -23q114 -16 183 -77t69 -175q0 -111 -75.5 -182t-195.5 -71t-195.5 71t-75.5 182zM320 99q67 0 104.5 39.5t37.5 101.5
q0 60 -37.5 100t-104.5 40t-104.5 -40t-37.5 -100q0 -62 37.5 -101.5t104.5 -39.5z" />
    <glyph glyph-name="uni0432.bgr" horiz-adv-x="650" 
d="M75 233v277q0 102 64.5 169.5t187.5 67.5q115 0 181.5 -57t66.5 -151q0 -55 -26 -96.5t-70 -62.5q116 -44 116 -170q0 -98 -71 -161t-191 -63q-127 0 -192.5 66t-65.5 181zM327 636q-61 0 -93.5 -32t-32.5 -94v-85h122q124 0 124 107q0 49 -31.5 76.5t-88.5 27.5z
M201 316v-87q0 -132 132 -132q67 0 100.5 31t33.5 83t-33.5 78.5t-107.5 26.5h-125z" />
    <glyph glyph-name="uni0433.bgr" horiz-adv-x="563" 
d="M331 208l-89 -8q-41 -5 -58 -19t-17 -38q0 -26 26 -41t78 -15q39 0 68 12.5t39.5 24t14.5 20.5h137q-5 -21 -19.5 -45t-42.5 -51t-79.5 -44.5t-117.5 -17.5q-113 0 -173.5 43.5t-60.5 116.5q0 75 45.5 114t147.5 48l86 9q73 10 73 53q0 24 -24.5 37.5t-69.5 13.5
q-76 0 -114 -46h-135q6 23 20 45t40.5 46t75.5 39t112 15q102 0 162.5 -42t60.5 -113t-49.5 -109.5t-136.5 -47.5z" />
    <glyph glyph-name="uni0433.locl" horiz-adv-x="502" 
d="M81 0v506h392v-109h-265v-397h-127z" />
    <glyph glyph-name="uni0434.bgr" horiz-adv-x="674" 
d="M465 13v70q-5 -11 -17 -24t-32.5 -29.5t-53.5 -27.5t-71 -11q-102 0 -171.5 71.5t-69.5 191.5t69.5 191.5t171.5 71.5q50 0 91 -19.5t57 -36.5t25 -32v77h128v-495q0 -108 -69.5 -172t-202.5 -64q-68 0 -121.5 19t-82.5 47t-43.5 51t-18.5 41h147q42 -52 119 -52
q69 0 107 34.5t38 97.5zM466 254q0 65 -39.5 108t-102.5 43q-65 0 -104.5 -43t-39.5 -108q0 -64 39.5 -107.5t104.5 -43.5q63 0 102.5 43.5t39.5 107.5z" />
    <glyph glyph-name="uni0434.locl" horiz-adv-x="648" 
d="M423 109v288h-172l-9 -73q-18 -158 -54 -215h235zM123 -149h-113v258h55q44 64 62 222l21 175h402v-397h88v-258h-113v149h-402v-149z" />
    <glyph glyph-name="uni0436.bgr" horiz-adv-x="873" 
d="M374 0v222l-211 -222h-163l248 260l-238 246h163l201 -209v439h122v-438l200 208h162l-235 -243l250 -263h-167l-210 221v-221h-122z" />
    <glyph glyph-name="uni0437.bgr" horiz-adv-x="566" 
d="M529 5q0 -99 -68.5 -161t-184.5 -62q-117 0 -181.5 58.5t-75.5 142.5h129q10 -36 41 -63t87 -27q61 0 93 31t32 81q0 105 -127 105h-70v109h66q111 0 111 97q0 43 -27.5 67.5t-77.5 24.5q-89 0 -115 -69h-125q7 71 70 125.5t170 54.5q108 0 170.5 -53.5t62.5 -145.5
q0 -55 -28.5 -92t-70.5 -53q50 -16 84.5 -58.5t34.5 -111.5z" />
    <glyph glyph-name="uni0438.bgr" horiz-adv-x="658" 
d="M448 0v83q-21 -35 -63 -64.5t-101 -29.5q-92 0 -149.5 62t-57.5 159v296h128v-271q0 -60 32.5 -96t87.5 -36q56 0 89.5 36t33.5 96v271h128v-506h-128z" />
    <glyph glyph-name="uni0439.bgr" horiz-adv-x="658" 
d="M448 0v83q-21 -35 -63 -64.5t-101 -29.5q-92 0 -149.5 62t-57.5 159v296h128v-271q0 -60 32.5 -96t87.5 -36q56 0 89.5 36t33.5 96v271h128v-506h-128zM327 669q27 0 41 17.5t14 43.5v17h101v-19q0 -68 -39.5 -110.5t-116.5 -42.5t-116.5 42.5t-39.5 110.5v19h101v-17
q0 -26 14 -43.5t41 -17.5z" />
    <glyph glyph-name="uni043A.bgr" horiz-adv-x="621" 
d="M451 0l-242 230v-230h-126v736h126v-436l232 206h167l-269 -236l283 -270h-171z" />
    <glyph glyph-name="uni043B.bgr" 
d="M14 0l223 513h120l230 -513h-144l-149 354l-149 -354h-131z" />
    <glyph glyph-name="uni043D.bgr" horiz-adv-x="662" 
d="M83 0v506h127v-193h242v193h127v-506h-127v204h-242v-204h-127z" />
    <glyph glyph-name="uni043F.bgr" horiz-adv-x="665" 
d="M210 270v-270h-127v506h127v-85q19 35 62.5 65.5t105.5 30.5q94 0 152.5 -62t58.5 -160v-295h-129v270q0 60 -33 96.5t-90 36.5t-92 -36.5t-35 -96.5z" />
    <glyph glyph-name="uni043F.locl" horiz-adv-x="652" 
d="M83 0v506h486v-506h-127v397h-232v-397h-127z" />
    <glyph glyph-name="uni0442.bgr" horiz-adv-x="1033" 
d="M210 270v-270h-127v506h127v-85q17 35 61.5 65.5t104.5 30.5q64 0 112 -30t72 -83q59 113 186 113q95 0 152.5 -62t57.5 -160v-295h-128v270q0 61 -32 97t-88 36q-57 0 -91 -36.5t-34 -96.5v-270h-128v270q0 61 -32 97t-88 36q-57 0 -91 -36.5t-34 -96.5z" />
    <glyph glyph-name="uni0442.locl" horiz-adv-x="577" 
d="M225 0v397h-197v109h520v-109h-196v-397h-127z" />
    <glyph glyph-name="uni0446.bgr" horiz-adv-x="673" 
d="M205 506v-271q0 -60 32.5 -96t87.5 -36q56 0 89.5 36t33.5 96v271h128v-397h87v-258h-113v149h-102v83q-21 -35 -63 -64.5t-101 -29.5q-92 0 -149.5 62t-57.5 159v296h128z" />
    <glyph glyph-name="uni0447.bgr" horiz-adv-x="635" 
d="M425 0v179l-37 -6q-38 -5 -95 -5q-112 0 -167.5 47.5t-55.5 155.5v135h127v-128q0 -54 22.5 -78t82.5 -24q58 0 89 4q12 1 34 5v221h127v-506h-127z" />
    <glyph glyph-name="uni0448.bgr" horiz-adv-x="1033" 
d="M823 236v270h127v-506h-127v85q-17 -35 -61.5 -65.5t-104.5 -30.5q-64 0 -112 30t-72 83q-59 -113 -186 -113q-95 0 -152.5 62t-57.5 160v295h128v-270q0 -61 32 -97t88 -36q57 0 91 36.5t34 96.5v270h128v-270q0 -61 32 -97t88 -36q57 0 91 36.5t34 96.5z" />
    <glyph glyph-name="uni0449.bgr" horiz-adv-x="1048" 
d="M950 506v-397h88v-258h-113v149h-102v85q-17 -35 -61.5 -65.5t-104.5 -30.5q-64 0 -112 30t-72 83q-59 -113 -186 -113q-95 0 -152.5 62t-57.5 160v295h128v-270q0 -61 32 -97t88 -36q57 0 91 36.5t34 96.5v270h128v-270q0 -61 32 -97t88 -36q57 0 91 36.5t34 96.5v270
h127z" />
    <glyph glyph-name="uni044C.bgr" horiz-adv-x="591" 
d="M561 178q0 -75 -62.5 -133t-181.5 -58t-179.5 59.5t-60.5 144.5v315h127v-150h117q123 0 181.5 -48.5t58.5 -129.5zM204 252v-62q0 -48 29 -73.5t84 -25.5q54 0 83.5 24t29.5 63q0 74 -117 74h-109z" />
    <glyph glyph-name="uni044E.bgr" horiz-adv-x="867" 
d="M81 0v736h127v-423h82q20 93 91.5 149.5t169.5 56.5q114 0 190.5 -75.5t76.5 -190.5t-76.5 -190.5t-190.5 -75.5q-102 0 -174.5 60.5t-88.5 156.5h-80v-204h-127zM551 100q61 0 99.5 44t38.5 109t-38.5 109t-99.5 44t-99.5 -44t-38.5 -109t38.5 -109t99.5 -44z" />
    <glyph glyph-name="questiondown.uc" horiz-adv-x="547" 
d="M265 471v4h128v-22q0 -47 -15.5 -72t-64.5 -57l-70 -45q-68 -44 -68 -98q0 -39 24.5 -62t68.5 -23t69 27t25 71v29h124v-36q0 -91 -58.5 -145t-159.5 -54q-105 0 -163 51t-58 142q0 66 31 109.5t97 84.5l61 39q29 20 29 57zM405 710v-159h-152v159h152z" />
    <glyph glyph-name="exclamdown.uc" horiz-adv-x="342" 
d="M94 551v159h153v-159h-153zM108 0v475h125v-475h-125z" />
    <glyph glyph-name="A.sc" horiz-adv-x="697" 
d="M531 0l-45 105h-283l-45 -105h-128l251 576h134l252 -576h-136zM250 212h189l-94 219z" />
    <glyph glyph-name="B.sc" horiz-adv-x="699" 
d="M101 0v574h325q93 0 143 -40.5t50 -113.5q0 -43 -24.5 -74.5t-59.5 -41.5q42 -14 70 -50t28 -90q0 -76 -52 -120t-150 -44h-330zM404 471h-175v-125h175q82 0 82 63q0 62 -82 62zM410 245h-181v-142h181q90 0 90 71t-90 71z" />
    <glyph glyph-name="C.sc" horiz-adv-x="684" 
d="M357 -10q-128 0 -211 84t-83 213t83 213t211 84q65 0 117.5 -20t83 -51.5t47.5 -62t23 -58.5h-132q-13 27 -48.5 51.5t-90.5 24.5q-73 0 -117 -52t-44 -129t44 -128.5t117 -51.5q99 0 140 76h131q-6 -27 -22 -56t-45.5 -62t-83 -54t-120.5 -21z" />
    <glyph glyph-name="D.sc" horiz-adv-x="714" 
d="M101 0v574h236q142 0 227.5 -75t85.5 -212q0 -135 -86 -211t-227 -76h-236zM335 462h-104v-349h104q83 0 132.5 46.5t49.5 127.5q0 84 -49 129.5t-133 45.5z" />
    <glyph glyph-name="E.sc" horiz-adv-x="656" 
d="M101 0v574h476v-106h-346v-113h206v-110h-206v-135h379v-110h-509z" />
    <glyph glyph-name="F.sc" horiz-adv-x="644" 
d="M101 0v574h501v-107h-371v-120h213v-110h-213v-237h-130z" />
    <glyph glyph-name="G.sc" horiz-adv-x="721" 
d="M639 337v-266q-36 -31 -101 -56.5t-155 -25.5q-146 0 -233 82t-87 218q0 130 83.5 213t214.5 83q62 0 112 -16.5t80 -43t47.5 -52.5t24.5 -52h-135q-46 52 -129 52q-76 0 -121.5 -51.5t-45.5 -132.5q0 -83 51.5 -135.5t139.5 -52.5q85 0 130 29v102h-187v105h311z" />
    <glyph glyph-name="H.sc" horiz-adv-x="751" 
d="M520 0v230h-289v-230h-130v574h130v-229h289v229h130v-574h-130z" />
    <glyph glyph-name="I.sc" horiz-adv-x="334" 
d="M102 0v574h130v-574h-130z" />
    <glyph glyph-name="J.sc" horiz-adv-x="606" 
d="M508 574v-382q0 -95 -57 -148.5t-160 -53.5q-101 0 -155 53.5t-54 148.5v152h123v-143q0 -42 22 -67.5t64 -25.5t64 25.5t22 67.5v373h131z" />
    <glyph glyph-name="K.sc" horiz-adv-x="697" 
d="M511 0l-280 259v-259h-130v574h130v-251l272 251h170l-303 -278l316 -296h-175z" />
    <glyph glyph-name="L.sc" horiz-adv-x="617" 
d="M574 116v-116h-473v574h130v-458h343z" />
    <glyph glyph-name="M.sc" horiz-adv-x="881" 
d="M292 574l152 -384l152 384h184v-574h-125v454l-175 -456h-87l-173 453v-451h-119v574h191z" />
    <glyph glyph-name="N.sc" horiz-adv-x="756" 
d="M655 574v-576h-105l-323 409v-407h-126v574h148l282 -363v363h124z" />
    <glyph glyph-name="O.sc" horiz-adv-x="735" 
d="M367 -10q-130 0 -217 84t-87 213q0 131 87 214t217 83q131 0 218 -83t87 -214q0 -129 -87.5 -213t-217.5 -84zM367 106q77 0 125 52t48 129t-48 129t-125 52q-76 0 -124 -52t-48 -129t48 -129t124 -52z" />
    <glyph glyph-name="P.sc" horiz-adv-x="692" 
d="M101 0v574h330q99 0 152.5 -46.5t53.5 -136.5q0 -88 -54 -136t-152 -48h-200v-207h-130zM417 463h-186v-145h186q42 0 64 19.5t22 53.5q0 72 -86 72z" />
    <glyph glyph-name="Q.sc" horiz-adv-x="735" 
d="M672 287q0 -89 -42.5 -157.5t-116.5 -105.5l139 -147h-160l-113 114h-12q-130 0 -217 83.5t-87 212.5q0 131 87 214t217 83q131 0 218 -83t87 -214zM367 106q77 0 125 52t48 129t-48 129t-125 52q-76 0 -124 -52t-48 -129t48 -129t124 -52z" />
    <glyph glyph-name="R.sc" horiz-adv-x="704" 
d="M101 0v574h332q97 0 150 -45t53 -133q0 -120 -110 -159l131 -237h-137l-123 222h-166v-222h-130zM416 466h-185v-137h185q87 0 87 67q0 70 -87 70z" />
    <glyph glyph-name="S.sc" horiz-adv-x="651" 
d="M304 480q-106 0 -106 -59q0 -47 82 -58q33 -4 93 -9q102 -9 158 -51.5t56 -130.5q0 -84 -64.5 -133.5t-187.5 -49.5q-132 0 -201 53t-86 127h138q13 -30 49 -52.5t100 -22.5q57 0 87.5 19t30.5 50q0 33 -22 47.5t-66 20.5q-33 4 -94 9q-96 9 -151 53.5t-55 122.5
q0 80 65.5 124.5t173.5 44.5q126 0 190 -48t79 -114h-131q-34 57 -138 57z" />
    <glyph glyph-name="T.sc" horiz-adv-x="657" 
d="M43 460v114h571v-114h-221v-460h-129v460h-221z" />
    <glyph glyph-name="U.sc" horiz-adv-x="739" 
d="M371 109q67 0 104.5 41t37.5 110v314h129v-322q0 -115 -71.5 -189t-199.5 -74q-133 0 -203.5 73.5t-70.5 189.5v322h131v-314q0 -70 37 -110.5t106 -40.5z" />
    <glyph glyph-name="V.sc" horiz-adv-x="689" 
d="M657 574l-242 -575h-132l-251 575h149l171 -414l170 414h135z" />
    <glyph glyph-name="W.sc" horiz-adv-x="963" 
d="M618 -2l-135 391l-135 -391h-116l-193 576h142l120 -383l128 385h118l128 -386l120 384h129l-188 -576h-118z" />
    <glyph glyph-name="X.sc" horiz-adv-x="711" 
d="M521 0l-169 200l-172 -200h-152l248 290l-241 284h169l155 -186l159 186h156l-239 -277l248 -297h-162z" />
    <glyph glyph-name="Y.sc" horiz-adv-x="669" 
d="M408 241v-241h-136v241l-256 333h166l162 -214l162 214h147z" />
    <glyph glyph-name="Z.sc" horiz-adv-x="686" 
d="M636 114v-114h-576v74l335 387h-327v113h531v-73l-339 -387h376z" />
    <glyph glyph-name="Oslash.sc" horiz-adv-x="735" 
d="M672 287q0 -129 -87.5 -213t-217.5 -84q-91 0 -164 45l-32 -35h-129l88 97q-67 79 -67 190q0 131 86.5 214t217.5 83q88 0 163 -44l31 34h131l-88 -97q68 -81 68 -190zM192 287q0 -59 21 -99l239 265q-36 18 -85 18q-79 0 -127 -52t-48 -132zM542 287q0 57 -21 99
l-241 -266q36 -18 87 -18q79 0 127 52.5t48 132.5z" />
    <glyph glyph-name="AE.sc" horiz-adv-x="979" 
d="M933 112v-112h-492v123h-218l-77 -123h-141l362 574h534v-106h-332v-112h192v-110h-192v-134h364zM288 228h153v245z" />
    <glyph glyph-name="OE.sc" horiz-adv-x="997" 
d="M64 287q0 135 87 211t228 76h540v-106h-332v-112h192v-110h-192v-134h364v-112h-572q-141 0 -228 76t-87 211zM380 112h78v350h-78q-84 0 -134 -46.5t-50 -128.5t50 -128.5t134 -46.5z" />
    <glyph glyph-name="Eth.sc" horiz-adv-x="731" 
d="M29 342h89v232h236q142 0 227.5 -75t85.5 -212q0 -135 -86 -211t-227 -76h-236v236h-89v106zM400 236h-152v-125h105q82 0 131.5 47t49.5 129q0 85 -49 130.5t-132 45.5h-105v-121h152v-106z" />
    <glyph glyph-name="Dcroat.sc" horiz-adv-x="731" 
d="M29 342h89v232h236q142 0 227.5 -75t85.5 -212q0 -135 -86 -211t-227 -76h-236v236h-89v106zM400 236h-152v-125h105q82 0 131.5 47t49.5 129q0 85 -49 130.5t-132 45.5h-105v-121h152v-106z" />
    <glyph glyph-name="Eng.sc" horiz-adv-x="756" 
d="M655 574v-601q0 -73 -33.5 -106t-102.5 -33h-137v98h86q64 0 64 50q0 25 -35 72l-269 349v-403h-127v574h148l281 -371v371h125z" />
    <glyph glyph-name="IJ.sc" horiz-adv-x="940" 
d="M102 0v574h130v-574h-130zM842 574v-382q0 -95 -57 -148.5t-160 -53.5q-101 0 -155 53.5t-54 148.5v152h123v-143q0 -42 22 -67.5t64 -25.5t64 25.5t22 67.5v373h131z" />
    <glyph glyph-name="Aacute.sc" horiz-adv-x="697" 
d="M531 0l-45 105h-283l-45 -105h-128l251 576h134l252 -576h-136zM250 212h189l-94 219zM281 637l112 156h144l-120 -156h-136z" />
    <glyph glyph-name="Abreve.sc" horiz-adv-x="697" 
d="M531 0l-45 105h-283l-45 -105h-128l251 576h134l252 -576h-136zM250 212h189l-94 219zM348 724q30 0 45 18t15 45v11h101v-13q0 -68 -41.5 -111.5t-119.5 -43.5t-119.5 43.5t-41.5 111.5v13h101v-11q0 -27 15 -45t45 -18z" />
    <glyph glyph-name="Acircumflex.sc" horiz-adv-x="697" 
d="M531 0l-45 105h-283l-45 -105h-128l251 576h134l252 -576h-136zM250 212h189l-94 219zM421 635l-73 83l-73 -83h-125l139 161h118l136 -161h-122z" />
    <glyph glyph-name="Adieresis.sc" horiz-adv-x="697" 
d="M531 0l-45 105h-283l-45 -105h-128l251 576h134l252 -576h-136zM250 212h189l-94 219zM174 637v149h127v-149h-127zM395 637v149h127v-149h-127z" />
    <glyph glyph-name="Agrave.sc" horiz-adv-x="697" 
d="M531 0l-45 105h-283l-45 -105h-128l251 576h134l252 -576h-136zM250 212h189l-94 219zM416 637h-136l-120 156h144z" />
    <glyph glyph-name="Amacron.sc" horiz-adv-x="697" 
d="M531 0l-45 105h-283l-45 -105h-128l251 576h134l252 -576h-136zM250 212h189l-94 219zM523 665h-350v100h350v-100z" />
    <glyph glyph-name="Aogonek.sc" horiz-adv-x="697" 
d="M531 0l-45 105h-283l-45 -105h-128l251 576h134l252 -576q-6 -4 -17 -13q-28 -21 -40 -31t-22 -23t-10 -25q0 -25 31 -25h83v-96h-127q-59 0 -92 23.5t-33 69.5q0 35 22.5 61.5t66.5 58.5h2zM250 212h189l-94 219z" />
    <glyph glyph-name="Aring.sc" horiz-adv-x="697" 
d="M531 0l-45 105h-283l-45 -105h-128l251 576h134l252 -576h-136zM250 212h189l-94 219zM348 627q-59 0 -97.5 38.5t-38.5 94.5t39 94t97 38t97.5 -38t39.5 -94t-39 -94.5t-98 -38.5zM348 699q26 0 43 17.5t17 43.5t-16.5 43t-43.5 17t-43.5 -17t-16.5 -43t17 -43.5
t43 -17.5z" />
    <glyph glyph-name="Atilde.sc" horiz-adv-x="699" 
d="M531 0l-45 105h-283l-45 -105h-128l251 576h134l252 -576h-136zM250 212h189l-94 219zM351 671l-38 20q-26 12 -35 12q-16 0 -16 -22v-48h-93v77q0 96 84 96q16 0 34.5 -6t25.5 -9.5t34 -18.5l38 -19q28 -13 34 -13q17 0 17 23v48h93v-77q0 -45 -21.5 -70.5t-62.5 -25.5
q-17 0 -34.5 5.5t-26 9.5t-33.5 18z" />
    <glyph glyph-name="AEacute.sc" horiz-adv-x="979" 
d="M933 112v-112h-492v123h-218l-77 -123h-141l362 574h534v-106h-332v-112h192v-110h-192v-134h364zM288 228h153v245zM561 637l112 156h144l-120 -156h-136z" />
    <glyph glyph-name="Cacute.sc" horiz-adv-x="684" 
d="M357 -10q-128 0 -211 84t-83 213t83 213t211 84q65 0 117.5 -20t83 -51.5t47.5 -62t23 -58.5h-132q-13 27 -48.5 51.5t-90.5 24.5q-73 0 -117 -52t-44 -129t44 -128.5t117 -51.5q99 0 140 76h131q-6 -27 -22 -56t-45.5 -62t-83 -54t-120.5 -21zM290 637l112 156h144
l-120 -156h-136z" />
    <glyph glyph-name="Ccaron.sc" horiz-adv-x="684" 
d="M357 -10q-128 0 -211 84t-83 213t83 213t211 84q65 0 117.5 -20t83 -51.5t47.5 -62t23 -58.5h-132q-13 27 -48.5 51.5t-90.5 24.5q-73 0 -117 -52t-44 -129t44 -128.5t117 -51.5q99 0 140 76h131q-6 -27 -22 -56t-45.5 -62t-83 -54t-120.5 -21zM555 796l-139 -161h-118
l-136 161h122l73 -83l73 83h125z" />
    <glyph glyph-name="Ccedilla.sc" horiz-adv-x="684" 
d="M357 -10q-128 0 -211 84t-83 213t83 213t211 84q65 0 117.5 -20t83 -51.5t47.5 -62t23 -58.5h-132q-13 27 -48.5 51.5t-90.5 24.5q-73 0 -117 -52t-44 -129t44 -128.5t117 -51.5q99 0 140 76h131q-6 -27 -22 -56t-45.5 -62t-83 -54t-120.5 -21zM404 -156q0 30 -36 30h-91
v126h100v-49h9q124 0 124 -110q0 -53 -31.5 -85t-92.5 -32h-146v88h128q36 0 36 32z" />
    <glyph glyph-name="Ccircumflex.sc" horiz-adv-x="684" 
d="M357 -10q-128 0 -211 84t-83 213t83 213t211 84q65 0 117.5 -20t83 -51.5t47.5 -62t23 -58.5h-132q-13 27 -48.5 51.5t-90.5 24.5q-73 0 -117 -52t-44 -129t44 -128.5t117 -51.5q99 0 140 76h131q-6 -27 -22 -56t-45.5 -62t-83 -54t-120.5 -21zM430 635l-73 83l-73 -83
h-125l139 161h118l136 -161h-122z" />
    <glyph glyph-name="Cdotaccent.sc" horiz-adv-x="684" 
d="M357 -10q-128 0 -211 84t-83 213t83 213t211 84q65 0 117.5 -20t83 -51.5t47.5 -62t23 -58.5h-132q-13 27 -48.5 51.5t-90.5 24.5q-73 0 -117 -52t-44 -129t44 -128.5t117 -51.5q99 0 140 76h131q-6 -27 -22 -56t-45.5 -62t-83 -54t-120.5 -21zM291 637v152h132v-152
h-132z" />
    <glyph glyph-name="Dcaron.sc" horiz-adv-x="714" 
d="M101 0v574h236q142 0 227.5 -75t85.5 -212q0 -135 -86 -211t-227 -76h-236zM335 462h-104v-349h104q83 0 132.5 46.5t49.5 127.5q0 84 -49 129.5t-133 45.5zM530 796l-139 -161h-118l-136 161h122l73 -83l73 83h125z" />
    <glyph glyph-name="Eacute.sc" horiz-adv-x="656" 
d="M101 0v574h476v-106h-346v-113h206v-110h-206v-135h379v-110h-509zM272 637l112 156h144l-120 -156h-136z" />
    <glyph glyph-name="Ebreve.sc" horiz-adv-x="656" 
d="M101 0v574h476v-106h-346v-113h206v-110h-206v-135h379v-110h-509zM339 724q30 0 45 18t15 45v11h101v-13q0 -68 -41.5 -111.5t-119.5 -43.5t-119.5 43.5t-41.5 111.5v13h101v-11q0 -27 15 -45t45 -18z" />
    <glyph glyph-name="Ecaron.sc" horiz-adv-x="656" 
d="M101 0v574h476v-106h-346v-113h206v-110h-206v-135h379v-110h-509zM537 796l-139 -161h-118l-136 161h122l73 -83l73 83h125z" />
    <glyph glyph-name="Ecircumflex.sc" horiz-adv-x="656" 
d="M101 0v574h476v-106h-346v-113h206v-110h-206v-135h379v-110h-509zM412 635l-73 83l-73 -83h-125l139 161h118l136 -161h-122z" />
    <glyph glyph-name="Edieresis.sc" horiz-adv-x="656" 
d="M101 0v574h476v-106h-346v-113h206v-110h-206v-135h379v-110h-509zM165 637v149h127v-149h-127zM386 637v149h127v-149h-127z" />
    <glyph glyph-name="Edotaccent.sc" horiz-adv-x="656" 
d="M101 0v574h476v-106h-346v-113h206v-110h-206v-135h379v-110h-509zM274 637v152h132v-152h-132z" />
    <glyph glyph-name="Egrave.sc" horiz-adv-x="656" 
d="M101 0v574h476v-106h-346v-113h206v-110h-206v-135h379v-110h-509zM419 637h-136l-120 156h144z" />
    <glyph glyph-name="Emacron.sc" horiz-adv-x="656" 
d="M101 0v574h476v-106h-346v-113h206v-110h-206v-135h379v-110h-509zM514 665h-350v100h350v-100z" />
    <glyph glyph-name="Eogonek.sc" horiz-adv-x="656" 
d="M101 0v574h476v-106h-346v-113h206v-110h-206v-135h379v-110h-509zM557 -117v-96h-126q-59 0 -92 23.5t-33 68.5q0 25 16 48t31 35.5t51 37.5h128q-6 -4 -17 -13q-28 -21 -40 -31t-22 -23t-10 -25q0 -25 32 -25h82z" />
    <glyph glyph-name="Gbreve.sc" horiz-adv-x="721" 
d="M639 337v-266q-36 -31 -101 -56.5t-155 -25.5q-146 0 -233 82t-87 218q0 130 83.5 213t214.5 83q62 0 112 -16.5t80 -43t47.5 -52.5t24.5 -52h-135q-46 52 -129 52q-76 0 -121.5 -51.5t-45.5 -132.5q0 -83 51.5 -135.5t139.5 -52.5q85 0 130 29v102h-187v105h311z
M361 724q30 0 45 18t15 45v11h101v-13q0 -68 -41.5 -111.5t-119.5 -43.5t-119.5 43.5t-41.5 111.5v13h101v-11q0 -27 15 -45t45 -18z" />
    <glyph glyph-name="Gcircumflex.sc" horiz-adv-x="721" 
d="M639 337v-266q-36 -31 -101 -56.5t-155 -25.5q-146 0 -233 82t-87 218q0 130 83.5 213t214.5 83q62 0 112 -16.5t80 -43t47.5 -52.5t24.5 -52h-135q-46 52 -129 52q-76 0 -121.5 -51.5t-45.5 -132.5q0 -83 51.5 -135.5t139.5 -52.5q85 0 130 29v102h-187v105h311z
M434 635l-73 83l-73 -83h-125l139 161h118l136 -161h-122z" />
    <glyph glyph-name="Gcommaaccent.sc" horiz-adv-x="721" 
d="M639 337v-266q-36 -31 -101 -56.5t-155 -25.5q-146 0 -233 82t-87 218q0 130 83.5 213t214.5 83q62 0 112 -16.5t80 -43t47.5 -52.5t24.5 -52h-135q-46 52 -129 52q-76 0 -121.5 -51.5t-45.5 -132.5q0 -83 51.5 -135.5t139.5 -52.5q85 0 130 29v102h-187v105h311z
M427 -322h-87q35 64 40 114h-66v127h145v-101q0 -68 -32 -140z" />
    <glyph glyph-name="Gdotaccent.sc" horiz-adv-x="721" 
d="M639 337v-266q-36 -31 -101 -56.5t-155 -25.5q-146 0 -233 82t-87 218q0 130 83.5 213t214.5 83q62 0 112 -16.5t80 -43t47.5 -52.5t24.5 -52h-135q-46 52 -129 52q-76 0 -121.5 -51.5t-45.5 -132.5q0 -83 51.5 -135.5t139.5 -52.5q85 0 130 29v102h-187v105h311z
M295 637v152h132v-152h-132z" />
    <glyph glyph-name="Hbar.sc" horiz-adv-x="751" 
d="M520 0v230h-289v-230h-130v417h-69v84h69v73h130v-73h289v73h130v-73h69v-84h-69v-417h-130zM231 345h289v72h-289v-72z" />
    <glyph glyph-name="Hcircumflex.sc" horiz-adv-x="751" 
d="M520 0v230h-289v-230h-130v574h130v-229h289v229h130v-574h-130zM448 635l-73 83l-73 -83h-125l139 161h118l136 -161h-122z" />
    <glyph glyph-name="Iacute.sc" horiz-adv-x="334" 
d="M102 0v574h130v-574h-130zM100 637l112 156h144l-120 -156h-136z" />
    <glyph glyph-name="Ibreve.sc" horiz-adv-x="334" 
d="M102 0v574h130v-574h-130zM167 724q30 0 45 18t15 45v11h101v-13q0 -68 -41.5 -111.5t-119.5 -43.5t-119.5 43.5t-41.5 111.5v13h101v-11q0 -27 15 -45t45 -18z" />
    <glyph glyph-name="Icircumflex.sc" horiz-adv-x="334" 
d="M102 0v574h130v-574h-130zM240 635l-73 83l-73 -83h-125l139 161h118l136 -161h-122z" />
    <glyph glyph-name="Idieresis.sc" horiz-adv-x="334" 
d="M102 0v574h130v-574h-130zM-7 637v149h127v-149h-127zM214 637v149h127v-149h-127z" />
    <glyph glyph-name="Idotaccent.sc" horiz-adv-x="334" 
d="M102 0v574h130v-574h-130zM101 637v152h132v-152h-132z" />
    <glyph glyph-name="Igrave.sc" horiz-adv-x="334" 
d="M102 0v574h130v-574h-130zM235 637h-136l-120 156h144z" />
    <glyph glyph-name="Imacron.sc" horiz-adv-x="334" 
d="M102 0v574h130v-574h-130zM342 665h-350v100h350v-100z" />
    <glyph glyph-name="Iogonek.sc" horiz-adv-x="334" 
d="M102 0v574h130v-574q-6 -4 -17 -13q-28 -21 -40 -31t-22 -23t-10 -25q0 -25 32 -25h82v-96h-126q-59 0 -92 23.5t-33 68.5q0 25 15 48t31 36t50 37z" />
    <glyph glyph-name="Itilde.sc" horiz-adv-x="334" 
d="M102 0v574h130v-574h-130zM169 671l-38 20q-26 12 -35 12q-16 0 -16 -22v-48h-93v77q0 96 84 96q16 0 34.5 -6t25.5 -9.5t34 -18.5l38 -19q28 -13 34 -13q17 0 17 23v48h93v-77q0 -45 -21.5 -70.5t-62.5 -25.5q-17 0 -34.5 5.5t-26 9.5t-33.5 18z" />
    <glyph glyph-name="Jcircumflex.sc" horiz-adv-x="606" 
d="M508 574v-382q0 -95 -57 -148.5t-160 -53.5q-101 0 -155 53.5t-54 148.5v152h123v-143q0 -42 22 -67.5t64 -25.5t64 25.5t22 67.5v373h131zM513 635l-73 83l-73 -83h-125l139 161h118l136 -161h-122z" />
    <glyph glyph-name="Kcommaaccent.sc" horiz-adv-x="691" 
d="M511 0l-280 259v-259h-130v574h130v-251l272 251h170l-303 -278l316 -296h-175zM399 -322h-87q35 64 40 114h-66v127h145v-101q0 -68 -32 -140z" />
    <glyph glyph-name="Lacute.sc" horiz-adv-x="617" 
d="M574 116v-116h-473v574h130v-458h343zM100 637l112 156h144l-120 -156h-136z" />
    <glyph glyph-name="Lcaron.sc" horiz-adv-x="617" 
d="M574 116v-116h-473v574h130v-458h343zM297 428l53 194h115l-61 -194h-107z" />
    <glyph glyph-name="Lcommaaccent.sc" horiz-adv-x="617" 
d="M574 116v-116h-473v574h130v-458h343zM382 -322h-87q35 64 40 114h-66v127h145v-101q0 -68 -32 -140z" />
    <glyph glyph-name="Ldot.sc" horiz-adv-x="617" 
d="M574 116v-116h-473v574h130v-458h343zM399 259v170h153v-170h-153z" />
    <glyph glyph-name="Lslash.sc" horiz-adv-x="623" 
d="M580 116v-116h-473v171l-81 -37v105l81 37v298h130v-238l204 95v-108l-204 -93v-114h343z" />
    <glyph glyph-name="Nacute.sc" horiz-adv-x="756" 
d="M655 574v-576h-105l-323 409v-407h-126v574h148l282 -363v363h124zM313 637l112 156h144l-120 -156h-136z" />
    <glyph glyph-name="Ncaron.sc" horiz-adv-x="756" 
d="M655 574v-576h-105l-323 409v-407h-126v574h148l282 -363v363h124zM577 796l-139 -161h-118l-136 161h122l73 -83l73 83h125z" />
    <glyph glyph-name="Ncommaaccent.sc" horiz-adv-x="756" 
d="M655 574v-576h-105l-323 409v-407h-126v574h148l282 -363v363h124zM425 -322h-87q35 64 40 114h-66v127h145v-101q0 -68 -32 -140z" />
    <glyph glyph-name="Ntilde.sc" horiz-adv-x="756" 
d="M655 574v-576h-105l-323 409v-407h-126v574h148l282 -363v363h124zM382 671l-38 20q-26 12 -35 12q-16 0 -16 -22v-48h-93v77q0 96 84 96q16 0 34.5 -6t25.5 -9.5t34 -18.5l38 -19q28 -13 34 -13q17 0 17 23v48h93v-77q0 -45 -21.5 -70.5t-62.5 -25.5q-17 0 -34.5 5.5
t-26 9.5t-33.5 18z" />
    <glyph glyph-name="Oacute.sc" horiz-adv-x="735" 
d="M367 -10q-130 0 -217 84t-87 213q0 131 87 214t217 83q131 0 218 -83t87 -214q0 -129 -87.5 -213t-217.5 -84zM367 106q77 0 125 52t48 129t-48 129t-125 52q-76 0 -124 -52t-48 -129t48 -129t124 -52zM300 637l112 156h144l-120 -156h-136z" />
    <glyph glyph-name="Obreve.sc" horiz-adv-x="735" 
d="M367 -10q-130 0 -217 84t-87 213q0 131 87 214t217 83q131 0 218 -83t87 -214q0 -129 -87.5 -213t-217.5 -84zM367 106q77 0 125 52t48 129t-48 129t-125 52q-76 0 -124 -52t-48 -129t48 -129t124 -52zM367 724q30 0 45 18t15 45v11h101v-13q0 -68 -41.5 -111.5
t-119.5 -43.5t-119.5 43.5t-41.5 111.5v13h101v-11q0 -27 15 -45t45 -18z" />
    <glyph glyph-name="Ocircumflex.sc" horiz-adv-x="735" 
d="M367 -10q-130 0 -217 84t-87 213q0 131 87 214t217 83q131 0 218 -83t87 -214q0 -129 -87.5 -213t-217.5 -84zM367 106q77 0 125 52t48 129t-48 129t-125 52q-76 0 -124 -52t-48 -129t48 -129t124 -52zM440 635l-73 83l-73 -83h-125l139 161h118l136 -161h-122z" />
    <glyph glyph-name="Odieresis.sc" horiz-adv-x="735" 
d="M367 -10q-130 0 -217 84t-87 213q0 131 87 214t217 83q131 0 218 -83t87 -214q0 -129 -87.5 -213t-217.5 -84zM367 106q77 0 125 52t48 129t-48 129t-125 52q-76 0 -124 -52t-48 -129t48 -129t124 -52zM193 637v149h127v-149h-127zM414 637v149h127v-149h-127z" />
    <glyph glyph-name="Ograve.sc" horiz-adv-x="735" 
d="M367 -10q-130 0 -217 84t-87 213q0 131 87 214t217 83q131 0 218 -83t87 -214q0 -129 -87.5 -213t-217.5 -84zM367 106q77 0 125 52t48 129t-48 129t-125 52q-76 0 -124 -52t-48 -129t48 -129t124 -52zM435 637h-136l-120 156h144z" />
    <glyph glyph-name="Ohungarumlaut.sc" horiz-adv-x="735" 
d="M367 -10q-130 0 -217 84t-87 213q0 131 87 214t217 83q131 0 218 -83t87 -214q0 -129 -87.5 -213t-217.5 -84zM367 106q77 0 125 52t48 129t-48 129t-125 52q-76 0 -124 -52t-48 -129t48 -129t124 -52zM404 637l80 156h124l-86 -156h-118zM206 637l77 156h125l-85 -156
h-117z" />
    <glyph glyph-name="Omacron.sc" horiz-adv-x="735" 
d="M367 -10q-130 0 -217 84t-87 213q0 131 87 214t217 83q131 0 218 -83t87 -214q0 -129 -87.5 -213t-217.5 -84zM367 106q77 0 125 52t48 129t-48 129t-125 52q-76 0 -124 -52t-48 -129t48 -129t124 -52zM542 665h-350v100h350v-100z" />
    <glyph glyph-name="Otilde.sc" horiz-adv-x="735" 
d="M367 -10q-130 0 -217 84t-87 213q0 131 87 214t217 83q131 0 218 -83t87 -214q0 -129 -87.5 -213t-217.5 -84zM367 106q77 0 125 52t48 129t-48 129t-125 52q-76 0 -124 -52t-48 -129t48 -129t124 -52zM369 671l-38 20q-26 12 -35 12q-16 0 -16 -22v-48h-93v77
q0 96 84 96q16 0 34.5 -6t25.5 -9.5t34 -18.5l38 -19q28 -13 34 -13q17 0 17 23v48h93v-77q0 -45 -21.5 -70.5t-62.5 -25.5q-17 0 -34.5 5.5t-26 9.5t-33.5 18z" />
    <glyph glyph-name="Oslashacute.sc" horiz-adv-x="735" 
d="M672 287q0 -129 -87.5 -213t-217.5 -84q-91 0 -164 45l-32 -35h-129l88 97q-67 79 -67 190q0 131 86.5 214t217.5 83q88 0 163 -44l31 34h131l-88 -97q68 -81 68 -190zM192 287q0 -59 21 -99l239 265q-36 18 -85 18q-79 0 -127 -52t-48 -132zM542 287q0 57 -21 99
l-241 -266q36 -18 87 -18q79 0 127 52.5t48 132.5zM300 637l112 156h144l-120 -156h-136z" />
    <glyph glyph-name="Racute.sc" horiz-adv-x="704" 
d="M101 0v574h332q97 0 150 -45t53 -133q0 -120 -110 -159l131 -237h-137l-123 222h-166v-222h-130zM416 466h-185v-137h185q87 0 87 67q0 70 -87 70zM275 637l112 156h144l-120 -156h-136z" />
    <glyph glyph-name="Rcaron.sc" horiz-adv-x="704" 
d="M101 0v574h332q97 0 150 -45t53 -133q0 -120 -110 -159l131 -237h-137l-123 222h-166v-222h-130zM416 466h-185v-137h185q87 0 87 67q0 70 -87 70zM540 796l-139 -161h-118l-136 161h122l73 -83l73 83h125z" />
    <glyph glyph-name="Rcommaaccent.sc" horiz-adv-x="704" 
d="M101 0v574h332q97 0 150 -45t53 -133q0 -120 -110 -159l131 -237h-137l-123 222h-166v-222h-130zM416 466h-185v-137h185q87 0 87 67q0 70 -87 70zM407 -322h-87q35 64 40 114h-66v127h145v-101q0 -68 -32 -140z" />
    <glyph glyph-name="Sacute.sc" horiz-adv-x="651" 
d="M304 480q-106 0 -106 -59q0 -47 82 -58q33 -4 93 -9q102 -9 158 -51.5t56 -130.5q0 -84 -64.5 -133.5t-187.5 -49.5q-132 0 -201 53t-86 127h138q13 -30 49 -52.5t100 -22.5q57 0 87.5 19t30.5 50q0 33 -22 47.5t-66 20.5q-33 4 -94 9q-96 9 -151 53.5t-55 122.5
q0 80 65.5 124.5t173.5 44.5q126 0 190 -48t79 -114h-131q-34 57 -138 57zM251 637l112 156h144l-120 -156h-136z" />
    <glyph glyph-name="Scaron.sc" horiz-adv-x="651" 
d="M304 480q-106 0 -106 -59q0 -47 82 -58q33 -4 93 -9q102 -9 158 -51.5t56 -130.5q0 -84 -64.5 -133.5t-187.5 -49.5q-132 0 -201 53t-86 127h138q13 -30 49 -52.5t100 -22.5q57 0 87.5 19t30.5 50q0 33 -22 47.5t-66 20.5q-33 4 -94 9q-96 9 -151 53.5t-55 122.5
q0 80 65.5 124.5t173.5 44.5q126 0 190 -48t79 -114h-131q-34 57 -138 57zM516 796l-139 -161h-118l-136 161h122l73 -83l73 83h125z" />
    <glyph glyph-name="Scedilla.sc" horiz-adv-x="651" 
d="M304 480q-106 0 -106 -59q0 -47 82 -58q33 -4 93 -9q102 -9 158 -51.5t56 -130.5q0 -82 -63 -133q-60 -48 -184 -50v-38h10q124 0 124 -110q0 -54 -31 -85.5t-94 -31.5h-146v88h129q36 0 36 32q0 30 -36 30h-91v124q-20 4 -30 7q-137 45 -163 164h138q13 -30 49 -52.5
t100 -22.5q57 0 87.5 19t30.5 50q0 33 -22 47.5t-66 20.5q-33 4 -94 9q-96 9 -151 53.5t-55 122.5q0 80 65.5 124.5t173.5 44.5q126 0 190 -48t79 -114h-131q-34 57 -138 57z" />
    <glyph glyph-name="Scircumflex.sc" horiz-adv-x="651" 
d="M304 480q-106 0 -106 -59q0 -47 82 -58q33 -4 93 -9q102 -9 158 -51.5t56 -130.5q0 -84 -64.5 -133.5t-187.5 -49.5q-132 0 -201 53t-86 127h138q13 -30 49 -52.5t100 -22.5q57 0 87.5 19t30.5 50q0 33 -22 47.5t-66 20.5q-33 4 -94 9q-96 9 -151 53.5t-55 122.5
q0 80 65.5 124.5t173.5 44.5q126 0 190 -48t79 -114h-131q-34 57 -138 57zM391 635l-73 83l-73 -83h-125l139 161h118l136 -161h-122z" />
    <glyph glyph-name="Scommaaccent.sc" horiz-adv-x="651" 
d="M304 480q-106 0 -106 -59q0 -47 82 -58q33 -4 93 -9q102 -9 158 -51.5t56 -130.5q0 -84 -64.5 -133.5t-187.5 -49.5q-132 0 -201 53t-86 127h138q13 -30 49 -52.5t100 -22.5q57 0 87.5 19t30.5 50q0 33 -22 47.5t-66 20.5q-33 4 -94 9q-96 9 -151 53.5t-55 122.5
q0 80 65.5 124.5t173.5 44.5q126 0 190 -48t79 -114h-131q-34 57 -138 57zM378 -322h-87q35 64 40 114h-66v127h145v-101q0 -68 -32 -140z" />
    <glyph glyph-name="Tcaron.sc" horiz-adv-x="657" 
d="M43 460v114h571v-114h-221v-460h-129v460h-221zM527 796l-139 -161h-118l-136 161h122l73 -83l73 83h125z" />
    <glyph glyph-name="Tcommaaccent.sc" horiz-adv-x="657" 
d="M43 460v114h571v-114h-221v-460h-129v460h-221zM369 -322h-87q35 64 40 114h-66v127h145v-101q0 -68 -32 -140z" />
    <glyph glyph-name="uni021A.sc" horiz-adv-x="657" 
d="M43 460v114h571v-114h-221v-460h-129v460h-221zM369 -322h-87q35 64 40 114h-66v127h145v-101q0 -68 -32 -140z" />
    <glyph glyph-name="Tbar.sc" horiz-adv-x="657" 
d="M116 236v100h148v124h-221v114h571v-114h-221v-124h148v-100h-148v-236h-129v236h-148z" />
    <glyph glyph-name="Thorn.sc" horiz-adv-x="692" 
d="M437 115h-206v-115h-130v574h130v-103h207q96 0 147.5 -45t51.5 -132q0 -85 -52 -132t-148 -47zM423 360h-192v-133h192q80 0 80 67q0 66 -80 66z" />
    <glyph glyph-name="Uacute.sc" horiz-adv-x="739" 
d="M371 109q67 0 104.5 41t37.5 110v314h129v-322q0 -115 -71.5 -189t-199.5 -74q-133 0 -203.5 73.5t-70.5 189.5v322h131v-314q0 -70 37 -110.5t106 -40.5zM293 637l112 156h144l-120 -156h-136z" />
    <glyph glyph-name="Ubreve.sc" horiz-adv-x="739" 
d="M371 109q67 0 104.5 41t37.5 110v314h129v-322q0 -115 -71.5 -189t-199.5 -74q-133 0 -203.5 73.5t-70.5 189.5v322h131v-314q0 -70 37 -110.5t106 -40.5zM370 724q30 0 45 18t15 45v11h101v-13q0 -68 -41.5 -111.5t-119.5 -43.5t-119.5 43.5t-41.5 111.5v13h101v-11
q0 -27 15 -45t45 -18z" />
    <glyph glyph-name="Ucircumflex.sc" horiz-adv-x="739" 
d="M371 109q67 0 104.5 41t37.5 110v314h129v-322q0 -115 -71.5 -189t-199.5 -74q-133 0 -203.5 73.5t-70.5 189.5v322h131v-314q0 -70 37 -110.5t106 -40.5zM443 635l-73 83l-73 -83h-125l139 161h118l136 -161h-122z" />
    <glyph glyph-name="Udieresis.sc" horiz-adv-x="739" 
d="M371 109q67 0 104.5 41t37.5 110v314h129v-322q0 -115 -71.5 -189t-199.5 -74q-133 0 -203.5 73.5t-70.5 189.5v322h131v-314q0 -70 37 -110.5t106 -40.5zM196 637v149h127v-149h-127zM417 637v149h127v-149h-127z" />
    <glyph glyph-name="Ugrave.sc" horiz-adv-x="739" 
d="M371 109q67 0 104.5 41t37.5 110v314h129v-322q0 -115 -71.5 -189t-199.5 -74q-133 0 -203.5 73.5t-70.5 189.5v322h131v-314q0 -70 37 -110.5t106 -40.5zM447 637h-136l-120 156h144z" />
    <glyph glyph-name="Uhungarumlaut.sc" horiz-adv-x="739" 
d="M371 109q67 0 104.5 41t37.5 110v314h129v-322q0 -115 -71.5 -189t-199.5 -74q-133 0 -203.5 73.5t-70.5 189.5v322h131v-314q0 -70 37 -110.5t106 -40.5zM407 637l80 156h124l-86 -156h-118zM209 637l77 156h125l-85 -156h-117z" />
    <glyph glyph-name="Umacron.sc" horiz-adv-x="739" 
d="M371 109q67 0 104.5 41t37.5 110v314h129v-322q0 -115 -71.5 -189t-199.5 -74q-133 0 -203.5 73.5t-70.5 189.5v322h131v-314q0 -70 37 -110.5t106 -40.5zM545 665h-350v100h350v-100z" />
    <glyph glyph-name="Uogonek.sc" horiz-adv-x="739" 
d="M548 -117v-96h-126q-59 0 -92.5 22.5t-33.5 66.5q0 34 24 60t70 53h-19q-133 0 -203.5 73.5t-70.5 189.5v322h131v-314q0 -70 37 -110.5t106 -40.5q67 0 104.5 41t37.5 110v314h129v-322q0 -76 -29.5 -132t-86.5 -104q-55 -46 -73.5 -66.5t-18.5 -39.5q0 -27 34 -27h80z
" />
    <glyph glyph-name="Uring.sc" horiz-adv-x="739" 
d="M371 109q67 0 104.5 41t37.5 110v314h129v-322q0 -115 -71.5 -189t-199.5 -74q-133 0 -203.5 73.5t-70.5 189.5v322h131v-314q0 -70 37 -110.5t106 -40.5zM370 627q-59 0 -97.5 38.5t-38.5 94.5t39 94t97 38t97.5 -38t39.5 -94t-39 -94.5t-98 -38.5zM370 699
q26 0 43 17.5t17 43.5t-16.5 43t-43.5 17t-43.5 -17t-16.5 -43t17 -43.5t43 -17.5z" />
    <glyph glyph-name="Utilde.sc" horiz-adv-x="739" 
d="M371 109q67 0 104.5 41t37.5 110v314h129v-322q0 -115 -71.5 -189t-199.5 -74q-133 0 -203.5 73.5t-70.5 189.5v322h131v-314q0 -70 37 -110.5t106 -40.5zM372 671l-38 20q-26 12 -35 12q-16 0 -16 -22v-48h-93v77q0 96 84 96q16 0 34.5 -6t25.5 -9.5t34 -18.5l38 -19
q28 -13 34 -13q17 0 17 23v48h93v-77q0 -45 -21.5 -70.5t-62.5 -25.5q-17 0 -34.5 5.5t-26 9.5t-33.5 18z" />
    <glyph glyph-name="Wacute.sc" horiz-adv-x="963" 
d="M618 -2l-135 391l-135 -391h-116l-193 576h142l120 -383l128 385h118l128 -386l120 384h129l-188 -576h-118zM418 637l112 156h144l-120 -156h-136z" />
    <glyph glyph-name="Wcircumflex.sc" horiz-adv-x="963" 
d="M618 -2l-135 391l-135 -391h-116l-193 576h142l120 -383l128 385h118l128 -386l120 384h129l-188 -576h-118zM558 635l-73 83l-73 -83h-125l139 161h118l136 -161h-122z" />
    <glyph glyph-name="Wdieresis.sc" horiz-adv-x="963" 
d="M618 -2l-135 391l-135 -391h-116l-193 576h142l120 -383l128 385h118l128 -386l120 384h129l-188 -576h-118zM311 637v149h127v-149h-127zM532 637v149h127v-149h-127z" />
    <glyph glyph-name="Wgrave.sc" horiz-adv-x="963" 
d="M618 -2l-135 391l-135 -391h-116l-193 576h142l120 -383l128 385h118l128 -386l120 384h129l-188 -576h-118zM553 637h-136l-120 156h144z" />
    <glyph glyph-name="Yacute.sc" horiz-adv-x="669" 
d="M408 241v-241h-136v241l-256 333h166l162 -214l162 214h147zM271 637l112 156h144l-120 -156h-136z" />
    <glyph glyph-name="Ycircumflex.sc" horiz-adv-x="669" 
d="M408 241v-241h-136v241l-256 333h166l162 -214l162 214h147zM417 635l-73 83l-73 -83h-125l139 161h118l136 -161h-122z" />
    <glyph glyph-name="Ydieresis.sc" horiz-adv-x="669" 
d="M408 241v-241h-136v241l-256 333h166l162 -214l162 214h147zM170 637v149h127v-149h-127zM391 637v149h127v-149h-127z" />
    <glyph glyph-name="Ygrave.sc" horiz-adv-x="669" 
d="M408 241v-241h-136v241l-256 333h166l162 -214l162 214h147zM417 637h-136l-120 156h144z" />
    <glyph glyph-name="Zacute.sc" horiz-adv-x="686" 
d="M636 114v-114h-576v74l335 387h-327v113h531v-73l-339 -387h376zM261 637l112 156h144l-120 -156h-136z" />
    <glyph glyph-name="Zcaron.sc" horiz-adv-x="686" 
d="M636 114v-114h-576v74l335 387h-327v113h531v-73l-339 -387h376zM532 796l-139 -161h-118l-136 161h122l73 -83l73 83h125z" />
    <glyph glyph-name="Zdotaccent.sc" horiz-adv-x="686" 
d="M636 114v-114h-576v74l335 387h-327v113h531v-73l-339 -387h376zM267 637v152h132v-152h-132z" />
    <glyph glyph-name="germandbls.sc" horiz-adv-x="1302" 
d="M304 480q-106 0 -106 -59q0 -47 82 -58q33 -4 93 -9q102 -9 158 -51.5t56 -130.5q0 -84 -64.5 -133.5t-187.5 -49.5q-132 0 -201 53t-86 127h138q13 -30 49 -52.5t100 -22.5q57 0 87.5 19t30.5 50q0 33 -22 47.5t-66 20.5q-33 4 -94 9q-96 9 -151 53.5t-55 122.5
q0 80 65.5 124.5t173.5 44.5q126 0 190 -48t79 -114h-131q-34 57 -138 57zM955 480q-106 0 -106 -59q0 -47 82 -58q33 -4 93 -9q102 -9 158 -51.5t56 -130.5q0 -84 -64.5 -133.5t-187.5 -49.5q-132 0 -201 53t-86 127h138q13 -30 49 -52.5t100 -22.5q57 0 87.5 19t30.5 50
q0 33 -22 47.5t-66 20.5q-33 4 -94 9q-96 9 -151 53.5t-55 122.5q0 80 65.5 124.5t173.5 44.5q126 0 190 -48t79 -114h-131q-34 57 -138 57z" />
    <glyph glyph-name="napostrophe.sc" horiz-adv-x="996" 
d="M895 574v-576h-105l-323 409v-407h-126v574h148l282 -363v363h124zM156 386h-92q61 105 65 195h-71v155h151v-138q0 -115 -53 -212z" />
    <glyph glyph-name="uni01FA.sc" horiz-adv-x="697" 
d="M531 0l-45 105h-283l-45 -105h-128l251 576h134l252 -576h-136zM250 212h189l-94 219zM284 928l103 144h141l-111 -144h-133zM348 627q-59 0 -97.5 38.5t-38.5 94.5t39 94t97 38t97.5 -38t39.5 -94t-39 -94.5t-98 -38.5zM348 699q26 0 43 17.5t17 43.5t-16.5 43t-43.5 17
t-43.5 -17t-16.5 -43t17 -43.5t43 -17.5z" />
    <glyph glyph-name="uni20B4.sc" horiz-adv-x="653" 
d="M38 314v88h401q2 10 2 20q0 30 -24.5 47t-71.5 17q-50 0 -80 -17t-39 -40h-126q9 65 69.5 110.5t175.5 45.5q102 0 163 -45t61 -120q0 -4 -0.5 -10t-0.5 -8h47v-88h-577zM38 186v88h577v-88h-399q-4 -8 -4 -23q0 -35 28 -55t81 -20q57 0 91 22t43 52h129
q-13 -74 -78.5 -123.5t-184.5 -49.5q-114 0 -175.5 49t-61.5 126q0 15 1 22h-47z" />
    <glyph glyph-name="uni20B8.sc" horiz-adv-x="662" 
d="M43 481v93h576v-93h-576zM267 0v292h-224v114h576v-114h-223v-292h-129z" />
    <glyph glyph-name="uni20BD.sc" horiz-adv-x="733" 
d="M52 82v94h95v58h-95v93h95v247h329q97 0 149.5 -43.5t52.5 -125.5t-52.5 -126.5t-149.5 -44.5h-200v-58h301v-94h-301v-82h-129v82h-95zM462 467h-186v-136h186q83 0 83 69q0 67 -83 67z" />
    <glyph glyph-name="zero.old" horiz-adv-x="725" 
d="M363 586q131 0 218.5 -84t87.5 -214q0 -129 -88 -215t-218 -86q-132 0 -219.5 85.5t-87.5 215.5t87.5 214t219.5 84zM363 104q77 0 125.5 53t48.5 131t-48.5 130t-125.5 52q-76 0 -125.5 -52.5t-49.5 -129.5t49.5 -130.5t125.5 -53.5z" />
    <glyph glyph-name="one.old" horiz-adv-x="459" 
d="M351 579v-579h-130v431l-176 -101v123l207 126h99z" />
    <glyph glyph-name="two.old" horiz-adv-x="628" 
d="M577 110v-110h-510v86l222 143q64 41 90.5 73t26.5 75t-26.5 68.5t-75.5 25.5t-78 -33t-29 -82v-6h-128v8q0 97 63.5 162.5t171.5 65.5q109 0 171.5 -57.5t62.5 -147.5q0 -75 -47 -130.5t-130 -102.5l-65 -38h281z" />
    <glyph glyph-name="three.old" horiz-adv-x="636" 
d="M573 64q0 -95 -69.5 -153.5t-190.5 -58.5t-187.5 64t-73.5 147h134q7 -38 38.5 -66t88.5 -28q60 0 93.5 27.5t33.5 75.5q0 49 -30 74.5t-86 25.5h-120v115h119q46 0 72 23t26 67t-30 69t-82 25q-97 0 -113 -88h-131q3 80 66.5 141.5t176.5 61.5q116 0 181 -53.5
t65 -145.5q0 -57 -29.5 -95t-67.5 -52q47 -14 81.5 -58.5t34.5 -117.5z" />
    <glyph glyph-name="four.old" horiz-adv-x="700" 
d="M668 69h-144v-205h-129v205h-357v82l336 423h150v-392h144v-113zM190 182h205v262z" />
    <glyph glyph-name="five.old" horiz-adv-x="653" 
d="M99 167v407h461v-112h-336v-176q52 52 139 52q96 0 160.5 -64t64.5 -173v-1q0 -108 -71 -177t-190 -69q-125 0 -191.5 65t-70.5 155h132q5 -38 37 -70.5t93 -32.5q57 0 93 36t36 92q0 59 -35.5 93.5t-93.5 34.5q-76 0 -113 -60h-115z" />
    <glyph glyph-name="six.old" horiz-adv-x="659" 
d="M598 238q0 -109 -73 -179.5t-196 -70.5q-124 0 -196 69.5t-72 180.5q0 75 28.5 134t87.5 135l157 203h151l-204 -259q37 24 94 24q99 0 161 -65t62 -172zM466 238q0 61 -36 98t-101 37q-62 0 -99 -37.5t-37 -97.5q0 -58 36.5 -96t99.5 -38q64 0 100.5 38t36.5 96z" />
    <glyph glyph-name="seven.old" horiz-adv-x="619" 
d="M572 484l-332 -620h-147l324 592h-364v118h519v-90z" />
    <glyph glyph-name="eight.old" horiz-adv-x="668" 
d="M600 192q0 -91 -69.5 -147.5t-185.5 -56.5h-25q-115 0 -183.5 56.5t-68.5 147.5q0 69 37.5 114t84.5 59q-43 15 -76 54.5t-33 105.5q0 88 64.5 142.5t176.5 54.5h24q114 0 178 -54.5t64 -142.5q0 -66 -33 -105.5t-77 -54.5q47 -15 84.5 -59t37.5 -114zM343 613h-17
q-51 0 -82.5 -26.5t-31.5 -71.5t31.5 -71.5t82.5 -26.5h17q50 0 81.5 27t31.5 71t-31.5 71t-81.5 27zM345 310h-21q-53 0 -87.5 -29.5t-34.5 -77.5t34.5 -77t87.5 -29h21q53 0 87 29t34 77q0 49 -34 78t-87 29z" />
    <glyph glyph-name="nine.old" horiz-adv-x="659" 
d="M482 67l-157 -203h-151l205 260q-37 -24 -96 -24q-99 0 -160.5 65.5t-61.5 170.5q0 109 73 179.5t196 70.5t195.5 -69.5t72.5 -180.5q0 -76 -27.5 -132.5t-88.5 -136.5zM193 336q0 -60 36.5 -97.5t100.5 -37.5q62 0 99 38t37 97q0 58 -36.5 96t-99.5 38q-64 0 -100.5 -38
t-36.5 -96z" />
    <glyph glyph-name="space.tab" horiz-adv-x="325" 
 />
    <glyph glyph-name="dollar.tab" horiz-adv-x="642" 
d="M557 198q0 -77 -47.5 -129.5t-133.5 -66.5v-125h-110v125q-87 14 -135.5 70t-48.5 140v4h126v-2q0 -50 30.5 -78.5t80.5 -28.5q53 0 81 24.5t28 64.5q0 69 -86 94l-81 23q-86 25 -128 74.5t-42 133.5q0 77 47.5 127t127.5 63v118h110v-119q80 -14 122 -65.5t43 -131.5v-2
h-124v2q-1 42 -27 67.5t-72 25.5q-45 0 -72 -22t-27 -61q0 -67 86 -92q5 -2 39.5 -11.5t41.5 -12.5q86 -26 128.5 -75t42.5 -134z" />
    <glyph glyph-name="cent.tab" horiz-adv-x="650" 
d="M446 162h122q-2 -21 -11.5 -44t-28.5 -49.5t-53.5 -47.5t-78.5 -29v-115h-109v115q-85 18 -138 89t-53 172t53 172t138 89v111h109v-111q80 -16 122.5 -68.5t47.5 -99.5h-123q-31 61 -102 61q-52 0 -83.5 -43.5t-31.5 -110.5t32.5 -110.5t83.5 -43.5q72 0 104 63z" />
    <glyph glyph-name="Euro.tab" horiz-adv-x="659" 
d="M491 222h127q-2 -110 -68 -171.5t-177 -61.5q-112 0 -176 63t-64 175h-110v94h110v75h-110v94h110q2 106 66 169t174 63q111 0 176 -61.5t69 -166.5h-127q-2 48 -32 80.5t-86 32.5q-55 0 -86 -33.5t-31 -83.5h159v-94h-159v-75h159v-94h-159q1 -57 32 -90t87 -33
t85.5 32.5t30.5 85.5z" />
    <glyph glyph-name="sterling.tab" horiz-adv-x="668" 
d="M646 115v-115h-608v115h112v150h-112v116h112v127q0 102 56.5 158t161.5 56q107 0 163 -55.5t56 -158.5v-33h-124v30q0 50 -25 76.5t-70 26.5q-91 0 -91 -103v-124h202v-116h-202v-150h369z" />
    <glyph glyph-name="yen.tab" horiz-adv-x="653" 
d="M589 136h-189v-136h-137v136h-189v94h189v75h-189v93h182l-240 312h164l154 -208l155 208h147l-230 -312h183v-93h-189v-75h189v-94z" />
    <glyph glyph-name="florin.tab" horiz-adv-x="650" 
d="M523 328h-181l-81 -535h-128l80 535h-138v108h154l17 116q12 82 54 120t131 38h173v-107h-140q-46 0 -65.5 -17.5t-26.5 -61.5l-13 -88h164v-108z" />
    <glyph glyph-name="zero.tab" horiz-adv-x="650" 
d="M325 723q118 0 187 -69t69 -189v-220q0 -122 -69 -190t-187 -68t-187 68t-69 190v220q0 120 69 189t187 69zM325 107q61 0 93 38.5t32 101.5v216q0 63 -32 101.5t-93 38.5t-93 -38.5t-32 -101.5v-216q0 -63 32 -101.5t93 -38.5z" />
    <glyph glyph-name="one.tab" horiz-adv-x="650" 
d="M469 713v-713h-133v562l-221 -124v124l255 151h99z" />
    <glyph glyph-name="two.tab" horiz-adv-x="650" 
d="M602 117v-117h-525v86l252 238q54 53 77.5 89t23.5 81q0 49 -29.5 79t-81.5 30q-51 0 -81 -32.5t-30 -85.5v-42h-129v45q0 102 64.5 168t175.5 66q114 0 179.5 -62t65.5 -163q0 -76 -36.5 -130.5t-117.5 -130.5l-126 -119h318z" />
    <glyph glyph-name="three.tab" horiz-adv-x="650" 
d="M587 200q0 -96 -71 -154t-196 -58q-66 0 -117.5 19t-82.5 50.5t-47.5 67t-19.5 73.5h133q7 -36 41 -64t93 -28q62 0 97 27t35 75t-29.5 73.5t-84.5 25.5h-134v116h130q46 0 72 23t26 67t-31 68.5t-85 24.5q-53 0 -81.5 -25t-35.5 -62h-131q3 80 67.5 141.5t179.5 61.5
q118 0 183.5 -54t65.5 -146q0 -57 -29 -94.5t-67 -51.5q48 -14 83.5 -58t35.5 -118z" />
    <glyph glyph-name="four.tab" horiz-adv-x="650" 
d="M614 202h-118v-202h-127v202h-327v81l305 427h149v-397h118v-111zM181 313h188v267z" />
    <glyph glyph-name="five.tab" horiz-adv-x="650" 
d="M96 308v402h466v-113h-341v-170q52 52 140 52q97 0 162.5 -64.5t65.5 -172.5v-8q0 -108 -72 -177t-192 -69q-125 0 -192.5 65t-71.5 155h133q5 -37 37.5 -69.5t93.5 -32.5q57 0 94 36t37 91v7q0 58 -35.5 92.5t-95.5 34.5q-34 0 -61 -12.5t-37 -23.5t-16 -23h-115z" />
    <glyph glyph-name="six.tab" horiz-adv-x="650" 
d="M593 238q0 -109 -72.5 -179.5t-195.5 -70.5q-124 0 -196 69.5t-72 180.5q0 75 28.5 134t87.5 135l157 203h151l-205 -260q37 24 95 24q99 0 160.5 -65.5t61.5 -170.5zM461 238q0 59 -36.5 96.5t-100.5 37.5q-60 0 -97.5 -38t-37.5 -96q0 -56 37 -94t98 -38q64 0 100.5 38
t36.5 94z" />
    <glyph glyph-name="seven.tab" horiz-adv-x="650" 
d="M588 620l-333 -620h-146l324 592h-364v118h519v-90z" />
    <glyph glyph-name="eight.tab" horiz-adv-x="650" 
d="M593 192q0 -91 -68.5 -147.5t-186.5 -56.5h-29q-116 0 -184 56.5t-68 147.5q0 70 37.5 115t84.5 59q-43 15 -76 54.5t-33 104.5q0 88 64 142.5t178 54.5h27q114 0 178 -54.5t64 -142.5q0 -65 -33 -104.5t-77 -54.5q47 -14 84.5 -59t37.5 -115zM335 613h-20
q-51 0 -82.5 -26.5t-31.5 -71.5t31.5 -71.5t82.5 -26.5h20q51 0 82.5 26.5t31.5 71.5t-31.5 71.5t-82.5 26.5zM337 310h-24q-54 0 -87.5 -29t-33.5 -78q0 -48 33.5 -77t87.5 -29h24q55 0 88.5 29t33.5 77q0 50 -33.5 78.5t-88.5 28.5z" />
    <glyph glyph-name="nine.tab" horiz-adv-x="650" 
d="M477 203l-157 -203h-151l205 260q-37 -24 -95 -24q-99 0 -160.5 65.5t-61.5 170.5q0 109 72.5 179.5t195.5 70.5t195.5 -69.5t72.5 -180.5q0 -76 -27.5 -132.5t-88.5 -136.5zM189 472q0 -59 36.5 -96.5t100.5 -37.5q60 0 97.5 38t37.5 96q0 56 -37 94t-98 38
q-64 0 -100.5 -38t-36.5 -94z" />
    <glyph glyph-name="percent.tab" horiz-adv-x="975" 
d="M231 348q-80 0 -134.5 54t-54.5 133t54.5 133t134.5 54t134 -54t54 -133t-54 -133t-134 -54zM172 0l512 710h119l-512 -710h-119zM231 443q38 0 62.5 26.5t24.5 65.5t-24.5 65t-62.5 26q-39 0 -63.5 -26t-24.5 -65t24.5 -65.5t63.5 -26.5zM744 -14q-80 0 -134 54t-54 133
t54 133t134 54t134.5 -54t54.5 -133t-54.5 -133t-134.5 -54zM744 82q39 0 63.5 26t24.5 65t-24.5 65.5t-63.5 26.5q-38 0 -62.5 -26.5t-24.5 -65.5t24.5 -65t62.5 -26z" />
    <glyph glyph-name="perthousand.tab" horiz-adv-x="1300" 
d="M218 366q-76 0 -128 51t-52 127t52 127t128 51q75 0 127 -51.5t52 -126.5t-52 -126.5t-127 -51.5zM246 0h-117l513 710h117zM218 461q36 0 58.5 23.5t22.5 59.5t-22.5 60t-58.5 24t-58.5 -24t-22.5 -60t22.5 -59.5t58.5 -23.5zM669 -14q-76 0 -128 51t-52 127
q0 74 52 126t128 52q75 0 127 -52t52 -126q0 -75 -52 -126.5t-127 -51.5zM1082 -14q-75 0 -127 51.5t-52 126.5q0 74 52 126t127 52q76 0 128 -52t52 -126q0 -76 -52 -127t-128 -51zM669 80q36 0 58.5 24t22.5 60t-22.5 59.5t-58.5 23.5t-58.5 -23.5t-22.5 -59.5t22.5 -60
t58.5 -24zM1082 80q36 0 58.5 24t22.5 60t-22.5 59.5t-58.5 23.5t-58.5 -23.5t-22.5 -59.5t22.5 -60t58.5 -24z" />
    <glyph glyph-name="plus.tab" horiz-adv-x="650" 
d="M593 266h-209v-217h-118v217h-209v112h209v216h118v-216h209v-112z" />
    <glyph glyph-name="minus.tab" horiz-adv-x="650" 
d="M591 265h-532v115h532v-115z" />
    <glyph glyph-name="multiply.tab" horiz-adv-x="650" 
d="M591 371h-532v111h532v-111zM591 151h-532v111h532v-111z" />
    <glyph glyph-name="divide.tab" horiz-adv-x="650" 
d="M251 458v159h148v-159h-148zM596 266h-543v113h543v-113zM251 20v159h148v-159h-148z" />
    <glyph glyph-name="equal.tab" horiz-adv-x="650" 
d="M577 135l-82 -79l-171 171l-170 -171l-80 78l171 172l-171 171l83 83l169 -171l170 171l80 -78l-171 -173z" />
    <glyph glyph-name="less.tab" horiz-adv-x="650" 
d="M554 177v-122l-467 203v103l467 204v-124l-318 -132z" />
    <glyph glyph-name="greater.tab" horiz-adv-x="650" 
d="M564 258l-467 -203v123l317 133l-317 132v122l467 -204v-103z" />
    <glyph glyph-name="period.tab" horiz-adv-x="325" 
d="M87 0v170h152v-170h-152z" />
    <glyph glyph-name="comma.tab" horiz-adv-x="334" 
d="M188 -207h-94q72 121 77 207h-73v170h153v-154q0 -115 -63 -223z" />
    <glyph glyph-name="colon.tab" horiz-adv-x="338" 
d="M93 0v170h153v-170h-153zM93 331v170h153v-170h-153z" />
    <glyph glyph-name="semicolon.tab" horiz-adv-x="338" 
d="M93 331v170h153v-170h-153zM183 -207h-95q73 119 77 207h-72v170h153v-154q0 -115 -63 -223z" />
    <glyph glyph-name="a.alt" horiz-adv-x="616" 
d="M48 160q0 76 53.5 116.5t148.5 40.5h166q0 46 -32.5 73t-88.5 27q-74 0 -105 -51h-129q5 23 19.5 47t41 49t72 41t101.5 16q116 0 180 -55t64 -147v-171q0 -23 9 -33.5t31 -12.5v-103h-40q-97 1 -118 70q-21 -32 -63 -55t-101 -23q-91 0 -150 47t-59 124zM284 84
q57 0 94.5 27t37.5 76v43h-145q-97 0 -97 -68q0 -36 30.5 -57t79.5 -21z" />
    <glyph glyph-name="u.alt" horiz-adv-x="658" 
d="M448 0v83q-21 -35 -63 -64.5t-101 -29.5q-92 0 -149.5 62t-57.5 159v296h128v-271q0 -60 32.5 -96t87.5 -36q56 0 89.5 36t33.5 96v271h128v-506h-128z" />
    <glyph glyph-name="aacute.alt" horiz-adv-x="616" 
d="M48 160q0 76 53.5 116.5t148.5 40.5h166q0 46 -32.5 73t-88.5 27q-74 0 -105 -51h-129q5 23 19.5 47t41 49t72 41t101.5 16q116 0 180 -55t64 -147v-171q0 -23 9 -33.5t31 -12.5v-103h-40q-97 1 -118 70q-21 -32 -63 -55t-101 -23q-91 0 -150 47t-59 124zM284 84
q57 0 94.5 27t37.5 76v43h-145q-97 0 -97 -68q0 -36 30.5 -57t79.5 -21zM225 580l109 187h133l-116 -187h-126z" />
    <glyph glyph-name="abreve.alt" horiz-adv-x="616" 
d="M48 160q0 76 53.5 116.5t148.5 40.5h166q0 46 -32.5 73t-88.5 27q-74 0 -105 -51h-129q5 23 19.5 47t41 49t72 41t101.5 16q116 0 180 -55t64 -147v-171q0 -23 9 -33.5t31 -12.5v-103h-40q-97 1 -118 70q-21 -32 -63 -55t-101 -23q-91 0 -150 47t-59 124zM284 84
q57 0 94.5 27t37.5 76v43h-145q-97 0 -97 -68q0 -36 30.5 -57t79.5 -21zM295 668q27 0 41 17.5t14 43.5v17h101v-19q0 -68 -39.5 -110.5t-116.5 -42.5t-116.5 42.5t-39.5 110.5v19h101v-17q0 -26 14 -43.5t41 -17.5z" />
    <glyph glyph-name="acircumflex.alt" horiz-adv-x="616" 
d="M48 160q0 76 53.5 116.5t148.5 40.5h166q0 46 -32.5 73t-88.5 27q-74 0 -105 -51h-129q5 23 19.5 47t41 49t72 41t101.5 16q116 0 180 -55t64 -147v-171q0 -23 9 -33.5t31 -12.5v-103h-40q-97 1 -118 70q-21 -32 -63 -55t-101 -23q-91 0 -150 47t-59 124zM284 84
q57 0 94.5 27t37.5 76v43h-145q-97 0 -97 -68q0 -36 30.5 -57t79.5 -21zM362 578l-67 104l-67 -104h-118l129 196h112l126 -196h-115z" />
    <glyph glyph-name="adieresis.alt" horiz-adv-x="616" 
d="M48 160q0 76 53.5 116.5t148.5 40.5h166q0 46 -32.5 73t-88.5 27q-74 0 -105 -51h-129q5 23 19.5 47t41 49t72 41t101.5 16q116 0 180 -55t64 -147v-171q0 -23 9 -33.5t31 -12.5v-103h-40q-97 1 -118 70q-21 -32 -63 -55t-101 -23q-91 0 -150 47t-59 124zM284 84
q57 0 94.5 27t37.5 76v43h-145q-97 0 -97 -68q0 -36 30.5 -57t79.5 -21zM127 587v149h127v-149h-127zM336 587v149h127v-149h-127z" />
    <glyph glyph-name="agrave.alt" horiz-adv-x="616" 
d="M48 160q0 76 53.5 116.5t148.5 40.5h166q0 46 -32.5 73t-88.5 27q-74 0 -105 -51h-129q5 23 19.5 47t41 49t72 41t101.5 16q116 0 180 -55t64 -147v-171q0 -23 9 -33.5t31 -12.5v-103h-40q-97 1 -118 70q-21 -32 -63 -55t-101 -23q-91 0 -150 47t-59 124zM284 84
q57 0 94.5 27t37.5 76v43h-145q-97 0 -97 -68q0 -36 30.5 -57t79.5 -21zM357 580h-126l-116 187h133z" />
    <glyph glyph-name="amacron.alt" horiz-adv-x="616" 
d="M48 160q0 76 53.5 116.5t148.5 40.5h166q0 46 -32.5 73t-88.5 27q-74 0 -105 -51h-129q5 23 19.5 47t41 49t72 41t101.5 16q116 0 180 -55t64 -147v-171q0 -23 9 -33.5t31 -12.5v-103h-40q-97 1 -118 70q-21 -32 -63 -55t-101 -23q-91 0 -150 47t-59 124zM284 84
q57 0 94.5 27t37.5 76v43h-145q-97 0 -97 -68q0 -36 30.5 -57t79.5 -21zM459 613h-324v101h324v-101z" />
    <glyph glyph-name="aogonek.alt" horiz-adv-x="615" 
d="M47 160q0 76 53.5 116.5t148.5 40.5h166q0 46 -32.5 73t-87.5 27q-74 0 -105 -51h-130q5 23 19.5 47t41 49t72 41t102.5 16q115 0 179 -55t64 -147v-171q0 -23 9 -33.5t31 -12.5v-100q-6 -4 -17 -13q-28 -21 -40 -31t-22 -23t-10 -25q0 -25 32 -25h82v-96h-126
q-59 0 -92 23t-33 67q0 41 32.5 71t89.5 61q-40 17 -54 57q-21 -31 -63 -54t-101 -23q-91 0 -150 47t-59 124zM284 84q56 0 93.5 27t37.5 76v43h-145q-96 0 -96 -68q0 -36 30.5 -57t79.5 -21z" />
    <glyph glyph-name="aring.alt" horiz-adv-x="616" 
d="M48 160q0 76 53.5 116.5t148.5 40.5h166q0 46 -32.5 73t-88.5 27q-74 0 -105 -51h-129q5 23 19.5 47t41 49t72 41t101.5 16q116 0 180 -55t64 -147v-171q0 -23 9 -33.5t31 -12.5v-103h-40q-97 1 -118 70q-21 -32 -63 -55t-101 -23q-91 0 -150 47t-59 124zM284 84
q57 0 94.5 27t37.5 76v43h-145q-97 0 -97 -68q0 -36 30.5 -57t79.5 -21zM295 569q-59 0 -97.5 38.5t-38.5 94.5t39 94t97 38t97.5 -38t39.5 -94t-39 -94.5t-98 -38.5zM295 641q26 0 43 17.5t17 43.5t-16.5 43t-43.5 17t-43.5 -17t-16.5 -43t17 -43.5t43 -17.5z" />
    </font>
</defs>
</svg>
