<svg width="24" height="24" viewBox="0 0 24 24" fill="none" xmlns="http://www.w3.org/2000/svg">
<g id="19-Wallet" clip-path="url(#clip0_870_4926)">
<g id="19-Wallet_2">
<path id="Vector" d="M3.375 4.875H19.125C19.5228 4.875 19.9044 5.03304 20.1857 5.31434C20.467 5.59564 20.625 5.97718 20.625 6.375V9.375H3.375C2.77826 9.375 2.20597 9.13795 1.78401 8.71599C1.36205 8.29403 1.125 7.72174 1.125 7.125C1.125 6.52826 1.36205 5.95597 1.78401 5.53401C2.20597 5.11205 2.77826 4.875 3.375 4.875Z" fill="#8D6E63"/>
<path id="Vector_2" d="M10.875 14.625C14.6029 14.625 17.625 11.6029 17.625 7.875C17.625 4.14708 14.6029 1.125 10.875 1.125C7.14708 1.125 4.125 4.14708 4.125 7.875C4.125 11.6029 7.14708 14.625 10.875 14.625Z" fill="#FFD54F"/>
<path id="Vector_3" d="M17.625 7.875C17.6249 9.66517 16.9137 11.382 15.6478 12.6478C14.382 13.9137 12.6652 14.6249 10.875 14.625C10.6244 14.6246 10.3741 14.6108 10.125 14.5837C11.7751 14.3991 13.2993 13.6129 14.4062 12.3752C15.5131 11.1376 16.1251 9.53542 16.1251 7.875C16.1251 6.21458 15.5131 4.61241 14.4062 3.37477C13.2993 2.13713 11.7751 1.35085 10.125 1.16625C10.3741 1.13922 10.6244 1.12545 10.875 1.125C12.6652 1.12514 14.382 1.83634 15.6478 3.10218C16.9137 4.36802 17.6249 6.08483 17.625 7.875Z" fill="#FFCA28"/>
<path id="Vector_4" d="M10.875 13.125C13.7745 13.125 16.125 10.7745 16.125 7.875C16.125 4.97551 13.7745 2.625 10.875 2.625C7.97551 2.625 5.625 4.97551 5.625 7.875C5.625 10.7745 7.97551 13.125 10.875 13.125Z" fill="#FFB74D"/>
<path id="Vector_5" d="M11.8125 13.0425C11.5029 13.0967 11.1893 13.1243 10.875 13.125C9.48261 13.125 8.14726 12.5719 7.16269 11.5873C6.17812 10.6027 5.625 9.26739 5.625 7.875C5.625 6.48261 6.17812 5.14726 7.16269 4.16269C8.14726 3.17812 9.48261 2.625 10.875 2.625C11.1893 2.62574 11.5029 2.65335 11.8125 2.7075C10.6024 2.92757 9.50784 3.56536 8.71974 4.5097C7.93165 5.45404 7.49997 6.64501 7.49997 7.875C7.49997 9.10499 7.93165 10.296 8.71974 11.2403C9.50784 12.1846 10.6024 12.8224 11.8125 13.0425Z" fill="#FFA726"/>
<path id="Vector_6" d="M22.125 10.875V21.375C22.125 21.7728 21.967 22.1544 21.6857 22.4357C21.4044 22.717 21.0228 22.875 20.625 22.875H3.375C2.77826 22.875 2.20597 22.6379 1.78401 22.216C1.36205 21.794 1.125 21.2217 1.125 20.625V7.125C1.12548 7.72159 1.36268 8.29361 1.78454 8.71546C2.20639 9.13732 2.77841 9.37452 3.375 9.375H20.625C21.0228 9.375 21.4044 9.53304 21.6857 9.81434C21.967 10.0956 22.125 10.4772 22.125 10.875Z" fill="#A1887F"/>
<path id="Vector_7" d="M22.1253 10.875V21.375C22.1254 21.572 22.0866 21.7671 22.0112 21.9491C21.9359 22.1311 21.8254 22.2965 21.6861 22.4358C21.5468 22.5751 21.3814 22.6856 21.1994 22.7609C21.0174 22.8363 20.8223 22.8751 20.6253 22.875H3.37531C2.80124 22.8743 2.24917 22.6541 1.83223 22.2594C1.41529 21.8648 1.16506 21.3257 1.13281 20.7525C1.33794 21.0596 1.61571 21.3114 1.94149 21.4854C2.26727 21.6594 2.63097 21.7503 3.00031 21.75H18.7503C18.9473 21.7501 19.1424 21.7113 19.3244 21.6359C19.5064 21.5606 19.6718 21.4501 19.8111 21.3108C19.9504 21.1715 20.0609 21.0061 20.1362 20.8241C20.2116 20.6421 20.2504 20.447 20.2503 20.25V10.5C20.2504 10.287 20.205 10.0764 20.117 9.88232C20.0291 9.68829 19.9006 9.51531 19.7403 9.375H20.6253C20.8223 9.37495 21.0174 9.41371 21.1994 9.48907C21.3814 9.56443 21.5468 9.67492 21.6861 9.81422C21.8254 9.95352 21.9359 10.1189 22.0112 10.3009C22.0866 10.4829 22.1254 10.678 22.1253 10.875Z" fill="#8D6E63"/>
<path id="Vector_8" d="M18 13.5H22.125C22.3239 13.5 22.5147 13.579 22.6553 13.7197C22.796 13.8603 22.875 14.0511 22.875 14.25V18C22.875 18.1989 22.796 18.3897 22.6553 18.5303C22.5147 18.671 22.3239 18.75 22.125 18.75H18C17.3038 18.75 16.6361 18.4734 16.1438 17.9812C15.6516 17.4889 15.375 16.8212 15.375 16.125C15.375 15.4288 15.6516 14.7611 16.1438 14.2688C16.6361 13.7766 17.3038 13.5 18 13.5Z" fill="#FFB74D"/>
<path id="Vector_9" d="M22.8756 14.25V18C22.875 18.1987 22.7958 18.3892 22.6553 18.5297C22.5148 18.6702 22.3244 18.7494 22.1256 18.75H18.0006C17.3474 18.7508 16.7175 18.5073 16.2345 18.0674C15.7516 17.6275 15.4506 17.023 15.3906 16.3725C15.4963 16.5488 15.6235 16.7113 15.7694 16.8563C16.0126 17.1007 16.3019 17.2945 16.6205 17.4264C16.9392 17.5584 17.2808 17.6259 17.6256 17.625H19.5006C19.6976 17.6251 19.8927 17.5863 20.0747 17.5109C20.2567 17.4356 20.4221 17.3251 20.5614 17.1858C20.7007 17.0465 20.8112 16.8811 20.8866 16.6991C20.9619 16.5171 21.0007 16.322 21.0006 16.125V13.5H22.1256C22.3244 13.5006 22.5148 13.5798 22.6553 13.7203C22.7958 13.8608 22.875 14.0513 22.8756 14.25Z" fill="#FFA726"/>
<path id="Vector_10" d="M18 16.875C18.4142 16.875 18.75 16.5392 18.75 16.125C18.75 15.7108 18.4142 15.375 18 15.375C17.5858 15.375 17.25 15.7108 17.25 16.125C17.25 16.5392 17.5858 16.875 18 16.875Z" fill="#EEEEEE"/>
<path id="Vector_11" d="M18.75 16.125C18.7502 16.2567 18.7156 16.3861 18.6498 16.5002C18.584 16.6143 18.4893 16.7091 18.3752 16.7749C18.2611 16.8407 18.1317 16.8752 17.9999 16.875C17.8682 16.8748 17.7389 16.8399 17.625 16.7738C17.739 16.7081 17.8337 16.6136 17.8995 16.4997C17.9654 16.3858 18 16.2566 18 16.125C18 15.9935 17.9654 15.8642 17.8995 15.7503C17.8337 15.6364 17.739 15.5419 17.625 15.4763C17.7389 15.4101 17.8682 15.3752 17.9999 15.375C18.1317 15.3748 18.2611 15.4094 18.3752 15.4751C18.4893 15.5409 18.584 15.6357 18.6498 15.7498C18.7156 15.8639 18.7502 15.9933 18.75 16.125Z" fill="#E0E0E0"/>
<path id="Vector_12" d="M9.75 6.75C9.75023 6.94884 9.82932 7.13948 9.96992 7.28008C10.1105 7.42068 10.3012 7.49977 10.5 7.5H11.25C11.3495 7.5 11.4448 7.53951 11.5152 7.60983C11.5855 7.68016 11.625 7.77554 11.625 7.875C11.625 7.97446 11.5855 8.06984 11.5152 8.14017C11.4448 8.21049 11.3495 8.25 11.25 8.25H10.5C10.1022 8.25 9.72064 8.09196 9.43934 7.81066C9.15804 7.52936 9 7.14782 9 6.75C9 6.35218 9.15804 5.97064 9.43934 5.68934C9.72064 5.40804 10.1022 5.25 10.5 5.25V4.5C10.5 4.40054 10.5395 4.30516 10.6098 4.23484C10.6802 4.16451 10.7755 4.125 10.875 4.125C10.9745 4.125 11.0698 4.16451 11.1402 4.23484C11.2105 4.30516 11.25 4.40054 11.25 4.5V5.25H12.375C12.4745 5.25 12.5698 5.28951 12.6402 5.35984C12.7105 5.43016 12.75 5.52554 12.75 5.625C12.75 5.72446 12.7105 5.81984 12.6402 5.89016C12.5698 5.96049 12.4745 6 12.375 6H10.5C10.3012 6.00023 10.1105 6.07932 9.96992 6.21992C9.82932 6.36052 9.75023 6.55116 9.75 6.75ZM23.25 14.25V18C23.2493 18.2319 23.1768 18.4579 23.0425 18.6469C22.9082 18.836 22.7187 18.9788 22.5 19.0559V21.375C22.4994 21.8721 22.3017 22.3487 21.9502 22.7002C21.5987 23.0517 21.1221 23.2494 20.625 23.25H3.375C2.67905 23.2492 2.01184 22.9724 1.51973 22.4803C1.02762 21.9882 0.750804 21.3209 0.75 20.625V7.125C0.753395 6.46804 1.00181 5.83598 1.44664 5.35252C1.89147 4.86905 2.50069 4.56897 3.1551 4.51099C3.20429 4.50627 3.25393 4.51143 3.3011 4.52618C3.34826 4.54093 3.392 4.56496 3.42974 4.59687C3.46748 4.62878 3.49845 4.66791 3.52084 4.71196C3.54323 4.75602 3.55658 4.80411 3.5601 4.8534C3.56422 4.90248 3.55863 4.95188 3.54364 4.99879C3.52864 5.0457 3.50455 5.0892 3.47272 5.12678C3.4409 5.16437 3.40198 5.19531 3.35819 5.21784C3.31439 5.24037 3.26658 5.25403 3.2175 5.25806C2.73562 5.29849 2.28801 5.52361 1.96824 5.88636C1.64847 6.24911 1.48128 6.72142 1.50161 7.20457C1.52195 7.68771 1.72824 8.1443 2.07736 8.4789C2.42649 8.8135 2.89143 9.00021 3.375 9H20.25V6.375C20.2497 6.07673 20.131 5.79077 19.9201 5.57987C19.7092 5.36896 19.4233 5.25033 19.125 5.25H18.5599C18.4605 5.25 18.3651 5.21049 18.2948 5.14016C18.2245 5.06984 18.1849 4.97446 18.1849 4.875C18.1849 4.77554 18.2245 4.68016 18.2948 4.60984C18.3651 4.53951 18.4605 4.5 18.5599 4.5H19.125C19.6221 4.50059 20.0987 4.69832 20.4502 5.04982C20.8017 5.40133 20.9994 5.8779 21 6.375V9.03791C21.4232 9.12489 21.8034 9.3551 22.0767 9.68974C22.3499 10.0244 22.4994 10.443 22.5 10.875V13.1941C22.7187 13.2712 22.9082 13.414 23.0425 13.6031C23.1768 13.7921 23.2493 14.0181 23.25 14.25ZM21.75 21.375V19.125H18C17.2044 19.125 16.4413 18.8089 15.8787 18.2463C15.3161 17.6837 15 16.9206 15 16.125C15 15.3294 15.3161 14.5663 15.8787 14.0037C16.4413 13.4411 17.2044 13.125 18 13.125H21.75V10.875C21.7497 10.5767 21.631 10.2908 21.4201 10.0799C21.2092 9.86896 20.9233 9.75033 20.625 9.75H3.375C3.02546 9.75006 2.67945 9.68008 2.3574 9.54418C2.03536 9.40827 1.74382 9.20921 1.5 8.95875V20.625C1.50059 21.1221 1.69832 21.5987 2.04982 21.9502C2.40133 22.3017 2.8779 22.4994 3.375 22.5H20.625C20.9233 22.4997 21.2092 22.381 21.4201 22.1701C21.631 21.9592 21.7497 21.6733 21.75 21.375ZM22.5 14.25C22.4999 14.1506 22.4604 14.0552 22.3901 13.9849C22.3198 13.9146 22.2244 13.8751 22.125 13.875H18C17.4033 13.875 16.831 14.1121 16.409 14.534C15.9871 14.956 15.75 15.5283 15.75 16.125C15.75 16.7217 15.9871 17.294 16.409 17.716C16.831 18.1379 17.4033 18.375 18 18.375H22.125C22.2244 18.3749 22.3198 18.3354 22.3901 18.2651C22.4604 18.1948 22.4999 18.0994 22.5 18V14.25ZM19.125 16.125C19.125 16.3475 19.059 16.565 18.9354 16.75C18.8118 16.935 18.6361 17.0792 18.4305 17.1644C18.225 17.2495 17.9988 17.2718 17.7805 17.2284C17.5623 17.185 17.3618 17.0778 17.2045 16.9205C17.0472 16.7632 16.94 16.5627 16.8966 16.3445C16.8532 16.1262 16.8755 15.9 16.9606 15.6945C17.0458 15.4889 17.19 15.3132 17.375 15.1896C17.56 15.066 17.7775 15 18 15C18.2983 15.0003 18.5842 15.119 18.7951 15.3299C19.006 15.5408 19.1247 15.8267 19.125 16.125ZM18.375 16.125C18.375 16.0508 18.353 15.9783 18.3118 15.9167C18.2706 15.855 18.212 15.8069 18.1435 15.7785C18.075 15.7502 17.9996 15.7427 17.9268 15.7572C17.8541 15.7717 17.7873 15.8074 17.7348 15.8598C17.6824 15.9123 17.6467 15.9791 17.6322 16.0518C17.6177 16.1246 17.6252 16.2 17.6535 16.2685C17.6819 16.337 17.73 16.3956 17.7917 16.4368C17.8533 16.478 17.9258 16.5 18 16.5C18.0994 16.4999 18.1948 16.4604 18.2651 16.3901C18.3354 16.3198 18.3749 16.2244 18.375 16.125ZM15.75 7.875C15.75 7.97446 15.7895 8.06984 15.8598 8.14017C15.9302 8.21049 16.0255 8.25 16.125 8.25C16.2245 8.25 16.3198 8.21049 16.3902 8.14017C16.4605 8.06984 16.5 7.97446 16.5 7.875C16.5 6.38316 15.9074 4.95242 14.8525 3.89752C13.7976 2.84263 12.3668 2.25 10.875 2.25C9.38316 2.25 7.95242 2.84263 6.89752 3.89752C5.84263 4.95242 5.25 6.38316 5.25 7.875C5.25 7.97446 5.28951 8.06984 5.35984 8.14017C5.43016 8.21049 5.52554 8.25 5.625 8.25C5.72446 8.25 5.81984 8.21049 5.89016 8.14017C5.96049 8.06984 6 7.97446 6 7.875C6 6.58207 6.51361 5.34209 7.42785 4.42785C8.34209 3.51361 9.58207 3 10.875 3C12.1679 3 13.4079 3.51361 14.3221 4.42785C15.2364 5.34209 15.75 6.58207 15.75 7.875ZM4.125 8.25C4.22446 8.25 4.31984 8.21049 4.39016 8.14017C4.46049 8.06984 4.5 7.97446 4.5 7.875C4.5 6.18425 5.17165 4.56274 6.36719 3.36719C7.56274 2.17165 9.18425 1.5 10.875 1.5C12.5658 1.5 14.1873 2.17165 15.3828 3.36719C16.5784 4.56274 17.25 6.18425 17.25 7.875C17.25 7.97446 17.2895 8.06984 17.3598 8.14017C17.4302 8.21049 17.5255 8.25 17.625 8.25C17.7245 8.25 17.8198 8.21049 17.8902 8.14017C17.9605 8.06984 18 7.97446 18 7.875C18 5.98533 17.2493 4.17306 15.9131 2.83686C14.5769 1.50067 12.7647 0.75 10.875 0.75C8.98533 0.75 7.17306 1.50067 5.83686 2.83686C4.50067 4.17306 3.75 5.98533 3.75 7.875C3.75 7.97446 3.78951 8.06984 3.85984 8.14017C3.93016 8.21049 4.02554 8.25 4.125 8.25Z" fill="black"/>
</g>
</g>
<defs>
<clipPath id="clip0_870_4926">
<rect width="24" height="24" fill="white"/>
</clipPath>
</defs>
</svg>
