<svg width="14" height="15" viewBox="0 0 14 15" fill="none" xmlns="http://www.w3.org/2000/svg">
<g id="help-circle 1" clip-path="url(#clip0_620_423)">
<path id="Vector" d="M7.02801 13.2335C10.1328 13.2335 12.6498 10.7165 12.6498 7.61171C12.6498 4.50689 10.1328 1.98994 7.02801 1.98994C3.9232 1.98994 1.40625 4.50689 1.40625 7.61171C1.40625 10.7165 3.9232 13.2335 7.02801 13.2335Z" stroke="#8E8E8E" stroke-width="0.955113"/>
<path id="Vector_2" d="M5.90332 5.92503C5.90332 5.30406 6.40669 4.80067 7.02767 4.80067C7.64865 4.80067 8.15202 5.30406 8.15202 5.92503C8.15202 6.14886 8.08664 6.35741 7.97387 6.53263C7.63786 7.05483 7.02767 7.55275 7.02767 8.17373V8.45482" stroke="#8E8E8E" stroke-width="0.955113" stroke-linecap="round"/>
<path id="Vector_3" d="M7.02344 10.4226H7.02938" stroke="#8E8E8E" stroke-width="1.27348" stroke-linecap="round" stroke-linejoin="round"/>
</g>
<defs>
<clipPath id="clip0_620_423">
<rect width="13.4922" height="13.4922" fill="white" transform="translate(0.282227 0.865479)"/>
</clipPath>
</defs>
</svg>
