<svg width="24" height="24" viewBox="0 0 24 24" fill="none" xmlns="http://www.w3.org/2000/svg">
<g id="opensea-logo 1" clip-path="url(#clip0_572_4679)">
<path id="Vector" d="M12.0964 0.120007C5.47243 0.0720075 0.0724347 5.47201 0.120435 12.096C0.168435 18.552 5.44843 23.808 11.9044 23.88C18.5524 23.928 23.9524 18.528 23.8804 11.904C23.8324 5.44801 18.5524 0.168007 12.0964 0.120007Z" fill="white"/>
<g id="Group">
<path id="Vector_2" d="M8.54463 6.216C9.28863 7.152 9.72063 8.328 9.72063 9.624C9.72063 10.728 9.38463 11.76 8.83263 12.624H4.84863L8.54463 6.216Z" fill="#2081E2"/>
<path id="Vector_3" d="M20.7123 14.04C20.7123 14.088 20.6883 14.136 20.6403 14.16C20.3763 14.28 19.4883 14.688 19.1043 15.216C18.1443 16.536 17.4243 18.648 15.7923 18.648H8.95234C6.52834 18.648 4.51234 16.728 4.53634 14.184C4.53634 14.112 4.58434 14.064 4.65634 14.064H7.87234C7.99234 14.064 8.06434 14.16 8.06434 14.256V14.88C8.06434 15.216 8.32834 15.48 8.66434 15.48H11.1123V14.064H9.43234C10.3923 12.84 10.9683 11.304 10.9683 9.62401C10.9683 7.75201 10.2483 6.04801 9.07234 4.77601C9.79234 4.84801 10.4643 4.99201 11.0883 5.18401V4.77601C11.0883 4.36801 11.4243 4.03201 11.8323 4.03201C12.2403 4.03201 12.5763 4.36801 12.5763 4.77601V5.73601C14.8563 6.79201 16.3683 8.56801 16.3683 10.584C16.3683 11.76 15.8643 12.864 14.9763 13.776C14.8083 13.944 14.5683 14.04 14.3283 14.04H12.6003V15.456H14.7603C15.2163 15.456 16.0563 14.568 16.4643 14.04C16.4643 14.04 16.4883 14.016 16.5363 13.992C16.5843 13.968 20.5203 13.08 20.5203 13.08C20.5923 13.056 20.6883 13.128 20.6883 13.2L20.7123 14.04Z" fill="#2081E2"/>
</g>
</g>
<defs>
<clipPath id="clip0_572_4679">
<rect width="24" height="24" fill="white"/>
</clipPath>
</defs>
</svg>
