<svg width="39" height="46" viewBox="0 0 39 46" fill="none" xmlns="http://www.w3.org/2000/svg">
<path d="M32.697 41.5675L6.50954 44.7829C6.03878 44.8401 5.56458 44.7082 5.19095 44.4163C4.81732 44.1244 4.57477 43.6962 4.51649 43.2257L0.4859 10.399C0.457305 10.1637 0.523215 9.92673 0.669176 9.73996C0.815136 9.5532 1.02923 9.43192 1.2645 9.40274L1.27376 9.4016L3.44639 9.15806L5.20376 8.96025L6.46487 8.8195L29.7223 6.20186L33.8805 36.532L34.2541 39.5746C34.3113 40.0452 34.1795 40.5193 33.8876 40.8929C33.5957 41.2664 33.1675 41.5091 32.697 41.5675Z" fill="white" stroke="#4E1FA3" stroke-width="0.685974" stroke-miterlimit="10" stroke-linecap="round"/>
<path opacity="0.17" d="M28.5894 8.10986L32.3535 35.597L32.6921 38.3545C32.7466 38.7782 32.6306 39.2063 32.3695 39.5445C32.1084 39.8828 31.7236 40.1035 31.2997 40.1582L7.84848 43.0376C7.42401 43.0871 6.99726 42.966 6.66208 42.701C6.32691 42.436 6.11075 42.0487 6.06115 41.6244L2.4176 11.9501C2.3887 11.7147 2.45452 11.4774 2.60058 11.2905C2.74664 11.1036 2.96097 10.9824 3.19644 10.9535L6.09771 10.5973" fill="#B7C5FF"/>
<path d="M36.8354 37.2108H10.4515C9.65438 37.2108 9.00586 36.5625 9.00586 35.7656V1.78901C9.00586 0.992089 9.65438 0.34375 10.4515 0.34375H30.8238C31.2098 0.34375 31.5727 0.493971 31.8457 0.76674L37.8573 6.77296C38.1306 7.04597 38.2811 7.40902 38.2811 7.79523V35.7656C38.2811 36.5625 37.6326 37.2108 36.8354 37.2108Z" fill="white"/>
<path d="M10.4528 0.685976C9.84484 0.685976 9.35023 1.18045 9.35023 1.78824V35.7648C9.35023 36.3726 9.84484 36.8671 10.4528 36.8671H36.8367C37.4447 36.8671 37.9393 36.3726 37.9393 35.7648V7.79446C37.9393 7.4999 37.8245 7.22301 37.6161 7.0148L31.6045 1.00858C31.3963 0.800545 31.1195 0.685976 30.8251 0.685976H10.4528ZM10.4528 0H30.8251C31.2993 0 31.7541 0.188241 32.0895 0.52337L38.1011 6.52959C38.4368 6.86498 38.6254 7.31999 38.6254 7.79446V35.7648C38.6254 36.7524 37.8246 37.5531 36.8367 37.5531H10.4528C9.46491 37.5531 8.66406 36.7524 8.66406 35.7648V1.78824C8.66406 0.80062 9.46491 0 10.4528 0Z" fill="#4E1FA3"/>
<path d="M29.3799 17.365V16.5757C29.3799 15.2678 28.3592 14.2076 27.1 14.2076H24.7463C24.3407 14.2076 23.9424 14.0952 23.5926 13.882L22.0708 12.9545C21.7209 12.7413 21.3226 12.6289 20.917 12.6289H19.5005C18.2414 12.6289 17.2207 13.6891 17.2207 14.997V22.8905C17.2207 24.1983 18.2414 25.2585 19.5006 25.2585H26.1389C27.2067 25.2585 28.1961 24.6766 28.7455 23.7256L31.0386 19.7559C31.6464 18.7037 30.9167 17.365 29.7353 17.365H29.3799ZM29.3799 17.365H22.9959C21.7946 17.365 20.706 18.0998 20.2181 19.2401L17.9807 24.4692" stroke="#4E1FA3" stroke-width="0.58067" stroke-linecap="round" stroke-linejoin="round"/>
<path d="M31.0625 0.382812V6.19989C31.0625 6.5556 31.2038 6.89674 31.4554 7.14827C31.707 7.3998 32.0483 7.54111 32.4041 7.54111H38.1336" stroke="#4E1FA3" stroke-width="0.685974" stroke-miterlimit="10" stroke-linecap="round" stroke-linejoin="round"/>
</svg>
