<svg width="16" height="16" viewBox="0 0 16 16" fill="none" xmlns="http://www.w3.org/2000/svg">
<g id="Huge-icon/user/outline/users 02">
<ellipse id="Ellipse 295" cx="8" cy="10.9997" rx="4" ry="1.66667" stroke="#4E1FA3" stroke-linejoin="round"/>
<circle id="Ellipse 296" cx="8" cy="5.33301" r="2" stroke="#4E1FA3" stroke-linejoin="round"/>
<path id="Subtract" fill-rule="evenodd" clip-rule="evenodd" d="M4.29623 8.8408C3.47029 8.87512 2.71158 9.02388 2.12265 9.25945C1.78618 9.39404 1.48033 9.56681 1.25043 9.78423C1.01947 10.0027 0.832031 10.3006 0.832031 10.6665C0.832031 11.0324 1.01947 11.3304 1.25043 11.5488C1.48033 11.7662 1.78618 11.939 2.12265 12.0735C2.45607 12.2069 2.8439 12.3125 3.26754 12.3852C2.93841 12.0302 2.73181 11.6336 2.67929 11.2131C2.61474 11.1913 2.55293 11.1686 2.49404 11.1451C2.22729 11.0384 2.04498 10.9238 1.93754 10.8222C1.8319 10.7223 1.83202 10.6696 1.83203 10.6666L1.83203 10.6665L1.83203 10.6664C1.83202 10.6634 1.8319 10.6107 1.93754 10.5108C2.04498 10.4092 2.22729 10.2946 2.49404 10.1879C2.62954 10.1337 2.78048 10.0841 2.94467 10.0402C3.22046 9.58036 3.68899 9.17042 4.29623 8.8408Z" fill="#4E1FA3"/>
<path id="Subtract_2" fill-rule="evenodd" clip-rule="evenodd" d="M13.3194 11.2131C13.2669 11.6336 13.0604 12.0302 12.7313 12.3852C13.1549 12.3125 13.5427 12.2069 13.876 12.0736C14.2125 11.939 14.5184 11.7662 14.7483 11.5488C14.9792 11.3304 15.1667 11.0324 15.1667 10.6665C15.1667 10.3007 14.9792 10.0027 14.7483 9.78427C14.5184 9.56684 14.2125 9.39408 13.876 9.25949C13.287 9.02388 12.5282 8.87512 11.7021 8.84082C12.3095 9.17043 12.7781 9.58036 13.0539 10.0402C13.2181 10.0841 13.3691 10.1338 13.5047 10.188C13.7714 10.2947 13.9537 10.4092 14.0612 10.5108C14.1668 10.6107 14.1667 10.6635 14.1667 10.6665V10.6665V10.6666C14.1667 10.6696 14.1668 10.7224 14.0612 10.8223C13.9537 10.9239 13.7714 11.0384 13.5047 11.1451C13.4458 11.1687 13.384 11.1914 13.3194 11.2131Z" fill="#4E1FA3"/>
<path id="Subtract_3" fill-rule="evenodd" clip-rule="evenodd" d="M11.0092 6.76731C10.8627 7.07424 10.6705 7.35524 10.4416 7.60156C10.7055 7.74879 11.0096 7.83268 11.3333 7.83268C12.3459 7.83268 13.1667 7.01187 13.1667 5.99935C13.1667 4.98683 12.3459 4.16602 11.3333 4.16602C11.2637 4.16602 11.1949 4.1699 11.1273 4.17747C11.242 4.48786 11.3118 4.82001 11.3288 5.16603C11.3303 5.16602 11.3318 5.16602 11.3333 5.16602C11.7936 5.16602 12.1667 5.53911 12.1667 5.99935C12.1667 6.45959 11.7936 6.83268 11.3333 6.83268C11.2184 6.83268 11.1089 6.8094 11.0092 6.76731Z" fill="#4E1FA3"/>
<path id="Subtract_4" fill-rule="evenodd" clip-rule="evenodd" d="M4.87159 4.17749C4.8039 4.16991 4.73508 4.16602 4.66536 4.16602C3.65284 4.16602 2.83203 4.98683 2.83203 5.99935C2.83203 7.01187 3.65284 7.83268 4.66536 7.83268C4.98914 7.83268 5.29332 7.74875 5.55732 7.60145C5.32837 7.35515 5.13624 7.07415 4.98967 6.76722C4.88999 6.80937 4.7804 6.83268 4.66536 6.83268C4.20513 6.83268 3.83203 6.45959 3.83203 5.99935C3.83203 5.53911 4.20513 5.16602 4.66536 5.16602C4.66695 5.16602 4.66853 5.16602 4.67011 5.16603C4.68713 4.82002 4.75692 4.48788 4.87159 4.17749Z" fill="#4E1FA3"/>
</g>
</svg>
