<svg width="16" height="16" viewBox="0 0 16 16" fill="none" xmlns="http://www.w3.org/2000/svg">
<path d="M14.6663 6.66634V11.9997C14.6663 13.4724 13.4724 14.6663 11.9997 14.6663H3.99967C2.52692 14.6663 1.33301 13.4724 1.33301 11.9997V6.66634M14.6663 6.66634C14.6663 5.19358 13.4724 3.99967 11.9997 3.99967H3.99967C2.52692 3.99967 1.33301 5.19358 1.33301 6.66634M14.6663 6.66634C14.6663 6.66634 12.5916 8.47614 7.99967 8.40587M1.33301 6.66634C1.33301 6.66634 3.40778 8.3356 7.99967 8.40587M5.33301 3.99967V3.33301C5.33301 2.22844 6.22844 1.33301 7.33301 1.33301H8.66634C9.77091 1.33301 10.6663 2.22844 10.6663 3.33301V3.99967M7.99967 8.40587V7.40587M7.99967 8.40587V9.40587" stroke="#4E1FA3" stroke-linecap="round"/>
</svg>
