<svg width="16" height="16" viewBox="0 0 16 16" fill="none" xmlns="http://www.w3.org/2000/svg">
<g id="facebook-icon-1 1" clip-path="url(#clip0_220_3272)">
<path id="Vector" fill-rule="evenodd" clip-rule="evenodd" d="M13 0H3C1.34316 0 0 1.34316 0 3V13C0 14.6568 1.34316 16 3 16H13C14.6568 16 16 14.6568 16 13V3C16 1.34316 14.6568 0 13 0ZM12.5937 8.61684H11.0968V14.1579H8.59579V8.61684H7.62526V6.74947H8.59579V5.56C8.59579 4.00211 9.24421 3.07579 11.08 3.07579H12.9411V4.93474H11.8589C11.1432 4.93474 11.0968 5.20211 11.0968 5.69895L11.0947 6.74737H12.7958L12.5916 8.61474L12.5937 8.61684Z" fill="#3B5998"/>
</g>
<defs>
<clipPath id="clip0_220_3272">
<rect width="16" height="16" fill="white"/>
</clipPath>
</defs>
</svg>
