<svg width="16" height="16" viewBox="0 0 16 16" fill="none" xmlns="http://www.w3.org/2000/svg">
<g id="Frame">
<path id="Vector" d="M3.54353 1.39959C4.07086 1.32426 4.8102 1.49626 5.76553 2.04359L5.94686 2.15093L6.05353 2.21759L6.3182 2.16226C7.32739 1.96725 8.36282 1.94921 9.3782 2.10893L9.6822 2.16226L9.9462 2.21759L10.0535 2.15093C10.9769 1.59093 11.7115 1.37093 12.2682 1.38559L12.3775 1.39093L12.4755 1.40226L12.5262 1.41159L12.5595 1.41893L12.6555 1.45026C12.8127 1.51523 12.9391 1.63782 13.0089 1.79293C13.2817 2.40073 13.3736 3.07426 13.2735 3.73293L13.2422 3.91093L13.2115 4.04159L13.2935 4.15026C13.6762 4.68026 13.9135 5.30226 13.9802 5.95493L13.9955 6.15159L14.0002 6.33293C14.0002 8.90293 12.8942 10.2549 10.9042 10.7863L10.7409 10.8269L10.6529 10.8463L10.6622 10.9536L10.6675 11.0583L10.6702 11.3016L10.6689 11.4436L10.6669 13.9996C10.6668 14.1629 10.6069 14.3205 10.4984 14.4425C10.3899 14.5645 10.2404 14.6425 10.0782 14.6616L10.0002 14.6663H6.0002C5.83691 14.6662 5.67931 14.6063 5.55728 14.4978C5.43526 14.3893 5.3573 14.2398 5.3382 14.0776L5.33353 13.9996V13.5103C4.12153 13.6836 3.31353 13.2276 2.59353 12.2583L2.23686 11.7476C2.0502 11.4836 1.93353 11.3616 1.8442 11.3183L1.8122 11.3056C1.64714 11.252 1.5095 11.1361 1.42854 10.9825C1.34758 10.829 1.32968 10.65 1.37864 10.4835C1.4276 10.317 1.53957 10.1761 1.69074 10.0909C1.84191 10.0056 2.02038 9.98268 2.1882 10.0269C2.6162 10.1523 2.9042 10.4056 3.23486 10.8529L3.59353 11.3656C4.1002 12.0849 4.5002 12.3383 5.33286 12.1596L5.33353 11.7076L5.32153 11.5956C5.30184 11.4132 5.29716 11.2294 5.30753 11.0463L5.31886 10.9229L5.33153 10.8429L5.25953 10.8269C3.27553 10.3536 2.1242 9.11159 2.00953 6.73426L2.00286 6.52759L2.0002 6.33293C2.00097 5.61065 2.21124 4.9041 2.60553 4.29893L2.70686 4.15093L2.7882 4.04226L2.7582 3.91159C2.63801 3.32597 2.67131 2.71922 2.85486 2.15026L2.92153 1.96226L2.9922 1.79359C3.06179 1.63861 3.18794 1.51604 3.34486 1.45093L3.44086 1.41959L3.54353 1.39959Z" fill="#171515"/>
</g>
</svg>
