<svg width="8" height="18" viewBox="0 0 8 18" fill="none" xmlns="http://www.w3.org/2000/svg">
<path id="Vector" d="M1.87808 9H5.39041M1 1C1.69865 1 2.36868 1.31607 2.86269 1.87868C3.35671 2.44129 3.63425 3.20435 3.63425 4M3.63425 4V14M3.63425 4C3.63425 3.20435 3.91178 2.44129 4.4058 1.87868C4.89982 1.31607 5.56985 1 6.26849 1M3.63425 14C3.63425 14.7956 3.35671 15.5587 2.86269 16.1213C2.36868 16.6839 1.69865 17 1 17M3.63425 14C3.63425 14.7956 3.91178 15.5587 4.4058 16.1213C4.89982 16.6839 5.56985 17 6.26849 17" stroke="#48484A" stroke-width="1.5" stroke-linecap="round" stroke-linejoin="round"/>
</svg>
