<svg width="16" height="16" viewBox="0 0 16 16" fill="none" xmlns="http://www.w3.org/2000/svg">
<g id="Instagram_logo_2016 1" clip-path="url(#clip0_220_3280)">
<path id="Vector" d="M8.00394 0.121094C4.714 0.121094 3.75181 0.124488 3.56478 0.140003C2.88963 0.196124 2.46951 0.302427 2.01181 0.530306C1.65909 0.705457 1.38091 0.908488 1.10636 1.19309C0.60636 1.71212 0.303329 2.35067 0.193632 3.1097C0.140299 3.47818 0.124784 3.55334 0.121632 5.43552C0.12042 6.06291 0.121632 6.88861 0.121632 7.99612C0.121632 11.2834 0.125269 12.2446 0.141026 12.4313C0.195572 13.0882 0.298602 13.5016 0.516784 13.9537C0.933754 14.8192 1.73012 15.4689 2.6683 15.7113C2.99315 15.7949 3.35194 15.841 3.81254 15.8628C4.00769 15.8713 5.99678 15.8773 7.98709 15.8773C9.97739 15.8773 11.9677 15.8749 12.158 15.8652C12.6913 15.8401 13.001 15.7985 13.3435 15.7101C14.2877 15.4664 15.0695 14.8264 15.495 13.9489C15.7089 13.5076 15.8174 13.0785 15.8665 12.4559C15.8771 12.3201 15.8816 10.1556 15.8816 7.99406C15.8816 5.83212 15.8768 3.67164 15.8661 3.53588C15.8164 2.90315 15.7079 2.4777 15.4871 2.028C15.3059 1.65988 15.1047 1.38497 14.8125 1.10388C14.2912 0.605942 13.6536 0.302912 12.8939 0.193336C12.5258 0.140124 12.4524 0.124366 10.5688 0.121094H8.00394Z" fill="url(#paint0_radial_220_3280)"/>
<path id="Vector_2" d="M8.00394 0.121094C4.714 0.121094 3.75181 0.124488 3.56478 0.140003C2.88963 0.196124 2.46951 0.302427 2.01181 0.530306C1.65909 0.705457 1.38091 0.908488 1.10636 1.19309C0.60636 1.71212 0.303329 2.35067 0.193632 3.1097C0.140299 3.47818 0.124784 3.55334 0.121632 5.43552C0.12042 6.06291 0.121632 6.88861 0.121632 7.99612C0.121632 11.2834 0.125269 12.2446 0.141026 12.4313C0.195572 13.0882 0.298602 13.5016 0.516784 13.9537C0.933754 14.8192 1.73012 15.4689 2.6683 15.7113C2.99315 15.7949 3.35194 15.841 3.81254 15.8628C4.00769 15.8713 5.99678 15.8773 7.98709 15.8773C9.97739 15.8773 11.9677 15.8749 12.158 15.8652C12.6913 15.8401 13.001 15.7985 13.3435 15.7101C14.2877 15.4664 15.0695 14.8264 15.495 13.9489C15.7089 13.5076 15.8174 13.0785 15.8665 12.4559C15.8771 12.3201 15.8816 10.1556 15.8816 7.99406C15.8816 5.83212 15.8768 3.67164 15.8661 3.53588C15.8164 2.90315 15.7079 2.4777 15.4871 2.028C15.3059 1.65988 15.1047 1.38497 14.8125 1.10388C14.2912 0.605942 13.6536 0.302912 12.8939 0.193336C12.5258 0.140124 12.4524 0.124366 10.5688 0.121094H8.00394Z" fill="url(#paint1_radial_220_3280)"/>
<path id="Vector_3" d="M8.00031 2.18164C6.42019 2.18164 6.22188 2.18855 5.60128 2.21679C4.98188 2.24516 4.5591 2.34322 4.18916 2.4871C3.80649 2.6357 3.48188 2.83449 3.15849 3.158C2.83485 3.4814 2.63606 3.806 2.48697 4.18855C2.34273 4.55861 2.24455 4.98152 2.21667 5.60067C2.18891 6.22128 2.18164 6.4197 2.18164 7.99982C2.18164 9.57994 2.18867 9.77764 2.21679 10.3982C2.24528 11.0176 2.34334 11.4404 2.4871 11.8104C2.63582 12.193 2.83461 12.5176 3.15813 12.841C3.4814 13.1647 3.806 13.3639 4.18843 13.5126C4.55861 13.6564 4.98152 13.7545 5.60079 13.7829C6.2214 13.8111 6.41958 13.818 7.99958 13.818C9.57982 13.818 9.77752 13.8111 10.3981 13.7829C11.0175 13.7545 11.4408 13.6564 11.811 13.5126C12.1935 13.3639 12.5176 13.1647 12.8409 12.841C13.1646 12.5176 13.3633 12.193 13.5124 11.8105C13.6555 11.4404 13.7536 11.0175 13.7827 10.3984C13.8106 9.77776 13.8179 9.57994 13.8179 7.99982C13.8179 6.4197 13.8106 6.2214 13.7827 5.60079C13.7536 4.9814 13.6555 4.55861 13.5124 4.18867C13.3633 3.806 13.1646 3.4814 12.8409 3.158C12.5173 2.83437 12.1936 2.63558 11.8106 2.4871C11.4397 2.34322 11.0167 2.24516 10.3973 2.21679C9.77667 2.18855 9.5791 2.18164 7.99849 2.18164H8.00031ZM7.47837 3.23013C7.63328 3.22988 7.80613 3.23013 8.00031 3.23013C9.55376 3.23013 9.73788 3.2357 10.3513 3.26358C10.9186 3.28952 11.2265 3.38431 11.4316 3.46394C11.7031 3.5694 11.8967 3.69546 12.1002 3.8991C12.3038 4.10273 12.4299 4.29667 12.5356 4.56819C12.6152 4.77303 12.7101 5.08091 12.7359 5.64819C12.7638 6.26152 12.7699 6.44576 12.7699 7.99849C12.7699 9.55122 12.7638 9.73546 12.7359 10.3488C12.71 10.9161 12.6152 11.2239 12.5356 11.4288C12.4301 11.7003 12.3038 11.8936 12.1002 12.0972C11.8966 12.3008 11.7032 12.4269 11.4316 12.5323C11.2267 12.6123 10.9186 12.7069 10.3513 12.7328C9.738 12.7607 9.55376 12.7667 8.00031 12.7667C6.44673 12.7667 6.26261 12.7607 5.64928 12.7328C5.082 12.7066 4.77413 12.6118 4.56891 12.5322C4.2974 12.4267 4.10346 12.3007 3.89982 12.097C3.69619 11.8934 3.57013 11.6999 3.46443 11.4283C3.38479 11.2235 3.28988 10.9156 3.26406 10.3483C3.23619 9.73497 3.23061 9.55073 3.23061 7.99703C3.23061 6.44334 3.23619 6.26007 3.26406 5.64673C3.29 5.07946 3.38479 4.77158 3.46443 4.56649C3.56988 4.29497 3.69619 4.10103 3.89982 3.8974C4.10346 3.69376 4.2974 3.5677 4.56891 3.462C4.774 3.382 5.082 3.28746 5.64928 3.2614C6.186 3.23716 6.394 3.22988 7.47837 3.22867V3.23013ZM11.106 4.19619C10.7205 4.19619 10.4078 4.50855 10.4078 4.89413C10.4078 5.27958 10.7205 5.59231 11.106 5.59231C11.4915 5.59231 11.8042 5.27958 11.8042 4.89413C11.8042 4.50867 11.4915 4.19594 11.106 4.19594V4.19619ZM8.00031 5.01194C6.35025 5.01194 5.01243 6.34976 5.01243 7.99982C5.01243 9.64988 6.35025 10.9871 8.00031 10.9871C9.65037 10.9871 10.9877 9.64988 10.9877 7.99982C10.9877 6.34976 9.65037 5.01194 8.00031 5.01194ZM8.00031 6.06043C9.07134 6.06043 9.9397 6.92867 9.9397 7.99982C9.9397 9.07085 9.07134 9.93922 8.00031 9.93922C6.92916 9.93922 6.06091 9.07085 6.06091 7.99982C6.06091 6.92867 6.92916 6.06043 8.00031 6.06043Z" fill="white"/>
</g>
<defs>
<radialGradient id="paint0_radial_220_3280" cx="0" cy="0" r="1" gradientUnits="userSpaceOnUse" gradientTransform="translate(4.30751 17.0909) rotate(-90) scale(15.6156 14.5277)">
<stop stop-color="#FFDD55"/>
<stop offset="0.1" stop-color="#FFDD55"/>
<stop offset="0.5" stop-color="#FF543E"/>
<stop offset="1" stop-color="#C837AB"/>
</radialGradient>
<radialGradient id="paint1_radial_220_3280" cx="0" cy="0" r="1" gradientUnits="userSpaceOnUse" gradientTransform="translate(-2.51888 1.25615) rotate(78.6776) scale(6.98031 28.7804)">
<stop stop-color="#3771C8"/>
<stop offset="0.128" stop-color="#3771C8"/>
<stop offset="1" stop-color="#6600FF" stop-opacity="0"/>
</radialGradient>
<clipPath id="clip0_220_3280">
<rect width="16.0005" height="16" fill="white"/>
</clipPath>
</defs>
</svg>
