<svg width="86" height="58" viewBox="0 0 86 58" fill="none" xmlns="http://www.w3.org/2000/svg">
<g id="L1X_Labs_Black 1" clip-path="url(#clip0_1779_7357)">
<g id="Group">
<g id="Group_2">
<g id="Clip path group">
<mask id="mask0_1779_7357" style="mask-type:luminance" maskUnits="userSpaceOnUse" x="0" y="30" width="87" height="28">
<g id="SVGID_00000015333053919546201500000000478194515503597450_">
<path id="Vector" d="M0 31.2589V57.4754H16.5513V52.9821H4.83377V31.2589H0ZM29.44 34.3666H30.0992L33.2115 47.1375H26.3277L29.44 34.3666ZM25.5597 31.2589L18.8211 57.4754H23.8L25.1908 51.7078H34.3464L35.7373 57.4754H40.7182L33.9795 31.2589H25.5597ZM50.9098 46.5399H55.4493C57.5739 46.5399 58.9648 47.6257 58.9648 49.5746V49.9494C58.9648 51.8962 57.5376 52.9841 55.4493 52.9841H50.9098V46.5399ZM50.9098 35.7523H55.3767C57.4267 35.7523 58.8196 36.8381 58.8196 38.712V39.0868C58.8196 40.9587 57.3925 42.0445 55.3767 42.0445H50.9098V35.7523ZM42.7077 31.2589V35.6023H46.076V53.13H42.7077V57.4754H56.0359C60.6136 57.4754 63.7985 54.9289 63.7985 50.547V50.1722C63.7985 46.4264 61.3454 44.9658 59.7348 44.5161V43.8415C61.3091 43.3553 63.6534 41.8946 63.6534 38.2603V37.8855C63.6534 33.8034 60.5774 31.2569 55.8907 31.2569H42.7077V31.2589ZM66.8121 38.3737C66.8121 43.1689 69.9244 45.0023 75.2339 46.2016L76.0765 46.388C79.3722 47.1375 81.2388 47.8871 81.2388 50.0588C81.2388 52.1555 79.5919 53.6547 76.2962 53.6547C73.0004 53.6547 70.9867 52.0806 70.9867 48.9365V47.8871H66.2275V48.9365C66.2275 54.6291 70.3658 58.0001 76.2982 58.0001C82.2306 58.0001 86.002 54.7041 86.002 49.9109C86.002 45.1177 82.3757 43.1689 76.9211 41.9716L76.0785 41.7852C73.0024 41.1106 71.5753 40.1747 71.5753 38.2278C71.5753 36.281 72.9299 35.0817 75.8608 35.0817C78.7897 35.0817 80.5837 36.281 80.5837 39.2772V40.4016H85.3429V39.2772C85.3429 33.5846 81.3517 30.7383 75.8588 30.7383C70.3638 30.7342 66.8121 33.5805 66.8121 38.3737Z" fill="white"/>
</g>
</mask>
<g mask="url(#mask0_1779_7357)">
<path id="Vector_2" d="M86 30.7344H0V58.0002H86V30.7344Z" fill="#14153C"/>
</g>
</g>
</g>
<g id="Group_3">
<g id="Clip path group_2">
<mask id="mask1_1779_7357" style="mask-type:luminance" maskUnits="userSpaceOnUse" x="63" y="22" width="23" height="5">
<g id="SVGID_00000036933701223284260550000016746056428563945898_">
<path id="Vector_3" d="M85.7289 22.2969H63.2109V26.7071H85.7289V22.2969Z" fill="white"/>
</g>
</mask>
<g mask="url(#mask1_1779_7357)">
<path id="Vector_4" d="M85.7289 22.2969H63.2109V26.7071H85.7289V22.2969Z" fill="#14153C"/>
</g>
</g>
</g>
<g id="Group_4">
<g id="Clip path group_3">
<mask id="mask2_1779_7357" style="mask-type:luminance" maskUnits="userSpaceOnUse" x="0" y="0" width="18" height="27">
<g id="SVGID_00000110469061078562039860000017119108216912398767_">
<path id="Vector_5" d="M0 0V26.5345H17.0472V21.9865H4.9789V0H0Z" fill="white"/>
</g>
</mask>
<g mask="url(#mask2_1779_7357)">
<path id="Vector_6" d="M17.0472 0H0V26.5345H17.0472V0Z" fill="#14153C"/>
</g>
</g>
</g>
<g id="Group_5">
<g id="Clip path group_4">
<mask id="mask3_1779_7357" style="mask-type:luminance" maskUnits="userSpaceOnUse" x="37" y="0" width="23" height="27">
<g id="SVGID_00000016775314827996518560000006836871248425094042_">
<path id="Vector_7" d="M54.1754 0L48.9324 9.59036H48.2531L43.0101 0H37.3539L45.0098 13.1538L37.2773 26.5345H42.9335L48.2531 16.7173H48.9324L54.25 26.5345H59.9062L52.1758 13.1538L59.8316 0H54.1754Z" fill="white"/>
</g>
</mask>
<g mask="url(#mask3_1779_7357)">
<path id="Vector_8" d="M59.9062 0H37.2773V26.5345H59.9062V0Z" fill="#14153C"/>
</g>
</g>
</g>
<g id="Group_6">
<g id="Clip path group_5">
<mask id="mask4_1779_7357" style="mask-type:luminance" maskUnits="userSpaceOnUse" x="18" y="0" width="19" height="27">
<g id="SVGID_00000075859753351186415080000010625605427793181630_">
<path id="Vector_9" d="M26.0922 0C25.0359 2.00964 21.8309 4.51156 18.2852 5.04031V9.47489C20.7363 9.32295 23.7176 7.92106 25.2637 6.10185V21.9845H19.3213V26.5325H36.0681V21.9845H30.1962V0H26.0922Z" fill="white"/>
</g>
</mask>
<g mask="url(#mask4_1779_7357)">
<path id="Vector_10" d="M36.0681 0H18.2852V26.5345H36.0681V0Z" fill="#14153C"/>
</g>
</g>
</g>
</g>
</g>
<defs>
<clipPath id="clip0_1779_7357">
<rect width="86" height="58" fill="white"/>
</clipPath>
</defs>
</svg>
