<svg width="16" height="16" viewBox="0 0 16 16" fill="none" xmlns="http://www.w3.org/2000/svg">
<g id="linkedin-icon-2 1" clip-path="url(#clip0_220_3262)">
<g id="Group">
<path id="Vector" d="M0 1.17377C0 0.543673 0.529625 0.0322266 1.1825 0.0322266H14.8175C15.4706 0.0322266 16 0.543673 16 1.17377V14.8269C16 15.4572 15.4706 15.9682 14.8175 15.9682H1.1825C0.529688 15.9682 0 15.4572 0 14.8271V1.17358V1.17377Z" fill="#006699"/>
<path id="Vector_2" d="M4.86155 13.3693V6.19481H2.4673V13.3693H4.8618H4.86155ZM3.66492 5.21543C4.49967 5.21543 5.01936 4.66452 5.01936 3.97604C5.00373 3.27186 4.49967 2.73633 3.6808 2.73633C2.86136 2.73633 2.32617 3.27186 2.32617 3.97597C2.32617 4.66446 2.84567 5.21537 3.64923 5.21537H3.66473L3.66492 5.21543ZM6.1868 13.3693H8.58086V9.36315C8.58086 9.14901 8.59648 8.93431 8.65973 8.78136C8.83273 8.35277 9.22667 7.90912 9.88824 7.90912C10.7544 7.90912 11.101 8.56698 11.101 9.53154V13.3693H13.495V9.25565C13.495 7.05206 12.314 6.02661 10.7389 6.02661C9.44742 6.02661 8.88023 6.74554 8.56511 7.2352H8.58105V6.19506H6.18692C6.21817 6.86811 6.18673 13.3695 6.18673 13.3695L6.1868 13.3693Z" fill="white"/>
</g>
</g>
<defs>
<clipPath id="clip0_220_3262">
<rect width="16" height="16" fill="white"/>
</clipPath>
</defs>
</svg>
