<svg width="16" height="16" viewBox="0 0 16 16" fill="none" xmlns="http://www.w3.org/2000/svg">
<path d="M2.65853 11.4869L3.12007 11.6792L2.65853 11.4869ZM2.10297 12.8202L2.56451 13.0125L2.10297 12.8202ZM13.8978 12.8202L13.4363 13.0125L13.8978 12.8202ZM13.3423 11.4869L13.8038 11.2945V11.2945L13.3423 11.4869ZM10.6671 10.1663C10.3909 10.1663 10.1671 10.3902 10.1671 10.6663C10.1671 10.9425 10.3909 11.1663 10.6671 11.1663V10.1663ZM5.33374 11.1663C5.60989 11.1663 5.83374 10.9425 5.83374 10.6663C5.83374 10.3902 5.60989 10.1663 5.33374 10.1663V11.1663ZM12.1671 6.07375C12.1671 7.22042 11.5145 8.59208 10.6036 9.70122C10.1543 10.2483 9.66034 10.7085 9.18794 11.0276C8.70482 11.354 8.29403 11.4997 8.00041 11.4997V12.4997C8.58179 12.4997 9.19183 12.2318 9.74777 11.8562C10.3144 11.4734 10.8778 10.943 11.3764 10.3359C12.3613 9.13662 13.1671 7.54532 13.1671 6.07375H12.1671ZM8.00041 11.4997C7.70679 11.4997 7.296 11.354 6.81287 11.0276C6.34048 10.7085 5.84656 10.2483 5.39722 9.70122C4.48631 8.59208 3.83374 7.22042 3.83374 6.07375H2.83374C2.83374 7.54532 3.63951 9.13662 4.62443 10.3359C5.12301 10.943 5.68638 11.4734 6.25305 11.8562C6.80898 12.2318 7.41903 12.4997 8.00041 12.4997V11.4997ZM3.83374 6.07375C3.83374 3.7242 5.70662 1.83301 8.00041 1.83301V0.833008C5.13954 0.833008 2.83374 3.18682 2.83374 6.07375H3.83374ZM8.00041 1.83301C10.2942 1.83301 12.1671 3.7242 12.1671 6.07375H13.1671C13.1671 3.18682 10.8613 0.833008 8.00041 0.833008V1.83301ZM9.16708 5.99967C9.16708 6.64401 8.64474 7.16634 8.00041 7.16634V8.16634C9.19703 8.16634 10.1671 7.19629 10.1671 5.99967H9.16708ZM8.00041 7.16634C7.35608 7.16634 6.83374 6.64401 6.83374 5.99967H5.83374C5.83374 7.19629 6.80379 8.16634 8.00041 8.16634V7.16634ZM6.83374 5.99967C6.83374 5.35534 7.35608 4.83301 8.00041 4.83301V3.83301C6.80379 3.83301 5.83374 4.80306 5.83374 5.99967H6.83374ZM8.00041 4.83301C8.64474 4.83301 9.16708 5.35534 9.16708 5.99967H10.1671C10.1671 4.80306 9.19703 3.83301 8.00041 3.83301V4.83301ZM2.19699 11.2945L1.64144 12.6279L2.56451 13.0125L3.12007 11.6792L2.19699 11.2945ZM3.33374 15.1663H12.6671V14.1663H3.33374V15.1663ZM14.3594 12.6279L13.8038 11.2945L12.8808 11.6792L13.4363 13.0125L14.3594 12.6279ZM12.1115 10.1663H10.6671V11.1663H12.1115V10.1663ZM3.8893 11.1663H5.33374V10.1663H3.8893V11.1663ZM13.8038 11.2945C13.5192 10.6114 12.8516 10.1663 12.1115 10.1663V11.1663C12.4479 11.1663 12.7514 11.3686 12.8808 11.6792L13.8038 11.2945ZM12.6671 15.1663C13.9753 15.1663 14.8625 13.8355 14.3594 12.6279L13.4363 13.0125C13.665 13.5614 13.2617 14.1663 12.6671 14.1663V15.1663ZM1.64144 12.6279C1.13827 13.8355 2.02552 15.1663 3.33374 15.1663V14.1663C2.73909 14.1663 2.3358 13.5614 2.56451 13.0125L1.64144 12.6279ZM3.12007 11.6792C3.24946 11.3686 3.55288 11.1663 3.8893 11.1663V10.1663C3.14918 10.1663 2.48165 10.6114 2.19699 11.2945L3.12007 11.6792Z" fill="#4E1FA3"/>
</svg>
