<?xml version="1.0" encoding="UTF-8"?>
<svg id="Layer_2" data-name="Layer 2" xmlns="http://www.w3.org/2000/svg" xmlns:xlink="http://www.w3.org/1999/xlink" viewBox="0 0 1103.7 245.25">
  <defs>
    <style>
      .cls-1 {
        fill: url(#linear-gradient-2);
      }

      .cls-2 {
        fill: url(#linear-gradient-17);
      }

      .cls-3 {
        fill: url(#linear-gradient-15);
      }

      .cls-4 {
        fill: url(#linear-gradient-18);
      }

      .cls-5 {
        fill: url(#linear-gradient-14);
      }

      .cls-6 {
        fill: url(#linear-gradient-20);
      }

      .cls-7 {
        fill: url(#linear-gradient-6);
      }

      .cls-8 {
        fill: url(#linear-gradient-11);
      }

      .cls-9 {
        clip-path: url(#clippath-1);
      }

      .cls-10 {
        fill: url(#linear-gradient-10);
      }

      .cls-11 {
        fill: #ff6c1a;
      }

      .cls-12 {
        fill: url(#linear-gradient-16);
      }

      .cls-13 {
        fill: url(#linear-gradient-21);
      }

      .cls-14 {
        fill: url(#linear-gradient-25);
      }

      .cls-15 {
        fill: url(#linear-gradient-5);
      }

      .cls-16 {
        clip-path: url(#clippath);
      }

      .cls-17 {
        fill: none;
      }

      .cls-18 {
        fill: url(#linear-gradient-7);
      }

      .cls-19 {
        fill: url(#linear-gradient-24);
      }

      .cls-20 {
        fill: url(#linear-gradient-9);
      }

      .cls-21 {
        fill: url(#linear-gradient-22);
      }

      .cls-22 {
        fill: url(#linear-gradient-3);
      }

      .cls-23 {
        fill: url(#linear-gradient);
      }

      .cls-24 {
        fill: url(#linear-gradient-27);
      }

      .cls-25 {
        fill: url(#linear-gradient-23);
      }

      .cls-26 {
        fill: url(#linear-gradient-19);
      }

      .cls-27 {
        fill: #231f20;
      }

      .cls-28 {
        fill: url(#linear-gradient-4);
      }

      .cls-29 {
        fill: url(#linear-gradient-8);
      }

      .cls-30 {
        fill: url(#linear-gradient-12);
      }

      .cls-31 {
        fill: url(#linear-gradient-13);
      }

      .cls-32 {
        fill: url(#linear-gradient-26);
      }
    </style>
    <clipPath id="clippath">
      <polygon class="cls-17" points="203.19 87.6 203.19 63.08 101.6 2.36 0 63.08 0 133.88 81.43 182.01 91.4 164.14 20.49 121.75 20.49 121.1 20.49 87.57 172.46 178.41 101.6 220.76 0 159.98 0 184.53 101.6 245.25 203.19 184.53 203.19 113.7 113.82 60.02 103.58 78.39 182.71 125.68 182.71 160.04 30.73 69.21 101.6 26.85 203.19 87.6"/>
    </clipPath>
    <linearGradient id="linear-gradient" x1="155.85" y1="195.47" x2="205.79" y2="195.47" gradientTransform="translate(40.79 -134.32) rotate(17.26)" gradientUnits="userSpaceOnUse">
      <stop offset="0" stop-color="#f06924"/>
      <stop offset="1" stop-color="#ee5225"/>
    </linearGradient>
    <linearGradient id="linear-gradient-2" x1="102.77" y1="209.07" x2="159.37" y2="209.07" gradientTransform="translate(40.79 -134.32) rotate(17.26)" gradientUnits="userSpaceOnUse">
      <stop offset="0" stop-color="#f06924"/>
      <stop offset="1" stop-color="#f27e20"/>
    </linearGradient>
    <linearGradient id="linear-gradient-3" x1="179.76" y1="148.82" x2="255.73" y2="148.82" xlink:href="#linear-gradient-2"/>
    <linearGradient id="linear-gradient-4" x1="134.66" y1="227.52" x2="155.85" y2="227.52" xlink:href="#linear-gradient-2"/>
    <linearGradient id="linear-gradient-5" x1="201.09" y1="171.03" x2="255.73" y2="171.03" xlink:href="#linear-gradient"/>
    <linearGradient id="linear-gradient-6" x1="53.95" y1="237.02" x2="134.66" y2="237.02" xlink:href="#linear-gradient"/>
    <linearGradient id="linear-gradient-7" x1="74.13" y1="168.83" x2="167.63" y2="168.83" xlink:href="#linear-gradient"/>
    <linearGradient id="linear-gradient-8" x1="159.37" y1="157.88" x2="201.09" y2="157.88" xlink:href="#linear-gradient-2"/>
    <linearGradient id="linear-gradient-9" x1="52.99" y1="227.18" x2="55.38" y2="227.18" gradientTransform="translate(40.79 -134.32) rotate(17.26)" gradientUnits="userSpaceOnUse">
      <stop offset="0" stop-color="#f27e20"/>
      <stop offset="1" stop-color="#f79d1d"/>
    </linearGradient>
    <linearGradient id="linear-gradient-10" x1="74.13" y1="276.54" x2="152.69" y2="276.54" xlink:href="#linear-gradient-2"/>
    <linearGradient id="linear-gradient-11" x1="55.38" y1="209.09" x2="102.77" y2="209.09" xlink:href="#linear-gradient-9"/>
    <linearGradient id="linear-gradient-12" x1="167.63" y1="116.79" x2="179.76" y2="116.79" xlink:href="#linear-gradient-9"/>
    <linearGradient id="linear-gradient-13" x1="170.73" y1="115.69" x2="199.52" y2="115.69" xlink:href="#linear-gradient-2"/>
    <linearGradient id="linear-gradient-14" x1="134.66" y1="337" x2="255.73" y2="337" xlink:href="#linear-gradient"/>
    <linearGradient id="linear-gradient-15" x1="107.59" y1="346.14" x2="141.94" y2="346.14" xlink:href="#linear-gradient-9"/>
    <linearGradient id="linear-gradient-16" x1="13.6" y1="348.9" x2="134.66" y2="348.9" xlink:href="#linear-gradient"/>
    <linearGradient id="linear-gradient-17" x1="13.6" y1="298.06" x2="134.66" y2="298.06" xlink:href="#linear-gradient"/>
    <linearGradient id="linear-gradient-18" x1="141.94" y1="279.17" x2="255.73" y2="279.17" xlink:href="#linear-gradient-9"/>
    <linearGradient id="linear-gradient-19" x1="205.79" y1="228.46" x2="255.73" y2="228.46" xlink:href="#linear-gradient-9"/>
    <linearGradient id="linear-gradient-20" x1="152.69" y1="243.38" x2="255.73" y2="243.38" xlink:href="#linear-gradient-2"/>
    <linearGradient id="linear-gradient-21" x1="13.6" y1="119.93" x2="134.66" y2="119.93" xlink:href="#linear-gradient"/>
    <linearGradient id="linear-gradient-22" x1="13.6" y1="166.08" x2="103.35" y2="166.08" xlink:href="#linear-gradient-9"/>
    <linearGradient id="linear-gradient-23" x1="103.35" y1="111.82" x2="170.73" y2="111.82" xlink:href="#linear-gradient-2"/>
    <linearGradient id="linear-gradient-24" x1="13.6" y1="264.64" x2="74.13" y2="264.64" xlink:href="#linear-gradient-2"/>
    <linearGradient id="linear-gradient-25" x1="13.6" y1="191.42" x2="74.13" y2="191.42" xlink:href="#linear-gradient-2"/>
    <linearGradient id="linear-gradient-26" x1="13.6" y1="198.28" x2="52.99" y2="198.28" xlink:href="#linear-gradient"/>
    <linearGradient id="linear-gradient-27" x1="13.6" y1="263.78" x2="53.95" y2="263.78" xlink:href="#linear-gradient-9"/>
    <clipPath id="clippath-1">
      <polygon class="cls-11" points="203.19 85.24 203.19 60.72 101.6 0 0 60.72 0 131.52 81.43 179.65 91.4 161.77 20.49 119.39 20.49 118.74 20.49 85.21 172.46 176.04 101.6 218.4 0 157.62 0 182.17 101.6 242.89 203.19 182.17 203.19 111.34 113.82 57.66 103.58 76.03 182.71 123.32 182.71 157.68 30.73 66.84 101.6 24.49 203.19 85.24"/>
    </clipPath>
  </defs>
  <g id="Layer_1-2" data-name="Layer 1">
    <g>
      <g class="cls-16">
        <g>
          <polygon class="cls-23" points="136.7 94.1 125.59 118 182.13 104.32 180.85 92.6 136.7 94.1"/>
          <polygon class="cls-1" points="76.79 96.14 101.6 123.81 125.59 118 136.7 94.1 76.79 96.14"/>
          <polygon class="cls-22" points="180.85 92.6 238.68 90.63 194.97 41.87 175.04 39.42 180.85 92.6"/>
          <polygon class="cls-28" points="115.62 139.45 125.59 118 101.6 123.81 115.62 139.45"/>
          <polygon class="cls-15" points="182.13 104.32 238.68 90.63 180.85 92.6 182.13 104.32"/>
          <polygon class="cls-7" points="76.79 96.14 26.64 97.84 24.52 99.86 33.06 140.39 101.6 123.81 76.79 96.14"/>
          <polygon class="cls-18" points="136.7 94.1 162.81 37.91 97.98 29.93 54.53 71.29 76.79 96.14 136.7 94.1"/>
          <polygon class="cls-29" points="180.85 92.6 175.04 39.42 162.81 37.91 136.7 94.1 180.85 92.6"/>
          <polygon class="cls-20" points="24.12 97.93 24.52 99.86 26.64 97.84 24.12 97.93"/>
          <polygon class="cls-10" points="33.06 140.39 47.2 207.61 81.65 212.53 115.62 139.45 101.6 123.81 33.06 140.39"/>
          <polygon class="cls-8" points="54.53 71.29 26.64 97.84 76.79 96.14 54.53 71.29"/>
          <polygon class="cls-30" points="175.04 39.42 172.58 16.9 162.81 37.91 175.04 39.42"/>
          <polygon class="cls-31" points="194.97 41.87 172.58 16.9 175.04 39.42 194.97 41.87"/>
          <polygon class="cls-5" points="58.65 262 195.74 228.83 81.65 212.53 58.65 262"/>
          <polygon class="cls-3" points="47.2 207.61 58.65 262 81.65 212.53 47.2 207.61"/>
          <polygon class="cls-12" points="4.42 201.49 58.65 262 47.2 207.61 4.42 201.49"/>
          <polygon class="cls-2" points="33.06 140.39 -35.49 156.98 4.42 201.49 47.2 207.61 33.06 140.39"/>
          <polygon class="cls-4" points="81.65 212.53 195.74 228.83 115.62 139.45 81.65 212.53"/>
          <polygon class="cls-26" points="182.13 104.32 195.74 228.83 220.78 148.23 238.68 90.63 182.13 104.32"/>
          <polygon class="cls-6" points="125.59 118 115.62 139.45 195.74 228.83 182.13 104.32 125.59 118"/>
          <polygon class="cls-13" points="144.54 -14.39 7.46 18.78 97.98 29.93 144.54 -14.39"/>
          <polygon class="cls-21" points="97.98 29.93 7.46 18.78 54.53 71.29 97.98 29.93"/>
          <polygon class="cls-25" points="162.81 37.91 172.58 16.9 144.54 -14.39 97.98 29.93 162.81 37.91"/>
          <polygon class="cls-19" points="24.52 99.86 -35.49 156.98 33.06 140.39 24.52 99.86"/>
          <polygon class="cls-14" points="26.64 97.84 54.53 71.29 7.46 18.78 24.12 97.93 26.64 97.84"/>
          <polygon class="cls-32" points="7.46 18.78 -17.58 99.34 24.12 97.93 7.46 18.78"/>
          <polygon class="cls-24" points="24.12 97.93 -17.58 99.34 -35.49 156.98 24.52 99.86 24.12 97.93"/>
        </g>
      </g>
      <path class="cls-27" d="m303.68,97.84l-2.78-.48c-9.54-1.68-21.42-3.78-21.69-12.86-.09-2.78.87-5.2,2.84-7.22,3.72-3.79,10.98-5.97,19.43-5.87,8.71,0,16.03,1.34,23.47,7.89l.89.78,6.37-6.79-.89-.83c-7.59-7.13-17.63-10.74-29.83-10.74-11.1-.15-20.81,3.05-26.43,8.67-3.84,3.84-5.75,8.66-5.7,14.31.17,16.97,16.7,19.72,31.29,22.16,14.43,2.32,24.63,4.69,24.36,14.2-.47,12.32-16.29,13.65-23.06,13.65-11.71,0-22-4.76-27.53-12.72l-.78-1.13-7.48,6.65.57.88c6.59,10.12,19.7,16.16,35.07,16.16,7.64,0,32.63-1.65,33.22-22.92.8-18.41-17.77-21.53-31.33-23.8Z"/>
      <path class="cls-27" d="m420.71,61.89c-13.61,0-25.46,6.04-32.52,16.37v-15.26h-10v112.78h9.84v-47.18c6.87,10.31,17.92,16.13,30.94,16.13,24.4,0,40.79-16.71,40.79-41.57s-15.31-40.37-39.05-41.26Zm28.89,41.26c0,23.4-15.82,31.73-30.63,31.73-17.28,0-30.31-13.57-30.31-31.57s12.75-31.57,30.31-31.57c14.81,0,30.63,8.25,30.63,31.42Z"/>
      <path class="cls-27" d="m571.81,129.45v13.85h10.16V62.99h-10.16v13.96c-6.68-9.41-17.82-14.91-30.63-14.91-23.25,0-40.78,17.67-40.78,41.1s17.53,41.41,40.78,41.41c12.48,0,23.22-5.33,30.63-15.11Zm.67-26.22c0,8.23-2.78,15.89-7.82,21.57-5.67,6.39-13.79,9.76-23.48,9.76-17.75,0-30.63-13.21-30.63-31.42s12.88-31.26,30.63-31.26c21.5,0,31.3,16.24,31.3,31.34Z"/>
      <path class="cls-27" d="m663.56,62.2c-10.67,0-19.6,4.23-24.74,11.52l-.24-10.73h-9.66v80.31h10.16v-46.62c0-13.75,10.76-24.65,24.48-24.8,4.65,0,8.89,1.16,12.61,3.45l1.09.67,4.65-8.45-1-.6c-5.47-3.31-11.33-4.91-17.34-4.75Z"/>
      <polygon class="cls-27" points="729.13 106.69 769.22 143.3 780.68 143.3 780.68 141.08 737.28 100.94 776.11 65.05 776.11 62.99 764.17 62.99 729.13 95.47 729.13 30.52 719.13 30.52 719.13 143.3 729.13 143.3 729.13 106.69"/>
      <path class="cls-27" d="m850.45,61.57c-23.63,0-40.79,17.55-40.79,41.73s16.77,41.1,40.79,41.1,40.78-16.9,40.78-41.1-17.15-41.73-40.78-41.73Zm0,72.83c-18.13,0-30.79-12.79-30.79-31.1s12.95-32.05,30.79-32.05,30.78,13.48,30.78,32.05-12.66,31.1-30.78,31.1Z"/>
      <path class="cls-27" d="m997.62,107.4c0,15.59-10.96,27.01-26.07,27.16-8.25.09-15.13-2.28-19.71-6.82-4.51-4.47-6.8-10.84-6.8-18.92v-45.99h-10.16v46.14c0,21.62,14.28,35.58,36.39,35.58,11.17-.16,20.61-4.64,26.51-12.43v11.17h10V62.83h-10.16v44.57Z"/>
      <path class="cls-27" d="m1100.07,131.29l-1.15.55c-4.08,1.96-8.14,3.03-11.45,3.03-10.98,0-13.13-6.14-13.13-16.75v-46.24h26.48v-8.9h-26.48v-23.62l-10,1.04v22.58h-16.55v8.9h16.55v46.24c0,17.93,7.35,26.28,23.13,26.28,4.58,0,9.55-1.33,15.19-4.06l1.04-.51-3.63-8.54Z"/>
      <g>
        <polygon class="cls-11" points="203.19 85.24 203.19 60.72 101.6 0 0 60.72 0 131.52 81.43 179.65 91.4 161.77 20.49 119.39 20.49 118.74 20.49 85.21 172.46 176.04 101.6 218.4 0 157.62 0 182.17 101.6 242.89 203.19 182.17 203.19 111.34 113.82 57.66 103.58 76.03 182.71 123.32 182.71 157.68 30.73 66.84 101.6 24.49 203.19 85.24"/>
        <g class="cls-9">
          <g>
            <polygon class="cls-11" points="136.7 91.74 125.59 115.64 182.13 101.95 180.85 90.24 136.7 91.74"/>
            <polygon class="cls-11" points="76.79 93.77 101.6 121.44 125.59 115.64 136.7 91.74 76.79 93.77"/>
            <polygon class="cls-11" points="180.85 90.24 238.68 88.27 194.97 39.51 175.04 37.06 180.85 90.24"/>
            <polygon class="cls-11" points="115.62 137.09 125.59 115.64 101.6 121.44 115.62 137.09"/>
            <polygon class="cls-11" points="182.13 101.95 238.68 88.27 180.85 90.24 182.13 101.95"/>
            <polygon class="cls-11" points="76.79 93.77 26.64 95.48 24.52 97.49 33.06 138.03 101.6 121.44 76.79 93.77"/>
            <polygon class="cls-11" points="136.7 91.74 162.81 35.55 97.98 27.57 54.53 68.93 76.79 93.77 136.7 91.74"/>
            <polygon class="cls-11" points="180.85 90.24 175.04 37.06 162.81 35.55 136.7 91.74 180.85 90.24"/>
            <polygon class="cls-11" points="24.12 95.56 24.52 97.49 26.64 95.48 24.12 95.56"/>
            <polygon class="cls-11" points="33.06 138.03 47.2 205.25 81.65 210.17 115.62 137.09 101.6 121.44 33.06 138.03"/>
            <polygon class="cls-11" points="54.53 68.93 26.64 95.48 76.79 93.77 54.53 68.93"/>
            <polygon class="cls-11" points="175.04 37.06 172.58 14.53 162.81 35.55 175.04 37.06"/>
            <polygon class="cls-11" points="194.97 39.51 172.58 14.53 175.04 37.06 194.97 39.51"/>
            <polygon class="cls-11" points="58.65 259.64 195.74 226.47 81.65 210.17 58.65 259.64"/>
            <polygon class="cls-11" points="47.2 205.25 58.65 259.64 81.65 210.17 47.2 205.25"/>
            <polygon class="cls-11" points="4.42 199.13 58.65 259.64 47.2 205.25 4.42 199.13"/>
            <polygon class="cls-11" points="33.06 138.03 -35.49 154.62 4.42 199.13 47.2 205.25 33.06 138.03"/>
            <polygon class="cls-11" points="81.65 210.17 195.74 226.47 115.62 137.09 81.65 210.17"/>
            <polygon class="cls-11" points="182.13 101.95 195.74 226.47 220.78 145.87 238.68 88.27 182.13 101.95"/>
            <polygon class="cls-11" points="125.59 115.64 115.62 137.09 195.74 226.47 182.13 101.95 125.59 115.64"/>
            <polygon class="cls-11" points="144.54 -16.75 7.46 16.42 97.98 27.57 144.54 -16.75"/>
            <polygon class="cls-11" points="97.98 27.57 7.46 16.42 54.53 68.93 97.98 27.57"/>
            <polygon class="cls-11" points="162.81 35.55 172.58 14.53 144.54 -16.75 97.98 27.57 162.81 35.55"/>
            <polygon class="cls-11" points="24.52 97.49 -35.49 154.62 33.06 138.03 24.52 97.49"/>
            <polygon class="cls-11" points="26.64 95.48 54.53 68.93 7.46 16.42 24.12 95.56 26.64 95.48"/>
            <polygon class="cls-11" points="7.46 16.42 -17.58 96.98 24.12 95.56 7.46 16.42"/>
            <polygon class="cls-11" points="24.12 95.56 -17.58 96.98 -35.49 154.62 24.52 97.49 24.12 95.56"/>
          </g>
        </g>
      </g>
      <g>
        <path class="cls-27" d="m507.18,185.13h-9.18v-4.96h23.82v4.96h-9.18v23.98h-5.46v-23.98Z"/>
        <path class="cls-27" d="m551.68,209.11h-21.67v-28.95h21.67v5.29h-16.25v6.66h15.67v5.09h-15.67v6.53h16.25v5.38Z"/>
        <path class="cls-27" d="m586.38,205.47c-2.98,2.94-6.82,4.3-11,4.3-10.75,0-15.3-7.4-15.34-14.93-.04-7.57,4.88-15.26,15.34-15.26,3.93,0,7.65,1.49,10.63,4.42l-3.64,3.51c-1.9-1.86-4.47-2.73-6.99-2.73-6.99,0-10.01,5.21-9.97,10.05.04,4.8,2.81,9.8,9.97,9.8,2.52,0,5.38-1.03,7.28-2.94l3.72,3.76Z"/>
        <path class="cls-27" d="m614.13,209.15v-11.7h-14.22v11.7h-5.46v-28.95h5.46v12.2h14.22v-12.2h5.42v28.95h-5.42Z"/>
        <path class="cls-27" d="m660.82,187.15c-.99-1.65-3.72-3.23-6.86-3.23-4.05,0-6,1.7-6,3.85,0,2.52,2.98,3.23,6.45,3.64,6.04.74,11.66,2.32,11.66,9.22,0,6.45-5.71,9.22-12.16,9.22-5.91,0-10.46-1.82-12.61-7.11l4.55-2.36c1.28,3.18,4.63,4.59,8.15,4.59s6.66-1.2,6.66-4.34c0-2.73-2.85-3.85-6.7-4.26-5.91-.7-11.37-2.27-11.37-8.77,0-5.95,5.87-8.39,11.21-8.44,4.51,0,9.18,1.28,11.37,5.75l-4.34,2.23Z"/>
        <path class="cls-27" d="m703.71,194.8c-.08,7.48-4.67,14.97-14.85,14.97s-14.89-7.32-14.89-14.93,4.88-15.26,14.89-15.26,14.93,7.65,14.85,15.22Zm-24.36.12c.12,4.76,2.69,9.84,9.51,9.84s9.39-5.13,9.47-9.88c.08-4.88-2.65-10.34-9.47-10.34s-9.64,5.5-9.51,10.38Z"/>
        <path class="cls-27" d="m718.14,180.17v23.9h14.89v5.04h-20.35v-28.95h5.46Z"/>
        <path class="cls-27" d="m765.53,180.21v16.58c0,8.56-5.25,12.94-12.53,12.94s-12.86-4.22-12.86-12.94v-16.58h5.42v16.58c0,5.21,2.98,7.98,7.49,7.98s7.07-3.02,7.07-7.98v-16.58h5.42Z"/>
        <path class="cls-27" d="m783.32,185.13h-9.18v-4.96h23.82v4.96h-9.18v23.98h-5.46v-23.98Z"/>
        <path class="cls-27" d="m806.27,209.11v-28.95h5.42v28.95h-5.42Z"/>
        <path class="cls-27" d="m851.1,194.8c-.08,7.48-4.67,14.97-14.85,14.97s-14.89-7.32-14.89-14.93,4.88-15.26,14.89-15.26,14.93,7.65,14.85,15.22Zm-24.36.12c.12,4.76,2.69,9.84,9.51,9.84s9.39-5.13,9.47-9.88c.08-4.88-2.65-10.34-9.47-10.34s-9.64,5.5-9.51,10.38Z"/>
        <path class="cls-27" d="m879.1,180.12h5.46v28.99h-3.39v.04l-15.22-19.56v19.52h-5.46v-28.95h4.43l14.18,17.95v-17.99Z"/>
        <path class="cls-27" d="m912.84,187.15c-.99-1.65-3.72-3.23-6.86-3.23-4.05,0-6,1.7-6,3.85,0,2.52,2.98,3.23,6.45,3.64,6.04.74,11.66,2.32,11.66,9.22,0,6.45-5.71,9.22-12.16,9.22-5.91,0-10.46-1.82-12.61-7.11l4.55-2.36c1.28,3.18,4.63,4.59,8.15,4.59s6.66-1.2,6.66-4.34c0-2.73-2.85-3.85-6.7-4.26-5.91-.7-11.37-2.27-11.37-8.77,0-5.95,5.87-8.39,11.21-8.44,4.51,0,9.18,1.28,11.37,5.75l-4.34,2.23Z"/>
        <path class="cls-27" d="m954.24,200.59h-8.19v8.52h-5.46v-28.95c4.55,0,9.1-.04,13.65-.04,14.14,0,14.18,20.47,0,20.47Zm-8.19-5h8.19c6.99,0,6.95-10.26,0-10.26h-8.19v10.26Z"/>
        <path class="cls-27" d="m990.18,188.68l-8.68,20.51h-5.46l-8.73-20.51h5.5l2.81,6.74,3.14,8.6,3.1-8.52,2.81-6.82h5.5Z"/>
        <path class="cls-27" d="m999.73,182.98v5.79h5.62v4.34h-5.67v8.81c0,1.94,1.08,2.89,2.65,2.89.79,0,1.7-.25,2.44-.62l1.41,4.3c-1.45.58-2.65.83-4.18.87-4.42.17-7.32-2.36-7.32-7.44v-8.81h-3.8v-4.34h3.8v-5.25l5.04-.54Z"/>
        <path class="cls-27" d="m1014.95,206.51c0,3.93-5.95,3.93-5.95,0s5.95-3.93,5.95,0Z"/>
        <path class="cls-27" d="m1037.45,180.17v23.9h14.89v5.04h-20.35v-28.95h5.46Z"/>
        <path class="cls-27" d="m1062.93,182.98v5.79h5.62v4.34h-5.67v8.81c0,1.94,1.08,2.89,2.65,2.89.79,0,1.7-.25,2.44-.62l1.41,4.3c-1.45.58-2.65.83-4.18.87-4.42.17-7.32-2.36-7.32-7.44v-8.81h-3.8v-4.34h3.8v-5.25l5.04-.54Z"/>
        <path class="cls-27" d="m1093.49,180.21v28.91h-4.71l-.33-2.81c-1.57,2.44-4.09,3.27-6.57,3.27-6,0-10.5-3.97-10.5-10.67,0-7.03,4.43-10.67,10.38-10.67,2.15,0,5.5,1.16,6.7,3.27v-11.29h5.05Zm-17.08,18.69c0,3.56,2.56,6,5.79,6s5.91-2.32,5.91-6-2.73-5.95-5.91-5.95-5.79,2.27-5.79,5.95Z"/>
        <path class="cls-27" d="m1103.7,206.51c0,3.93-5.95,3.93-5.95,0s5.95-3.93,5.95,0Z"/>
      </g>
    </g>
  </g>
</svg>