<svg width="33" height="33" viewBox="0 0 33 33" fill="none" xmlns="http://www.w3.org/2000/svg">
<g clip-path="url(#clip0_347_2606)">
<path d="M24.8884 12.7481L24.1432 12.8327L24.8884 12.7481ZM25.4846 18.0013L26.2299 17.9167L25.4846 18.0013ZM7.65338 18.0013L6.90816 17.9167L7.65338 18.0013ZM8.24963 12.7481L8.99485 12.8327L8.24963 12.7481ZM6.49939 20.6104L5.92829 20.1242H5.92829L6.49939 20.6104ZM26.6386 20.6104L26.0675 21.0965L26.6386 20.6104ZM19.5956 6.61299H18.8456C18.8456 6.93358 19.0494 7.21872 19.3527 7.32256L19.5956 6.61299ZM13.5424 6.61299L13.7854 7.32256C14.0887 7.21872 14.2924 6.93358 14.2924 6.61299H13.5424ZM21.2713 27.7105C21.4167 27.3226 21.2201 26.8903 20.8322 26.7449C20.4444 26.5996 20.0121 26.7962 19.8667 27.184L21.2713 27.7105ZM13.2713 27.184C13.1259 26.7962 12.6937 26.5996 12.3058 26.7449C11.9179 26.8903 11.7213 27.3226 11.8667 27.7105L13.2713 27.184ZM24.2719 24.0307H8.8661V25.5307H24.2719V24.0307ZM24.1432 12.8327L24.7394 18.0859L26.2299 17.9167L25.6336 12.6635L24.1432 12.8327ZM8.3986 18.0859L8.99485 12.8327L7.50442 12.6635L6.90816 17.9167L8.3986 18.0859ZM7.07049 21.0965C7.80969 20.2282 8.27354 19.1877 8.3986 18.0859L6.90816 17.9167C6.81845 18.7072 6.48417 19.4712 5.92829 20.1242L7.07049 21.0965ZM24.7394 18.0859C24.8645 19.1877 25.3283 20.2282 26.0675 21.0965L27.2097 20.1242C26.6539 19.4712 26.3196 18.7072 26.2299 17.9167L24.7394 18.0859ZM8.8661 24.0307C7.90631 24.0307 7.20363 23.5535 6.87232 22.9697C6.54842 22.399 6.55591 21.701 7.07049 21.0965L5.92829 20.1242C4.98017 21.238 4.95209 22.6252 5.56776 23.7101C6.17602 24.7819 7.38804 25.5307 8.8661 25.5307V24.0307ZM24.2719 25.5307C25.75 25.5307 26.962 24.7819 27.5703 23.7101C28.1859 22.6252 28.1579 21.238 27.2097 20.1242L26.0675 21.0965C26.5821 21.701 26.5896 22.399 26.2657 22.9697C25.9344 23.5535 25.2317 24.0307 24.2719 24.0307V25.5307ZM20.3456 6.61299V6.47471H18.8456V6.61299H20.3456ZM25.6336 12.6635C25.274 9.49509 22.9203 6.95855 19.8385 5.90343L19.3527 7.32256C21.9839 8.22343 23.8598 10.3359 24.1432 12.8327L25.6336 12.6635ZM14.2924 6.61299V6.47471H12.7924V6.61299H14.2924ZM8.99485 12.8327C9.27824 10.3359 11.1541 8.22343 13.7854 7.32256L13.2995 5.90343C10.2177 6.95855 7.86404 9.49509 7.50442 12.6635L8.99485 12.8327ZM16.569 4.19824C17.8264 4.19824 18.8456 5.21748 18.8456 6.47471H20.3456C20.3456 4.389 18.6547 2.69824 16.569 2.69824V4.19824ZM16.569 2.69824C14.4833 2.69824 12.7924 4.389 12.7924 6.47471H14.2924C14.2924 5.21748 15.3117 4.19824 16.569 4.19824V2.69824ZM19.8667 27.184C19.3984 28.4335 18.1153 29.3638 16.569 29.3638V30.8638C18.7161 30.8638 20.5751 29.5681 21.2713 27.7105L19.8667 27.184ZM16.569 29.3638C15.0227 29.3638 13.7396 28.4335 13.2713 27.184L11.8667 27.7105C12.5629 29.5681 14.4219 30.8638 16.569 30.8638V29.3638Z" fill="#4E1FA3"/>
<path d="M24.5677 13.5315C27.9274 13.5315 30.651 10.808 30.651 7.44835C30.651 4.08871 27.9274 1.36523 24.5677 1.36523C21.208 1.36523 18.4844 4.08871 18.4844 7.44835C18.4844 10.808 21.208 13.5315 24.5677 13.5315Z" fill="#FF4747" stroke="white" stroke-width="1.5"/>
</g>
<defs>
<clipPath id="clip0_347_2606">
<rect width="32" height="31.9987" fill="white" transform="translate(0.5625 0.782227)"/>
</clipPath>
</defs>
</svg>
