<svg width="14" height="14" viewBox="0 0 14 14" fill="none" xmlns="http://www.w3.org/2000/svg">
<path fill-rule="evenodd" clip-rule="evenodd" d="M12.8327 6.99935C12.8327 10.221 10.221 12.8327 6.99935 12.8327C3.77769 12.8327 1.16602 10.221 1.16602 6.99935C1.16602 3.77769 3.77769 1.16602 6.99935 1.16602C10.221 1.16602 12.8327 3.77769 12.8327 6.99935ZM8.95863 8.95859C8.78778 9.12945 8.51077 9.12945 8.33991 8.95859L6.99935 7.61803L5.65879 8.9586C5.48794 9.12945 5.21093 9.12945 5.04007 8.9586C4.86922 8.78774 4.86922 8.51073 5.04007 8.33988L6.38064 6.99931L5.04008 5.65876C4.86923 5.4879 4.86923 5.21089 5.04008 5.04004C5.21094 4.86919 5.48795 4.86919 5.6588 5.04004L6.99935 6.3806L8.3399 5.04005C8.51076 4.86919 8.78777 4.86919 8.95862 5.04005C9.12948 5.2109 9.12948 5.48791 8.95862 5.65876L7.61807 6.99931L8.95863 8.33987C9.12949 8.51073 9.12949 8.78774 8.95863 8.95859Z" fill="#D9D9DE"/>
</svg>
