<svg width="22" height="22" viewBox="0 0 22 22" fill="none" xmlns="http://www.w3.org/2000/svg">
<path d="M1.10645 10.9994C1.10645 11.8461 1.44282 12.6582 2.04157 13.257C2.64032 13.8557 3.45241 14.1921 4.29917 14.1921C5.14593 14.1921 5.95801 13.8557 6.55677 13.257C7.15552 12.6582 7.49189 11.8461 7.49189 10.9994C7.49189 10.1526 7.15552 9.34052 6.55677 8.74177C5.95801 8.14302 5.14593 7.80664 4.29917 7.80664C3.45241 7.80664 2.64032 8.14302 2.04157 8.74177C1.44282 9.34052 1.10645 10.1526 1.10645 10.9994Z" stroke="#4E1FA3" stroke-width="1.5" stroke-linecap="round" stroke-linejoin="round"/>
<path d="M13.877 4.6146C13.877 5.46136 14.2133 6.27344 14.8121 6.87219C15.4108 7.47095 16.2229 7.80732 17.0697 7.80732C17.9164 7.80732 18.7285 7.47095 19.3273 6.87219C19.926 6.27344 20.2624 5.46136 20.2624 4.6146C20.2624 3.76784 19.926 2.95575 19.3273 2.357C18.7285 1.75825 17.9164 1.42188 17.0697 1.42188C16.2229 1.42188 15.4108 1.75825 14.8121 2.357C14.2133 2.95575 13.877 3.76784 13.877 4.6146Z" stroke="#4E1FA3" stroke-width="1.5" stroke-linecap="round" stroke-linejoin="round"/>
<path d="M13.877 17.3861C13.877 18.2328 14.2133 19.0449 14.8121 19.6437C15.4108 20.2424 16.2229 20.5788 17.0697 20.5788C17.9164 20.5788 18.7285 20.2424 19.3273 19.6437C19.926 19.0449 20.2624 18.2328 20.2624 17.3861C20.2624 16.5393 19.926 15.7272 19.3273 15.1285C18.7285 14.5297 17.9164 14.1934 17.0697 14.1934C16.2229 14.1934 15.4108 14.5297 14.8121 15.1285C14.2133 15.7272 13.877 16.5393 13.877 17.3861Z" stroke="#4E1FA3" stroke-width="1.5" stroke-linecap="round" stroke-linejoin="round"/>
<path d="M7.17383 9.61647L14.1978 5.99805" stroke="#4E1FA3" stroke-width="1.5" stroke-linecap="round" stroke-linejoin="round"/>
<path d="M7.17383 12.3828L14.1978 16.0012" stroke="#4E1FA3" stroke-width="1.5" stroke-linecap="round" stroke-linejoin="round"/>
</svg>
