<svg width="163" height="25" viewBox="0 0 163 25" fill="none" xmlns="http://www.w3.org/2000/svg">
<g id="Layer_1" clip-path="url(#clip0_1779_7393)">
<path id="Vector" d="M55.6405 13.0997C54.8005 15.7297 53.9605 18.3597 52.9805 21.4397C50.7105 19.3797 48.3805 20.5297 45.7505 21.8697C45.1805 19.2897 44.7805 17.4397 44.1505 14.5797C42.7105 15.8997 41.4505 16.6897 40.6905 17.8097C37.7305 22.1597 36.4105 22.3497 32.5105 18.3897C31.9505 18.8297 31.3405 19.2897 30.7505 19.7597C28.7705 21.3397 26.6005 22.1397 24.4005 20.4397C22.1005 18.6697 22.1905 16.0697 22.7805 13.5697C23.3405 11.1897 24.5205 9.11973 27.3205 8.99973C28.3705 8.94973 30.0805 9.27973 30.3705 9.92973C30.8205 10.9397 30.7505 12.7497 30.0905 13.5397C28.8905 14.9697 27.0905 15.8997 25.3905 17.1497C26.8605 19.7797 28.8005 19.7597 30.5605 17.8897C31.6205 16.7597 32.0405 15.0197 32.7305 13.5497C33.4205 12.0797 34.1005 10.5997 34.7805 9.11973C35.2205 9.21973 35.6705 9.32973 36.1105 9.42973V18.9097C40.3805 17.7297 40.6405 17.2197 39.0505 14.0897C37.5205 11.0897 37.5305 11.0597 40.8705 7.96973C41.5205 9.98973 42.0805 11.7297 42.9605 14.4897C44.7805 12.1297 46.1805 10.3297 47.5805 8.51973L48.4605 8.90973C48.2205 12.0297 47.9905 15.1597 47.7305 18.5597C52.8905 16.7797 48.7805 9.84973 54.6605 8.54973C54.4905 10.0997 54.2705 11.3497 54.2805 12.5897C54.2805 12.7897 55.2305 12.9897 55.7405 13.1997L55.6605 13.1197L55.6405 13.0997Z" fill="black"/>
<path id="Vector_2" d="M103.642 18.0402C103.492 20.2902 102.222 21.3702 100.042 21.1702C98.5317 21.0402 98.5017 20.7802 97.7717 14.7902C96.0617 16.8302 94.7117 19.4402 92.5617 20.7802C89.7717 22.5202 87.1817 20.8102 85.4317 18.2502C83.9517 19.1502 82.7417 20.0402 81.4017 20.6602C78.1117 22.1902 74.5517 21.6402 72.7317 19.2502C69.8317 15.4402 70.6417 11.3402 72.3817 7.42017C74.0117 3.74017 76.6517 1.09017 81.0417 0.910171C83.0517 0.830171 84.8317 1.34017 85.2717 3.52017C85.6917 5.56017 85.2417 7.42017 82.6517 8.22017C82.5017 7.53017 82.3817 7.10017 82.3217 6.66017C82.1517 5.30017 82.0117 3.94017 81.8517 2.58017C80.2417 3.14017 77.7917 3.23017 77.1717 4.34017C75.6217 7.14017 74.4317 10.3402 73.9917 13.5002C73.6417 16.0002 75.0717 18.4002 77.9917 19.0602C80.7617 19.6902 82.8717 18.4602 84.4117 16.2402C84.9617 15.4402 85.3217 14.4702 85.6117 13.5202C86.6217 10.2302 89.1517 8.30017 92.2317 8.46017C94.0517 8.56017 95.7517 10.8002 97.6617 12.2002C98.3317 11.3102 99.4017 9.86017 100.472 8.42017C100.832 8.54017 101.182 8.66017 101.542 8.78017C101.302 12.0302 101.072 15.2702 100.802 18.9202C102.192 18.5402 102.952 18.3302 103.712 18.1202L103.632 18.0102L103.642 18.0402ZM88.2417 13.4102C88.0117 16.2402 87.9217 18.6802 90.5217 19.2902C92.7417 19.8102 93.6317 18.0702 93.5517 16.0102C91.8517 15.1802 90.2817 14.4102 88.2417 13.4102Z" fill="black"/>
<path id="Vector_3" d="M0.889396 17.8596C2.2194 19.0096 3.6194 20.9196 4.3394 20.6996C5.8194 20.2296 7.7794 18.7996 8.0594 17.4496C8.9394 13.3196 9.1094 9.03957 9.5594 4.80957C5.3494 4.20957 5.5194 7.77957 3.3594 9.75957C2.1594 7.36957 3.0594 5.98957 4.4794 4.89957C6.6894 3.21957 8.9494 1.62957 11.2894 0.169565C11.8194 -0.160435 12.8794 0.0295649 13.4994 0.349565C13.8194 0.509565 14.0094 1.79956 13.7394 2.06956C10.6594 5.18956 12.4794 8.90956 12.9794 12.9396C14.1494 11.3596 15.4694 9.87956 16.4394 8.18956C17.2594 6.76956 17.4794 4.98956 18.3494 3.59956C19.0394 2.49956 20.2894 1.74956 21.2894 0.839565C21.6194 1.12956 21.9594 1.41957 22.2894 1.70957C20.9794 4.07957 19.5794 6.40957 18.3894 8.84957C17.4894 10.6996 15.8694 13.0096 16.3494 14.5496C17.2994 17.5496 18.3994 20.9896 21.9994 22.2996C22.1294 22.3496 22.1994 22.5596 22.4394 22.9096C20.3494 25.0996 18.4894 24.8296 17.0094 22.3296C15.6694 20.0696 14.5994 17.6596 12.9294 14.3796C11.7494 16.3796 11.0094 17.6996 10.2094 18.9796C8.3394 21.9696 5.1094 23.2496 2.0694 22.2396C-0.330604 21.4496 -0.570604 20.3596 0.879396 17.8596H0.889396Z" fill="black"/>
<path id="Vector_4" d="M110.719 17.1503C111.889 13.0903 111.049 8.69027 112.729 4.72027C113.079 3.88027 113.539 3.09027 113.939 2.28027C114.299 2.31027 114.659 2.33027 115.019 2.36027C115.019 3.84027 114.809 5.37027 115.099 6.79027C115.269 7.64027 116.239 8.33027 116.839 9.09027C113.679 11.6803 114.369 15.0003 114.829 18.7603C118.649 16.2803 117.729 12.2903 118.999 9.25027C119.759 9.08027 120.529 8.91027 121.609 8.67027C121.259 12.1103 120.949 15.1803 120.609 18.4803C126.009 16.9803 122.139 10.0503 128.069 8.40027C127.639 12.9203 127.259 16.9703 126.879 21.0403C121.699 20.4503 117.109 19.9103 112.469 21.3203C111.789 19.7403 111.209 18.4003 110.629 17.0703L110.719 17.1503Z" fill="black"/>
<path id="Vector_5" d="M142.702 12.1504C143.032 11.4204 143.192 10.4504 143.752 10.0104C144.442 9.47044 145.672 8.93044 146.312 9.21044C146.962 9.49044 147.502 10.7704 147.502 11.6104C147.512 13.8304 147.212 16.0604 147.032 18.2904C147.402 18.4004 147.782 18.5104 148.152 18.6204C148.842 17.0804 149.452 15.5004 150.242 14.0004C151.002 12.5604 151.652 10.8804 152.842 9.88044C156.062 7.16044 158.532 7.80044 160.892 11.5204C161.392 12.3104 162.092 12.9804 162.702 13.7104C160.112 15.9504 160.452 21.4604 155.362 21.2104C153.582 21.1204 151.852 19.8704 149.992 19.1004C148.682 19.7604 146.952 20.6404 144.462 21.9104C144.462 18.8704 144.412 16.9204 144.482 14.9704C144.532 13.5404 144.542 12.2604 142.672 12.0904L142.722 12.1404L142.702 12.1504ZM152.992 13.2804C152.732 15.7804 152.312 18.4104 155.082 19.2704C157.232 19.9404 158.142 18.1204 158.452 16.1904C156.662 15.2304 155.002 14.3504 152.992 13.2704V13.2804Z" fill="black"/>
<path id="Vector_6" d="M142.65 12.0998C141.57 14.9898 140.5 17.8698 139.29 21.1198C137.65 21.1598 135.87 19.1998 133.62 21.0298C132.27 22.1198 131.08 20.4498 130.96 18.6498C130.81 16.3198 132.5 13.7598 130.15 11.5998C130.03 11.4898 131.06 9.5498 131.86 9.2298C132.38 9.0198 134.14 10.1498 134.18 10.7398C134.33 13.1898 134.03 15.6598 133.86 18.6298C136.84 17.2298 137.11 14.8298 137.42 12.4998C137.74 10.0398 137.84 7.5498 138.29 5.1198C138.69 2.9898 139.48 0.949805 142.04 0.299805C144.59 2.3598 142.86 4.2698 142.1 6.3998C141.42 8.2998 141.4 10.4398 141.08 12.5298C141.76 12.3798 142.24 12.2698 142.71 12.1698L142.66 12.1198L142.65 12.0998Z" fill="black"/>
<path id="Vector_7" d="M55.7189 13.1795C56.0989 12.2795 56.2789 11.1795 56.9189 10.5495C57.6489 9.81953 58.7989 9.50953 59.7589 9.01953C60.1889 9.96953 60.9389 10.9095 60.9989 11.8895C61.1189 13.9795 60.8789 16.0795 60.7789 18.3595C61.8089 18.1295 62.4889 17.9695 63.6789 17.7095C62.8789 18.8795 62.4889 19.8395 61.7789 20.3995C59.6789 22.0695 57.9389 21.3095 57.8289 18.6395C57.7489 16.6895 58.0189 14.7195 58.1589 12.4195C57.1189 12.6995 56.3789 12.8995 55.6289 13.0995L55.7089 13.1795H55.7189Z" fill="black"/>
<path id="Vector_8" d="M110.631 17.0696C108.461 22.4796 107.401 22.6296 103.641 18.0396L103.721 18.1496C105.571 15.2596 104.471 11.0196 108.531 8.05957C108.241 11.9796 108.011 15.0796 107.741 18.6996C109.101 17.9896 109.911 17.5696 110.731 17.1396L110.641 17.0596L110.631 17.0696Z" fill="black"/>
</g>
<defs>
<clipPath id="clip0_1779_7393">
<rect width="162.69" height="24.39" fill="white"/>
</clipPath>
</defs>
</svg>
