<svg xmlns="https://www.w3.org/2000/svg" width="8" height="4.725" viewBox="0 0 8 4.725">
                        <defs>
                           <style>.a{fill:#fff;}</style>
                        </defs>
                        <g transform="translate(0 -100.698)">
                           <g transform="translate(0 100.698)">
                              <path class="a" d="M7.872,101.093l-.262-.264a.439.439,0,0,0-.619,0L4,103.818l-2.993-2.993a.439.439,0,0,0-.619,0l-.262.262a.438.438,0,0,0,0,.619l3.563,3.576a.447.447,0,0,0,.31.14H4a.447.447,0,0,0,.309-.14l3.56-3.566A.442.442,0,0,0,8,101.4.438.438,0,0,0,7.872,101.093Z" transform="translate(0 -100.698)"></path>
                           </g>
                        </g>
                     </svg>
