<svg id="b4b894a7-dca6-46dd-a109-d0f749586153" data-name="Layer 1" xmlns="http://www.w3.org/2000/svg" viewBox="0 0 20 20" stroke="currentColor" class="text-warning"><defs><style>.f4b80c76-0be3-4ff8-939a-7d51a03bc2dc{fill:none;stroke:#ffffff;stroke-linecap:round;stroke-miterlimit:10;}</style></defs><path class="f4b80c76-0be3-4ff8-939a-7d51a03bc2dc" d="M6.648,6.04493,7.76386,4.604a.30592.30592,0,0,1,.288-.11507,12.25312,12.25312,0,0,0,3.89376.00773.30552.30552,0,0,1,.29563.114L13.352,6.045a.30612.30612,0,0,1,.06408.18741V9.01418a3.4152,3.4152,0,0,1-3.41519,3.41519h0a3.4152,3.4152,0,0,1-3.4152-3.41519L6.58394,6.23253A.30609.30609,0,0,1,6.648,6.04493Z"/><path class="f4b80c76-0be3-4ff8-939a-7d51a03bc2dc" d="M6.58388,6.12776h-.831A1.44323,1.44323,0,0,0,4.30963,7.571h0A1.44322,1.44322,0,0,0,5.75285,9.01421h.831"/><path class="f4b80c76-0be3-4ff8-939a-7d51a03bc2dc" d="M13.41514,6.12776h.831A1.44323,1.44323,0,0,1,15.68939,7.571h0a1.44322,1.44322,0,0,1-1.44322,1.44322h-.831"/><path class="f4b80c76-0be3-4ff8-939a-7d51a03bc2dc" d="M14.55226,6.12776v-.68A4.5523,4.5523,0,0,0,10,.89543h0A4.55229,4.55229,0,0,0,5.4477,5.44772v.68"/><line class="f4b80c76-0be3-4ff8-939a-7d51a03bc2dc" x1="6.73038" y1="10" x2="9.42858" y2="10"/><path class="f4b80c76-0be3-4ff8-939a-7d51a03bc2dc" d="M11.68512,11.98585,11.996,13.3455a.30608.30608,0,0,0,.20915.22457l4.25338,1.29645a2.38129,2.38129,0,0,1,1.577,1.562c.24554.77889.55033,1.74582.71811,2.27809a.306.306,0,0,1-.292.398H1.5383a.30609.30609,0,0,1-.29193-.39812l.718-2.27779a2.38152,2.38152,0,0,1,1.577-1.5621l4.25345-1.29645a.30608.30608,0,0,0,.20915-.22458L8.315,11.985"/><line class="f4b80c76-0be3-4ff8-939a-7d51a03bc2dc" x1="7.96449" y1="13.51837" x2="9.99998" y2="15.60486"/><path class="f4b80c76-0be3-4ff8-939a-7d51a03bc2dc" d="M10,15.60486l2.06481,1.03239a.3061.3061,0,0,0,.40787-.13143l1.29249-2.46026"/><path class="f4b80c76-0be3-4ff8-939a-7d51a03bc2dc" d="M10,15.60486,7.93517,16.63725a.3061.3061,0,0,1-.40787-.13143L6.23481,14.04556"/><line class="f4b80c76-0be3-4ff8-939a-7d51a03bc2dc" x1="9.99998" y1="15.60486" x2="12.03547" y2="13.51837"/><line class="f4b80c76-0be3-4ff8-939a-7d51a03bc2dc" x1="4.81279" y1="16.77142" x2="4.81279" y2="19.10457"/><line class="f4b80c76-0be3-4ff8-939a-7d51a03bc2dc" x1="15.18716" y1="16.77142" x2="15.18716" y2="19.10457"/></svg>