<svg xmlns="http://www.w3.org/2000/svg" width="37.773" height="37.773" viewBox="0 0 37.773 37.773">
  <g id="editing" transform="translate(0 0)">
    <g id="Group_1306" data-name="Group 1306" transform="translate(0 6.049)">
      <path id="Path_1336" data-name="Path 1336" d="M21.583,99.966a3.339,3.339,0,0,1-1.3.8l-4.7,1.565a3.312,3.312,0,0,1-1.05.17h0a3.32,3.32,0,0,1-3.15-4.37l1.565-4.695a3.335,3.335,0,0,1,.8-1.3L23.9,82H4.058A4.062,4.062,0,0,0,0,86.058v23.608a4.062,4.062,0,0,0,4.058,4.058H27.666a4.062,4.062,0,0,0,4.058-4.058V89.825Z" transform="translate(0 -82)" fill="#ac7046"/>
    </g>
    <path id="Path_1337" data-name="Path 1337" d="M183.975,67.109a1.106,1.106,0,0,0-.267.433l-1.565,4.7a1.107,1.107,0,0,0,1.4,1.4l4.7-1.565a1.106,1.106,0,0,0,.433-.267L202.494,57.98l-4.7-4.7Z" transform="translate(-168.652 -49.354)" fill="#ac7046"/>
    <path id="Path_1338" data-name="Path 1338" d="M420.723.54a1.844,1.844,0,0,0-2.608,0l-1.826,1.826,4.7,4.7,1.826-1.826a1.844,1.844,0,0,0,0-2.608Z" transform="translate(-385.577)" fill="#ac7046"/>
  </g>
</svg>
