<svg xmlns="http://www.w3.org/2000/svg" width="43.895" height="37.769" viewBox="0 0 43.895 37.769">
  <g id="Icon" transform="translate(-1.25 -2.75)">
    <path id="Path_1333" data-name="Path 1333" d="M45.145,8.364A5.611,5.611,0,0,0,39.53,2.75H6.864A5.611,5.611,0,0,0,1.25,8.364V28.78a5.614,5.614,0,0,0,5.614,5.614H15.8l6.368,5.731a1.531,1.531,0,0,0,2.05,0l6.368-5.731h8.94a5.614,5.614,0,0,0,5.614-5.614Zm-16.333,8V14.491a5.614,5.614,0,1,0-11.229,0v1.874a3.573,3.573,0,0,0-2.042,3.228v5.1a3.573,3.573,0,0,0,3.573,3.573H27.28A3.573,3.573,0,0,0,30.853,24.7v-5.1A3.573,3.573,0,0,0,28.812,16.365ZM23.2,11.939a2.551,2.551,0,0,1,2.552,2.552V16.02h-5.1V14.491A2.551,2.551,0,0,1,23.2,11.939Z" transform="translate(0 0)" fill="#e6dad3" fill-rule="evenodd"/>
  </g>
</svg>
