<svg xmlns="http://www.w3.org/2000/svg" width="41" height="46.815" viewBox="0 0 41 46.815">
  <path id="nft_1_" data-name="nft (1)" d="M28.905,21.629,22.6,29.32l4.448,4.7a1.686,1.686,0,0,1-.067,2.374,1.7,1.7,0,0,1-1.154.451,1.684,1.684,0,0,1-1.221-.518l-8.427-8.9L5.713,38.383,23.4,48.6a1.644,1.644,0,0,0,.836.217,1.688,1.688,0,0,0,.836-.217L42.683,38.433Zm15-8.544L25.076,2.216a1.746,1.746,0,0,0-1.672,0L4.576,13.084a1.678,1.678,0,0,0-.836,1.455V35.608L14.96,23.869a1.737,1.737,0,0,1,2.458,0L20.294,26.9l7.257-8.862a1.668,1.668,0,0,1,2.692-.017l14.5,17.658V14.539a1.678,1.678,0,0,0-.836-1.455ZM18.237,22.331a5.016,5.016,0,1,1,5.016-5.016A5.02,5.02,0,0,1,18.237,22.331Z" transform="translate(-3.74 -2.002)" fill="#ac7046"/>
</svg>
