<svg xmlns="http://www.w3.org/2000/svg" width="30.75" height="41" viewBox="0 0 30.75 41">
  <path id="padlock" d="M29.906,15.375H28.625V10.25a10.25,10.25,0,1,0-20.5,0v5.125H6.844A3.848,3.848,0,0,0,3,19.219V37.156A3.848,3.848,0,0,0,6.844,41H29.906a3.848,3.848,0,0,0,3.844-3.844V19.219A3.848,3.848,0,0,0,29.906,15.375ZM11.542,10.25a6.833,6.833,0,1,1,13.667,0v5.125H11.542Zm8.542,18.317v3.892a1.708,1.708,0,1,1-3.417,0V28.567a3.417,3.417,0,1,1,3.417,0Z" transform="translate(-3)" fill="#e6dad3"/>
</svg>
