<svg xmlns="http://www.w3.org/2000/svg" width="43" height="43.063" viewBox="0 0 43 43.063">
  <g id="space-rocket-launch" transform="translate(-0.243 0)">
    <g id="Layer_5_87_" transform="translate(0.243 0)">
      <g id="Group_1305" data-name="Group 1305" transform="translate(0 0)">
        <path id="Path_1334" data-name="Path 1334" d="M40.034,208.429c-.658-.658-.906-.327-1.052-.181-3.789,3.789-7.153,12.932-5.375,12.039,6.474-3.251,7.553-2.283,11.342-6.072.146-.146.483-.388-.194-1.065Z" transform="translate(-28.864 -181.114)" fill="#ac7046"/>
        <path id="Path_1335" data-name="Path 1335" d="M31.84,27.264a.879.879,0,0,1,.339-.973c8.363-9.029,13.678-21.058,9.739-25C38-2.625,26.342,2.846,17.316,11.148a1.214,1.214,0,0,1-1.16.344l-2.812-.67a2.911,2.911,0,0,0-2.452.694L.573,21.836c-.568.568-.383,1.134.41,1.259l7.464,1.173a3.234,3.234,0,0,0,2.474-.805.534.534,0,0,1,.772,0L19.826,31.6a.54.54,0,0,1,.017.789,3.234,3.234,0,0,0-.805,2.474l1.173,7.463c.125.793.691.978,1.259.41L31.789,32.414a2.91,2.91,0,0,0,.694-2.451ZM29.53,13.932a4.475,4.475,0,1,1,6.329,0A4.475,4.475,0,0,1,29.53,13.932Z" transform="translate(-0.243 0)" fill="#ac7046"/>
      </g>
    </g>
  </g>
</svg>
