<svg width="17" height="17" viewBox="0 0 17 17" fill="none" xmlns="http://www.w3.org/2000/svg">
<g clip-path="url(#clip0_1761_1378)">
<path d="M5.66666 5.66666V4.24999C5.66666 2.68518 6.93518 1.41666 8.49999 1.41666L12.75 1.41666C14.3148 1.41666 15.5833 2.68518 15.5833 4.24999V8.49999C15.5833 10.0648 14.3148 11.3333 12.75 11.3333H11.3333M5.66666 5.66666H4.24999C2.68518 5.66666 1.41666 6.93518 1.41666 8.49999V12.75C1.41666 14.3148 2.68518 15.5833 4.24999 15.5833H8.49999C10.0648 15.5833 11.3333 14.3148 11.3333 12.75V11.3333M5.66666 5.66666H8.49999C10.0648 5.66666 11.3333 6.93518 11.3333 8.49999V11.3333" stroke="#9CA3AF" stroke-linejoin="round"/>
</g>
<defs>
<clipPath id="clip0_1761_1378">
<rect width="17" height="17" fill="white"/>
</clipPath>
</defs>
</svg>
