<svg xmlns="http://www.w3.org/2000/svg" xmlns:xlink="http://www.w3.org/1999/xlink" width="24.669" height="24.669" viewBox="0 0 24.669 24.669">
  <defs>
    <clipPath id="clip-path">
      <rect id="Rectangle_23" data-name="Rectangle 23" width="24.669" height="24.669" fill="#fff"/>
    </clipPath>
  </defs>
  <g id="Group_1277" data-name="Group 1277" clip-path="url(#clip-path)">
    <path id="Path_1305" data-name="Path 1305" d="M13.334,80.222c3.293,0,3.683.012,4.983.072a6.761,6.761,0,0,1,2.29.426,4.077,4.077,0,0,1,2.339,2.339,6.85,6.85,0,0,1,.426,2.29c.06,1.3.072,1.69.072,4.983s-.012,3.683-.072,4.983a6.76,6.76,0,0,1-.426,2.29,4.077,4.077,0,0,1-2.339,2.339,6.861,6.861,0,0,1-2.29.426c-1.3.06-1.69.072-4.983.072s-3.683-.012-4.983-.072a6.76,6.76,0,0,1-2.29-.426,3.819,3.819,0,0,1-1.418-.922,3.82,3.82,0,0,1-.922-1.418,6.851,6.851,0,0,1-.426-2.29c-.06-1.3-.072-1.691-.072-4.983s.012-3.683.072-4.983a6.806,6.806,0,0,1,.426-2.29,3.82,3.82,0,0,1,.922-1.418,3.819,3.819,0,0,1,1.418-.922,6.85,6.85,0,0,1,2.29-.426C9.651,80.234,10.041,80.222,13.334,80.222Zm0-2.222c-3.349,0-3.77.014-5.085.074a9.068,9.068,0,0,0-2.994.573A6.042,6.042,0,0,0,3.07,80.07a6.042,6.042,0,0,0-1.423,2.185,9.069,9.069,0,0,0-.573,2.994C1.014,86.565,1,86.985,1,90.334s.014,3.77.074,5.085a9.069,9.069,0,0,0,.573,2.994A6.042,6.042,0,0,0,3.07,100.6a6.042,6.042,0,0,0,2.185,1.423,9.067,9.067,0,0,0,2.994.573c1.316.06,1.736.074,5.085.074s3.77-.014,5.085-.074a9.068,9.068,0,0,0,2.994-.573,6.312,6.312,0,0,0,3.608-3.608,9.068,9.068,0,0,0,.573-2.994c.06-1.316.074-1.736.074-5.085s-.014-3.77-.074-5.085a9.068,9.068,0,0,0-.573-2.994,6.312,6.312,0,0,0-3.608-3.608,9.068,9.068,0,0,0-2.994-.573C17.1,78.014,16.683,78,13.334,78" transform="translate(-1 -78)" fill="#e7d3c6"/>
    <path id="Path_1306" data-name="Path 1306" d="M11.469,82.135A6.334,6.334,0,1,0,17.8,88.469,6.334,6.334,0,0,0,11.469,82.135Zm0,10.445a4.111,4.111,0,1,1,4.111-4.111A4.111,4.111,0,0,1,11.469,92.58Z" transform="translate(0.865 -76.135)" fill="#e7d3c6"/>
    <path id="Path_1307" data-name="Path 1307" d="M15.977,82.423A1.48,1.48,0,1,1,14.5,80.943,1.481,1.481,0,0,1,15.977,82.423Z" transform="translate(4.421 -76.672)" fill="#e7d3c6"/>
  </g>
</svg>
