<svg xmlns="http://www.w3.org/2000/svg" xmlns:xlink="http://www.w3.org/1999/xlink" width="21.766" height="23.217" viewBox="0 0 21.766 23.217">
  <defs>
    <clipPath id="clip-path">
      <rect id="Rectangle_22" data-name="Rectangle 22" width="21.766" height="23.217" fill="#fff"/>
    </clipPath>
  </defs>
  <g id="Group_1276" data-name="Group 1276" clip-path="url(#clip-path)">
    <path id="Path_1302" data-name="Path 1302" d="M6.792,41.333H2.3V56.812H6.792Z" transform="translate(-1.866 -33.594)" fill="#e7d3c6"/>
    <path id="Path_1303" data-name="Path 1303" d="M4.657,41.713a2.864,2.864,0,0,0,0-5.713,2.864,2.864,0,0,0,0,5.713Z" transform="translate(-2 -36)" fill="#e7d3c6"/>
    <path id="Path_1304" data-name="Path 1304" d="M11.684,48.834c0-2.176.94-3.471,2.738-3.471,1.653,0,2.446,1.244,2.446,3.471v8.125h4.473v-9.8c0-4.145-2.2-6.152-5.281-6.152a5.048,5.048,0,0,0-4.374,2.558V41.48H7.376V56.959h4.31V48.834Z" transform="translate(0.425 -33.741)" fill="#e7d3c6"/>
  </g>
</svg>
