<svg xmlns="http://www.w3.org/2000/svg" xmlns:xlink="http://www.w3.org/1999/xlink" width="26.12" height="23.217" viewBox="0 0 26.12 23.217">
  <defs>
    <clipPath id="clip-path">
      <rect id="Rectangle_24" data-name="Rectangle 24" width="26.12" height="23.217" fill="#fff"/>
    </clipPath>
  </defs>
  <g id="Group_1278" data-name="Group 1278" clip-path="url(#clip-path)">
    <path id="Path_1308" data-name="Path 1308" d="M4.727,128.814l2.306,7.145a.744.744,0,0,0,1.189.348l6.888-5.758s-7.319-2.893-7.319-2.734a23.023,23.023,0,0,1-3.062,1Z" transform="translate(2.132 -115.026)" fill="rgba(231,211,198,0.51)"/>
    <path id="Path_1309" data-name="Path 1309" d="M25.031,119.058c-4.5,1.8-19.015,7.827-24.51,10.108a.855.855,0,0,0,.065,1.6l6.274,2.024,2.3,7.122a.763.763,0,0,0,.586.521c.211.041.523-5.767.523-5.767s6.6,4.954,9.725,7.295a1.3,1.3,0,0,0,2.054-.811c.932-4.865,3.261-17.027,4.059-21.186a.8.8,0,0,0-1.074-.9Z" transform="translate(0 -119)" fill="#e7d3c6"/>
    <path id="Path_1310" data-name="Path 1310" d="M7.611,138.814c.211.041.523-5.767.523-5.767l10.837-10.31a.085.085,0,0,0-.1-.135L4.727,131.169l2.3,7.123A.766.766,0,0,0,7.611,138.814Z" transform="translate(2.132 -117.381)" fill="rgba(100,92,73,0.21)"/>
  </g>
</svg>
