<svg xmlns="http://www.w3.org/2000/svg" xmlns:xlink="http://www.w3.org/1999/xlink" width="24.669" height="20.315" viewBox="0 0 24.669 20.315">
  <defs>
    <clipPath id="clip-path">
      <rect id="Rectangle_21" data-name="Rectangle 21" width="24.669" height="20.315" fill="#fff"/>
    </clipPath>
  </defs>
  <g id="Group_1275" data-name="Group 1275" clip-path="url(#clip-path)">
    <path id="Path_1301" data-name="Path 1301" d="M1,18.01a14.185,14.185,0,0,0,7.758,2.3c9.4,0,14.705-8.043,14.386-15.255A10.36,10.36,0,0,0,25.669,2.4a10.039,10.039,0,0,1-2.906.807A5.134,5.134,0,0,0,24.987.372a10.011,10.011,0,0,1-3.213,1.244A5.035,5.035,0,0,0,18.079,0a5.118,5.118,0,0,0-4.93,6.3A14.307,14.307,0,0,1,2.718.937,5.174,5.174,0,0,0,4.285,7.785a5,5,0,0,1-2.293-.641,5.122,5.122,0,0,0,4.059,5.094,4.992,4.992,0,0,1-2.284.087,5.074,5.074,0,0,0,4.728,3.563A10.079,10.079,0,0,1,1,18.011Z" transform="translate(-1)" fill="#e7d3c6"/>
  </g>
</svg>
