<svg xmlns="http://www.w3.org/2000/svg" width="548.784" height="574.367" viewBox="0 0 548.784 574.367">
  <path id="Path_1418" data-name="Path 1418" d="M788.7,858.431a3.995,3.995,0,1,1,5.54.9c-.382.125-.715.4-1.1.527a3.886,3.886,0,0,1-4.443-1.426ZM625.268,913.94a4.032,4.032,0,0,1-.175-8.061,4.028,4.028,0,0,1,1.372,7.839s-.789.174-1.2.222ZM455.947,861.1a4.006,4.006,0,0,1-.827-5.649,3.932,3.932,0,0,1,5.577-.805,3.978,3.978,0,0,1,.879,5.548,3.733,3.733,0,0,1-1.969,1.488,4.2,4.2,0,0,1-3.66-.582ZM893.366,717.994a4.074,4.074,0,0,1-2.586-5.075,4.03,4.03,0,0,1,7.667,2.488,4.079,4.079,0,0,1-2.561,2.527,4.266,4.266,0,0,1-2.52.06Zm-540.484-1.615a4.1,4.1,0,0,1,2.553-5.145,4.032,4.032,0,0,1,5.071,2.574,4.087,4.087,0,0,1-2.476,5.12A4.157,4.157,0,0,1,352.882,716.379Zm537.7-176.073-.174-.535-.175-.535a4.024,4.024,0,0,1,7.625-2.571l.2.611.175.535a4.023,4.023,0,0,1-7.65,2.5Zm-537.9,3.461a4.079,4.079,0,0,1-2.663-5.051,4.04,4.04,0,0,1,7.719,2.387,4.09,4.09,0,0,1-5.056,2.664ZM788.076,400.139a4,4,0,0,1-.981-5.6,4.071,4.071,0,0,1,5.629-.906,3.989,3.989,0,0,1,.98,5.6,3.805,3.805,0,0,1-2.045,1.513,3.939,3.939,0,0,1-3.583-.607Zm-333.989,1.213a4.008,4.008,0,1,1,5.565.975,8.659,8.659,0,0,1-1.1.527,3.958,3.958,0,0,1-4.468-1.5Zm169.5-53.768a4.026,4.026,0,0,1-4.019-4.016,3.912,3.912,0,0,1,3.945-3.993,4,4,0,0,1,4.095,3.992,4.059,4.059,0,0,1-2.824,3.8A3.126,3.126,0,0,1,623.587,347.584Z" transform="translate(-349.851 -339.573)" fill="#e7d3c6"/>
</svg>
