<svg xmlns="http://www.w3.org/2000/svg" width="45.531" height="38.684" viewBox="0 0 45.531 38.684">
  <g id="tractor" transform="translate(0 0)">
    <path id="Path_1339" data-name="Path 1339" d="M10.671,195a10.671,10.671,0,1,0,10.671,10.671A10.671,10.671,0,0,0,10.671,195Zm0,14.673a4,4,0,1,1,4-4A4.006,4.006,0,0,1,10.671,209.673Zm0,0" transform="translate(0 -177.659)" fill="#ac7046"/>
    <path id="Path_1340" data-name="Path 1340" d="M106.334,300a1.334,1.334,0,1,0,1.334,1.334A1.336,1.336,0,0,0,106.334,300Zm0,0" transform="translate(-95.663 -273.321)" fill="#ac7046"/>
    <path id="Path_1341" data-name="Path 1341" d="M364.668,49A1.336,1.336,0,0,1,366,47.668V45a4.006,4.006,0,0,0-4,4v4h2.668Zm0,0" transform="translate(-329.808 -40.998)" fill="#ac7046"/>
    <path id="Path_1342" data-name="Path 1342" d="M33.253,148.339a10.662,10.662,0,0,1,14.575-3.9V143a5.342,5.342,0,0,0-5.336-5.336H24.474a15.992,15.992,0,0,0-19.025.991l1.7,2.057a13.341,13.341,0,0,1,21.559,7.623Zm0,0" transform="translate(-4.965 -122.994)" fill="#ac7046"/>
    <path id="Path_1343" data-name="Path 1343" d="M273.183,315H270v4h2.929a10.712,10.712,0,0,1,.254-4Zm0,0" transform="translate(-245.99 -286.987)" fill="#ac7046"/>
    <path id="Path_1344" data-name="Path 1344" d="M340,255a8,8,0,1,0,8,8A8,8,0,0,0,340,255Zm0,9.337A1.334,1.334,0,1,1,341.337,263,1.334,1.334,0,0,1,340,264.337Zm0,0" transform="translate(-302.476 -232.323)" fill="#ac7046"/>
    <path id="Path_1345" data-name="Path 1345" d="M47.667,9.773a18.635,18.635,0,0,1,13.612,2.233h5.2L64.025,2.668h2.318V0H45V2.668h2.668Zm0,0" transform="translate(-40.998)" fill="#ac7046"/>
  </g>
</svg>
